M48
; DRILL file {KiCad 9.0.6-9.0.6~ubuntu24.04.1} date 2025-11-14T05:25:19+0900
; FORMAT={-:-/ absolute / metric / decimal}
; #@! TF.CreationDate,2025-11-14T05:25:19+09:00
; #@! TF.GenerationSoftware,Kicad,Pcbnew,9.0.6-9.0.6~ubuntu24.04.1
; #@! TF.FileFunction,Plated,1,2,PTH
FMAT,2
METRIC
; #@! TA.AperFunction,Plated,PTH,ViaDrill
T1C0.300
; #@! TA.AperFunction,Plated,PTH,ViaDrill
T2C0.600
; #@! TA.AperFunction,Plated,PTH,ComponentDrill
T3C1.000
; #@! TA.AperFunction,Plated,PTH,ComponentDrill
T4C3.200
%
G90
G05
T1
X24.5Y-28.5
X42.0Y-35.0
X59.5Y-35.0
X77.0Y-35.0
X94.5Y-35.0
X96.5Y-56.0
X97.5Y-56.0
X99.5Y-56.0
X100.5Y-56.0
X102.5Y-56.0
X112.0Y-35.0
X112.5Y-56.0
X114.5Y-56.0
X115.5Y-56.0
X117.5Y-56.0
X118.5Y-56.0
X129.5Y-35.0
X147.0Y-35.0
X164.5Y-35.0
X182.0Y-35.0
T2
X2.5Y-12.5
X2.5Y-15.0
X2.5Y-17.5
X2.5Y-20.0
X2.5Y-22.5
X2.5Y-25.0
X2.5Y-27.5
X2.5Y-30.0
X2.5Y-32.5
X2.5Y-35.0
X2.5Y-37.5
X2.5Y-40.0
X2.5Y-42.5
X2.5Y-45.0
X2.5Y-47.5
X2.5Y-50.0
X2.5Y-52.5
X2.5Y-55.0
X2.5Y-57.5
X5.0Y-12.5
X5.0Y-15.0
X5.0Y-55.0
X5.0Y-57.5
X7.5Y-12.5
X7.5Y-15.0
X7.5Y-55.0
X7.5Y-57.5
X10.0Y-12.5
X10.0Y-15.0
X10.0Y-55.0
X10.0Y-57.5
X12.5Y-2.5
X12.5Y-5.0
X12.5Y-7.5
X12.5Y-10.0
X12.5Y-12.5
X12.5Y-57.5
X12.5Y-60.0
X12.5Y-62.5
X12.5Y-65.0
X12.5Y-67.5
X15.0Y-2.5
X15.0Y-5.0
X15.0Y-7.5
X15.0Y-10.0
X15.0Y-50.0
X15.0Y-60.0
X15.0Y-62.5
X15.0Y-65.0
X15.0Y-67.5
X17.5Y-2.5
X17.5Y-5.0
X17.5Y-7.5
X17.5Y-52.5
X17.5Y-62.5
X17.5Y-65.0
X17.5Y-67.5
X20.0Y-2.5
X20.0Y-5.0
X20.0Y-55.0
X20.0Y-65.0
X20.0Y-67.5
X22.5Y-2.5
X22.5Y-57.5
X22.5Y-67.5
X25.0Y-2.5
X25.0Y-60.0
X25.0Y-67.5
X27.5Y-2.5
X27.5Y-27.5
X27.5Y-30.0
X27.5Y-32.5
X27.5Y-35.0
X27.5Y-37.5
X27.5Y-62.5
X27.5Y-67.5
X30.0Y-2.5
X30.0Y-27.5
X30.0Y-30.0
X30.0Y-32.5
X30.0Y-35.0
X30.0Y-37.5
X30.0Y-40.0
X30.0Y-62.5
X30.0Y-67.5
X32.5Y-2.5
X32.5Y-62.5
X32.5Y-67.5
X35.0Y-2.5
X35.0Y-62.5
X35.0Y-67.5
X35.5Y-33.1
X37.0Y-34.4
X37.5Y-2.5
X37.5Y-62.5
X37.5Y-67.5
X40.0Y-2.5
X40.0Y-62.5
X40.0Y-67.5
X42.5Y-2.5
X42.5Y-30.0
X42.5Y-32.5
X42.5Y-37.5
X42.5Y-40.0
X42.5Y-42.5
X42.5Y-62.5
X42.5Y-67.5
X45.0Y-2.5
X45.0Y-27.5
X45.0Y-30.0
X45.0Y-32.5
X45.0Y-62.5
X45.0Y-67.5
X47.5Y-2.5
X47.5Y-27.5
X47.5Y-30.0
X47.5Y-32.5
X47.5Y-35.0
X47.5Y-37.5
X47.5Y-40.0
X47.5Y-42.5
X47.5Y-62.5
X47.5Y-67.5
X50.0Y-2.5
X50.0Y-62.5
X50.0Y-67.5
X52.5Y-2.5
X52.5Y-62.5
X52.5Y-67.5
X52.8Y-33.7
X54.0Y-42.0
X54.0Y-45.0
X54.7Y-33.7
X55.0Y-2.5
X55.0Y-62.5
X55.0Y-67.5
X57.5Y-2.5
X57.5Y-62.5
X57.5Y-67.5
X59.5Y-30.0
X59.5Y-32.5
X59.5Y-37.5
X59.5Y-40.0
X60.0Y-2.5
X60.0Y-62.5
X60.0Y-67.5
X62.5Y-2.5
X62.5Y-27.5
X62.5Y-30.0
X62.5Y-32.5
X62.5Y-62.5
X62.5Y-67.5
X65.0Y-2.5
X65.0Y-27.5
X65.0Y-30.0
X65.0Y-32.5
X65.0Y-35.0
X65.0Y-37.5
X65.0Y-40.0
X65.0Y-42.5
X65.0Y-62.5
X65.0Y-67.5
X67.5Y-2.5
X67.5Y-62.5
X67.5Y-67.5
X70.0Y-2.5
X70.0Y-62.5
X70.0Y-67.5
X70.3Y-33.7
X71.0Y-42.0
X71.0Y-45.0
X72.2Y-33.7
X72.5Y-2.5
X72.5Y-62.5
X72.5Y-67.5
X75.0Y-2.5
X75.0Y-62.5
X75.0Y-67.5
X76.75Y-30.0
X76.75Y-32.5
X76.75Y-37.5
X77.5Y-2.5
X77.5Y-62.5
X77.5Y-67.5
X80.0Y-2.5
X80.0Y-27.5
X80.0Y-30.0
X80.0Y-32.5
X80.0Y-62.5
X80.0Y-67.5
X82.5Y-2.5
X82.5Y-27.5
X82.5Y-30.0
X82.5Y-32.5
X82.5Y-35.0
X82.5Y-37.5
X82.5Y-40.0
X82.5Y-42.5
X82.5Y-62.5
X82.5Y-67.5
X85.0Y-2.5
X85.0Y-62.5
X85.0Y-67.5
X87.5Y-2.5
X87.5Y-62.5
X87.5Y-67.5
X87.8Y-33.7
X89.0Y-42.0
X89.7Y-33.7
X90.0Y-2.5
X90.0Y-62.5
X90.0Y-67.5
X92.5Y-2.5
X92.5Y-62.5
X92.5Y-67.5
X94.25Y-30.0
X94.25Y-32.5
X94.25Y-37.5
X94.25Y-39.75
X95.0Y-2.5
X95.0Y-62.5
X95.0Y-67.5
X97.5Y-2.5
X97.5Y-27.5
X97.5Y-30.0
X97.5Y-32.5
X97.5Y-62.5
X97.5Y-67.5
X100.0Y-2.5
X100.0Y-27.5
X100.0Y-30.0
X100.0Y-32.5
X100.0Y-35.0
X100.0Y-37.5
X100.0Y-40.0
X100.0Y-42.5
X100.0Y-67.5
X102.5Y-2.5
X102.5Y-67.5
X105.0Y-2.5
X105.0Y-67.5
X105.3Y-33.8
X106.0Y-42.0
X106.0Y-45.0
X107.2Y-33.8
X107.5Y-2.5
X107.5Y-67.5
X110.0Y-2.5
X110.0Y-67.5
X111.75Y-30.0
X111.75Y-32.5
X112.5Y-2.5
X112.5Y-67.5
X115.0Y-2.5
X115.0Y-27.5
X115.0Y-30.0
X115.0Y-32.5
X115.0Y-67.5
X117.5Y-2.5
X117.5Y-27.5
X117.5Y-30.0
X117.5Y-32.5
X117.5Y-35.0
X117.5Y-37.5
X117.5Y-40.0
X117.5Y-42.5
X117.5Y-62.5
X117.5Y-67.5
X120.0Y-2.5
X120.0Y-62.5
X120.0Y-67.5
X122.5Y-2.5
X122.5Y-62.5
X122.5Y-67.5
X122.8Y-33.7
X124.0Y-42.0
X124.7Y-33.8
X125.0Y-2.5
X125.0Y-62.5
X125.0Y-67.5
X127.5Y-2.5
X127.5Y-62.5
X127.5Y-67.5
X129.25Y-30.0
X129.25Y-32.5
X130.0Y-2.5
X130.0Y-62.5
X130.0Y-67.5
X132.5Y-2.5
X132.5Y-27.5
X132.5Y-30.0
X132.5Y-32.5
X132.5Y-62.5
X132.5Y-67.5
X135.0Y-2.5
X135.0Y-27.5
X135.0Y-30.0
X135.0Y-32.5
X135.0Y-62.5
X135.0Y-67.5
X137.5Y-2.5
X137.5Y-62.5
X137.5Y-67.5
X140.0Y-2.5
X140.0Y-62.5
X140.0Y-67.5
X140.3Y-33.8
X141.0Y-42.0
X141.0Y-45.0
X142.1Y-33.8
X142.5Y-2.5
X142.5Y-62.5
X142.5Y-67.5
X145.0Y-2.5
X145.0Y-62.5
X145.0Y-67.5
X146.75Y-30.0
X146.75Y-32.5
X147.5Y-2.5
X147.5Y-62.5
X147.5Y-67.5
X150.0Y-2.5
X150.0Y-27.5
X150.0Y-30.0
X150.0Y-32.5
X150.0Y-62.5
X150.0Y-67.5
X152.5Y-2.5
X152.5Y-27.5
X152.5Y-30.0
X152.5Y-32.5
X152.5Y-35.0
X152.5Y-37.5
X152.5Y-40.0
X152.5Y-42.5
X152.5Y-62.5
X152.5Y-67.5
X155.0Y-2.5
X155.0Y-62.5
X155.0Y-67.5
X157.5Y-2.5
X157.5Y-62.5
X157.5Y-67.5
X157.8Y-33.7
X159.0Y-42.0
X159.0Y-45.0
X159.7Y-33.7
X160.0Y-2.5
X160.0Y-62.5
X160.0Y-67.5
X162.5Y-2.5
X162.5Y-62.5
X162.5Y-67.5
X164.25Y-30.0
X164.25Y-32.5
X165.0Y-2.5
X165.0Y-62.5
X165.0Y-67.5
X167.5Y-2.5
X167.5Y-27.5
X167.5Y-30.0
X167.5Y-32.5
X167.5Y-62.5
X167.5Y-67.5
X170.0Y-2.5
X170.0Y-27.5
X170.0Y-30.0
X170.0Y-32.5
X170.0Y-35.0
X170.0Y-37.5
X170.0Y-40.0
X170.0Y-42.5
X170.0Y-62.5
X170.0Y-67.5
X172.5Y-2.5
X172.5Y-62.5
X172.5Y-67.5
X175.0Y-2.5
X175.0Y-62.5
X175.0Y-67.5
X175.3Y-31.1
X175.3Y-33.7
X176.0Y-41.0
X177.2Y-31.2
X177.2Y-33.8
X177.5Y-2.5
X177.5Y-62.5
X177.5Y-67.5
X180.0Y-2.5
X180.0Y-62.5
X180.0Y-67.5
X182.5Y-2.5
X182.5Y-30.0
X182.5Y-32.5
X182.5Y-37.5
X182.5Y-40.0
X182.5Y-42.5
X182.5Y-62.5
X182.5Y-67.5
X185.0Y-2.5
X185.0Y-27.5
X185.0Y-30.0
X185.0Y-32.5
X185.0Y-60.0
X185.0Y-67.5
X187.5Y-2.5
X187.5Y-27.5
X187.5Y-30.0
X187.5Y-32.5
X187.5Y-35.0
X187.5Y-37.5
X187.5Y-40.0
X187.5Y-42.5
X187.5Y-57.5
X187.5Y-67.5
X190.0Y-2.5
X190.0Y-5.0
X190.0Y-55.0
X190.0Y-65.0
X190.0Y-67.5
X192.5Y-2.5
X192.5Y-5.0
X192.5Y-7.5
X192.5Y-52.5
X192.5Y-62.5
X192.5Y-65.0
X192.5Y-67.5
X195.0Y-2.5
X195.0Y-5.0
X195.0Y-7.5
X195.0Y-10.0
X195.0Y-50.0
X195.0Y-60.0
X195.0Y-62.5
X195.0Y-65.0
X195.0Y-67.5
X197.5Y-2.5
X197.5Y-5.0
X197.5Y-7.5
X197.5Y-10.0
X197.5Y-12.5
X197.5Y-57.5
X197.5Y-60.0
X197.5Y-62.5
X197.5Y-65.0
X197.5Y-67.5
X200.0Y-12.5
X200.0Y-15.0
X200.0Y-55.0
X200.0Y-57.5
X202.5Y-12.5
X202.5Y-15.0
X202.5Y-55.0
X202.5Y-57.5
X205.0Y-12.5
X205.0Y-15.0
X205.0Y-55.0
X205.0Y-57.5
X207.5Y-12.5
X207.5Y-15.0
X207.5Y-17.5
X207.5Y-20.0
X207.5Y-22.5
X207.5Y-25.0
X207.5Y-27.5
X207.5Y-30.0
X207.5Y-32.5
X207.5Y-35.0
X207.5Y-37.5
X207.5Y-40.0
X207.5Y-42.5
X207.5Y-45.0
X207.5Y-47.5
X207.5Y-50.0
X207.5Y-52.5
X207.5Y-55.0
X207.5Y-57.5
T3
X5.71Y-18.17
X5.71Y-20.71
X5.71Y-23.25
X5.71Y-25.79
X5.71Y-28.33
X5.71Y-30.87
X5.71Y-33.41
X5.71Y-35.95
X5.71Y-38.49
X5.71Y-41.03
X5.71Y-43.57
X5.71Y-46.11
X5.71Y-48.65
X5.71Y-51.19
X8.25Y-18.17
X8.25Y-20.71
X8.25Y-23.25
X8.25Y-25.79
X8.25Y-28.33
X8.25Y-30.87
X8.25Y-33.41
X8.25Y-35.95
X8.25Y-38.49
X8.25Y-41.03
X8.25Y-43.57
X8.25Y-46.11
X8.25Y-48.65
X8.25Y-51.19
X107.5Y-54.5
X129.0Y-64.9
X140.0Y-65.0
X203.0Y-20.06
X203.0Y-22.6
X203.0Y-25.14
X203.0Y-27.68
X203.0Y-30.22
X203.0Y-32.76
X203.0Y-35.3
X203.0Y-37.84
X203.0Y-40.38
X203.0Y-42.92
X203.0Y-45.46
X203.0Y-48.0
X203.0Y-50.54
T4
X7.0Y-7.0
X7.0Y-63.0
X203.0Y-7.0
X203.0Y-63.0
M30
