%TF.GenerationSoftware,KiCad,Pcbnew,9.0.6-9.0.6~ubuntu24.04.1*%
%TF.CreationDate,2025-11-14T05:25:22+09:00*%
%TF.ProjectId,NCO_board,4e434f5f-626f-4617-9264-2e6b69636164,rev?*%
%TF.SameCoordinates,Original*%
%TF.FileFunction,Legend,Top*%
%TF.FilePolarity,Positive*%
%FSLAX46Y46*%
G04 Gerber Fmt 4.6, Leading zero omitted, Abs format (unit mm)*
G04 Created by KiCad (PCBNEW 9.0.6-9.0.6~ubuntu24.04.1) date 2025-11-14 05:25:22*
%MOMM*%
%LPD*%
G01*
G04 APERTURE LIST*
%ADD10C,0.100000*%
%ADD11C,0.400000*%
%ADD12C,0.375000*%
%ADD13C,0.200000*%
%ADD14C,0.250000*%
%ADD15C,0.260000*%
%ADD16C,0.150000*%
%ADD17C,0.120000*%
%ADD18C,0.000000*%
G04 APERTURE END LIST*
D10*
X106200000Y-50500000D02*
X106700000Y-50500000D01*
X106700000Y-49500000D02*
X107200000Y-49500000D01*
X107700000Y-50500000D02*
X107700000Y-49500000D01*
X107200000Y-50500000D02*
X107700000Y-50500000D01*
X107700000Y-49500000D02*
X108200000Y-49500000D01*
X106700000Y-50500000D02*
X106700000Y-49500000D01*
X107200000Y-49500000D02*
X107200000Y-50500000D01*
X108200000Y-50500000D02*
X108700000Y-50500000D01*
X108200000Y-49500000D02*
X108200000Y-50500000D01*
D11*
X176250000Y-63932803D02*
X173750000Y-66250000D01*
X173750000Y-63750000D02*
X176250000Y-66250000D01*
D12*
X148722900Y-65961261D02*
X148722900Y-63761261D01*
X148722900Y-63761261D02*
X149389567Y-65332690D01*
X149389567Y-65332690D02*
X150056233Y-63761261D01*
X150056233Y-63761261D02*
X150056233Y-65961261D01*
X150818138Y-64494595D02*
X151294328Y-65961261D01*
X151770519Y-64494595D02*
X151294328Y-65961261D01*
X151294328Y-65961261D02*
X151103852Y-66485071D01*
X151103852Y-66485071D02*
X151008614Y-66589833D01*
X151008614Y-66589833D02*
X150818138Y-66694595D01*
X155199091Y-65751738D02*
X155103853Y-65856500D01*
X155103853Y-65856500D02*
X154818139Y-65961261D01*
X154818139Y-65961261D02*
X154627663Y-65961261D01*
X154627663Y-65961261D02*
X154341948Y-65856500D01*
X154341948Y-65856500D02*
X154151472Y-65646976D01*
X154151472Y-65646976D02*
X154056234Y-65437452D01*
X154056234Y-65437452D02*
X153960996Y-65018404D01*
X153960996Y-65018404D02*
X153960996Y-64704119D01*
X153960996Y-64704119D02*
X154056234Y-64285071D01*
X154056234Y-64285071D02*
X154151472Y-64075547D01*
X154151472Y-64075547D02*
X154341948Y-63866023D01*
X154341948Y-63866023D02*
X154627663Y-63761261D01*
X154627663Y-63761261D02*
X154818139Y-63761261D01*
X154818139Y-63761261D02*
X155103853Y-63866023D01*
X155103853Y-63866023D02*
X155199091Y-63970785D01*
X156056234Y-65961261D02*
X156056234Y-63761261D01*
X156913377Y-65961261D02*
X156913377Y-64808880D01*
X156913377Y-64808880D02*
X156818139Y-64599357D01*
X156818139Y-64599357D02*
X156627663Y-64494595D01*
X156627663Y-64494595D02*
X156341948Y-64494595D01*
X156341948Y-64494595D02*
X156151472Y-64599357D01*
X156151472Y-64599357D02*
X156056234Y-64704119D01*
X157865758Y-65961261D02*
X157865758Y-64494595D01*
X157865758Y-63761261D02*
X157770520Y-63866023D01*
X157770520Y-63866023D02*
X157865758Y-63970785D01*
X157865758Y-63970785D02*
X157960996Y-63866023D01*
X157960996Y-63866023D02*
X157865758Y-63761261D01*
X157865758Y-63761261D02*
X157865758Y-63970785D01*
X158818139Y-64494595D02*
X158818139Y-66694595D01*
X158818139Y-64599357D02*
X159008615Y-64494595D01*
X159008615Y-64494595D02*
X159389568Y-64494595D01*
X159389568Y-64494595D02*
X159580044Y-64599357D01*
X159580044Y-64599357D02*
X159675282Y-64704119D01*
X159675282Y-64704119D02*
X159770520Y-64913642D01*
X159770520Y-64913642D02*
X159770520Y-65542214D01*
X159770520Y-65542214D02*
X159675282Y-65751738D01*
X159675282Y-65751738D02*
X159580044Y-65856500D01*
X159580044Y-65856500D02*
X159389568Y-65961261D01*
X159389568Y-65961261D02*
X159008615Y-65961261D01*
X159008615Y-65961261D02*
X158818139Y-65856500D01*
X162056235Y-65856500D02*
X162341949Y-65961261D01*
X162341949Y-65961261D02*
X162818140Y-65961261D01*
X162818140Y-65961261D02*
X163008616Y-65856500D01*
X163008616Y-65856500D02*
X163103854Y-65751738D01*
X163103854Y-65751738D02*
X163199092Y-65542214D01*
X163199092Y-65542214D02*
X163199092Y-65332690D01*
X163199092Y-65332690D02*
X163103854Y-65123166D01*
X163103854Y-65123166D02*
X163008616Y-65018404D01*
X163008616Y-65018404D02*
X162818140Y-64913642D01*
X162818140Y-64913642D02*
X162437187Y-64808880D01*
X162437187Y-64808880D02*
X162246711Y-64704119D01*
X162246711Y-64704119D02*
X162151473Y-64599357D01*
X162151473Y-64599357D02*
X162056235Y-64389833D01*
X162056235Y-64389833D02*
X162056235Y-64180309D01*
X162056235Y-64180309D02*
X162151473Y-63970785D01*
X162151473Y-63970785D02*
X162246711Y-63866023D01*
X162246711Y-63866023D02*
X162437187Y-63761261D01*
X162437187Y-63761261D02*
X162913378Y-63761261D01*
X162913378Y-63761261D02*
X163199092Y-63866023D01*
X164818140Y-65856500D02*
X164627664Y-65961261D01*
X164627664Y-65961261D02*
X164246711Y-65961261D01*
X164246711Y-65961261D02*
X164056235Y-65856500D01*
X164056235Y-65856500D02*
X163960997Y-65646976D01*
X163960997Y-65646976D02*
X163960997Y-64808880D01*
X163960997Y-64808880D02*
X164056235Y-64599357D01*
X164056235Y-64599357D02*
X164246711Y-64494595D01*
X164246711Y-64494595D02*
X164627664Y-64494595D01*
X164627664Y-64494595D02*
X164818140Y-64599357D01*
X164818140Y-64599357D02*
X164913378Y-64808880D01*
X164913378Y-64808880D02*
X164913378Y-65018404D01*
X164913378Y-65018404D02*
X163960997Y-65227928D01*
X165770521Y-65961261D02*
X165770521Y-64494595D01*
X165770521Y-64913642D02*
X165865759Y-64704119D01*
X165865759Y-64704119D02*
X165960997Y-64599357D01*
X165960997Y-64599357D02*
X166151473Y-64494595D01*
X166151473Y-64494595D02*
X166341950Y-64494595D01*
X166818140Y-64494595D02*
X167294330Y-65961261D01*
X167294330Y-65961261D02*
X167770521Y-64494595D01*
X168532426Y-65961261D02*
X168532426Y-64494595D01*
X168532426Y-63761261D02*
X168437188Y-63866023D01*
X168437188Y-63866023D02*
X168532426Y-63970785D01*
X168532426Y-63970785D02*
X168627664Y-63866023D01*
X168627664Y-63866023D02*
X168532426Y-63761261D01*
X168532426Y-63761261D02*
X168532426Y-63970785D01*
X170341950Y-65856500D02*
X170151474Y-65961261D01*
X170151474Y-65961261D02*
X169770521Y-65961261D01*
X169770521Y-65961261D02*
X169580045Y-65856500D01*
X169580045Y-65856500D02*
X169484807Y-65751738D01*
X169484807Y-65751738D02*
X169389569Y-65542214D01*
X169389569Y-65542214D02*
X169389569Y-64913642D01*
X169389569Y-64913642D02*
X169484807Y-64704119D01*
X169484807Y-64704119D02*
X169580045Y-64599357D01*
X169580045Y-64599357D02*
X169770521Y-64494595D01*
X169770521Y-64494595D02*
X170151474Y-64494595D01*
X170151474Y-64494595D02*
X170341950Y-64599357D01*
X171960998Y-65856500D02*
X171770522Y-65961261D01*
X171770522Y-65961261D02*
X171389569Y-65961261D01*
X171389569Y-65961261D02*
X171199093Y-65856500D01*
X171199093Y-65856500D02*
X171103855Y-65646976D01*
X171103855Y-65646976D02*
X171103855Y-64808880D01*
X171103855Y-64808880D02*
X171199093Y-64599357D01*
X171199093Y-64599357D02*
X171389569Y-64494595D01*
X171389569Y-64494595D02*
X171770522Y-64494595D01*
X171770522Y-64494595D02*
X171960998Y-64599357D01*
X171960998Y-64599357D02*
X172056236Y-64808880D01*
X172056236Y-64808880D02*
X172056236Y-65018404D01*
X172056236Y-65018404D02*
X171103855Y-65227928D01*
D10*
X205006265Y-51122419D02*
X205006265Y-50122419D01*
X205006265Y-50122419D02*
X205196741Y-50122419D01*
X205196741Y-50122419D02*
X205311027Y-50170038D01*
X205311027Y-50170038D02*
X205387217Y-50265276D01*
X205387217Y-50265276D02*
X205425312Y-50360514D01*
X205425312Y-50360514D02*
X205463408Y-50550990D01*
X205463408Y-50550990D02*
X205463408Y-50693847D01*
X205463408Y-50693847D02*
X205425312Y-50884323D01*
X205425312Y-50884323D02*
X205387217Y-50979561D01*
X205387217Y-50979561D02*
X205311027Y-51074800D01*
X205311027Y-51074800D02*
X205196741Y-51122419D01*
X205196741Y-51122419D02*
X205006265Y-51122419D01*
X205958646Y-50122419D02*
X206034836Y-50122419D01*
X206034836Y-50122419D02*
X206111027Y-50170038D01*
X206111027Y-50170038D02*
X206149122Y-50217657D01*
X206149122Y-50217657D02*
X206187217Y-50312895D01*
X206187217Y-50312895D02*
X206225312Y-50503371D01*
X206225312Y-50503371D02*
X206225312Y-50741466D01*
X206225312Y-50741466D02*
X206187217Y-50931942D01*
X206187217Y-50931942D02*
X206149122Y-51027180D01*
X206149122Y-51027180D02*
X206111027Y-51074800D01*
X206111027Y-51074800D02*
X206034836Y-51122419D01*
X206034836Y-51122419D02*
X205958646Y-51122419D01*
X205958646Y-51122419D02*
X205882455Y-51074800D01*
X205882455Y-51074800D02*
X205844360Y-51027180D01*
X205844360Y-51027180D02*
X205806265Y-50931942D01*
X205806265Y-50931942D02*
X205768169Y-50741466D01*
X205768169Y-50741466D02*
X205768169Y-50503371D01*
X205768169Y-50503371D02*
X205806265Y-50312895D01*
X205806265Y-50312895D02*
X205844360Y-50217657D01*
X205844360Y-50217657D02*
X205882455Y-50170038D01*
X205882455Y-50170038D02*
X205958646Y-50122419D01*
X205006265Y-48622419D02*
X205006265Y-47622419D01*
X205006265Y-47622419D02*
X205196741Y-47622419D01*
X205196741Y-47622419D02*
X205311027Y-47670038D01*
X205311027Y-47670038D02*
X205387217Y-47765276D01*
X205387217Y-47765276D02*
X205425312Y-47860514D01*
X205425312Y-47860514D02*
X205463408Y-48050990D01*
X205463408Y-48050990D02*
X205463408Y-48193847D01*
X205463408Y-48193847D02*
X205425312Y-48384323D01*
X205425312Y-48384323D02*
X205387217Y-48479561D01*
X205387217Y-48479561D02*
X205311027Y-48574800D01*
X205311027Y-48574800D02*
X205196741Y-48622419D01*
X205196741Y-48622419D02*
X205006265Y-48622419D01*
X206225312Y-48622419D02*
X205768169Y-48622419D01*
X205996741Y-48622419D02*
X205996741Y-47622419D01*
X205996741Y-47622419D02*
X205920550Y-47765276D01*
X205920550Y-47765276D02*
X205844360Y-47860514D01*
X205844360Y-47860514D02*
X205768169Y-47908133D01*
X205006265Y-45872419D02*
X205006265Y-44872419D01*
X205006265Y-44872419D02*
X205196741Y-44872419D01*
X205196741Y-44872419D02*
X205311027Y-44920038D01*
X205311027Y-44920038D02*
X205387217Y-45015276D01*
X205387217Y-45015276D02*
X205425312Y-45110514D01*
X205425312Y-45110514D02*
X205463408Y-45300990D01*
X205463408Y-45300990D02*
X205463408Y-45443847D01*
X205463408Y-45443847D02*
X205425312Y-45634323D01*
X205425312Y-45634323D02*
X205387217Y-45729561D01*
X205387217Y-45729561D02*
X205311027Y-45824800D01*
X205311027Y-45824800D02*
X205196741Y-45872419D01*
X205196741Y-45872419D02*
X205006265Y-45872419D01*
X205768169Y-44967657D02*
X205806265Y-44920038D01*
X205806265Y-44920038D02*
X205882455Y-44872419D01*
X205882455Y-44872419D02*
X206072931Y-44872419D01*
X206072931Y-44872419D02*
X206149122Y-44920038D01*
X206149122Y-44920038D02*
X206187217Y-44967657D01*
X206187217Y-44967657D02*
X206225312Y-45062895D01*
X206225312Y-45062895D02*
X206225312Y-45158133D01*
X206225312Y-45158133D02*
X206187217Y-45300990D01*
X206187217Y-45300990D02*
X205730074Y-45872419D01*
X205730074Y-45872419D02*
X206225312Y-45872419D01*
X205006265Y-43372419D02*
X205006265Y-42372419D01*
X205006265Y-42372419D02*
X205196741Y-42372419D01*
X205196741Y-42372419D02*
X205311027Y-42420038D01*
X205311027Y-42420038D02*
X205387217Y-42515276D01*
X205387217Y-42515276D02*
X205425312Y-42610514D01*
X205425312Y-42610514D02*
X205463408Y-42800990D01*
X205463408Y-42800990D02*
X205463408Y-42943847D01*
X205463408Y-42943847D02*
X205425312Y-43134323D01*
X205425312Y-43134323D02*
X205387217Y-43229561D01*
X205387217Y-43229561D02*
X205311027Y-43324800D01*
X205311027Y-43324800D02*
X205196741Y-43372419D01*
X205196741Y-43372419D02*
X205006265Y-43372419D01*
X205730074Y-42372419D02*
X206225312Y-42372419D01*
X206225312Y-42372419D02*
X205958646Y-42753371D01*
X205958646Y-42753371D02*
X206072931Y-42753371D01*
X206072931Y-42753371D02*
X206149122Y-42800990D01*
X206149122Y-42800990D02*
X206187217Y-42848609D01*
X206187217Y-42848609D02*
X206225312Y-42943847D01*
X206225312Y-42943847D02*
X206225312Y-43181942D01*
X206225312Y-43181942D02*
X206187217Y-43277180D01*
X206187217Y-43277180D02*
X206149122Y-43324800D01*
X206149122Y-43324800D02*
X206072931Y-43372419D01*
X206072931Y-43372419D02*
X205844360Y-43372419D01*
X205844360Y-43372419D02*
X205768169Y-43324800D01*
X205768169Y-43324800D02*
X205730074Y-43277180D01*
X205006265Y-40872419D02*
X205006265Y-39872419D01*
X205006265Y-39872419D02*
X205196741Y-39872419D01*
X205196741Y-39872419D02*
X205311027Y-39920038D01*
X205311027Y-39920038D02*
X205387217Y-40015276D01*
X205387217Y-40015276D02*
X205425312Y-40110514D01*
X205425312Y-40110514D02*
X205463408Y-40300990D01*
X205463408Y-40300990D02*
X205463408Y-40443847D01*
X205463408Y-40443847D02*
X205425312Y-40634323D01*
X205425312Y-40634323D02*
X205387217Y-40729561D01*
X205387217Y-40729561D02*
X205311027Y-40824800D01*
X205311027Y-40824800D02*
X205196741Y-40872419D01*
X205196741Y-40872419D02*
X205006265Y-40872419D01*
X206149122Y-40205752D02*
X206149122Y-40872419D01*
X205958646Y-39824800D02*
X205768169Y-40539085D01*
X205768169Y-40539085D02*
X206263408Y-40539085D01*
X205006265Y-38372419D02*
X205006265Y-37372419D01*
X205006265Y-37372419D02*
X205196741Y-37372419D01*
X205196741Y-37372419D02*
X205311027Y-37420038D01*
X205311027Y-37420038D02*
X205387217Y-37515276D01*
X205387217Y-37515276D02*
X205425312Y-37610514D01*
X205425312Y-37610514D02*
X205463408Y-37800990D01*
X205463408Y-37800990D02*
X205463408Y-37943847D01*
X205463408Y-37943847D02*
X205425312Y-38134323D01*
X205425312Y-38134323D02*
X205387217Y-38229561D01*
X205387217Y-38229561D02*
X205311027Y-38324800D01*
X205311027Y-38324800D02*
X205196741Y-38372419D01*
X205196741Y-38372419D02*
X205006265Y-38372419D01*
X206187217Y-37372419D02*
X205806265Y-37372419D01*
X205806265Y-37372419D02*
X205768169Y-37848609D01*
X205768169Y-37848609D02*
X205806265Y-37800990D01*
X205806265Y-37800990D02*
X205882455Y-37753371D01*
X205882455Y-37753371D02*
X206072931Y-37753371D01*
X206072931Y-37753371D02*
X206149122Y-37800990D01*
X206149122Y-37800990D02*
X206187217Y-37848609D01*
X206187217Y-37848609D02*
X206225312Y-37943847D01*
X206225312Y-37943847D02*
X206225312Y-38181942D01*
X206225312Y-38181942D02*
X206187217Y-38277180D01*
X206187217Y-38277180D02*
X206149122Y-38324800D01*
X206149122Y-38324800D02*
X206072931Y-38372419D01*
X206072931Y-38372419D02*
X205882455Y-38372419D01*
X205882455Y-38372419D02*
X205806265Y-38324800D01*
X205806265Y-38324800D02*
X205768169Y-38277180D01*
X205006265Y-35622419D02*
X205006265Y-34622419D01*
X205006265Y-34622419D02*
X205196741Y-34622419D01*
X205196741Y-34622419D02*
X205311027Y-34670038D01*
X205311027Y-34670038D02*
X205387217Y-34765276D01*
X205387217Y-34765276D02*
X205425312Y-34860514D01*
X205425312Y-34860514D02*
X205463408Y-35050990D01*
X205463408Y-35050990D02*
X205463408Y-35193847D01*
X205463408Y-35193847D02*
X205425312Y-35384323D01*
X205425312Y-35384323D02*
X205387217Y-35479561D01*
X205387217Y-35479561D02*
X205311027Y-35574800D01*
X205311027Y-35574800D02*
X205196741Y-35622419D01*
X205196741Y-35622419D02*
X205006265Y-35622419D01*
X206149122Y-34622419D02*
X205996741Y-34622419D01*
X205996741Y-34622419D02*
X205920550Y-34670038D01*
X205920550Y-34670038D02*
X205882455Y-34717657D01*
X205882455Y-34717657D02*
X205806265Y-34860514D01*
X205806265Y-34860514D02*
X205768169Y-35050990D01*
X205768169Y-35050990D02*
X205768169Y-35431942D01*
X205768169Y-35431942D02*
X205806265Y-35527180D01*
X205806265Y-35527180D02*
X205844360Y-35574800D01*
X205844360Y-35574800D02*
X205920550Y-35622419D01*
X205920550Y-35622419D02*
X206072931Y-35622419D01*
X206072931Y-35622419D02*
X206149122Y-35574800D01*
X206149122Y-35574800D02*
X206187217Y-35527180D01*
X206187217Y-35527180D02*
X206225312Y-35431942D01*
X206225312Y-35431942D02*
X206225312Y-35193847D01*
X206225312Y-35193847D02*
X206187217Y-35098609D01*
X206187217Y-35098609D02*
X206149122Y-35050990D01*
X206149122Y-35050990D02*
X206072931Y-35003371D01*
X206072931Y-35003371D02*
X205920550Y-35003371D01*
X205920550Y-35003371D02*
X205844360Y-35050990D01*
X205844360Y-35050990D02*
X205806265Y-35098609D01*
X205806265Y-35098609D02*
X205768169Y-35193847D01*
X205006265Y-33122419D02*
X205006265Y-32122419D01*
X205006265Y-32122419D02*
X205196741Y-32122419D01*
X205196741Y-32122419D02*
X205311027Y-32170038D01*
X205311027Y-32170038D02*
X205387217Y-32265276D01*
X205387217Y-32265276D02*
X205425312Y-32360514D01*
X205425312Y-32360514D02*
X205463408Y-32550990D01*
X205463408Y-32550990D02*
X205463408Y-32693847D01*
X205463408Y-32693847D02*
X205425312Y-32884323D01*
X205425312Y-32884323D02*
X205387217Y-32979561D01*
X205387217Y-32979561D02*
X205311027Y-33074800D01*
X205311027Y-33074800D02*
X205196741Y-33122419D01*
X205196741Y-33122419D02*
X205006265Y-33122419D01*
X205730074Y-32122419D02*
X206263408Y-32122419D01*
X206263408Y-32122419D02*
X205920550Y-33122419D01*
X205006265Y-30622419D02*
X205006265Y-29622419D01*
X205006265Y-29622419D02*
X205196741Y-29622419D01*
X205196741Y-29622419D02*
X205311027Y-29670038D01*
X205311027Y-29670038D02*
X205387217Y-29765276D01*
X205387217Y-29765276D02*
X205425312Y-29860514D01*
X205425312Y-29860514D02*
X205463408Y-30050990D01*
X205463408Y-30050990D02*
X205463408Y-30193847D01*
X205463408Y-30193847D02*
X205425312Y-30384323D01*
X205425312Y-30384323D02*
X205387217Y-30479561D01*
X205387217Y-30479561D02*
X205311027Y-30574800D01*
X205311027Y-30574800D02*
X205196741Y-30622419D01*
X205196741Y-30622419D02*
X205006265Y-30622419D01*
X205920550Y-30050990D02*
X205844360Y-30003371D01*
X205844360Y-30003371D02*
X205806265Y-29955752D01*
X205806265Y-29955752D02*
X205768169Y-29860514D01*
X205768169Y-29860514D02*
X205768169Y-29812895D01*
X205768169Y-29812895D02*
X205806265Y-29717657D01*
X205806265Y-29717657D02*
X205844360Y-29670038D01*
X205844360Y-29670038D02*
X205920550Y-29622419D01*
X205920550Y-29622419D02*
X206072931Y-29622419D01*
X206072931Y-29622419D02*
X206149122Y-29670038D01*
X206149122Y-29670038D02*
X206187217Y-29717657D01*
X206187217Y-29717657D02*
X206225312Y-29812895D01*
X206225312Y-29812895D02*
X206225312Y-29860514D01*
X206225312Y-29860514D02*
X206187217Y-29955752D01*
X206187217Y-29955752D02*
X206149122Y-30003371D01*
X206149122Y-30003371D02*
X206072931Y-30050990D01*
X206072931Y-30050990D02*
X205920550Y-30050990D01*
X205920550Y-30050990D02*
X205844360Y-30098609D01*
X205844360Y-30098609D02*
X205806265Y-30146228D01*
X205806265Y-30146228D02*
X205768169Y-30241466D01*
X205768169Y-30241466D02*
X205768169Y-30431942D01*
X205768169Y-30431942D02*
X205806265Y-30527180D01*
X205806265Y-30527180D02*
X205844360Y-30574800D01*
X205844360Y-30574800D02*
X205920550Y-30622419D01*
X205920550Y-30622419D02*
X206072931Y-30622419D01*
X206072931Y-30622419D02*
X206149122Y-30574800D01*
X206149122Y-30574800D02*
X206187217Y-30527180D01*
X206187217Y-30527180D02*
X206225312Y-30431942D01*
X206225312Y-30431942D02*
X206225312Y-30241466D01*
X206225312Y-30241466D02*
X206187217Y-30146228D01*
X206187217Y-30146228D02*
X206149122Y-30098609D01*
X206149122Y-30098609D02*
X206072931Y-30050990D01*
X205006265Y-28122419D02*
X205006265Y-27122419D01*
X205006265Y-27122419D02*
X205196741Y-27122419D01*
X205196741Y-27122419D02*
X205311027Y-27170038D01*
X205311027Y-27170038D02*
X205387217Y-27265276D01*
X205387217Y-27265276D02*
X205425312Y-27360514D01*
X205425312Y-27360514D02*
X205463408Y-27550990D01*
X205463408Y-27550990D02*
X205463408Y-27693847D01*
X205463408Y-27693847D02*
X205425312Y-27884323D01*
X205425312Y-27884323D02*
X205387217Y-27979561D01*
X205387217Y-27979561D02*
X205311027Y-28074800D01*
X205311027Y-28074800D02*
X205196741Y-28122419D01*
X205196741Y-28122419D02*
X205006265Y-28122419D01*
X205844360Y-28122419D02*
X205996741Y-28122419D01*
X205996741Y-28122419D02*
X206072931Y-28074800D01*
X206072931Y-28074800D02*
X206111027Y-28027180D01*
X206111027Y-28027180D02*
X206187217Y-27884323D01*
X206187217Y-27884323D02*
X206225312Y-27693847D01*
X206225312Y-27693847D02*
X206225312Y-27312895D01*
X206225312Y-27312895D02*
X206187217Y-27217657D01*
X206187217Y-27217657D02*
X206149122Y-27170038D01*
X206149122Y-27170038D02*
X206072931Y-27122419D01*
X206072931Y-27122419D02*
X205920550Y-27122419D01*
X205920550Y-27122419D02*
X205844360Y-27170038D01*
X205844360Y-27170038D02*
X205806265Y-27217657D01*
X205806265Y-27217657D02*
X205768169Y-27312895D01*
X205768169Y-27312895D02*
X205768169Y-27550990D01*
X205768169Y-27550990D02*
X205806265Y-27646228D01*
X205806265Y-27646228D02*
X205844360Y-27693847D01*
X205844360Y-27693847D02*
X205920550Y-27741466D01*
X205920550Y-27741466D02*
X206072931Y-27741466D01*
X206072931Y-27741466D02*
X206149122Y-27693847D01*
X206149122Y-27693847D02*
X206187217Y-27646228D01*
X206187217Y-27646228D02*
X206225312Y-27550990D01*
X205006265Y-25622419D02*
X205006265Y-24622419D01*
X205006265Y-24622419D02*
X205196741Y-24622419D01*
X205196741Y-24622419D02*
X205311027Y-24670038D01*
X205311027Y-24670038D02*
X205387217Y-24765276D01*
X205387217Y-24765276D02*
X205425312Y-24860514D01*
X205425312Y-24860514D02*
X205463408Y-25050990D01*
X205463408Y-25050990D02*
X205463408Y-25193847D01*
X205463408Y-25193847D02*
X205425312Y-25384323D01*
X205425312Y-25384323D02*
X205387217Y-25479561D01*
X205387217Y-25479561D02*
X205311027Y-25574800D01*
X205311027Y-25574800D02*
X205196741Y-25622419D01*
X205196741Y-25622419D02*
X205006265Y-25622419D01*
X206225312Y-25622419D02*
X205768169Y-25622419D01*
X205996741Y-25622419D02*
X205996741Y-24622419D01*
X205996741Y-24622419D02*
X205920550Y-24765276D01*
X205920550Y-24765276D02*
X205844360Y-24860514D01*
X205844360Y-24860514D02*
X205768169Y-24908133D01*
X206720551Y-24622419D02*
X206796741Y-24622419D01*
X206796741Y-24622419D02*
X206872932Y-24670038D01*
X206872932Y-24670038D02*
X206911027Y-24717657D01*
X206911027Y-24717657D02*
X206949122Y-24812895D01*
X206949122Y-24812895D02*
X206987217Y-25003371D01*
X206987217Y-25003371D02*
X206987217Y-25241466D01*
X206987217Y-25241466D02*
X206949122Y-25431942D01*
X206949122Y-25431942D02*
X206911027Y-25527180D01*
X206911027Y-25527180D02*
X206872932Y-25574800D01*
X206872932Y-25574800D02*
X206796741Y-25622419D01*
X206796741Y-25622419D02*
X206720551Y-25622419D01*
X206720551Y-25622419D02*
X206644360Y-25574800D01*
X206644360Y-25574800D02*
X206606265Y-25527180D01*
X206606265Y-25527180D02*
X206568170Y-25431942D01*
X206568170Y-25431942D02*
X206530074Y-25241466D01*
X206530074Y-25241466D02*
X206530074Y-25003371D01*
X206530074Y-25003371D02*
X206568170Y-24812895D01*
X206568170Y-24812895D02*
X206606265Y-24717657D01*
X206606265Y-24717657D02*
X206644360Y-24670038D01*
X206644360Y-24670038D02*
X206720551Y-24622419D01*
X205006265Y-22872419D02*
X205006265Y-21872419D01*
X205006265Y-21872419D02*
X205196741Y-21872419D01*
X205196741Y-21872419D02*
X205311027Y-21920038D01*
X205311027Y-21920038D02*
X205387217Y-22015276D01*
X205387217Y-22015276D02*
X205425312Y-22110514D01*
X205425312Y-22110514D02*
X205463408Y-22300990D01*
X205463408Y-22300990D02*
X205463408Y-22443847D01*
X205463408Y-22443847D02*
X205425312Y-22634323D01*
X205425312Y-22634323D02*
X205387217Y-22729561D01*
X205387217Y-22729561D02*
X205311027Y-22824800D01*
X205311027Y-22824800D02*
X205196741Y-22872419D01*
X205196741Y-22872419D02*
X205006265Y-22872419D01*
X206225312Y-22872419D02*
X205768169Y-22872419D01*
X205996741Y-22872419D02*
X205996741Y-21872419D01*
X205996741Y-21872419D02*
X205920550Y-22015276D01*
X205920550Y-22015276D02*
X205844360Y-22110514D01*
X205844360Y-22110514D02*
X205768169Y-22158133D01*
X206987217Y-22872419D02*
X206530074Y-22872419D01*
X206758646Y-22872419D02*
X206758646Y-21872419D01*
X206758646Y-21872419D02*
X206682455Y-22015276D01*
X206682455Y-22015276D02*
X206606265Y-22110514D01*
X206606265Y-22110514D02*
X206530074Y-22158133D01*
X204958646Y-19705752D02*
X205196741Y-20372419D01*
X205196741Y-20372419D02*
X205434836Y-19705752D01*
X205958646Y-20372419D02*
X205863408Y-20324800D01*
X205863408Y-20324800D02*
X205815789Y-20229561D01*
X205815789Y-20229561D02*
X205815789Y-19372419D01*
X206768170Y-20372419D02*
X206768170Y-19372419D01*
X206768170Y-20324800D02*
X206672932Y-20372419D01*
X206672932Y-20372419D02*
X206482456Y-20372419D01*
X206482456Y-20372419D02*
X206387218Y-20324800D01*
X206387218Y-20324800D02*
X206339599Y-20277180D01*
X206339599Y-20277180D02*
X206291980Y-20181942D01*
X206291980Y-20181942D02*
X206291980Y-19896228D01*
X206291980Y-19896228D02*
X206339599Y-19800990D01*
X206339599Y-19800990D02*
X206387218Y-19753371D01*
X206387218Y-19753371D02*
X206482456Y-19705752D01*
X206482456Y-19705752D02*
X206672932Y-19705752D01*
X206672932Y-19705752D02*
X206768170Y-19753371D01*
D13*
X7226816Y-15117219D02*
X7560149Y-16117219D01*
X7560149Y-16117219D02*
X7893482Y-15117219D01*
X8226816Y-16117219D02*
X8226816Y-15117219D01*
X8226816Y-15117219D02*
X8464911Y-15117219D01*
X8464911Y-15117219D02*
X8607768Y-15164838D01*
X8607768Y-15164838D02*
X8703006Y-15260076D01*
X8703006Y-15260076D02*
X8750625Y-15355314D01*
X8750625Y-15355314D02*
X8798244Y-15545790D01*
X8798244Y-15545790D02*
X8798244Y-15688647D01*
X8798244Y-15688647D02*
X8750625Y-15879123D01*
X8750625Y-15879123D02*
X8703006Y-15974361D01*
X8703006Y-15974361D02*
X8607768Y-16069600D01*
X8607768Y-16069600D02*
X8464911Y-16117219D01*
X8464911Y-16117219D02*
X8226816Y-16117219D01*
X9226816Y-16117219D02*
X9226816Y-15117219D01*
X9226816Y-15117219D02*
X9464911Y-15117219D01*
X9464911Y-15117219D02*
X9607768Y-15164838D01*
X9607768Y-15164838D02*
X9703006Y-15260076D01*
X9703006Y-15260076D02*
X9750625Y-15355314D01*
X9750625Y-15355314D02*
X9798244Y-15545790D01*
X9798244Y-15545790D02*
X9798244Y-15688647D01*
X9798244Y-15688647D02*
X9750625Y-15879123D01*
X9750625Y-15879123D02*
X9703006Y-15974361D01*
X9703006Y-15974361D02*
X9607768Y-16069600D01*
X9607768Y-16069600D02*
X9464911Y-16117219D01*
X9464911Y-16117219D02*
X9226816Y-16117219D01*
X4893482Y-52914838D02*
X4798244Y-52867219D01*
X4798244Y-52867219D02*
X4655387Y-52867219D01*
X4655387Y-52867219D02*
X4512530Y-52914838D01*
X4512530Y-52914838D02*
X4417292Y-53010076D01*
X4417292Y-53010076D02*
X4369673Y-53105314D01*
X4369673Y-53105314D02*
X4322054Y-53295790D01*
X4322054Y-53295790D02*
X4322054Y-53438647D01*
X4322054Y-53438647D02*
X4369673Y-53629123D01*
X4369673Y-53629123D02*
X4417292Y-53724361D01*
X4417292Y-53724361D02*
X4512530Y-53819600D01*
X4512530Y-53819600D02*
X4655387Y-53867219D01*
X4655387Y-53867219D02*
X4750625Y-53867219D01*
X4750625Y-53867219D02*
X4893482Y-53819600D01*
X4893482Y-53819600D02*
X4941101Y-53771980D01*
X4941101Y-53771980D02*
X4941101Y-53438647D01*
X4941101Y-53438647D02*
X4750625Y-53438647D01*
X5369673Y-53867219D02*
X5369673Y-52867219D01*
X5369673Y-52867219D02*
X5941101Y-53867219D01*
X5941101Y-53867219D02*
X5941101Y-52867219D01*
X6417292Y-53867219D02*
X6417292Y-52867219D01*
X6417292Y-52867219D02*
X6655387Y-52867219D01*
X6655387Y-52867219D02*
X6798244Y-52914838D01*
X6798244Y-52914838D02*
X6893482Y-53010076D01*
X6893482Y-53010076D02*
X6941101Y-53105314D01*
X6941101Y-53105314D02*
X6988720Y-53295790D01*
X6988720Y-53295790D02*
X6988720Y-53438647D01*
X6988720Y-53438647D02*
X6941101Y-53629123D01*
X6941101Y-53629123D02*
X6893482Y-53724361D01*
X6893482Y-53724361D02*
X6798244Y-53819600D01*
X6798244Y-53819600D02*
X6655387Y-53867219D01*
X6655387Y-53867219D02*
X6417292Y-53867219D01*
D10*
X10349122Y-48824800D02*
X10272931Y-48872419D01*
X10272931Y-48872419D02*
X10120550Y-48872419D01*
X10120550Y-48872419D02*
X10044360Y-48824800D01*
X10044360Y-48824800D02*
X10006265Y-48777180D01*
X10006265Y-48777180D02*
X9968169Y-48681942D01*
X9968169Y-48681942D02*
X9968169Y-48396228D01*
X9968169Y-48396228D02*
X10006265Y-48300990D01*
X10006265Y-48300990D02*
X10044360Y-48253371D01*
X10044360Y-48253371D02*
X10120550Y-48205752D01*
X10120550Y-48205752D02*
X10272931Y-48205752D01*
X10272931Y-48205752D02*
X10349122Y-48253371D01*
X10806264Y-48872419D02*
X10730074Y-48824800D01*
X10730074Y-48824800D02*
X10691979Y-48729561D01*
X10691979Y-48729561D02*
X10691979Y-47872419D01*
X11111027Y-48872419D02*
X11111027Y-47872419D01*
X11187217Y-48491466D02*
X11415789Y-48872419D01*
X11415789Y-48205752D02*
X11111027Y-48586704D01*
X9930074Y-45622419D02*
X10463408Y-46622419D01*
X10463408Y-45622419D02*
X9930074Y-46622419D01*
X10920551Y-46146228D02*
X10920551Y-46622419D01*
X10653884Y-45622419D02*
X10920551Y-46146228D01*
X10920551Y-46146228D02*
X11187217Y-45622419D01*
X10675312Y-43622419D02*
X10218169Y-43622419D01*
X10446741Y-43622419D02*
X10446741Y-42622419D01*
X10446741Y-42622419D02*
X10370550Y-42765276D01*
X10370550Y-42765276D02*
X10294360Y-42860514D01*
X10294360Y-42860514D02*
X10218169Y-42908133D01*
X11132455Y-43050990D02*
X11056265Y-43003371D01*
X11056265Y-43003371D02*
X11018170Y-42955752D01*
X11018170Y-42955752D02*
X10980074Y-42860514D01*
X10980074Y-42860514D02*
X10980074Y-42812895D01*
X10980074Y-42812895D02*
X11018170Y-42717657D01*
X11018170Y-42717657D02*
X11056265Y-42670038D01*
X11056265Y-42670038D02*
X11132455Y-42622419D01*
X11132455Y-42622419D02*
X11284836Y-42622419D01*
X11284836Y-42622419D02*
X11361027Y-42670038D01*
X11361027Y-42670038D02*
X11399122Y-42717657D01*
X11399122Y-42717657D02*
X11437217Y-42812895D01*
X11437217Y-42812895D02*
X11437217Y-42860514D01*
X11437217Y-42860514D02*
X11399122Y-42955752D01*
X11399122Y-42955752D02*
X11361027Y-43003371D01*
X11361027Y-43003371D02*
X11284836Y-43050990D01*
X11284836Y-43050990D02*
X11132455Y-43050990D01*
X11132455Y-43050990D02*
X11056265Y-43098609D01*
X11056265Y-43098609D02*
X11018170Y-43146228D01*
X11018170Y-43146228D02*
X10980074Y-43241466D01*
X10980074Y-43241466D02*
X10980074Y-43431942D01*
X10980074Y-43431942D02*
X11018170Y-43527180D01*
X11018170Y-43527180D02*
X11056265Y-43574800D01*
X11056265Y-43574800D02*
X11132455Y-43622419D01*
X11132455Y-43622419D02*
X11284836Y-43622419D01*
X11284836Y-43622419D02*
X11361027Y-43574800D01*
X11361027Y-43574800D02*
X11399122Y-43527180D01*
X11399122Y-43527180D02*
X11437217Y-43431942D01*
X11437217Y-43431942D02*
X11437217Y-43241466D01*
X11437217Y-43241466D02*
X11399122Y-43146228D01*
X11399122Y-43146228D02*
X11361027Y-43098609D01*
X11361027Y-43098609D02*
X11284836Y-43050990D01*
X10675312Y-41122419D02*
X10218169Y-41122419D01*
X10446741Y-41122419D02*
X10446741Y-40122419D01*
X10446741Y-40122419D02*
X10370550Y-40265276D01*
X10370550Y-40265276D02*
X10294360Y-40360514D01*
X10294360Y-40360514D02*
X10218169Y-40408133D01*
X11361027Y-40122419D02*
X11208646Y-40122419D01*
X11208646Y-40122419D02*
X11132455Y-40170038D01*
X11132455Y-40170038D02*
X11094360Y-40217657D01*
X11094360Y-40217657D02*
X11018170Y-40360514D01*
X11018170Y-40360514D02*
X10980074Y-40550990D01*
X10980074Y-40550990D02*
X10980074Y-40931942D01*
X10980074Y-40931942D02*
X11018170Y-41027180D01*
X11018170Y-41027180D02*
X11056265Y-41074800D01*
X11056265Y-41074800D02*
X11132455Y-41122419D01*
X11132455Y-41122419D02*
X11284836Y-41122419D01*
X11284836Y-41122419D02*
X11361027Y-41074800D01*
X11361027Y-41074800D02*
X11399122Y-41027180D01*
X11399122Y-41027180D02*
X11437217Y-40931942D01*
X11437217Y-40931942D02*
X11437217Y-40693847D01*
X11437217Y-40693847D02*
X11399122Y-40598609D01*
X11399122Y-40598609D02*
X11361027Y-40550990D01*
X11361027Y-40550990D02*
X11284836Y-40503371D01*
X11284836Y-40503371D02*
X11132455Y-40503371D01*
X11132455Y-40503371D02*
X11056265Y-40550990D01*
X11056265Y-40550990D02*
X11018170Y-40598609D01*
X11018170Y-40598609D02*
X10980074Y-40693847D01*
X10675312Y-38622419D02*
X10218169Y-38622419D01*
X10446741Y-38622419D02*
X10446741Y-37622419D01*
X10446741Y-37622419D02*
X10370550Y-37765276D01*
X10370550Y-37765276D02*
X10294360Y-37860514D01*
X10294360Y-37860514D02*
X10218169Y-37908133D01*
X11361027Y-37955752D02*
X11361027Y-38622419D01*
X11170551Y-37574800D02*
X10980074Y-38289085D01*
X10980074Y-38289085D02*
X11475313Y-38289085D01*
X10675312Y-36122419D02*
X10218169Y-36122419D01*
X10446741Y-36122419D02*
X10446741Y-35122419D01*
X10446741Y-35122419D02*
X10370550Y-35265276D01*
X10370550Y-35265276D02*
X10294360Y-35360514D01*
X10294360Y-35360514D02*
X10218169Y-35408133D01*
X10980074Y-35217657D02*
X11018170Y-35170038D01*
X11018170Y-35170038D02*
X11094360Y-35122419D01*
X11094360Y-35122419D02*
X11284836Y-35122419D01*
X11284836Y-35122419D02*
X11361027Y-35170038D01*
X11361027Y-35170038D02*
X11399122Y-35217657D01*
X11399122Y-35217657D02*
X11437217Y-35312895D01*
X11437217Y-35312895D02*
X11437217Y-35408133D01*
X11437217Y-35408133D02*
X11399122Y-35550990D01*
X11399122Y-35550990D02*
X10941979Y-36122419D01*
X10941979Y-36122419D02*
X11437217Y-36122419D01*
X10675312Y-33622419D02*
X10218169Y-33622419D01*
X10446741Y-33622419D02*
X10446741Y-32622419D01*
X10446741Y-32622419D02*
X10370550Y-32765276D01*
X10370550Y-32765276D02*
X10294360Y-32860514D01*
X10294360Y-32860514D02*
X10218169Y-32908133D01*
X11170551Y-32622419D02*
X11246741Y-32622419D01*
X11246741Y-32622419D02*
X11322932Y-32670038D01*
X11322932Y-32670038D02*
X11361027Y-32717657D01*
X11361027Y-32717657D02*
X11399122Y-32812895D01*
X11399122Y-32812895D02*
X11437217Y-33003371D01*
X11437217Y-33003371D02*
X11437217Y-33241466D01*
X11437217Y-33241466D02*
X11399122Y-33431942D01*
X11399122Y-33431942D02*
X11361027Y-33527180D01*
X11361027Y-33527180D02*
X11322932Y-33574800D01*
X11322932Y-33574800D02*
X11246741Y-33622419D01*
X11246741Y-33622419D02*
X11170551Y-33622419D01*
X11170551Y-33622419D02*
X11094360Y-33574800D01*
X11094360Y-33574800D02*
X11056265Y-33527180D01*
X11056265Y-33527180D02*
X11018170Y-33431942D01*
X11018170Y-33431942D02*
X10980074Y-33241466D01*
X10980074Y-33241466D02*
X10980074Y-33003371D01*
X10980074Y-33003371D02*
X11018170Y-32812895D01*
X11018170Y-32812895D02*
X11056265Y-32717657D01*
X11056265Y-32717657D02*
X11094360Y-32670038D01*
X11094360Y-32670038D02*
X11170551Y-32622419D01*
X10370550Y-30550990D02*
X10294360Y-30503371D01*
X10294360Y-30503371D02*
X10256265Y-30455752D01*
X10256265Y-30455752D02*
X10218169Y-30360514D01*
X10218169Y-30360514D02*
X10218169Y-30312895D01*
X10218169Y-30312895D02*
X10256265Y-30217657D01*
X10256265Y-30217657D02*
X10294360Y-30170038D01*
X10294360Y-30170038D02*
X10370550Y-30122419D01*
X10370550Y-30122419D02*
X10522931Y-30122419D01*
X10522931Y-30122419D02*
X10599122Y-30170038D01*
X10599122Y-30170038D02*
X10637217Y-30217657D01*
X10637217Y-30217657D02*
X10675312Y-30312895D01*
X10675312Y-30312895D02*
X10675312Y-30360514D01*
X10675312Y-30360514D02*
X10637217Y-30455752D01*
X10637217Y-30455752D02*
X10599122Y-30503371D01*
X10599122Y-30503371D02*
X10522931Y-30550990D01*
X10522931Y-30550990D02*
X10370550Y-30550990D01*
X10370550Y-30550990D02*
X10294360Y-30598609D01*
X10294360Y-30598609D02*
X10256265Y-30646228D01*
X10256265Y-30646228D02*
X10218169Y-30741466D01*
X10218169Y-30741466D02*
X10218169Y-30931942D01*
X10218169Y-30931942D02*
X10256265Y-31027180D01*
X10256265Y-31027180D02*
X10294360Y-31074800D01*
X10294360Y-31074800D02*
X10370550Y-31122419D01*
X10370550Y-31122419D02*
X10522931Y-31122419D01*
X10522931Y-31122419D02*
X10599122Y-31074800D01*
X10599122Y-31074800D02*
X10637217Y-31027180D01*
X10637217Y-31027180D02*
X10675312Y-30931942D01*
X10675312Y-30931942D02*
X10675312Y-30741466D01*
X10675312Y-30741466D02*
X10637217Y-30646228D01*
X10637217Y-30646228D02*
X10599122Y-30598609D01*
X10599122Y-30598609D02*
X10522931Y-30550990D01*
X10599122Y-27622419D02*
X10446741Y-27622419D01*
X10446741Y-27622419D02*
X10370550Y-27670038D01*
X10370550Y-27670038D02*
X10332455Y-27717657D01*
X10332455Y-27717657D02*
X10256265Y-27860514D01*
X10256265Y-27860514D02*
X10218169Y-28050990D01*
X10218169Y-28050990D02*
X10218169Y-28431942D01*
X10218169Y-28431942D02*
X10256265Y-28527180D01*
X10256265Y-28527180D02*
X10294360Y-28574800D01*
X10294360Y-28574800D02*
X10370550Y-28622419D01*
X10370550Y-28622419D02*
X10522931Y-28622419D01*
X10522931Y-28622419D02*
X10599122Y-28574800D01*
X10599122Y-28574800D02*
X10637217Y-28527180D01*
X10637217Y-28527180D02*
X10675312Y-28431942D01*
X10675312Y-28431942D02*
X10675312Y-28193847D01*
X10675312Y-28193847D02*
X10637217Y-28098609D01*
X10637217Y-28098609D02*
X10599122Y-28050990D01*
X10599122Y-28050990D02*
X10522931Y-28003371D01*
X10522931Y-28003371D02*
X10370550Y-28003371D01*
X10370550Y-28003371D02*
X10294360Y-28050990D01*
X10294360Y-28050990D02*
X10256265Y-28098609D01*
X10256265Y-28098609D02*
X10218169Y-28193847D01*
X10599122Y-25390752D02*
X10599122Y-26057419D01*
X10408646Y-25009800D02*
X10218169Y-25724085D01*
X10218169Y-25724085D02*
X10713408Y-25724085D01*
X10218169Y-22717657D02*
X10256265Y-22670038D01*
X10256265Y-22670038D02*
X10332455Y-22622419D01*
X10332455Y-22622419D02*
X10522931Y-22622419D01*
X10522931Y-22622419D02*
X10599122Y-22670038D01*
X10599122Y-22670038D02*
X10637217Y-22717657D01*
X10637217Y-22717657D02*
X10675312Y-22812895D01*
X10675312Y-22812895D02*
X10675312Y-22908133D01*
X10675312Y-22908133D02*
X10637217Y-23050990D01*
X10637217Y-23050990D02*
X10180074Y-23622419D01*
X10180074Y-23622419D02*
X10675312Y-23622419D01*
X3180074Y-22622419D02*
X3675312Y-22622419D01*
X3675312Y-22622419D02*
X3408646Y-23003371D01*
X3408646Y-23003371D02*
X3522931Y-23003371D01*
X3522931Y-23003371D02*
X3599122Y-23050990D01*
X3599122Y-23050990D02*
X3637217Y-23098609D01*
X3637217Y-23098609D02*
X3675312Y-23193847D01*
X3675312Y-23193847D02*
X3675312Y-23431942D01*
X3675312Y-23431942D02*
X3637217Y-23527180D01*
X3637217Y-23527180D02*
X3599122Y-23574800D01*
X3599122Y-23574800D02*
X3522931Y-23622419D01*
X3522931Y-23622419D02*
X3294360Y-23622419D01*
X3294360Y-23622419D02*
X3218169Y-23574800D01*
X3218169Y-23574800D02*
X3180074Y-23527180D01*
X3294360Y-31122419D02*
X3446741Y-31122419D01*
X3446741Y-31122419D02*
X3522931Y-31074800D01*
X3522931Y-31074800D02*
X3561027Y-31027180D01*
X3561027Y-31027180D02*
X3637217Y-30884323D01*
X3637217Y-30884323D02*
X3675312Y-30693847D01*
X3675312Y-30693847D02*
X3675312Y-30312895D01*
X3675312Y-30312895D02*
X3637217Y-30217657D01*
X3637217Y-30217657D02*
X3599122Y-30170038D01*
X3599122Y-30170038D02*
X3522931Y-30122419D01*
X3522931Y-30122419D02*
X3370550Y-30122419D01*
X3370550Y-30122419D02*
X3294360Y-30170038D01*
X3294360Y-30170038D02*
X3256265Y-30217657D01*
X3256265Y-30217657D02*
X3218169Y-30312895D01*
X3218169Y-30312895D02*
X3218169Y-30550990D01*
X3218169Y-30550990D02*
X3256265Y-30646228D01*
X3256265Y-30646228D02*
X3294360Y-30693847D01*
X3294360Y-30693847D02*
X3370550Y-30741466D01*
X3370550Y-30741466D02*
X3522931Y-30741466D01*
X3522931Y-30741466D02*
X3599122Y-30693847D01*
X3599122Y-30693847D02*
X3637217Y-30646228D01*
X3637217Y-30646228D02*
X3675312Y-30550990D01*
X3175312Y-43622419D02*
X2718169Y-43622419D01*
X2946741Y-43622419D02*
X2946741Y-42622419D01*
X2946741Y-42622419D02*
X2870550Y-42765276D01*
X2870550Y-42765276D02*
X2794360Y-42860514D01*
X2794360Y-42860514D02*
X2718169Y-42908133D01*
X3556265Y-43622419D02*
X3708646Y-43622419D01*
X3708646Y-43622419D02*
X3784836Y-43574800D01*
X3784836Y-43574800D02*
X3822932Y-43527180D01*
X3822932Y-43527180D02*
X3899122Y-43384323D01*
X3899122Y-43384323D02*
X3937217Y-43193847D01*
X3937217Y-43193847D02*
X3937217Y-42812895D01*
X3937217Y-42812895D02*
X3899122Y-42717657D01*
X3899122Y-42717657D02*
X3861027Y-42670038D01*
X3861027Y-42670038D02*
X3784836Y-42622419D01*
X3784836Y-42622419D02*
X3632455Y-42622419D01*
X3632455Y-42622419D02*
X3556265Y-42670038D01*
X3556265Y-42670038D02*
X3518170Y-42717657D01*
X3518170Y-42717657D02*
X3480074Y-42812895D01*
X3480074Y-42812895D02*
X3480074Y-43050990D01*
X3480074Y-43050990D02*
X3518170Y-43146228D01*
X3518170Y-43146228D02*
X3556265Y-43193847D01*
X3556265Y-43193847D02*
X3632455Y-43241466D01*
X3632455Y-43241466D02*
X3784836Y-43241466D01*
X3784836Y-43241466D02*
X3861027Y-43193847D01*
X3861027Y-43193847D02*
X3899122Y-43146228D01*
X3899122Y-43146228D02*
X3937217Y-43050990D01*
X3175312Y-41122419D02*
X2718169Y-41122419D01*
X2946741Y-41122419D02*
X2946741Y-40122419D01*
X2946741Y-40122419D02*
X2870550Y-40265276D01*
X2870550Y-40265276D02*
X2794360Y-40360514D01*
X2794360Y-40360514D02*
X2718169Y-40408133D01*
X3441979Y-40122419D02*
X3975313Y-40122419D01*
X3975313Y-40122419D02*
X3632455Y-41122419D01*
X3175312Y-33622419D02*
X2718169Y-33622419D01*
X2946741Y-33622419D02*
X2946741Y-32622419D01*
X2946741Y-32622419D02*
X2870550Y-32765276D01*
X2870550Y-32765276D02*
X2794360Y-32860514D01*
X2794360Y-32860514D02*
X2718169Y-32908133D01*
X3937217Y-33622419D02*
X3480074Y-33622419D01*
X3708646Y-33622419D02*
X3708646Y-32622419D01*
X3708646Y-32622419D02*
X3632455Y-32765276D01*
X3632455Y-32765276D02*
X3556265Y-32860514D01*
X3556265Y-32860514D02*
X3480074Y-32908133D01*
X3637217Y-25122419D02*
X3256265Y-25122419D01*
X3256265Y-25122419D02*
X3218169Y-25598609D01*
X3218169Y-25598609D02*
X3256265Y-25550990D01*
X3256265Y-25550990D02*
X3332455Y-25503371D01*
X3332455Y-25503371D02*
X3522931Y-25503371D01*
X3522931Y-25503371D02*
X3599122Y-25550990D01*
X3599122Y-25550990D02*
X3637217Y-25598609D01*
X3637217Y-25598609D02*
X3675312Y-25693847D01*
X3675312Y-25693847D02*
X3675312Y-25931942D01*
X3675312Y-25931942D02*
X3637217Y-26027180D01*
X3637217Y-26027180D02*
X3599122Y-26074800D01*
X3599122Y-26074800D02*
X3522931Y-26122419D01*
X3522931Y-26122419D02*
X3332455Y-26122419D01*
X3332455Y-26122419D02*
X3256265Y-26074800D01*
X3256265Y-26074800D02*
X3218169Y-26027180D01*
X3175312Y-36122419D02*
X2718169Y-36122419D01*
X2946741Y-36122419D02*
X2946741Y-35122419D01*
X2946741Y-35122419D02*
X2870550Y-35265276D01*
X2870550Y-35265276D02*
X2794360Y-35360514D01*
X2794360Y-35360514D02*
X2718169Y-35408133D01*
X3441979Y-35122419D02*
X3937217Y-35122419D01*
X3937217Y-35122419D02*
X3670551Y-35503371D01*
X3670551Y-35503371D02*
X3784836Y-35503371D01*
X3784836Y-35503371D02*
X3861027Y-35550990D01*
X3861027Y-35550990D02*
X3899122Y-35598609D01*
X3899122Y-35598609D02*
X3937217Y-35693847D01*
X3937217Y-35693847D02*
X3937217Y-35931942D01*
X3937217Y-35931942D02*
X3899122Y-36027180D01*
X3899122Y-36027180D02*
X3861027Y-36074800D01*
X3861027Y-36074800D02*
X3784836Y-36122419D01*
X3784836Y-36122419D02*
X3556265Y-36122419D01*
X3556265Y-36122419D02*
X3480074Y-36074800D01*
X3480074Y-36074800D02*
X3441979Y-36027180D01*
X3175312Y-38622419D02*
X2718169Y-38622419D01*
X2946741Y-38622419D02*
X2946741Y-37622419D01*
X2946741Y-37622419D02*
X2870550Y-37765276D01*
X2870550Y-37765276D02*
X2794360Y-37860514D01*
X2794360Y-37860514D02*
X2718169Y-37908133D01*
X3899122Y-37622419D02*
X3518170Y-37622419D01*
X3518170Y-37622419D02*
X3480074Y-38098609D01*
X3480074Y-38098609D02*
X3518170Y-38050990D01*
X3518170Y-38050990D02*
X3594360Y-38003371D01*
X3594360Y-38003371D02*
X3784836Y-38003371D01*
X3784836Y-38003371D02*
X3861027Y-38050990D01*
X3861027Y-38050990D02*
X3899122Y-38098609D01*
X3899122Y-38098609D02*
X3937217Y-38193847D01*
X3937217Y-38193847D02*
X3937217Y-38431942D01*
X3937217Y-38431942D02*
X3899122Y-38527180D01*
X3899122Y-38527180D02*
X3861027Y-38574800D01*
X3861027Y-38574800D02*
X3784836Y-38622419D01*
X3784836Y-38622419D02*
X3594360Y-38622419D01*
X3594360Y-38622419D02*
X3518170Y-38574800D01*
X3518170Y-38574800D02*
X3480074Y-38527180D01*
X3675312Y-21122419D02*
X3218169Y-21122419D01*
X3446741Y-21122419D02*
X3446741Y-20122419D01*
X3446741Y-20122419D02*
X3370550Y-20265276D01*
X3370550Y-20265276D02*
X3294360Y-20360514D01*
X3294360Y-20360514D02*
X3218169Y-20408133D01*
X3180074Y-27622419D02*
X3713408Y-27622419D01*
X3713408Y-27622419D02*
X3370550Y-28622419D01*
X10522931Y-20348609D02*
X10256265Y-20348609D01*
X10256265Y-20872419D02*
X10256265Y-19872419D01*
X10256265Y-19872419D02*
X10637217Y-19872419D01*
X11399122Y-20777180D02*
X11361026Y-20824800D01*
X11361026Y-20824800D02*
X11246741Y-20872419D01*
X11246741Y-20872419D02*
X11170550Y-20872419D01*
X11170550Y-20872419D02*
X11056264Y-20824800D01*
X11056264Y-20824800D02*
X10980074Y-20729561D01*
X10980074Y-20729561D02*
X10941979Y-20634323D01*
X10941979Y-20634323D02*
X10903883Y-20443847D01*
X10903883Y-20443847D02*
X10903883Y-20300990D01*
X10903883Y-20300990D02*
X10941979Y-20110514D01*
X10941979Y-20110514D02*
X10980074Y-20015276D01*
X10980074Y-20015276D02*
X11056264Y-19920038D01*
X11056264Y-19920038D02*
X11170550Y-19872419D01*
X11170550Y-19872419D02*
X11246741Y-19872419D01*
X11246741Y-19872419D02*
X11361026Y-19920038D01*
X11361026Y-19920038D02*
X11399122Y-19967657D01*
X11665788Y-19872419D02*
X11856264Y-20872419D01*
X11856264Y-20872419D02*
X12008645Y-20158133D01*
X12008645Y-20158133D02*
X12161026Y-20872419D01*
X12161026Y-20872419D02*
X12351503Y-19872419D01*
X12465789Y-20967657D02*
X13075312Y-20967657D01*
X13418170Y-19872419D02*
X13494360Y-19872419D01*
X13494360Y-19872419D02*
X13570551Y-19920038D01*
X13570551Y-19920038D02*
X13608646Y-19967657D01*
X13608646Y-19967657D02*
X13646741Y-20062895D01*
X13646741Y-20062895D02*
X13684836Y-20253371D01*
X13684836Y-20253371D02*
X13684836Y-20491466D01*
X13684836Y-20491466D02*
X13646741Y-20681942D01*
X13646741Y-20681942D02*
X13608646Y-20777180D01*
X13608646Y-20777180D02*
X13570551Y-20824800D01*
X13570551Y-20824800D02*
X13494360Y-20872419D01*
X13494360Y-20872419D02*
X13418170Y-20872419D01*
X13418170Y-20872419D02*
X13341979Y-20824800D01*
X13341979Y-20824800D02*
X13303884Y-20777180D01*
X13303884Y-20777180D02*
X13265789Y-20681942D01*
X13265789Y-20681942D02*
X13227693Y-20491466D01*
X13227693Y-20491466D02*
X13227693Y-20253371D01*
X13227693Y-20253371D02*
X13265789Y-20062895D01*
X13265789Y-20062895D02*
X13303884Y-19967657D01*
X13303884Y-19967657D02*
X13341979Y-19920038D01*
X13341979Y-19920038D02*
X13418170Y-19872419D01*
D14*
X23893044Y-5254428D02*
X23950187Y-5197285D01*
X23950187Y-5197285D02*
X24064473Y-5140142D01*
X24064473Y-5140142D02*
X24350187Y-5140142D01*
X24350187Y-5140142D02*
X24464473Y-5197285D01*
X24464473Y-5197285D02*
X24521615Y-5254428D01*
X24521615Y-5254428D02*
X24578758Y-5368714D01*
X24578758Y-5368714D02*
X24578758Y-5483000D01*
X24578758Y-5483000D02*
X24521615Y-5654428D01*
X24521615Y-5654428D02*
X23835901Y-6340142D01*
X23835901Y-6340142D02*
X24578758Y-6340142D01*
X25321615Y-5140142D02*
X25435901Y-5140142D01*
X25435901Y-5140142D02*
X25550187Y-5197285D01*
X25550187Y-5197285D02*
X25607330Y-5254428D01*
X25607330Y-5254428D02*
X25664472Y-5368714D01*
X25664472Y-5368714D02*
X25721615Y-5597285D01*
X25721615Y-5597285D02*
X25721615Y-5883000D01*
X25721615Y-5883000D02*
X25664472Y-6111571D01*
X25664472Y-6111571D02*
X25607330Y-6225857D01*
X25607330Y-6225857D02*
X25550187Y-6283000D01*
X25550187Y-6283000D02*
X25435901Y-6340142D01*
X25435901Y-6340142D02*
X25321615Y-6340142D01*
X25321615Y-6340142D02*
X25207330Y-6283000D01*
X25207330Y-6283000D02*
X25150187Y-6225857D01*
X25150187Y-6225857D02*
X25093044Y-6111571D01*
X25093044Y-6111571D02*
X25035901Y-5883000D01*
X25035901Y-5883000D02*
X25035901Y-5597285D01*
X25035901Y-5597285D02*
X25093044Y-5368714D01*
X25093044Y-5368714D02*
X25150187Y-5254428D01*
X25150187Y-5254428D02*
X25207330Y-5197285D01*
X25207330Y-5197285D02*
X25321615Y-5140142D01*
X26178758Y-5254428D02*
X26235901Y-5197285D01*
X26235901Y-5197285D02*
X26350187Y-5140142D01*
X26350187Y-5140142D02*
X26635901Y-5140142D01*
X26635901Y-5140142D02*
X26750187Y-5197285D01*
X26750187Y-5197285D02*
X26807329Y-5254428D01*
X26807329Y-5254428D02*
X26864472Y-5368714D01*
X26864472Y-5368714D02*
X26864472Y-5483000D01*
X26864472Y-5483000D02*
X26807329Y-5654428D01*
X26807329Y-5654428D02*
X26121615Y-6340142D01*
X26121615Y-6340142D02*
X26864472Y-6340142D01*
X27950186Y-5140142D02*
X27378758Y-5140142D01*
X27378758Y-5140142D02*
X27321615Y-5711571D01*
X27321615Y-5711571D02*
X27378758Y-5654428D01*
X27378758Y-5654428D02*
X27493044Y-5597285D01*
X27493044Y-5597285D02*
X27778758Y-5597285D01*
X27778758Y-5597285D02*
X27893044Y-5654428D01*
X27893044Y-5654428D02*
X27950186Y-5711571D01*
X27950186Y-5711571D02*
X28007329Y-5825857D01*
X28007329Y-5825857D02*
X28007329Y-6111571D01*
X28007329Y-6111571D02*
X27950186Y-6225857D01*
X27950186Y-6225857D02*
X27893044Y-6283000D01*
X27893044Y-6283000D02*
X27778758Y-6340142D01*
X27778758Y-6340142D02*
X27493044Y-6340142D01*
X27493044Y-6340142D02*
X27378758Y-6283000D01*
X27378758Y-6283000D02*
X27321615Y-6225857D01*
X29435901Y-6340142D02*
X29435901Y-5140142D01*
X29435901Y-5140142D02*
X29835901Y-5997285D01*
X29835901Y-5997285D02*
X30235901Y-5140142D01*
X30235901Y-5140142D02*
X30235901Y-6340142D01*
X30693044Y-5540142D02*
X30978758Y-6340142D01*
X31264473Y-5540142D02*
X30978758Y-6340142D01*
X30978758Y-6340142D02*
X30864473Y-6625857D01*
X30864473Y-6625857D02*
X30807330Y-6683000D01*
X30807330Y-6683000D02*
X30693044Y-6740142D01*
X33321616Y-6225857D02*
X33264473Y-6283000D01*
X33264473Y-6283000D02*
X33093045Y-6340142D01*
X33093045Y-6340142D02*
X32978759Y-6340142D01*
X32978759Y-6340142D02*
X32807330Y-6283000D01*
X32807330Y-6283000D02*
X32693045Y-6168714D01*
X32693045Y-6168714D02*
X32635902Y-6054428D01*
X32635902Y-6054428D02*
X32578759Y-5825857D01*
X32578759Y-5825857D02*
X32578759Y-5654428D01*
X32578759Y-5654428D02*
X32635902Y-5425857D01*
X32635902Y-5425857D02*
X32693045Y-5311571D01*
X32693045Y-5311571D02*
X32807330Y-5197285D01*
X32807330Y-5197285D02*
X32978759Y-5140142D01*
X32978759Y-5140142D02*
X33093045Y-5140142D01*
X33093045Y-5140142D02*
X33264473Y-5197285D01*
X33264473Y-5197285D02*
X33321616Y-5254428D01*
X33835902Y-6340142D02*
X33835902Y-5140142D01*
X34350188Y-6340142D02*
X34350188Y-5711571D01*
X34350188Y-5711571D02*
X34293045Y-5597285D01*
X34293045Y-5597285D02*
X34178759Y-5540142D01*
X34178759Y-5540142D02*
X34007330Y-5540142D01*
X34007330Y-5540142D02*
X33893045Y-5597285D01*
X33893045Y-5597285D02*
X33835902Y-5654428D01*
X34921616Y-6340142D02*
X34921616Y-5540142D01*
X34921616Y-5140142D02*
X34864473Y-5197285D01*
X34864473Y-5197285D02*
X34921616Y-5254428D01*
X34921616Y-5254428D02*
X34978759Y-5197285D01*
X34978759Y-5197285D02*
X34921616Y-5140142D01*
X34921616Y-5140142D02*
X34921616Y-5254428D01*
X35493045Y-5540142D02*
X35493045Y-6740142D01*
X35493045Y-5597285D02*
X35607331Y-5540142D01*
X35607331Y-5540142D02*
X35835902Y-5540142D01*
X35835902Y-5540142D02*
X35950188Y-5597285D01*
X35950188Y-5597285D02*
X36007331Y-5654428D01*
X36007331Y-5654428D02*
X36064473Y-5768714D01*
X36064473Y-5768714D02*
X36064473Y-6111571D01*
X36064473Y-6111571D02*
X36007331Y-6225857D01*
X36007331Y-6225857D02*
X35950188Y-6283000D01*
X35950188Y-6283000D02*
X35835902Y-6340142D01*
X35835902Y-6340142D02*
X35607331Y-6340142D01*
X35607331Y-6340142D02*
X35493045Y-6283000D01*
X38007331Y-6283000D02*
X37893045Y-6340142D01*
X37893045Y-6340142D02*
X37664473Y-6340142D01*
X37664473Y-6340142D02*
X37550188Y-6283000D01*
X37550188Y-6283000D02*
X37493045Y-6225857D01*
X37493045Y-6225857D02*
X37435902Y-6111571D01*
X37435902Y-6111571D02*
X37435902Y-5768714D01*
X37435902Y-5768714D02*
X37493045Y-5654428D01*
X37493045Y-5654428D02*
X37550188Y-5597285D01*
X37550188Y-5597285D02*
X37664473Y-5540142D01*
X37664473Y-5540142D02*
X37893045Y-5540142D01*
X37893045Y-5540142D02*
X38007331Y-5597285D01*
X38693044Y-6340142D02*
X38578759Y-6283000D01*
X38578759Y-6283000D02*
X38521616Y-6225857D01*
X38521616Y-6225857D02*
X38464473Y-6111571D01*
X38464473Y-6111571D02*
X38464473Y-5768714D01*
X38464473Y-5768714D02*
X38521616Y-5654428D01*
X38521616Y-5654428D02*
X38578759Y-5597285D01*
X38578759Y-5597285D02*
X38693044Y-5540142D01*
X38693044Y-5540142D02*
X38864473Y-5540142D01*
X38864473Y-5540142D02*
X38978759Y-5597285D01*
X38978759Y-5597285D02*
X39035902Y-5654428D01*
X39035902Y-5654428D02*
X39093044Y-5768714D01*
X39093044Y-5768714D02*
X39093044Y-6111571D01*
X39093044Y-6111571D02*
X39035902Y-6225857D01*
X39035902Y-6225857D02*
X38978759Y-6283000D01*
X38978759Y-6283000D02*
X38864473Y-6340142D01*
X38864473Y-6340142D02*
X38693044Y-6340142D01*
X39607330Y-6340142D02*
X39607330Y-5540142D01*
X39607330Y-5654428D02*
X39664473Y-5597285D01*
X39664473Y-5597285D02*
X39778758Y-5540142D01*
X39778758Y-5540142D02*
X39950187Y-5540142D01*
X39950187Y-5540142D02*
X40064473Y-5597285D01*
X40064473Y-5597285D02*
X40121616Y-5711571D01*
X40121616Y-5711571D02*
X40121616Y-6340142D01*
X40121616Y-5711571D02*
X40178758Y-5597285D01*
X40178758Y-5597285D02*
X40293044Y-5540142D01*
X40293044Y-5540142D02*
X40464473Y-5540142D01*
X40464473Y-5540142D02*
X40578758Y-5597285D01*
X40578758Y-5597285D02*
X40635901Y-5711571D01*
X40635901Y-5711571D02*
X40635901Y-6340142D01*
X41207330Y-5540142D02*
X41207330Y-6740142D01*
X41207330Y-5597285D02*
X41321616Y-5540142D01*
X41321616Y-5540142D02*
X41550187Y-5540142D01*
X41550187Y-5540142D02*
X41664473Y-5597285D01*
X41664473Y-5597285D02*
X41721616Y-5654428D01*
X41721616Y-5654428D02*
X41778758Y-5768714D01*
X41778758Y-5768714D02*
X41778758Y-6111571D01*
X41778758Y-6111571D02*
X41721616Y-6225857D01*
X41721616Y-6225857D02*
X41664473Y-6283000D01*
X41664473Y-6283000D02*
X41550187Y-6340142D01*
X41550187Y-6340142D02*
X41321616Y-6340142D01*
X41321616Y-6340142D02*
X41207330Y-6283000D01*
X42750187Y-6283000D02*
X42635901Y-6340142D01*
X42635901Y-6340142D02*
X42407330Y-6340142D01*
X42407330Y-6340142D02*
X42293044Y-6283000D01*
X42293044Y-6283000D02*
X42235901Y-6168714D01*
X42235901Y-6168714D02*
X42235901Y-5711571D01*
X42235901Y-5711571D02*
X42293044Y-5597285D01*
X42293044Y-5597285D02*
X42407330Y-5540142D01*
X42407330Y-5540142D02*
X42635901Y-5540142D01*
X42635901Y-5540142D02*
X42750187Y-5597285D01*
X42750187Y-5597285D02*
X42807330Y-5711571D01*
X42807330Y-5711571D02*
X42807330Y-5825857D01*
X42807330Y-5825857D02*
X42235901Y-5940142D01*
X43150186Y-5540142D02*
X43607329Y-5540142D01*
X43321615Y-5140142D02*
X43321615Y-6168714D01*
X43321615Y-6168714D02*
X43378758Y-6283000D01*
X43378758Y-6283000D02*
X43493043Y-6340142D01*
X43493043Y-6340142D02*
X43607329Y-6340142D01*
X44007329Y-6340142D02*
X44007329Y-5540142D01*
X44007329Y-5140142D02*
X43950186Y-5197285D01*
X43950186Y-5197285D02*
X44007329Y-5254428D01*
X44007329Y-5254428D02*
X44064472Y-5197285D01*
X44064472Y-5197285D02*
X44007329Y-5140142D01*
X44007329Y-5140142D02*
X44007329Y-5254428D01*
X44407329Y-5540142D02*
X44864472Y-5540142D01*
X44578758Y-5140142D02*
X44578758Y-6168714D01*
X44578758Y-6168714D02*
X44635901Y-6283000D01*
X44635901Y-6283000D02*
X44750186Y-6340142D01*
X44750186Y-6340142D02*
X44864472Y-6340142D01*
X45264472Y-6340142D02*
X45264472Y-5540142D01*
X45264472Y-5140142D02*
X45207329Y-5197285D01*
X45207329Y-5197285D02*
X45264472Y-5254428D01*
X45264472Y-5254428D02*
X45321615Y-5197285D01*
X45321615Y-5197285D02*
X45264472Y-5140142D01*
X45264472Y-5140142D02*
X45264472Y-5254428D01*
X46007329Y-6340142D02*
X45893044Y-6283000D01*
X45893044Y-6283000D02*
X45835901Y-6225857D01*
X45835901Y-6225857D02*
X45778758Y-6111571D01*
X45778758Y-6111571D02*
X45778758Y-5768714D01*
X45778758Y-5768714D02*
X45835901Y-5654428D01*
X45835901Y-5654428D02*
X45893044Y-5597285D01*
X45893044Y-5597285D02*
X46007329Y-5540142D01*
X46007329Y-5540142D02*
X46178758Y-5540142D01*
X46178758Y-5540142D02*
X46293044Y-5597285D01*
X46293044Y-5597285D02*
X46350187Y-5654428D01*
X46350187Y-5654428D02*
X46407329Y-5768714D01*
X46407329Y-5768714D02*
X46407329Y-6111571D01*
X46407329Y-6111571D02*
X46350187Y-6225857D01*
X46350187Y-6225857D02*
X46293044Y-6283000D01*
X46293044Y-6283000D02*
X46178758Y-6340142D01*
X46178758Y-6340142D02*
X46007329Y-6340142D01*
X46921615Y-5540142D02*
X46921615Y-6340142D01*
X46921615Y-5654428D02*
X46978758Y-5597285D01*
X46978758Y-5597285D02*
X47093043Y-5540142D01*
X47093043Y-5540142D02*
X47264472Y-5540142D01*
X47264472Y-5540142D02*
X47378758Y-5597285D01*
X47378758Y-5597285D02*
X47435901Y-5711571D01*
X47435901Y-5711571D02*
X47435901Y-6340142D01*
D10*
X48500000Y-6000000D02*
X84500000Y-6000000D01*
X21000000Y-6000000D02*
X20000000Y-7000000D01*
X20000000Y-7000000D02*
X20000000Y-11000000D01*
X20000000Y-11000000D02*
X21000000Y-12000000D01*
X85500000Y-7000000D02*
X85500000Y-11000000D01*
X84500000Y-6000000D02*
X85500000Y-7000000D01*
X21000000Y-6000000D02*
X23000000Y-6000000D01*
X21000000Y-12000000D02*
X84500000Y-12000000D01*
D11*
X22786966Y-10234438D02*
X21644109Y-10234438D01*
X22215537Y-10234438D02*
X22215537Y-8234438D01*
X22215537Y-8234438D02*
X22025061Y-8520152D01*
X22025061Y-8520152D02*
X21834585Y-8710628D01*
X21834585Y-8710628D02*
X21644109Y-8805866D01*
X23548871Y-8424914D02*
X23644109Y-8329676D01*
X23644109Y-8329676D02*
X23834585Y-8234438D01*
X23834585Y-8234438D02*
X24310776Y-8234438D01*
X24310776Y-8234438D02*
X24501252Y-8329676D01*
X24501252Y-8329676D02*
X24596490Y-8424914D01*
X24596490Y-8424914D02*
X24691728Y-8615390D01*
X24691728Y-8615390D02*
X24691728Y-8805866D01*
X24691728Y-8805866D02*
X24596490Y-9091580D01*
X24596490Y-9091580D02*
X23453633Y-10234438D01*
X23453633Y-10234438D02*
X24691728Y-10234438D01*
X25548871Y-9472533D02*
X27072681Y-9472533D01*
X28025061Y-10234438D02*
X28025061Y-8234438D01*
X28025061Y-8996342D02*
X28215537Y-8901104D01*
X28215537Y-8901104D02*
X28596490Y-8901104D01*
X28596490Y-8901104D02*
X28786966Y-8996342D01*
X28786966Y-8996342D02*
X28882204Y-9091580D01*
X28882204Y-9091580D02*
X28977442Y-9282057D01*
X28977442Y-9282057D02*
X28977442Y-9853485D01*
X28977442Y-9853485D02*
X28882204Y-10043961D01*
X28882204Y-10043961D02*
X28786966Y-10139200D01*
X28786966Y-10139200D02*
X28596490Y-10234438D01*
X28596490Y-10234438D02*
X28215537Y-10234438D01*
X28215537Y-10234438D02*
X28025061Y-10139200D01*
X29834585Y-10234438D02*
X29834585Y-8901104D01*
X29834585Y-8234438D02*
X29739347Y-8329676D01*
X29739347Y-8329676D02*
X29834585Y-8424914D01*
X29834585Y-8424914D02*
X29929823Y-8329676D01*
X29929823Y-8329676D02*
X29834585Y-8234438D01*
X29834585Y-8234438D02*
X29834585Y-8424914D01*
X30501252Y-8901104D02*
X31263156Y-8901104D01*
X30786966Y-8234438D02*
X30786966Y-9948723D01*
X30786966Y-9948723D02*
X30882204Y-10139200D01*
X30882204Y-10139200D02*
X31072680Y-10234438D01*
X31072680Y-10234438D02*
X31263156Y-10234438D01*
X34596490Y-10043961D02*
X34501252Y-10139200D01*
X34501252Y-10139200D02*
X34215538Y-10234438D01*
X34215538Y-10234438D02*
X34025062Y-10234438D01*
X34025062Y-10234438D02*
X33739347Y-10139200D01*
X33739347Y-10139200D02*
X33548871Y-9948723D01*
X33548871Y-9948723D02*
X33453633Y-9758247D01*
X33453633Y-9758247D02*
X33358395Y-9377295D01*
X33358395Y-9377295D02*
X33358395Y-9091580D01*
X33358395Y-9091580D02*
X33453633Y-8710628D01*
X33453633Y-8710628D02*
X33548871Y-8520152D01*
X33548871Y-8520152D02*
X33739347Y-8329676D01*
X33739347Y-8329676D02*
X34025062Y-8234438D01*
X34025062Y-8234438D02*
X34215538Y-8234438D01*
X34215538Y-8234438D02*
X34501252Y-8329676D01*
X34501252Y-8329676D02*
X34596490Y-8424914D01*
X35834585Y-8234438D02*
X36215538Y-8234438D01*
X36215538Y-8234438D02*
X36406014Y-8329676D01*
X36406014Y-8329676D02*
X36596490Y-8520152D01*
X36596490Y-8520152D02*
X36691728Y-8901104D01*
X36691728Y-8901104D02*
X36691728Y-9567771D01*
X36691728Y-9567771D02*
X36596490Y-9948723D01*
X36596490Y-9948723D02*
X36406014Y-10139200D01*
X36406014Y-10139200D02*
X36215538Y-10234438D01*
X36215538Y-10234438D02*
X35834585Y-10234438D01*
X35834585Y-10234438D02*
X35644109Y-10139200D01*
X35644109Y-10139200D02*
X35453633Y-9948723D01*
X35453633Y-9948723D02*
X35358395Y-9567771D01*
X35358395Y-9567771D02*
X35358395Y-8901104D01*
X35358395Y-8901104D02*
X35453633Y-8520152D01*
X35453633Y-8520152D02*
X35644109Y-8329676D01*
X35644109Y-8329676D02*
X35834585Y-8234438D01*
X38691728Y-10234438D02*
X38025061Y-9282057D01*
X37548871Y-10234438D02*
X37548871Y-8234438D01*
X37548871Y-8234438D02*
X38310776Y-8234438D01*
X38310776Y-8234438D02*
X38501252Y-8329676D01*
X38501252Y-8329676D02*
X38596490Y-8424914D01*
X38596490Y-8424914D02*
X38691728Y-8615390D01*
X38691728Y-8615390D02*
X38691728Y-8901104D01*
X38691728Y-8901104D02*
X38596490Y-9091580D01*
X38596490Y-9091580D02*
X38501252Y-9186819D01*
X38501252Y-9186819D02*
X38310776Y-9282057D01*
X38310776Y-9282057D02*
X37548871Y-9282057D01*
X39548871Y-10234438D02*
X39548871Y-8234438D01*
X39548871Y-8234438D02*
X40025061Y-8234438D01*
X40025061Y-8234438D02*
X40310776Y-8329676D01*
X40310776Y-8329676D02*
X40501252Y-8520152D01*
X40501252Y-8520152D02*
X40596490Y-8710628D01*
X40596490Y-8710628D02*
X40691728Y-9091580D01*
X40691728Y-9091580D02*
X40691728Y-9377295D01*
X40691728Y-9377295D02*
X40596490Y-9758247D01*
X40596490Y-9758247D02*
X40501252Y-9948723D01*
X40501252Y-9948723D02*
X40310776Y-10139200D01*
X40310776Y-10139200D02*
X40025061Y-10234438D01*
X40025061Y-10234438D02*
X39548871Y-10234438D01*
X41548871Y-10234438D02*
X41548871Y-8234438D01*
X43644109Y-10043961D02*
X43548871Y-10139200D01*
X43548871Y-10139200D02*
X43263157Y-10234438D01*
X43263157Y-10234438D02*
X43072681Y-10234438D01*
X43072681Y-10234438D02*
X42786966Y-10139200D01*
X42786966Y-10139200D02*
X42596490Y-9948723D01*
X42596490Y-9948723D02*
X42501252Y-9758247D01*
X42501252Y-9758247D02*
X42406014Y-9377295D01*
X42406014Y-9377295D02*
X42406014Y-9091580D01*
X42406014Y-9091580D02*
X42501252Y-8710628D01*
X42501252Y-8710628D02*
X42596490Y-8520152D01*
X42596490Y-8520152D02*
X42786966Y-8329676D01*
X42786966Y-8329676D02*
X43072681Y-8234438D01*
X43072681Y-8234438D02*
X43263157Y-8234438D01*
X43263157Y-8234438D02*
X43548871Y-8329676D01*
X43548871Y-8329676D02*
X43644109Y-8424914D01*
X46691729Y-9186819D02*
X46977443Y-9282057D01*
X46977443Y-9282057D02*
X47072681Y-9377295D01*
X47072681Y-9377295D02*
X47167919Y-9567771D01*
X47167919Y-9567771D02*
X47167919Y-9853485D01*
X47167919Y-9853485D02*
X47072681Y-10043961D01*
X47072681Y-10043961D02*
X46977443Y-10139200D01*
X46977443Y-10139200D02*
X46786967Y-10234438D01*
X46786967Y-10234438D02*
X46025062Y-10234438D01*
X46025062Y-10234438D02*
X46025062Y-8234438D01*
X46025062Y-8234438D02*
X46691729Y-8234438D01*
X46691729Y-8234438D02*
X46882205Y-8329676D01*
X46882205Y-8329676D02*
X46977443Y-8424914D01*
X46977443Y-8424914D02*
X47072681Y-8615390D01*
X47072681Y-8615390D02*
X47072681Y-8805866D01*
X47072681Y-8805866D02*
X46977443Y-8996342D01*
X46977443Y-8996342D02*
X46882205Y-9091580D01*
X46882205Y-9091580D02*
X46691729Y-9186819D01*
X46691729Y-9186819D02*
X46025062Y-9186819D01*
X48882205Y-10234438D02*
X48882205Y-9186819D01*
X48882205Y-9186819D02*
X48786967Y-8996342D01*
X48786967Y-8996342D02*
X48596491Y-8901104D01*
X48596491Y-8901104D02*
X48215538Y-8901104D01*
X48215538Y-8901104D02*
X48025062Y-8996342D01*
X48882205Y-10139200D02*
X48691729Y-10234438D01*
X48691729Y-10234438D02*
X48215538Y-10234438D01*
X48215538Y-10234438D02*
X48025062Y-10139200D01*
X48025062Y-10139200D02*
X47929824Y-9948723D01*
X47929824Y-9948723D02*
X47929824Y-9758247D01*
X47929824Y-9758247D02*
X48025062Y-9567771D01*
X48025062Y-9567771D02*
X48215538Y-9472533D01*
X48215538Y-9472533D02*
X48691729Y-9472533D01*
X48691729Y-9472533D02*
X48882205Y-9377295D01*
X49739348Y-10139200D02*
X49929824Y-10234438D01*
X49929824Y-10234438D02*
X50310776Y-10234438D01*
X50310776Y-10234438D02*
X50501253Y-10139200D01*
X50501253Y-10139200D02*
X50596491Y-9948723D01*
X50596491Y-9948723D02*
X50596491Y-9853485D01*
X50596491Y-9853485D02*
X50501253Y-9663009D01*
X50501253Y-9663009D02*
X50310776Y-9567771D01*
X50310776Y-9567771D02*
X50025062Y-9567771D01*
X50025062Y-9567771D02*
X49834586Y-9472533D01*
X49834586Y-9472533D02*
X49739348Y-9282057D01*
X49739348Y-9282057D02*
X49739348Y-9186819D01*
X49739348Y-9186819D02*
X49834586Y-8996342D01*
X49834586Y-8996342D02*
X50025062Y-8901104D01*
X50025062Y-8901104D02*
X50310776Y-8901104D01*
X50310776Y-8901104D02*
X50501253Y-8996342D01*
X52215539Y-10139200D02*
X52025063Y-10234438D01*
X52025063Y-10234438D02*
X51644110Y-10234438D01*
X51644110Y-10234438D02*
X51453634Y-10139200D01*
X51453634Y-10139200D02*
X51358396Y-9948723D01*
X51358396Y-9948723D02*
X51358396Y-9186819D01*
X51358396Y-9186819D02*
X51453634Y-8996342D01*
X51453634Y-8996342D02*
X51644110Y-8901104D01*
X51644110Y-8901104D02*
X52025063Y-8901104D01*
X52025063Y-8901104D02*
X52215539Y-8996342D01*
X52215539Y-8996342D02*
X52310777Y-9186819D01*
X52310777Y-9186819D02*
X52310777Y-9377295D01*
X52310777Y-9377295D02*
X51358396Y-9567771D01*
X54025063Y-10234438D02*
X54025063Y-8234438D01*
X54025063Y-10139200D02*
X53834587Y-10234438D01*
X53834587Y-10234438D02*
X53453634Y-10234438D01*
X53453634Y-10234438D02*
X53263158Y-10139200D01*
X53263158Y-10139200D02*
X53167920Y-10043961D01*
X53167920Y-10043961D02*
X53072682Y-9853485D01*
X53072682Y-9853485D02*
X53072682Y-9282057D01*
X53072682Y-9282057D02*
X53167920Y-9091580D01*
X53167920Y-9091580D02*
X53263158Y-8996342D01*
X53263158Y-8996342D02*
X53453634Y-8901104D01*
X53453634Y-8901104D02*
X53834587Y-8901104D01*
X53834587Y-8901104D02*
X54025063Y-8996342D01*
X56501254Y-10234438D02*
X56501254Y-8234438D01*
X56501254Y-8234438D02*
X57644111Y-10234438D01*
X57644111Y-10234438D02*
X57644111Y-8234438D01*
X59739349Y-10043961D02*
X59644111Y-10139200D01*
X59644111Y-10139200D02*
X59358397Y-10234438D01*
X59358397Y-10234438D02*
X59167921Y-10234438D01*
X59167921Y-10234438D02*
X58882206Y-10139200D01*
X58882206Y-10139200D02*
X58691730Y-9948723D01*
X58691730Y-9948723D02*
X58596492Y-9758247D01*
X58596492Y-9758247D02*
X58501254Y-9377295D01*
X58501254Y-9377295D02*
X58501254Y-9091580D01*
X58501254Y-9091580D02*
X58596492Y-8710628D01*
X58596492Y-8710628D02*
X58691730Y-8520152D01*
X58691730Y-8520152D02*
X58882206Y-8329676D01*
X58882206Y-8329676D02*
X59167921Y-8234438D01*
X59167921Y-8234438D02*
X59358397Y-8234438D01*
X59358397Y-8234438D02*
X59644111Y-8329676D01*
X59644111Y-8329676D02*
X59739349Y-8424914D01*
X60977444Y-8234438D02*
X61358397Y-8234438D01*
X61358397Y-8234438D02*
X61548873Y-8329676D01*
X61548873Y-8329676D02*
X61739349Y-8520152D01*
X61739349Y-8520152D02*
X61834587Y-8901104D01*
X61834587Y-8901104D02*
X61834587Y-9567771D01*
X61834587Y-9567771D02*
X61739349Y-9948723D01*
X61739349Y-9948723D02*
X61548873Y-10139200D01*
X61548873Y-10139200D02*
X61358397Y-10234438D01*
X61358397Y-10234438D02*
X60977444Y-10234438D01*
X60977444Y-10234438D02*
X60786968Y-10139200D01*
X60786968Y-10139200D02*
X60596492Y-9948723D01*
X60596492Y-9948723D02*
X60501254Y-9567771D01*
X60501254Y-9567771D02*
X60501254Y-8901104D01*
X60501254Y-8901104D02*
X60596492Y-8520152D01*
X60596492Y-8520152D02*
X60786968Y-8329676D01*
X60786968Y-8329676D02*
X60977444Y-8234438D01*
X64120302Y-10139200D02*
X64406016Y-10234438D01*
X64406016Y-10234438D02*
X64882207Y-10234438D01*
X64882207Y-10234438D02*
X65072683Y-10139200D01*
X65072683Y-10139200D02*
X65167921Y-10043961D01*
X65167921Y-10043961D02*
X65263159Y-9853485D01*
X65263159Y-9853485D02*
X65263159Y-9663009D01*
X65263159Y-9663009D02*
X65167921Y-9472533D01*
X65167921Y-9472533D02*
X65072683Y-9377295D01*
X65072683Y-9377295D02*
X64882207Y-9282057D01*
X64882207Y-9282057D02*
X64501254Y-9186819D01*
X64501254Y-9186819D02*
X64310778Y-9091580D01*
X64310778Y-9091580D02*
X64215540Y-8996342D01*
X64215540Y-8996342D02*
X64120302Y-8805866D01*
X64120302Y-8805866D02*
X64120302Y-8615390D01*
X64120302Y-8615390D02*
X64215540Y-8424914D01*
X64215540Y-8424914D02*
X64310778Y-8329676D01*
X64310778Y-8329676D02*
X64501254Y-8234438D01*
X64501254Y-8234438D02*
X64977445Y-8234438D01*
X64977445Y-8234438D02*
X65263159Y-8329676D01*
X65929826Y-8901104D02*
X66406016Y-10234438D01*
X66882207Y-8901104D02*
X66406016Y-10234438D01*
X66406016Y-10234438D02*
X66215540Y-10710628D01*
X66215540Y-10710628D02*
X66120302Y-10805866D01*
X66120302Y-10805866D02*
X65929826Y-10901104D01*
X67548874Y-10139200D02*
X67739350Y-10234438D01*
X67739350Y-10234438D02*
X68120302Y-10234438D01*
X68120302Y-10234438D02*
X68310779Y-10139200D01*
X68310779Y-10139200D02*
X68406017Y-9948723D01*
X68406017Y-9948723D02*
X68406017Y-9853485D01*
X68406017Y-9853485D02*
X68310779Y-9663009D01*
X68310779Y-9663009D02*
X68120302Y-9567771D01*
X68120302Y-9567771D02*
X67834588Y-9567771D01*
X67834588Y-9567771D02*
X67644112Y-9472533D01*
X67644112Y-9472533D02*
X67548874Y-9282057D01*
X67548874Y-9282057D02*
X67548874Y-9186819D01*
X67548874Y-9186819D02*
X67644112Y-8996342D01*
X67644112Y-8996342D02*
X67834588Y-8901104D01*
X67834588Y-8901104D02*
X68120302Y-8901104D01*
X68120302Y-8901104D02*
X68310779Y-8996342D01*
X68977446Y-8901104D02*
X69739350Y-8901104D01*
X69263160Y-8234438D02*
X69263160Y-9948723D01*
X69263160Y-9948723D02*
X69358398Y-10139200D01*
X69358398Y-10139200D02*
X69548874Y-10234438D01*
X69548874Y-10234438D02*
X69739350Y-10234438D01*
X71167922Y-10139200D02*
X70977446Y-10234438D01*
X70977446Y-10234438D02*
X70596493Y-10234438D01*
X70596493Y-10234438D02*
X70406017Y-10139200D01*
X70406017Y-10139200D02*
X70310779Y-9948723D01*
X70310779Y-9948723D02*
X70310779Y-9186819D01*
X70310779Y-9186819D02*
X70406017Y-8996342D01*
X70406017Y-8996342D02*
X70596493Y-8901104D01*
X70596493Y-8901104D02*
X70977446Y-8901104D01*
X70977446Y-8901104D02*
X71167922Y-8996342D01*
X71167922Y-8996342D02*
X71263160Y-9186819D01*
X71263160Y-9186819D02*
X71263160Y-9377295D01*
X71263160Y-9377295D02*
X70310779Y-9567771D01*
X72120303Y-10234438D02*
X72120303Y-8901104D01*
X72120303Y-9091580D02*
X72215541Y-8996342D01*
X72215541Y-8996342D02*
X72406017Y-8901104D01*
X72406017Y-8901104D02*
X72691732Y-8901104D01*
X72691732Y-8901104D02*
X72882208Y-8996342D01*
X72882208Y-8996342D02*
X72977446Y-9186819D01*
X72977446Y-9186819D02*
X72977446Y-10234438D01*
X72977446Y-9186819D02*
X73072684Y-8996342D01*
X73072684Y-8996342D02*
X73263160Y-8901104D01*
X73263160Y-8901104D02*
X73548874Y-8901104D01*
X73548874Y-8901104D02*
X73739351Y-8996342D01*
X73739351Y-8996342D02*
X73834589Y-9186819D01*
X73834589Y-9186819D02*
X73834589Y-10234438D01*
X76977447Y-9186819D02*
X77263161Y-9282057D01*
X77263161Y-9282057D02*
X77358399Y-9377295D01*
X77358399Y-9377295D02*
X77453637Y-9567771D01*
X77453637Y-9567771D02*
X77453637Y-9853485D01*
X77453637Y-9853485D02*
X77358399Y-10043961D01*
X77358399Y-10043961D02*
X77263161Y-10139200D01*
X77263161Y-10139200D02*
X77072685Y-10234438D01*
X77072685Y-10234438D02*
X76310780Y-10234438D01*
X76310780Y-10234438D02*
X76310780Y-8234438D01*
X76310780Y-8234438D02*
X76977447Y-8234438D01*
X76977447Y-8234438D02*
X77167923Y-8329676D01*
X77167923Y-8329676D02*
X77263161Y-8424914D01*
X77263161Y-8424914D02*
X77358399Y-8615390D01*
X77358399Y-8615390D02*
X77358399Y-8805866D01*
X77358399Y-8805866D02*
X77263161Y-8996342D01*
X77263161Y-8996342D02*
X77167923Y-9091580D01*
X77167923Y-9091580D02*
X76977447Y-9186819D01*
X76977447Y-9186819D02*
X76310780Y-9186819D01*
X78596494Y-10234438D02*
X78406018Y-10139200D01*
X78406018Y-10139200D02*
X78310780Y-10043961D01*
X78310780Y-10043961D02*
X78215542Y-9853485D01*
X78215542Y-9853485D02*
X78215542Y-9282057D01*
X78215542Y-9282057D02*
X78310780Y-9091580D01*
X78310780Y-9091580D02*
X78406018Y-8996342D01*
X78406018Y-8996342D02*
X78596494Y-8901104D01*
X78596494Y-8901104D02*
X78882209Y-8901104D01*
X78882209Y-8901104D02*
X79072685Y-8996342D01*
X79072685Y-8996342D02*
X79167923Y-9091580D01*
X79167923Y-9091580D02*
X79263161Y-9282057D01*
X79263161Y-9282057D02*
X79263161Y-9853485D01*
X79263161Y-9853485D02*
X79167923Y-10043961D01*
X79167923Y-10043961D02*
X79072685Y-10139200D01*
X79072685Y-10139200D02*
X78882209Y-10234438D01*
X78882209Y-10234438D02*
X78596494Y-10234438D01*
X80977447Y-10234438D02*
X80977447Y-9186819D01*
X80977447Y-9186819D02*
X80882209Y-8996342D01*
X80882209Y-8996342D02*
X80691733Y-8901104D01*
X80691733Y-8901104D02*
X80310780Y-8901104D01*
X80310780Y-8901104D02*
X80120304Y-8996342D01*
X80977447Y-10139200D02*
X80786971Y-10234438D01*
X80786971Y-10234438D02*
X80310780Y-10234438D01*
X80310780Y-10234438D02*
X80120304Y-10139200D01*
X80120304Y-10139200D02*
X80025066Y-9948723D01*
X80025066Y-9948723D02*
X80025066Y-9758247D01*
X80025066Y-9758247D02*
X80120304Y-9567771D01*
X80120304Y-9567771D02*
X80310780Y-9472533D01*
X80310780Y-9472533D02*
X80786971Y-9472533D01*
X80786971Y-9472533D02*
X80977447Y-9377295D01*
X81929828Y-10234438D02*
X81929828Y-8901104D01*
X81929828Y-9282057D02*
X82025066Y-9091580D01*
X82025066Y-9091580D02*
X82120304Y-8996342D01*
X82120304Y-8996342D02*
X82310780Y-8901104D01*
X82310780Y-8901104D02*
X82501257Y-8901104D01*
X84025066Y-10234438D02*
X84025066Y-8234438D01*
X84025066Y-10139200D02*
X83834590Y-10234438D01*
X83834590Y-10234438D02*
X83453637Y-10234438D01*
X83453637Y-10234438D02*
X83263161Y-10139200D01*
X83263161Y-10139200D02*
X83167923Y-10043961D01*
X83167923Y-10043961D02*
X83072685Y-9853485D01*
X83072685Y-9853485D02*
X83072685Y-9282057D01*
X83072685Y-9282057D02*
X83167923Y-9091580D01*
X83167923Y-9091580D02*
X83263161Y-8996342D01*
X83263161Y-8996342D02*
X83453637Y-8901104D01*
X83453637Y-8901104D02*
X83834590Y-8901104D01*
X83834590Y-8901104D02*
X84025066Y-8996342D01*
D10*
X85500000Y-11000000D02*
X84500000Y-12000000D01*
D15*
X50199623Y-14089622D02*
X50349623Y-12889622D01*
X50349623Y-12889622D02*
X50635337Y-12889622D01*
X50635337Y-12889622D02*
X50799623Y-12946765D01*
X50799623Y-12946765D02*
X50899623Y-13061051D01*
X50899623Y-13061051D02*
X50942480Y-13175337D01*
X50942480Y-13175337D02*
X50971052Y-13403908D01*
X50971052Y-13403908D02*
X50949623Y-13575337D01*
X50949623Y-13575337D02*
X50863909Y-13803908D01*
X50863909Y-13803908D02*
X50792480Y-13918194D01*
X50792480Y-13918194D02*
X50663909Y-14032480D01*
X50663909Y-14032480D02*
X50485337Y-14089622D01*
X50485337Y-14089622D02*
X50199623Y-14089622D01*
X51863909Y-14032480D02*
X51742480Y-14089622D01*
X51742480Y-14089622D02*
X51513909Y-14089622D01*
X51513909Y-14089622D02*
X51406766Y-14032480D01*
X51406766Y-14032480D02*
X51363909Y-13918194D01*
X51363909Y-13918194D02*
X51421052Y-13461051D01*
X51421052Y-13461051D02*
X51492480Y-13346765D01*
X51492480Y-13346765D02*
X51613909Y-13289622D01*
X51613909Y-13289622D02*
X51842480Y-13289622D01*
X51842480Y-13289622D02*
X51949623Y-13346765D01*
X51949623Y-13346765D02*
X51992480Y-13461051D01*
X51992480Y-13461051D02*
X51978194Y-13575337D01*
X51978194Y-13575337D02*
X51392480Y-13689622D01*
X52378194Y-14032480D02*
X52485337Y-14089622D01*
X52485337Y-14089622D02*
X52713908Y-14089622D01*
X52713908Y-14089622D02*
X52835337Y-14032480D01*
X52835337Y-14032480D02*
X52906765Y-13918194D01*
X52906765Y-13918194D02*
X52913908Y-13861051D01*
X52913908Y-13861051D02*
X52871051Y-13746765D01*
X52871051Y-13746765D02*
X52763908Y-13689622D01*
X52763908Y-13689622D02*
X52592480Y-13689622D01*
X52592480Y-13689622D02*
X52485337Y-13632480D01*
X52485337Y-13632480D02*
X52442480Y-13518194D01*
X52442480Y-13518194D02*
X52449623Y-13461051D01*
X52449623Y-13461051D02*
X52521051Y-13346765D01*
X52521051Y-13346765D02*
X52642480Y-13289622D01*
X52642480Y-13289622D02*
X52813908Y-13289622D01*
X52813908Y-13289622D02*
X52921051Y-13346765D01*
X53399623Y-14089622D02*
X53499623Y-13289622D01*
X53549623Y-12889622D02*
X53485337Y-12946765D01*
X53485337Y-12946765D02*
X53535337Y-13003908D01*
X53535337Y-13003908D02*
X53599623Y-12946765D01*
X53599623Y-12946765D02*
X53549623Y-12889622D01*
X53549623Y-12889622D02*
X53535337Y-13003908D01*
X54585338Y-13289622D02*
X54463909Y-14261051D01*
X54463909Y-14261051D02*
X54392481Y-14375337D01*
X54392481Y-14375337D02*
X54328195Y-14432480D01*
X54328195Y-14432480D02*
X54206766Y-14489622D01*
X54206766Y-14489622D02*
X54035338Y-14489622D01*
X54035338Y-14489622D02*
X53928195Y-14432480D01*
X54492481Y-14032480D02*
X54371052Y-14089622D01*
X54371052Y-14089622D02*
X54142481Y-14089622D01*
X54142481Y-14089622D02*
X54035338Y-14032480D01*
X54035338Y-14032480D02*
X53985338Y-13975337D01*
X53985338Y-13975337D02*
X53942481Y-13861051D01*
X53942481Y-13861051D02*
X53985338Y-13518194D01*
X53985338Y-13518194D02*
X54056766Y-13403908D01*
X54056766Y-13403908D02*
X54121052Y-13346765D01*
X54121052Y-13346765D02*
X54242481Y-13289622D01*
X54242481Y-13289622D02*
X54471052Y-13289622D01*
X54471052Y-13289622D02*
X54578195Y-13346765D01*
X55156766Y-13289622D02*
X55056766Y-14089622D01*
X55142480Y-13403908D02*
X55206766Y-13346765D01*
X55206766Y-13346765D02*
X55328195Y-13289622D01*
X55328195Y-13289622D02*
X55499623Y-13289622D01*
X55499623Y-13289622D02*
X55606766Y-13346765D01*
X55606766Y-13346765D02*
X55649623Y-13461051D01*
X55649623Y-13461051D02*
X55571052Y-14089622D01*
X56606766Y-14032480D02*
X56485337Y-14089622D01*
X56485337Y-14089622D02*
X56256766Y-14089622D01*
X56256766Y-14089622D02*
X56149623Y-14032480D01*
X56149623Y-14032480D02*
X56106766Y-13918194D01*
X56106766Y-13918194D02*
X56163909Y-13461051D01*
X56163909Y-13461051D02*
X56235337Y-13346765D01*
X56235337Y-13346765D02*
X56356766Y-13289622D01*
X56356766Y-13289622D02*
X56585337Y-13289622D01*
X56585337Y-13289622D02*
X56692480Y-13346765D01*
X56692480Y-13346765D02*
X56735337Y-13461051D01*
X56735337Y-13461051D02*
X56721051Y-13575337D01*
X56721051Y-13575337D02*
X56135337Y-13689622D01*
X57685337Y-14089622D02*
X57835337Y-12889622D01*
X57692480Y-14032480D02*
X57571051Y-14089622D01*
X57571051Y-14089622D02*
X57342480Y-14089622D01*
X57342480Y-14089622D02*
X57235337Y-14032480D01*
X57235337Y-14032480D02*
X57185337Y-13975337D01*
X57185337Y-13975337D02*
X57142480Y-13861051D01*
X57142480Y-13861051D02*
X57185337Y-13518194D01*
X57185337Y-13518194D02*
X57256765Y-13403908D01*
X57256765Y-13403908D02*
X57321051Y-13346765D01*
X57321051Y-13346765D02*
X57442480Y-13289622D01*
X57442480Y-13289622D02*
X57671051Y-13289622D01*
X57671051Y-13289622D02*
X57778194Y-13346765D01*
X59171051Y-14089622D02*
X59321051Y-12889622D01*
X59263908Y-13346765D02*
X59385337Y-13289622D01*
X59385337Y-13289622D02*
X59613908Y-13289622D01*
X59613908Y-13289622D02*
X59721051Y-13346765D01*
X59721051Y-13346765D02*
X59771051Y-13403908D01*
X59771051Y-13403908D02*
X59813908Y-13518194D01*
X59813908Y-13518194D02*
X59771051Y-13861051D01*
X59771051Y-13861051D02*
X59699622Y-13975337D01*
X59699622Y-13975337D02*
X59635337Y-14032480D01*
X59635337Y-14032480D02*
X59513908Y-14089622D01*
X59513908Y-14089622D02*
X59285337Y-14089622D01*
X59285337Y-14089622D02*
X59178194Y-14032480D01*
X60242479Y-13289622D02*
X60428194Y-14089622D01*
X60813908Y-13289622D02*
X60428194Y-14089622D01*
X60428194Y-14089622D02*
X60278194Y-14375337D01*
X60278194Y-14375337D02*
X60213908Y-14432480D01*
X60213908Y-14432480D02*
X60092479Y-14489622D01*
X62578194Y-12889622D02*
X62471051Y-13746765D01*
X62471051Y-13746765D02*
X62392480Y-13918194D01*
X62392480Y-13918194D02*
X62263908Y-14032480D01*
X62263908Y-14032480D02*
X62085337Y-14089622D01*
X62085337Y-14089622D02*
X61971051Y-14089622D01*
X62999623Y-14089622D02*
X63099623Y-13289622D01*
X63149623Y-12889622D02*
X63085337Y-12946765D01*
X63085337Y-12946765D02*
X63135337Y-13003908D01*
X63135337Y-13003908D02*
X63199623Y-12946765D01*
X63199623Y-12946765D02*
X63149623Y-12889622D01*
X63149623Y-12889622D02*
X63135337Y-13003908D01*
X63635338Y-14032480D02*
X63628195Y-14089622D01*
X63628195Y-14089622D02*
X63556766Y-14203908D01*
X63556766Y-14203908D02*
X63492481Y-14261051D01*
X65056767Y-14089622D02*
X65206767Y-12889622D01*
X65571053Y-14089622D02*
X65649624Y-13461051D01*
X65649624Y-13461051D02*
X65606767Y-13346765D01*
X65606767Y-13346765D02*
X65499624Y-13289622D01*
X65499624Y-13289622D02*
X65328196Y-13289622D01*
X65328196Y-13289622D02*
X65206767Y-13346765D01*
X65206767Y-13346765D02*
X65142481Y-13403908D01*
X66656767Y-14089622D02*
X66735338Y-13461051D01*
X66735338Y-13461051D02*
X66692481Y-13346765D01*
X66692481Y-13346765D02*
X66585338Y-13289622D01*
X66585338Y-13289622D02*
X66356767Y-13289622D01*
X66356767Y-13289622D02*
X66235338Y-13346765D01*
X66663910Y-14032480D02*
X66542481Y-14089622D01*
X66542481Y-14089622D02*
X66256767Y-14089622D01*
X66256767Y-14089622D02*
X66149624Y-14032480D01*
X66149624Y-14032480D02*
X66106767Y-13918194D01*
X66106767Y-13918194D02*
X66121052Y-13803908D01*
X66121052Y-13803908D02*
X66192481Y-13689622D01*
X66192481Y-13689622D02*
X66313910Y-13632480D01*
X66313910Y-13632480D02*
X66599624Y-13632480D01*
X66599624Y-13632480D02*
X66721052Y-13575337D01*
X67692481Y-14032480D02*
X67571052Y-14089622D01*
X67571052Y-14089622D02*
X67342481Y-14089622D01*
X67342481Y-14089622D02*
X67235338Y-14032480D01*
X67235338Y-14032480D02*
X67192481Y-13918194D01*
X67192481Y-13918194D02*
X67249624Y-13461051D01*
X67249624Y-13461051D02*
X67321052Y-13346765D01*
X67321052Y-13346765D02*
X67442481Y-13289622D01*
X67442481Y-13289622D02*
X67671052Y-13289622D01*
X67671052Y-13289622D02*
X67778195Y-13346765D01*
X67778195Y-13346765D02*
X67821052Y-13461051D01*
X67821052Y-13461051D02*
X67806766Y-13575337D01*
X67806766Y-13575337D02*
X67221052Y-13689622D01*
X68871052Y-13289622D02*
X68771052Y-14089622D01*
X68356766Y-13289622D02*
X68278195Y-13918194D01*
X68278195Y-13918194D02*
X68321052Y-14032480D01*
X68321052Y-14032480D02*
X68428195Y-14089622D01*
X68428195Y-14089622D02*
X68599623Y-14089622D01*
X68599623Y-14089622D02*
X68721052Y-14032480D01*
X68721052Y-14032480D02*
X68785337Y-13975337D01*
X69442480Y-13289622D02*
X69342480Y-14089622D01*
X69428194Y-13403908D02*
X69492480Y-13346765D01*
X69492480Y-13346765D02*
X69613909Y-13289622D01*
X69613909Y-13289622D02*
X69785337Y-13289622D01*
X69785337Y-13289622D02*
X69892480Y-13346765D01*
X69892480Y-13346765D02*
X69935337Y-13461051D01*
X69935337Y-13461051D02*
X69856766Y-14089622D01*
X72356766Y-12832480D02*
X71135337Y-14375337D01*
X73513909Y-14089622D02*
X73663909Y-12889622D01*
X74199623Y-14089622D02*
X73771052Y-13403908D01*
X74349623Y-12889622D02*
X73578195Y-13575337D01*
X74713909Y-14089622D02*
X74863909Y-12889622D01*
X74792480Y-13461051D02*
X75478195Y-13461051D01*
X75399623Y-14089622D02*
X75549623Y-12889622D01*
X76121052Y-12889622D02*
X75999623Y-13861051D01*
X75999623Y-13861051D02*
X76042481Y-13975337D01*
X76042481Y-13975337D02*
X76092481Y-14032480D01*
X76092481Y-14032480D02*
X76199623Y-14089622D01*
X76199623Y-14089622D02*
X76428195Y-14089622D01*
X76428195Y-14089622D02*
X76549623Y-14032480D01*
X76549623Y-14032480D02*
X76613909Y-13975337D01*
X76613909Y-13975337D02*
X76685338Y-13861051D01*
X76685338Y-13861051D02*
X76806766Y-12889622D01*
X78221052Y-13461051D02*
X78621052Y-13461051D01*
X78713910Y-14089622D02*
X78142481Y-14089622D01*
X78142481Y-14089622D02*
X78292481Y-12889622D01*
X78292481Y-12889622D02*
X78863910Y-12889622D01*
X79306766Y-13461051D02*
X79706766Y-13461051D01*
X79799624Y-14089622D02*
X79228195Y-14089622D01*
X79228195Y-14089622D02*
X79378195Y-12889622D01*
X79378195Y-12889622D02*
X79949624Y-12889622D01*
X81228195Y-14089622D02*
X81378195Y-12889622D01*
X81378195Y-12889622D02*
X81663909Y-12889622D01*
X81663909Y-12889622D02*
X81828195Y-12946765D01*
X81828195Y-12946765D02*
X81928195Y-13061051D01*
X81928195Y-13061051D02*
X81971052Y-13175337D01*
X81971052Y-13175337D02*
X81999624Y-13403908D01*
X81999624Y-13403908D02*
X81978195Y-13575337D01*
X81978195Y-13575337D02*
X81892481Y-13803908D01*
X81892481Y-13803908D02*
X81821052Y-13918194D01*
X81821052Y-13918194D02*
X81692481Y-14032480D01*
X81692481Y-14032480D02*
X81513909Y-14089622D01*
X81513909Y-14089622D02*
X81228195Y-14089622D01*
X82892481Y-14032480D02*
X82771052Y-14089622D01*
X82771052Y-14089622D02*
X82542481Y-14089622D01*
X82542481Y-14089622D02*
X82435338Y-14032480D01*
X82435338Y-14032480D02*
X82392481Y-13918194D01*
X82392481Y-13918194D02*
X82449624Y-13461051D01*
X82449624Y-13461051D02*
X82521052Y-13346765D01*
X82521052Y-13346765D02*
X82642481Y-13289622D01*
X82642481Y-13289622D02*
X82871052Y-13289622D01*
X82871052Y-13289622D02*
X82978195Y-13346765D01*
X82978195Y-13346765D02*
X83021052Y-13461051D01*
X83021052Y-13461051D02*
X83006766Y-13575337D01*
X83006766Y-13575337D02*
X82421052Y-13689622D01*
X83556766Y-13289622D02*
X83406766Y-14489622D01*
X83549623Y-13346765D02*
X83671052Y-13289622D01*
X83671052Y-13289622D02*
X83899623Y-13289622D01*
X83899623Y-13289622D02*
X84006766Y-13346765D01*
X84006766Y-13346765D02*
X84056766Y-13403908D01*
X84056766Y-13403908D02*
X84099623Y-13518194D01*
X84099623Y-13518194D02*
X84056766Y-13861051D01*
X84056766Y-13861051D02*
X83985337Y-13975337D01*
X83985337Y-13975337D02*
X83921052Y-14032480D01*
X83921052Y-14032480D02*
X83799623Y-14089622D01*
X83799623Y-14089622D02*
X83571052Y-14089622D01*
X83571052Y-14089622D02*
X83463909Y-14032480D01*
X84471051Y-13289622D02*
X84928194Y-13289622D01*
X84692480Y-12889622D02*
X84563909Y-13918194D01*
X84563909Y-13918194D02*
X84606766Y-14032480D01*
X84606766Y-14032480D02*
X84713909Y-14089622D01*
X84713909Y-14089622D02*
X84828194Y-14089622D01*
X85242480Y-13975337D02*
X85292480Y-14032480D01*
X85292480Y-14032480D02*
X85228194Y-14089622D01*
X85228194Y-14089622D02*
X85178194Y-14032480D01*
X85178194Y-14032480D02*
X85242480Y-13975337D01*
X85242480Y-13975337D02*
X85228194Y-14089622D01*
D10*
X172000000Y-20000000D02*
X119000000Y-20000000D01*
X40000000Y-20000000D02*
X38000000Y-22000000D01*
X172000000Y-20000000D02*
X174000000Y-22000000D01*
X94000000Y-20000000D02*
X40000000Y-20000000D01*
D13*
X95893482Y-20367219D02*
X95322054Y-20367219D01*
X95607768Y-20367219D02*
X95607768Y-19367219D01*
X95607768Y-19367219D02*
X95512530Y-19510076D01*
X95512530Y-19510076D02*
X95417292Y-19605314D01*
X95417292Y-19605314D02*
X95322054Y-19652933D01*
X96274435Y-19462457D02*
X96322054Y-19414838D01*
X96322054Y-19414838D02*
X96417292Y-19367219D01*
X96417292Y-19367219D02*
X96655387Y-19367219D01*
X96655387Y-19367219D02*
X96750625Y-19414838D01*
X96750625Y-19414838D02*
X96798244Y-19462457D01*
X96798244Y-19462457D02*
X96845863Y-19557695D01*
X96845863Y-19557695D02*
X96845863Y-19652933D01*
X96845863Y-19652933D02*
X96798244Y-19795790D01*
X96798244Y-19795790D02*
X96226816Y-20367219D01*
X96226816Y-20367219D02*
X96845863Y-20367219D01*
X97274435Y-20367219D02*
X97274435Y-19367219D01*
X97274435Y-19748171D02*
X97369673Y-19700552D01*
X97369673Y-19700552D02*
X97560149Y-19700552D01*
X97560149Y-19700552D02*
X97655387Y-19748171D01*
X97655387Y-19748171D02*
X97703006Y-19795790D01*
X97703006Y-19795790D02*
X97750625Y-19891028D01*
X97750625Y-19891028D02*
X97750625Y-20176742D01*
X97750625Y-20176742D02*
X97703006Y-20271980D01*
X97703006Y-20271980D02*
X97655387Y-20319600D01*
X97655387Y-20319600D02*
X97560149Y-20367219D01*
X97560149Y-20367219D02*
X97369673Y-20367219D01*
X97369673Y-20367219D02*
X97274435Y-20319600D01*
X98179197Y-20367219D02*
X98179197Y-19700552D01*
X98179197Y-19367219D02*
X98131578Y-19414838D01*
X98131578Y-19414838D02*
X98179197Y-19462457D01*
X98179197Y-19462457D02*
X98226816Y-19414838D01*
X98226816Y-19414838D02*
X98179197Y-19367219D01*
X98179197Y-19367219D02*
X98179197Y-19462457D01*
X98512530Y-19700552D02*
X98893482Y-19700552D01*
X98655387Y-19367219D02*
X98655387Y-20224361D01*
X98655387Y-20224361D02*
X98703006Y-20319600D01*
X98703006Y-20319600D02*
X98798244Y-20367219D01*
X98798244Y-20367219D02*
X98893482Y-20367219D01*
X100560149Y-20271980D02*
X100512530Y-20319600D01*
X100512530Y-20319600D02*
X100369673Y-20367219D01*
X100369673Y-20367219D02*
X100274435Y-20367219D01*
X100274435Y-20367219D02*
X100131578Y-20319600D01*
X100131578Y-20319600D02*
X100036340Y-20224361D01*
X100036340Y-20224361D02*
X99988721Y-20129123D01*
X99988721Y-20129123D02*
X99941102Y-19938647D01*
X99941102Y-19938647D02*
X99941102Y-19795790D01*
X99941102Y-19795790D02*
X99988721Y-19605314D01*
X99988721Y-19605314D02*
X100036340Y-19510076D01*
X100036340Y-19510076D02*
X100131578Y-19414838D01*
X100131578Y-19414838D02*
X100274435Y-19367219D01*
X100274435Y-19367219D02*
X100369673Y-19367219D01*
X100369673Y-19367219D02*
X100512530Y-19414838D01*
X100512530Y-19414838D02*
X100560149Y-19462457D01*
X101179197Y-19367219D02*
X101369673Y-19367219D01*
X101369673Y-19367219D02*
X101464911Y-19414838D01*
X101464911Y-19414838D02*
X101560149Y-19510076D01*
X101560149Y-19510076D02*
X101607768Y-19700552D01*
X101607768Y-19700552D02*
X101607768Y-20033885D01*
X101607768Y-20033885D02*
X101560149Y-20224361D01*
X101560149Y-20224361D02*
X101464911Y-20319600D01*
X101464911Y-20319600D02*
X101369673Y-20367219D01*
X101369673Y-20367219D02*
X101179197Y-20367219D01*
X101179197Y-20367219D02*
X101083959Y-20319600D01*
X101083959Y-20319600D02*
X100988721Y-20224361D01*
X100988721Y-20224361D02*
X100941102Y-20033885D01*
X100941102Y-20033885D02*
X100941102Y-19700552D01*
X100941102Y-19700552D02*
X100988721Y-19510076D01*
X100988721Y-19510076D02*
X101083959Y-19414838D01*
X101083959Y-19414838D02*
X101179197Y-19367219D01*
X102607768Y-20367219D02*
X102274435Y-19891028D01*
X102036340Y-20367219D02*
X102036340Y-19367219D01*
X102036340Y-19367219D02*
X102417292Y-19367219D01*
X102417292Y-19367219D02*
X102512530Y-19414838D01*
X102512530Y-19414838D02*
X102560149Y-19462457D01*
X102560149Y-19462457D02*
X102607768Y-19557695D01*
X102607768Y-19557695D02*
X102607768Y-19700552D01*
X102607768Y-19700552D02*
X102560149Y-19795790D01*
X102560149Y-19795790D02*
X102512530Y-19843409D01*
X102512530Y-19843409D02*
X102417292Y-19891028D01*
X102417292Y-19891028D02*
X102036340Y-19891028D01*
X103036340Y-20367219D02*
X103036340Y-19367219D01*
X103036340Y-19367219D02*
X103274435Y-19367219D01*
X103274435Y-19367219D02*
X103417292Y-19414838D01*
X103417292Y-19414838D02*
X103512530Y-19510076D01*
X103512530Y-19510076D02*
X103560149Y-19605314D01*
X103560149Y-19605314D02*
X103607768Y-19795790D01*
X103607768Y-19795790D02*
X103607768Y-19938647D01*
X103607768Y-19938647D02*
X103560149Y-20129123D01*
X103560149Y-20129123D02*
X103512530Y-20224361D01*
X103512530Y-20224361D02*
X103417292Y-20319600D01*
X103417292Y-20319600D02*
X103274435Y-20367219D01*
X103274435Y-20367219D02*
X103036340Y-20367219D01*
X104036340Y-20367219D02*
X104036340Y-19367219D01*
X105083958Y-20271980D02*
X105036339Y-20319600D01*
X105036339Y-20319600D02*
X104893482Y-20367219D01*
X104893482Y-20367219D02*
X104798244Y-20367219D01*
X104798244Y-20367219D02*
X104655387Y-20319600D01*
X104655387Y-20319600D02*
X104560149Y-20224361D01*
X104560149Y-20224361D02*
X104512530Y-20129123D01*
X104512530Y-20129123D02*
X104464911Y-19938647D01*
X104464911Y-19938647D02*
X104464911Y-19795790D01*
X104464911Y-19795790D02*
X104512530Y-19605314D01*
X104512530Y-19605314D02*
X104560149Y-19510076D01*
X104560149Y-19510076D02*
X104655387Y-19414838D01*
X104655387Y-19414838D02*
X104798244Y-19367219D01*
X104798244Y-19367219D02*
X104893482Y-19367219D01*
X104893482Y-19367219D02*
X105036339Y-19414838D01*
X105036339Y-19414838D02*
X105083958Y-19462457D01*
X106226816Y-20081504D02*
X106703006Y-20081504D01*
X106131578Y-20367219D02*
X106464911Y-19367219D01*
X106464911Y-19367219D02*
X106798244Y-20367219D01*
X107131578Y-20367219D02*
X107131578Y-19700552D01*
X107131578Y-19891028D02*
X107179197Y-19795790D01*
X107179197Y-19795790D02*
X107226816Y-19748171D01*
X107226816Y-19748171D02*
X107322054Y-19700552D01*
X107322054Y-19700552D02*
X107417292Y-19700552D01*
X107750626Y-20367219D02*
X107750626Y-19700552D01*
X107750626Y-19891028D02*
X107798245Y-19795790D01*
X107798245Y-19795790D02*
X107845864Y-19748171D01*
X107845864Y-19748171D02*
X107941102Y-19700552D01*
X107941102Y-19700552D02*
X108036340Y-19700552D01*
X108798245Y-20367219D02*
X108798245Y-19843409D01*
X108798245Y-19843409D02*
X108750626Y-19748171D01*
X108750626Y-19748171D02*
X108655388Y-19700552D01*
X108655388Y-19700552D02*
X108464912Y-19700552D01*
X108464912Y-19700552D02*
X108369674Y-19748171D01*
X108798245Y-20319600D02*
X108703007Y-20367219D01*
X108703007Y-20367219D02*
X108464912Y-20367219D01*
X108464912Y-20367219D02*
X108369674Y-20319600D01*
X108369674Y-20319600D02*
X108322055Y-20224361D01*
X108322055Y-20224361D02*
X108322055Y-20129123D01*
X108322055Y-20129123D02*
X108369674Y-20033885D01*
X108369674Y-20033885D02*
X108464912Y-19986266D01*
X108464912Y-19986266D02*
X108703007Y-19986266D01*
X108703007Y-19986266D02*
X108798245Y-19938647D01*
X109179198Y-19700552D02*
X109417293Y-20367219D01*
X109655388Y-19700552D02*
X109417293Y-20367219D01*
X109417293Y-20367219D02*
X109322055Y-20605314D01*
X109322055Y-20605314D02*
X109274436Y-20652933D01*
X109274436Y-20652933D02*
X109179198Y-20700552D01*
X110798246Y-20367219D02*
X110798246Y-19367219D01*
X110798246Y-19367219D02*
X111179198Y-19367219D01*
X111179198Y-19367219D02*
X111274436Y-19414838D01*
X111274436Y-19414838D02*
X111322055Y-19462457D01*
X111322055Y-19462457D02*
X111369674Y-19557695D01*
X111369674Y-19557695D02*
X111369674Y-19700552D01*
X111369674Y-19700552D02*
X111322055Y-19795790D01*
X111322055Y-19795790D02*
X111274436Y-19843409D01*
X111274436Y-19843409D02*
X111179198Y-19891028D01*
X111179198Y-19891028D02*
X110798246Y-19891028D01*
X111798246Y-20367219D02*
X111798246Y-19700552D01*
X111798246Y-19891028D02*
X111845865Y-19795790D01*
X111845865Y-19795790D02*
X111893484Y-19748171D01*
X111893484Y-19748171D02*
X111988722Y-19700552D01*
X111988722Y-19700552D02*
X112083960Y-19700552D01*
X112560151Y-20367219D02*
X112464913Y-20319600D01*
X112464913Y-20319600D02*
X112417294Y-20271980D01*
X112417294Y-20271980D02*
X112369675Y-20176742D01*
X112369675Y-20176742D02*
X112369675Y-19891028D01*
X112369675Y-19891028D02*
X112417294Y-19795790D01*
X112417294Y-19795790D02*
X112464913Y-19748171D01*
X112464913Y-19748171D02*
X112560151Y-19700552D01*
X112560151Y-19700552D02*
X112703008Y-19700552D01*
X112703008Y-19700552D02*
X112798246Y-19748171D01*
X112798246Y-19748171D02*
X112845865Y-19795790D01*
X112845865Y-19795790D02*
X112893484Y-19891028D01*
X112893484Y-19891028D02*
X112893484Y-20176742D01*
X112893484Y-20176742D02*
X112845865Y-20271980D01*
X112845865Y-20271980D02*
X112798246Y-20319600D01*
X112798246Y-20319600D02*
X112703008Y-20367219D01*
X112703008Y-20367219D02*
X112560151Y-20367219D01*
X113750627Y-20319600D02*
X113655389Y-20367219D01*
X113655389Y-20367219D02*
X113464913Y-20367219D01*
X113464913Y-20367219D02*
X113369675Y-20319600D01*
X113369675Y-20319600D02*
X113322056Y-20271980D01*
X113322056Y-20271980D02*
X113274437Y-20176742D01*
X113274437Y-20176742D02*
X113274437Y-19891028D01*
X113274437Y-19891028D02*
X113322056Y-19795790D01*
X113322056Y-19795790D02*
X113369675Y-19748171D01*
X113369675Y-19748171D02*
X113464913Y-19700552D01*
X113464913Y-19700552D02*
X113655389Y-19700552D01*
X113655389Y-19700552D02*
X113750627Y-19748171D01*
X114560151Y-20319600D02*
X114464913Y-20367219D01*
X114464913Y-20367219D02*
X114274437Y-20367219D01*
X114274437Y-20367219D02*
X114179199Y-20319600D01*
X114179199Y-20319600D02*
X114131580Y-20224361D01*
X114131580Y-20224361D02*
X114131580Y-19843409D01*
X114131580Y-19843409D02*
X114179199Y-19748171D01*
X114179199Y-19748171D02*
X114274437Y-19700552D01*
X114274437Y-19700552D02*
X114464913Y-19700552D01*
X114464913Y-19700552D02*
X114560151Y-19748171D01*
X114560151Y-19748171D02*
X114607770Y-19843409D01*
X114607770Y-19843409D02*
X114607770Y-19938647D01*
X114607770Y-19938647D02*
X114131580Y-20033885D01*
X114988723Y-20319600D02*
X115083961Y-20367219D01*
X115083961Y-20367219D02*
X115274437Y-20367219D01*
X115274437Y-20367219D02*
X115369675Y-20319600D01*
X115369675Y-20319600D02*
X115417294Y-20224361D01*
X115417294Y-20224361D02*
X115417294Y-20176742D01*
X115417294Y-20176742D02*
X115369675Y-20081504D01*
X115369675Y-20081504D02*
X115274437Y-20033885D01*
X115274437Y-20033885D02*
X115131580Y-20033885D01*
X115131580Y-20033885D02*
X115036342Y-19986266D01*
X115036342Y-19986266D02*
X114988723Y-19891028D01*
X114988723Y-19891028D02*
X114988723Y-19843409D01*
X114988723Y-19843409D02*
X115036342Y-19748171D01*
X115036342Y-19748171D02*
X115131580Y-19700552D01*
X115131580Y-19700552D02*
X115274437Y-19700552D01*
X115274437Y-19700552D02*
X115369675Y-19748171D01*
X115798247Y-20319600D02*
X115893485Y-20367219D01*
X115893485Y-20367219D02*
X116083961Y-20367219D01*
X116083961Y-20367219D02*
X116179199Y-20319600D01*
X116179199Y-20319600D02*
X116226818Y-20224361D01*
X116226818Y-20224361D02*
X116226818Y-20176742D01*
X116226818Y-20176742D02*
X116179199Y-20081504D01*
X116179199Y-20081504D02*
X116083961Y-20033885D01*
X116083961Y-20033885D02*
X115941104Y-20033885D01*
X115941104Y-20033885D02*
X115845866Y-19986266D01*
X115845866Y-19986266D02*
X115798247Y-19891028D01*
X115798247Y-19891028D02*
X115798247Y-19843409D01*
X115798247Y-19843409D02*
X115845866Y-19748171D01*
X115845866Y-19748171D02*
X115941104Y-19700552D01*
X115941104Y-19700552D02*
X116083961Y-19700552D01*
X116083961Y-19700552D02*
X116179199Y-19748171D01*
X116798247Y-20367219D02*
X116703009Y-20319600D01*
X116703009Y-20319600D02*
X116655390Y-20271980D01*
X116655390Y-20271980D02*
X116607771Y-20176742D01*
X116607771Y-20176742D02*
X116607771Y-19891028D01*
X116607771Y-19891028D02*
X116655390Y-19795790D01*
X116655390Y-19795790D02*
X116703009Y-19748171D01*
X116703009Y-19748171D02*
X116798247Y-19700552D01*
X116798247Y-19700552D02*
X116941104Y-19700552D01*
X116941104Y-19700552D02*
X117036342Y-19748171D01*
X117036342Y-19748171D02*
X117083961Y-19795790D01*
X117083961Y-19795790D02*
X117131580Y-19891028D01*
X117131580Y-19891028D02*
X117131580Y-20176742D01*
X117131580Y-20176742D02*
X117083961Y-20271980D01*
X117083961Y-20271980D02*
X117036342Y-20319600D01*
X117036342Y-20319600D02*
X116941104Y-20367219D01*
X116941104Y-20367219D02*
X116798247Y-20367219D01*
X117560152Y-20367219D02*
X117560152Y-19700552D01*
X117560152Y-19891028D02*
X117607771Y-19795790D01*
X117607771Y-19795790D02*
X117655390Y-19748171D01*
X117655390Y-19748171D02*
X117750628Y-19700552D01*
X117750628Y-19700552D02*
X117845866Y-19700552D01*
D10*
X1914285Y-46324800D02*
X1990476Y-46372419D01*
X1990476Y-46372419D02*
X2142857Y-46372419D01*
X2142857Y-46372419D02*
X2219047Y-46324800D01*
X2219047Y-46324800D02*
X2257143Y-46229561D01*
X2257143Y-46229561D02*
X2257143Y-46181942D01*
X2257143Y-46181942D02*
X2219047Y-46086704D01*
X2219047Y-46086704D02*
X2142857Y-46039085D01*
X2142857Y-46039085D02*
X2028571Y-46039085D01*
X2028571Y-46039085D02*
X1952381Y-45991466D01*
X1952381Y-45991466D02*
X1914285Y-45896228D01*
X1914285Y-45896228D02*
X1914285Y-45848609D01*
X1914285Y-45848609D02*
X1952381Y-45753371D01*
X1952381Y-45753371D02*
X2028571Y-45705752D01*
X2028571Y-45705752D02*
X2142857Y-45705752D01*
X2142857Y-45705752D02*
X2219047Y-45753371D01*
X2600000Y-46372419D02*
X2600000Y-45705752D01*
X2600000Y-45372419D02*
X2561904Y-45420038D01*
X2561904Y-45420038D02*
X2600000Y-45467657D01*
X2600000Y-45467657D02*
X2638095Y-45420038D01*
X2638095Y-45420038D02*
X2600000Y-45372419D01*
X2600000Y-45372419D02*
X2600000Y-45467657D01*
X3323809Y-45705752D02*
X3323809Y-46515276D01*
X3323809Y-46515276D02*
X3285714Y-46610514D01*
X3285714Y-46610514D02*
X3247618Y-46658133D01*
X3247618Y-46658133D02*
X3171428Y-46705752D01*
X3171428Y-46705752D02*
X3057142Y-46705752D01*
X3057142Y-46705752D02*
X2980952Y-46658133D01*
X3323809Y-46324800D02*
X3247618Y-46372419D01*
X3247618Y-46372419D02*
X3095237Y-46372419D01*
X3095237Y-46372419D02*
X3019047Y-46324800D01*
X3019047Y-46324800D02*
X2980952Y-46277180D01*
X2980952Y-46277180D02*
X2942856Y-46181942D01*
X2942856Y-46181942D02*
X2942856Y-45896228D01*
X2942856Y-45896228D02*
X2980952Y-45800990D01*
X2980952Y-45800990D02*
X3019047Y-45753371D01*
X3019047Y-45753371D02*
X3095237Y-45705752D01*
X3095237Y-45705752D02*
X3247618Y-45705752D01*
X3247618Y-45705752D02*
X3323809Y-45753371D01*
X3704762Y-45705752D02*
X3704762Y-46372419D01*
X3704762Y-45800990D02*
X3742857Y-45753371D01*
X3742857Y-45753371D02*
X3819047Y-45705752D01*
X3819047Y-45705752D02*
X3933333Y-45705752D01*
X3933333Y-45705752D02*
X4009524Y-45753371D01*
X4009524Y-45753371D02*
X4047619Y-45848609D01*
X4047619Y-45848609D02*
X4047619Y-46372419D01*
D16*
X133738095Y-64502438D02*
X133642857Y-64454819D01*
X133642857Y-64454819D02*
X133500000Y-64454819D01*
X133500000Y-64454819D02*
X133357143Y-64502438D01*
X133357143Y-64502438D02*
X133261905Y-64597676D01*
X133261905Y-64597676D02*
X133214286Y-64692914D01*
X133214286Y-64692914D02*
X133166667Y-64883390D01*
X133166667Y-64883390D02*
X133166667Y-65026247D01*
X133166667Y-65026247D02*
X133214286Y-65216723D01*
X133214286Y-65216723D02*
X133261905Y-65311961D01*
X133261905Y-65311961D02*
X133357143Y-65407200D01*
X133357143Y-65407200D02*
X133500000Y-65454819D01*
X133500000Y-65454819D02*
X133595238Y-65454819D01*
X133595238Y-65454819D02*
X133738095Y-65407200D01*
X133738095Y-65407200D02*
X133785714Y-65359580D01*
X133785714Y-65359580D02*
X133785714Y-65026247D01*
X133785714Y-65026247D02*
X133595238Y-65026247D01*
X134214286Y-65454819D02*
X134214286Y-64454819D01*
X134214286Y-64454819D02*
X134785714Y-65454819D01*
X134785714Y-65454819D02*
X134785714Y-64454819D01*
X135261905Y-65454819D02*
X135261905Y-64454819D01*
X135261905Y-64454819D02*
X135500000Y-64454819D01*
X135500000Y-64454819D02*
X135642857Y-64502438D01*
X135642857Y-64502438D02*
X135738095Y-64597676D01*
X135738095Y-64597676D02*
X135785714Y-64692914D01*
X135785714Y-64692914D02*
X135833333Y-64883390D01*
X135833333Y-64883390D02*
X135833333Y-65026247D01*
X135833333Y-65026247D02*
X135785714Y-65216723D01*
X135785714Y-65216723D02*
X135738095Y-65311961D01*
X135738095Y-65311961D02*
X135642857Y-65407200D01*
X135642857Y-65407200D02*
X135500000Y-65454819D01*
X135500000Y-65454819D02*
X135261905Y-65454819D01*
X1704819Y-36547618D02*
X704819Y-36547618D01*
X1038152Y-36071428D02*
X1704819Y-36071428D01*
X1133390Y-36071428D02*
X1085771Y-36023809D01*
X1085771Y-36023809D02*
X1038152Y-35928571D01*
X1038152Y-35928571D02*
X1038152Y-35785714D01*
X1038152Y-35785714D02*
X1085771Y-35690476D01*
X1085771Y-35690476D02*
X1181009Y-35642857D01*
X1181009Y-35642857D02*
X1704819Y-35642857D01*
X1038152Y-35166666D02*
X2038152Y-35166666D01*
X1085771Y-35166666D02*
X1038152Y-35071428D01*
X1038152Y-35071428D02*
X1038152Y-34880952D01*
X1038152Y-34880952D02*
X1085771Y-34785714D01*
X1085771Y-34785714D02*
X1133390Y-34738095D01*
X1133390Y-34738095D02*
X1228628Y-34690476D01*
X1228628Y-34690476D02*
X1514342Y-34690476D01*
X1514342Y-34690476D02*
X1609580Y-34738095D01*
X1609580Y-34738095D02*
X1657200Y-34785714D01*
X1657200Y-34785714D02*
X1704819Y-34880952D01*
X1704819Y-34880952D02*
X1704819Y-35071428D01*
X1704819Y-35071428D02*
X1657200Y-35166666D01*
X1038152Y-33833333D02*
X1704819Y-33833333D01*
X1038152Y-34261904D02*
X1561961Y-34261904D01*
X1561961Y-34261904D02*
X1657200Y-34214285D01*
X1657200Y-34214285D02*
X1704819Y-34119047D01*
X1704819Y-34119047D02*
X1704819Y-33976190D01*
X1704819Y-33976190D02*
X1657200Y-33880952D01*
X1657200Y-33880952D02*
X1609580Y-33833333D01*
X1038152Y-33499999D02*
X1038152Y-33119047D01*
X704819Y-33357142D02*
X1561961Y-33357142D01*
X1561961Y-33357142D02*
X1657200Y-33309523D01*
X1657200Y-33309523D02*
X1704819Y-33214285D01*
X1704819Y-33214285D02*
X1704819Y-33119047D01*
X1657200Y-32833332D02*
X1704819Y-32738094D01*
X1704819Y-32738094D02*
X1704819Y-32547618D01*
X1704819Y-32547618D02*
X1657200Y-32452380D01*
X1657200Y-32452380D02*
X1561961Y-32404761D01*
X1561961Y-32404761D02*
X1514342Y-32404761D01*
X1514342Y-32404761D02*
X1419104Y-32452380D01*
X1419104Y-32452380D02*
X1371485Y-32547618D01*
X1371485Y-32547618D02*
X1371485Y-32690475D01*
X1371485Y-32690475D02*
X1323866Y-32785713D01*
X1323866Y-32785713D02*
X1228628Y-32833332D01*
X1228628Y-32833332D02*
X1181009Y-32833332D01*
X1181009Y-32833332D02*
X1085771Y-32785713D01*
X1085771Y-32785713D02*
X1038152Y-32690475D01*
X1038152Y-32690475D02*
X1038152Y-32547618D01*
X1038152Y-32547618D02*
X1085771Y-32452380D01*
X113999999Y-24359580D02*
X113952380Y-24407200D01*
X113952380Y-24407200D02*
X113809523Y-24454819D01*
X113809523Y-24454819D02*
X113714285Y-24454819D01*
X113714285Y-24454819D02*
X113571428Y-24407200D01*
X113571428Y-24407200D02*
X113476190Y-24311961D01*
X113476190Y-24311961D02*
X113428571Y-24216723D01*
X113428571Y-24216723D02*
X113380952Y-24026247D01*
X113380952Y-24026247D02*
X113380952Y-23883390D01*
X113380952Y-23883390D02*
X113428571Y-23692914D01*
X113428571Y-23692914D02*
X113476190Y-23597676D01*
X113476190Y-23597676D02*
X113571428Y-23502438D01*
X113571428Y-23502438D02*
X113714285Y-23454819D01*
X113714285Y-23454819D02*
X113809523Y-23454819D01*
X113809523Y-23454819D02*
X113952380Y-23502438D01*
X113952380Y-23502438D02*
X113999999Y-23550057D01*
X114428571Y-23931009D02*
X114761904Y-23931009D01*
X114904761Y-24454819D02*
X114428571Y-24454819D01*
X114428571Y-24454819D02*
X114428571Y-23454819D01*
X114428571Y-23454819D02*
X114904761Y-23454819D01*
X115095238Y-24550057D02*
X115857142Y-24550057D01*
X116523809Y-23788152D02*
X116523809Y-24454819D01*
X116285714Y-23407200D02*
X116047619Y-24121485D01*
X116047619Y-24121485D02*
X116666666Y-24121485D01*
X20499999Y-24454819D02*
X20499999Y-23454819D01*
X20499999Y-23454819D02*
X20880951Y-23454819D01*
X20880951Y-23454819D02*
X20976189Y-23502438D01*
X20976189Y-23502438D02*
X21023808Y-23550057D01*
X21023808Y-23550057D02*
X21071427Y-23645295D01*
X21071427Y-23645295D02*
X21071427Y-23788152D01*
X21071427Y-23788152D02*
X21023808Y-23883390D01*
X21023808Y-23883390D02*
X20976189Y-23931009D01*
X20976189Y-23931009D02*
X20880951Y-23978628D01*
X20880951Y-23978628D02*
X20499999Y-23978628D01*
X21499999Y-24454819D02*
X21499999Y-23454819D01*
X21928570Y-24454819D02*
X21928570Y-23931009D01*
X21928570Y-23931009D02*
X21880951Y-23835771D01*
X21880951Y-23835771D02*
X21785713Y-23788152D01*
X21785713Y-23788152D02*
X21642856Y-23788152D01*
X21642856Y-23788152D02*
X21547618Y-23835771D01*
X21547618Y-23835771D02*
X21499999Y-23883390D01*
X22833332Y-24454819D02*
X22833332Y-23931009D01*
X22833332Y-23931009D02*
X22785713Y-23835771D01*
X22785713Y-23835771D02*
X22690475Y-23788152D01*
X22690475Y-23788152D02*
X22499999Y-23788152D01*
X22499999Y-23788152D02*
X22404761Y-23835771D01*
X22833332Y-24407200D02*
X22738094Y-24454819D01*
X22738094Y-24454819D02*
X22499999Y-24454819D01*
X22499999Y-24454819D02*
X22404761Y-24407200D01*
X22404761Y-24407200D02*
X22357142Y-24311961D01*
X22357142Y-24311961D02*
X22357142Y-24216723D01*
X22357142Y-24216723D02*
X22404761Y-24121485D01*
X22404761Y-24121485D02*
X22499999Y-24073866D01*
X22499999Y-24073866D02*
X22738094Y-24073866D01*
X22738094Y-24073866D02*
X22833332Y-24026247D01*
X23261904Y-24407200D02*
X23357142Y-24454819D01*
X23357142Y-24454819D02*
X23547618Y-24454819D01*
X23547618Y-24454819D02*
X23642856Y-24407200D01*
X23642856Y-24407200D02*
X23690475Y-24311961D01*
X23690475Y-24311961D02*
X23690475Y-24264342D01*
X23690475Y-24264342D02*
X23642856Y-24169104D01*
X23642856Y-24169104D02*
X23547618Y-24121485D01*
X23547618Y-24121485D02*
X23404761Y-24121485D01*
X23404761Y-24121485D02*
X23309523Y-24073866D01*
X23309523Y-24073866D02*
X23261904Y-23978628D01*
X23261904Y-23978628D02*
X23261904Y-23931009D01*
X23261904Y-23931009D02*
X23309523Y-23835771D01*
X23309523Y-23835771D02*
X23404761Y-23788152D01*
X23404761Y-23788152D02*
X23547618Y-23788152D01*
X23547618Y-23788152D02*
X23642856Y-23835771D01*
X24499999Y-24407200D02*
X24404761Y-24454819D01*
X24404761Y-24454819D02*
X24214285Y-24454819D01*
X24214285Y-24454819D02*
X24119047Y-24407200D01*
X24119047Y-24407200D02*
X24071428Y-24311961D01*
X24071428Y-24311961D02*
X24071428Y-23931009D01*
X24071428Y-23931009D02*
X24119047Y-23835771D01*
X24119047Y-23835771D02*
X24214285Y-23788152D01*
X24214285Y-23788152D02*
X24404761Y-23788152D01*
X24404761Y-23788152D02*
X24499999Y-23835771D01*
X24499999Y-23835771D02*
X24547618Y-23931009D01*
X24547618Y-23931009D02*
X24547618Y-24026247D01*
X24547618Y-24026247D02*
X24071428Y-24121485D01*
X25690476Y-24169104D02*
X26166666Y-24169104D01*
X25595238Y-24454819D02*
X25928571Y-23454819D01*
X25928571Y-23454819D02*
X26261904Y-24454819D01*
X27023809Y-24407200D02*
X26928571Y-24454819D01*
X26928571Y-24454819D02*
X26738095Y-24454819D01*
X26738095Y-24454819D02*
X26642857Y-24407200D01*
X26642857Y-24407200D02*
X26595238Y-24359580D01*
X26595238Y-24359580D02*
X26547619Y-24264342D01*
X26547619Y-24264342D02*
X26547619Y-23978628D01*
X26547619Y-23978628D02*
X26595238Y-23883390D01*
X26595238Y-23883390D02*
X26642857Y-23835771D01*
X26642857Y-23835771D02*
X26738095Y-23788152D01*
X26738095Y-23788152D02*
X26928571Y-23788152D01*
X26928571Y-23788152D02*
X27023809Y-23835771D01*
X27880952Y-24407200D02*
X27785714Y-24454819D01*
X27785714Y-24454819D02*
X27595238Y-24454819D01*
X27595238Y-24454819D02*
X27500000Y-24407200D01*
X27500000Y-24407200D02*
X27452381Y-24359580D01*
X27452381Y-24359580D02*
X27404762Y-24264342D01*
X27404762Y-24264342D02*
X27404762Y-23978628D01*
X27404762Y-23978628D02*
X27452381Y-23883390D01*
X27452381Y-23883390D02*
X27500000Y-23835771D01*
X27500000Y-23835771D02*
X27595238Y-23788152D01*
X27595238Y-23788152D02*
X27785714Y-23788152D01*
X27785714Y-23788152D02*
X27880952Y-23835771D01*
X28738095Y-23788152D02*
X28738095Y-24454819D01*
X28309524Y-23788152D02*
X28309524Y-24311961D01*
X28309524Y-24311961D02*
X28357143Y-24407200D01*
X28357143Y-24407200D02*
X28452381Y-24454819D01*
X28452381Y-24454819D02*
X28595238Y-24454819D01*
X28595238Y-24454819D02*
X28690476Y-24407200D01*
X28690476Y-24407200D02*
X28738095Y-24359580D01*
X29214286Y-24454819D02*
X29214286Y-23788152D01*
X29214286Y-23883390D02*
X29261905Y-23835771D01*
X29261905Y-23835771D02*
X29357143Y-23788152D01*
X29357143Y-23788152D02*
X29500000Y-23788152D01*
X29500000Y-23788152D02*
X29595238Y-23835771D01*
X29595238Y-23835771D02*
X29642857Y-23931009D01*
X29642857Y-23931009D02*
X29642857Y-24454819D01*
X29642857Y-23931009D02*
X29690476Y-23835771D01*
X29690476Y-23835771D02*
X29785714Y-23788152D01*
X29785714Y-23788152D02*
X29928571Y-23788152D01*
X29928571Y-23788152D02*
X30023810Y-23835771D01*
X30023810Y-23835771D02*
X30071429Y-23931009D01*
X30071429Y-23931009D02*
X30071429Y-24454819D01*
X30976190Y-23788152D02*
X30976190Y-24454819D01*
X30547619Y-23788152D02*
X30547619Y-24311961D01*
X30547619Y-24311961D02*
X30595238Y-24407200D01*
X30595238Y-24407200D02*
X30690476Y-24454819D01*
X30690476Y-24454819D02*
X30833333Y-24454819D01*
X30833333Y-24454819D02*
X30928571Y-24407200D01*
X30928571Y-24407200D02*
X30976190Y-24359580D01*
X31595238Y-24454819D02*
X31500000Y-24407200D01*
X31500000Y-24407200D02*
X31452381Y-24311961D01*
X31452381Y-24311961D02*
X31452381Y-23454819D01*
X32404762Y-24454819D02*
X32404762Y-23931009D01*
X32404762Y-23931009D02*
X32357143Y-23835771D01*
X32357143Y-23835771D02*
X32261905Y-23788152D01*
X32261905Y-23788152D02*
X32071429Y-23788152D01*
X32071429Y-23788152D02*
X31976191Y-23835771D01*
X32404762Y-24407200D02*
X32309524Y-24454819D01*
X32309524Y-24454819D02*
X32071429Y-24454819D01*
X32071429Y-24454819D02*
X31976191Y-24407200D01*
X31976191Y-24407200D02*
X31928572Y-24311961D01*
X31928572Y-24311961D02*
X31928572Y-24216723D01*
X31928572Y-24216723D02*
X31976191Y-24121485D01*
X31976191Y-24121485D02*
X32071429Y-24073866D01*
X32071429Y-24073866D02*
X32309524Y-24073866D01*
X32309524Y-24073866D02*
X32404762Y-24026247D01*
X32738096Y-23788152D02*
X33119048Y-23788152D01*
X32880953Y-23454819D02*
X32880953Y-24311961D01*
X32880953Y-24311961D02*
X32928572Y-24407200D01*
X32928572Y-24407200D02*
X33023810Y-24454819D01*
X33023810Y-24454819D02*
X33119048Y-24454819D01*
X33595239Y-24454819D02*
X33500001Y-24407200D01*
X33500001Y-24407200D02*
X33452382Y-24359580D01*
X33452382Y-24359580D02*
X33404763Y-24264342D01*
X33404763Y-24264342D02*
X33404763Y-23978628D01*
X33404763Y-23978628D02*
X33452382Y-23883390D01*
X33452382Y-23883390D02*
X33500001Y-23835771D01*
X33500001Y-23835771D02*
X33595239Y-23788152D01*
X33595239Y-23788152D02*
X33738096Y-23788152D01*
X33738096Y-23788152D02*
X33833334Y-23835771D01*
X33833334Y-23835771D02*
X33880953Y-23883390D01*
X33880953Y-23883390D02*
X33928572Y-23978628D01*
X33928572Y-23978628D02*
X33928572Y-24264342D01*
X33928572Y-24264342D02*
X33880953Y-24359580D01*
X33880953Y-24359580D02*
X33833334Y-24407200D01*
X33833334Y-24407200D02*
X33738096Y-24454819D01*
X33738096Y-24454819D02*
X33595239Y-24454819D01*
X34357144Y-24454819D02*
X34357144Y-23788152D01*
X34357144Y-23978628D02*
X34404763Y-23883390D01*
X34404763Y-23883390D02*
X34452382Y-23835771D01*
X34452382Y-23835771D02*
X34547620Y-23788152D01*
X34547620Y-23788152D02*
X34642858Y-23788152D01*
X148999999Y-24359580D02*
X148952380Y-24407200D01*
X148952380Y-24407200D02*
X148809523Y-24454819D01*
X148809523Y-24454819D02*
X148714285Y-24454819D01*
X148714285Y-24454819D02*
X148571428Y-24407200D01*
X148571428Y-24407200D02*
X148476190Y-24311961D01*
X148476190Y-24311961D02*
X148428571Y-24216723D01*
X148428571Y-24216723D02*
X148380952Y-24026247D01*
X148380952Y-24026247D02*
X148380952Y-23883390D01*
X148380952Y-23883390D02*
X148428571Y-23692914D01*
X148428571Y-23692914D02*
X148476190Y-23597676D01*
X148476190Y-23597676D02*
X148571428Y-23502438D01*
X148571428Y-23502438D02*
X148714285Y-23454819D01*
X148714285Y-23454819D02*
X148809523Y-23454819D01*
X148809523Y-23454819D02*
X148952380Y-23502438D01*
X148952380Y-23502438D02*
X148999999Y-23550057D01*
X149428571Y-23931009D02*
X149761904Y-23931009D01*
X149904761Y-24454819D02*
X149428571Y-24454819D01*
X149428571Y-24454819D02*
X149428571Y-23454819D01*
X149428571Y-23454819D02*
X149904761Y-23454819D01*
X150095238Y-24550057D02*
X150857142Y-24550057D01*
X151523809Y-23454819D02*
X151333333Y-23454819D01*
X151333333Y-23454819D02*
X151238095Y-23502438D01*
X151238095Y-23502438D02*
X151190476Y-23550057D01*
X151190476Y-23550057D02*
X151095238Y-23692914D01*
X151095238Y-23692914D02*
X151047619Y-23883390D01*
X151047619Y-23883390D02*
X151047619Y-24264342D01*
X151047619Y-24264342D02*
X151095238Y-24359580D01*
X151095238Y-24359580D02*
X151142857Y-24407200D01*
X151142857Y-24407200D02*
X151238095Y-24454819D01*
X151238095Y-24454819D02*
X151428571Y-24454819D01*
X151428571Y-24454819D02*
X151523809Y-24407200D01*
X151523809Y-24407200D02*
X151571428Y-24359580D01*
X151571428Y-24359580D02*
X151619047Y-24264342D01*
X151619047Y-24264342D02*
X151619047Y-24026247D01*
X151619047Y-24026247D02*
X151571428Y-23931009D01*
X151571428Y-23931009D02*
X151523809Y-23883390D01*
X151523809Y-23883390D02*
X151428571Y-23835771D01*
X151428571Y-23835771D02*
X151238095Y-23835771D01*
X151238095Y-23835771D02*
X151142857Y-23883390D01*
X151142857Y-23883390D02*
X151095238Y-23931009D01*
X151095238Y-23931009D02*
X151047619Y-24026247D01*
X166499999Y-24359580D02*
X166452380Y-24407200D01*
X166452380Y-24407200D02*
X166309523Y-24454819D01*
X166309523Y-24454819D02*
X166214285Y-24454819D01*
X166214285Y-24454819D02*
X166071428Y-24407200D01*
X166071428Y-24407200D02*
X165976190Y-24311961D01*
X165976190Y-24311961D02*
X165928571Y-24216723D01*
X165928571Y-24216723D02*
X165880952Y-24026247D01*
X165880952Y-24026247D02*
X165880952Y-23883390D01*
X165880952Y-23883390D02*
X165928571Y-23692914D01*
X165928571Y-23692914D02*
X165976190Y-23597676D01*
X165976190Y-23597676D02*
X166071428Y-23502438D01*
X166071428Y-23502438D02*
X166214285Y-23454819D01*
X166214285Y-23454819D02*
X166309523Y-23454819D01*
X166309523Y-23454819D02*
X166452380Y-23502438D01*
X166452380Y-23502438D02*
X166499999Y-23550057D01*
X166928571Y-23931009D02*
X167261904Y-23931009D01*
X167404761Y-24454819D02*
X166928571Y-24454819D01*
X166928571Y-24454819D02*
X166928571Y-23454819D01*
X166928571Y-23454819D02*
X167404761Y-23454819D01*
X167595238Y-24550057D02*
X168357142Y-24550057D01*
X168500000Y-23454819D02*
X169166666Y-23454819D01*
X169166666Y-23454819D02*
X168738095Y-24454819D01*
X37214284Y-24359580D02*
X37166665Y-24407200D01*
X37166665Y-24407200D02*
X37023808Y-24454819D01*
X37023808Y-24454819D02*
X36928570Y-24454819D01*
X36928570Y-24454819D02*
X36785713Y-24407200D01*
X36785713Y-24407200D02*
X36690475Y-24311961D01*
X36690475Y-24311961D02*
X36642856Y-24216723D01*
X36642856Y-24216723D02*
X36595237Y-24026247D01*
X36595237Y-24026247D02*
X36595237Y-23883390D01*
X36595237Y-23883390D02*
X36642856Y-23692914D01*
X36642856Y-23692914D02*
X36690475Y-23597676D01*
X36690475Y-23597676D02*
X36785713Y-23502438D01*
X36785713Y-23502438D02*
X36928570Y-23454819D01*
X36928570Y-23454819D02*
X37023808Y-23454819D01*
X37023808Y-23454819D02*
X37166665Y-23502438D01*
X37166665Y-23502438D02*
X37214284Y-23550057D01*
X37833332Y-23454819D02*
X38023808Y-23454819D01*
X38023808Y-23454819D02*
X38119046Y-23502438D01*
X38119046Y-23502438D02*
X38214284Y-23597676D01*
X38214284Y-23597676D02*
X38261903Y-23788152D01*
X38261903Y-23788152D02*
X38261903Y-24121485D01*
X38261903Y-24121485D02*
X38214284Y-24311961D01*
X38214284Y-24311961D02*
X38119046Y-24407200D01*
X38119046Y-24407200D02*
X38023808Y-24454819D01*
X38023808Y-24454819D02*
X37833332Y-24454819D01*
X37833332Y-24454819D02*
X37738094Y-24407200D01*
X37738094Y-24407200D02*
X37642856Y-24311961D01*
X37642856Y-24311961D02*
X37595237Y-24121485D01*
X37595237Y-24121485D02*
X37595237Y-23788152D01*
X37595237Y-23788152D02*
X37642856Y-23597676D01*
X37642856Y-23597676D02*
X37738094Y-23502438D01*
X37738094Y-23502438D02*
X37833332Y-23454819D01*
X39261903Y-24454819D02*
X38928570Y-23978628D01*
X38690475Y-24454819D02*
X38690475Y-23454819D01*
X38690475Y-23454819D02*
X39071427Y-23454819D01*
X39071427Y-23454819D02*
X39166665Y-23502438D01*
X39166665Y-23502438D02*
X39214284Y-23550057D01*
X39214284Y-23550057D02*
X39261903Y-23645295D01*
X39261903Y-23645295D02*
X39261903Y-23788152D01*
X39261903Y-23788152D02*
X39214284Y-23883390D01*
X39214284Y-23883390D02*
X39166665Y-23931009D01*
X39166665Y-23931009D02*
X39071427Y-23978628D01*
X39071427Y-23978628D02*
X38690475Y-23978628D01*
X39690475Y-24454819D02*
X39690475Y-23454819D01*
X39690475Y-23454819D02*
X39928570Y-23454819D01*
X39928570Y-23454819D02*
X40071427Y-23502438D01*
X40071427Y-23502438D02*
X40166665Y-23597676D01*
X40166665Y-23597676D02*
X40214284Y-23692914D01*
X40214284Y-23692914D02*
X40261903Y-23883390D01*
X40261903Y-23883390D02*
X40261903Y-24026247D01*
X40261903Y-24026247D02*
X40214284Y-24216723D01*
X40214284Y-24216723D02*
X40166665Y-24311961D01*
X40166665Y-24311961D02*
X40071427Y-24407200D01*
X40071427Y-24407200D02*
X39928570Y-24454819D01*
X39928570Y-24454819D02*
X39690475Y-24454819D01*
X40690475Y-24454819D02*
X40690475Y-23454819D01*
X41738093Y-24359580D02*
X41690474Y-24407200D01*
X41690474Y-24407200D02*
X41547617Y-24454819D01*
X41547617Y-24454819D02*
X41452379Y-24454819D01*
X41452379Y-24454819D02*
X41309522Y-24407200D01*
X41309522Y-24407200D02*
X41214284Y-24311961D01*
X41214284Y-24311961D02*
X41166665Y-24216723D01*
X41166665Y-24216723D02*
X41119046Y-24026247D01*
X41119046Y-24026247D02*
X41119046Y-23883390D01*
X41119046Y-23883390D02*
X41166665Y-23692914D01*
X41166665Y-23692914D02*
X41214284Y-23597676D01*
X41214284Y-23597676D02*
X41309522Y-23502438D01*
X41309522Y-23502438D02*
X41452379Y-23454819D01*
X41452379Y-23454819D02*
X41547617Y-23454819D01*
X41547617Y-23454819D02*
X41690474Y-23502438D01*
X41690474Y-23502438D02*
X41738093Y-23550057D01*
X42928570Y-23931009D02*
X43261903Y-23931009D01*
X43404760Y-24454819D02*
X42928570Y-24454819D01*
X42928570Y-24454819D02*
X42928570Y-23454819D01*
X42928570Y-23454819D02*
X43404760Y-23454819D01*
X43976189Y-24454819D02*
X43880951Y-24407200D01*
X43880951Y-24407200D02*
X43833332Y-24311961D01*
X43833332Y-24311961D02*
X43833332Y-23454819D01*
X44738094Y-24407200D02*
X44642856Y-24454819D01*
X44642856Y-24454819D02*
X44452380Y-24454819D01*
X44452380Y-24454819D02*
X44357142Y-24407200D01*
X44357142Y-24407200D02*
X44309523Y-24311961D01*
X44309523Y-24311961D02*
X44309523Y-23931009D01*
X44309523Y-23931009D02*
X44357142Y-23835771D01*
X44357142Y-23835771D02*
X44452380Y-23788152D01*
X44452380Y-23788152D02*
X44642856Y-23788152D01*
X44642856Y-23788152D02*
X44738094Y-23835771D01*
X44738094Y-23835771D02*
X44785713Y-23931009D01*
X44785713Y-23931009D02*
X44785713Y-24026247D01*
X44785713Y-24026247D02*
X44309523Y-24121485D01*
X45214285Y-24454819D02*
X45214285Y-23788152D01*
X45214285Y-23883390D02*
X45261904Y-23835771D01*
X45261904Y-23835771D02*
X45357142Y-23788152D01*
X45357142Y-23788152D02*
X45499999Y-23788152D01*
X45499999Y-23788152D02*
X45595237Y-23835771D01*
X45595237Y-23835771D02*
X45642856Y-23931009D01*
X45642856Y-23931009D02*
X45642856Y-24454819D01*
X45642856Y-23931009D02*
X45690475Y-23835771D01*
X45690475Y-23835771D02*
X45785713Y-23788152D01*
X45785713Y-23788152D02*
X45928570Y-23788152D01*
X45928570Y-23788152D02*
X46023809Y-23835771D01*
X46023809Y-23835771D02*
X46071428Y-23931009D01*
X46071428Y-23931009D02*
X46071428Y-24454819D01*
X46928570Y-24407200D02*
X46833332Y-24454819D01*
X46833332Y-24454819D02*
X46642856Y-24454819D01*
X46642856Y-24454819D02*
X46547618Y-24407200D01*
X46547618Y-24407200D02*
X46499999Y-24311961D01*
X46499999Y-24311961D02*
X46499999Y-23931009D01*
X46499999Y-23931009D02*
X46547618Y-23835771D01*
X46547618Y-23835771D02*
X46642856Y-23788152D01*
X46642856Y-23788152D02*
X46833332Y-23788152D01*
X46833332Y-23788152D02*
X46928570Y-23835771D01*
X46928570Y-23835771D02*
X46976189Y-23931009D01*
X46976189Y-23931009D02*
X46976189Y-24026247D01*
X46976189Y-24026247D02*
X46499999Y-24121485D01*
X47404761Y-23788152D02*
X47404761Y-24454819D01*
X47404761Y-23883390D02*
X47452380Y-23835771D01*
X47452380Y-23835771D02*
X47547618Y-23788152D01*
X47547618Y-23788152D02*
X47690475Y-23788152D01*
X47690475Y-23788152D02*
X47785713Y-23835771D01*
X47785713Y-23835771D02*
X47833332Y-23931009D01*
X47833332Y-23931009D02*
X47833332Y-24454819D01*
X48166666Y-23788152D02*
X48547618Y-23788152D01*
X48309523Y-23454819D02*
X48309523Y-24311961D01*
X48309523Y-24311961D02*
X48357142Y-24407200D01*
X48357142Y-24407200D02*
X48452380Y-24454819D01*
X48452380Y-24454819D02*
X48547618Y-24454819D01*
X49166666Y-24835771D02*
X49119047Y-24788152D01*
X49119047Y-24788152D02*
X49023809Y-24645295D01*
X49023809Y-24645295D02*
X48976190Y-24550057D01*
X48976190Y-24550057D02*
X48928571Y-24407200D01*
X48928571Y-24407200D02*
X48880952Y-24169104D01*
X48880952Y-24169104D02*
X48880952Y-23978628D01*
X48880952Y-23978628D02*
X48928571Y-23740533D01*
X48928571Y-23740533D02*
X48976190Y-23597676D01*
X48976190Y-23597676D02*
X49023809Y-23502438D01*
X49023809Y-23502438D02*
X49119047Y-23359580D01*
X49119047Y-23359580D02*
X49166666Y-23311961D01*
X50119047Y-24359580D02*
X50071428Y-24407200D01*
X50071428Y-24407200D02*
X49928571Y-24454819D01*
X49928571Y-24454819D02*
X49833333Y-24454819D01*
X49833333Y-24454819D02*
X49690476Y-24407200D01*
X49690476Y-24407200D02*
X49595238Y-24311961D01*
X49595238Y-24311961D02*
X49547619Y-24216723D01*
X49547619Y-24216723D02*
X49500000Y-24026247D01*
X49500000Y-24026247D02*
X49500000Y-23883390D01*
X49500000Y-23883390D02*
X49547619Y-23692914D01*
X49547619Y-23692914D02*
X49595238Y-23597676D01*
X49595238Y-23597676D02*
X49690476Y-23502438D01*
X49690476Y-23502438D02*
X49833333Y-23454819D01*
X49833333Y-23454819D02*
X49928571Y-23454819D01*
X49928571Y-23454819D02*
X50071428Y-23502438D01*
X50071428Y-23502438D02*
X50119047Y-23550057D01*
X50547619Y-23931009D02*
X50880952Y-23931009D01*
X51023809Y-24454819D02*
X50547619Y-24454819D01*
X50547619Y-24454819D02*
X50547619Y-23454819D01*
X50547619Y-23454819D02*
X51023809Y-23454819D01*
X51214286Y-24550057D02*
X51976190Y-24550057D01*
X52404762Y-23454819D02*
X52500000Y-23454819D01*
X52500000Y-23454819D02*
X52595238Y-23502438D01*
X52595238Y-23502438D02*
X52642857Y-23550057D01*
X52642857Y-23550057D02*
X52690476Y-23645295D01*
X52690476Y-23645295D02*
X52738095Y-23835771D01*
X52738095Y-23835771D02*
X52738095Y-24073866D01*
X52738095Y-24073866D02*
X52690476Y-24264342D01*
X52690476Y-24264342D02*
X52642857Y-24359580D01*
X52642857Y-24359580D02*
X52595238Y-24407200D01*
X52595238Y-24407200D02*
X52500000Y-24454819D01*
X52500000Y-24454819D02*
X52404762Y-24454819D01*
X52404762Y-24454819D02*
X52309524Y-24407200D01*
X52309524Y-24407200D02*
X52261905Y-24359580D01*
X52261905Y-24359580D02*
X52214286Y-24264342D01*
X52214286Y-24264342D02*
X52166667Y-24073866D01*
X52166667Y-24073866D02*
X52166667Y-23835771D01*
X52166667Y-23835771D02*
X52214286Y-23645295D01*
X52214286Y-23645295D02*
X52261905Y-23550057D01*
X52261905Y-23550057D02*
X52309524Y-23502438D01*
X52309524Y-23502438D02*
X52404762Y-23454819D01*
X53071429Y-24835771D02*
X53119048Y-24788152D01*
X53119048Y-24788152D02*
X53214286Y-24645295D01*
X53214286Y-24645295D02*
X53261905Y-24550057D01*
X53261905Y-24550057D02*
X53309524Y-24407200D01*
X53309524Y-24407200D02*
X53357143Y-24169104D01*
X53357143Y-24169104D02*
X53357143Y-23978628D01*
X53357143Y-23978628D02*
X53309524Y-23740533D01*
X53309524Y-23740533D02*
X53261905Y-23597676D01*
X53261905Y-23597676D02*
X53214286Y-23502438D01*
X53214286Y-23502438D02*
X53119048Y-23359580D01*
X53119048Y-23359580D02*
X53071429Y-23311961D01*
X106261904Y-51859580D02*
X106214285Y-51907200D01*
X106214285Y-51907200D02*
X106071428Y-51954819D01*
X106071428Y-51954819D02*
X105976190Y-51954819D01*
X105976190Y-51954819D02*
X105833333Y-51907200D01*
X105833333Y-51907200D02*
X105738095Y-51811961D01*
X105738095Y-51811961D02*
X105690476Y-51716723D01*
X105690476Y-51716723D02*
X105642857Y-51526247D01*
X105642857Y-51526247D02*
X105642857Y-51383390D01*
X105642857Y-51383390D02*
X105690476Y-51192914D01*
X105690476Y-51192914D02*
X105738095Y-51097676D01*
X105738095Y-51097676D02*
X105833333Y-51002438D01*
X105833333Y-51002438D02*
X105976190Y-50954819D01*
X105976190Y-50954819D02*
X106071428Y-50954819D01*
X106071428Y-50954819D02*
X106214285Y-51002438D01*
X106214285Y-51002438D02*
X106261904Y-51050057D01*
X106833333Y-51954819D02*
X106738095Y-51907200D01*
X106738095Y-51907200D02*
X106690476Y-51811961D01*
X106690476Y-51811961D02*
X106690476Y-50954819D01*
X107357143Y-51954819D02*
X107261905Y-51907200D01*
X107261905Y-51907200D02*
X107214286Y-51859580D01*
X107214286Y-51859580D02*
X107166667Y-51764342D01*
X107166667Y-51764342D02*
X107166667Y-51478628D01*
X107166667Y-51478628D02*
X107214286Y-51383390D01*
X107214286Y-51383390D02*
X107261905Y-51335771D01*
X107261905Y-51335771D02*
X107357143Y-51288152D01*
X107357143Y-51288152D02*
X107500000Y-51288152D01*
X107500000Y-51288152D02*
X107595238Y-51335771D01*
X107595238Y-51335771D02*
X107642857Y-51383390D01*
X107642857Y-51383390D02*
X107690476Y-51478628D01*
X107690476Y-51478628D02*
X107690476Y-51764342D01*
X107690476Y-51764342D02*
X107642857Y-51859580D01*
X107642857Y-51859580D02*
X107595238Y-51907200D01*
X107595238Y-51907200D02*
X107500000Y-51954819D01*
X107500000Y-51954819D02*
X107357143Y-51954819D01*
X108547619Y-51907200D02*
X108452381Y-51954819D01*
X108452381Y-51954819D02*
X108261905Y-51954819D01*
X108261905Y-51954819D02*
X108166667Y-51907200D01*
X108166667Y-51907200D02*
X108119048Y-51859580D01*
X108119048Y-51859580D02*
X108071429Y-51764342D01*
X108071429Y-51764342D02*
X108071429Y-51478628D01*
X108071429Y-51478628D02*
X108119048Y-51383390D01*
X108119048Y-51383390D02*
X108166667Y-51335771D01*
X108166667Y-51335771D02*
X108261905Y-51288152D01*
X108261905Y-51288152D02*
X108452381Y-51288152D01*
X108452381Y-51288152D02*
X108547619Y-51335771D01*
X108976191Y-51954819D02*
X108976191Y-50954819D01*
X109071429Y-51573866D02*
X109357143Y-51954819D01*
X109357143Y-51288152D02*
X108976191Y-51669104D01*
X78999999Y-24359580D02*
X78952380Y-24407200D01*
X78952380Y-24407200D02*
X78809523Y-24454819D01*
X78809523Y-24454819D02*
X78714285Y-24454819D01*
X78714285Y-24454819D02*
X78571428Y-24407200D01*
X78571428Y-24407200D02*
X78476190Y-24311961D01*
X78476190Y-24311961D02*
X78428571Y-24216723D01*
X78428571Y-24216723D02*
X78380952Y-24026247D01*
X78380952Y-24026247D02*
X78380952Y-23883390D01*
X78380952Y-23883390D02*
X78428571Y-23692914D01*
X78428571Y-23692914D02*
X78476190Y-23597676D01*
X78476190Y-23597676D02*
X78571428Y-23502438D01*
X78571428Y-23502438D02*
X78714285Y-23454819D01*
X78714285Y-23454819D02*
X78809523Y-23454819D01*
X78809523Y-23454819D02*
X78952380Y-23502438D01*
X78952380Y-23502438D02*
X78999999Y-23550057D01*
X79428571Y-23931009D02*
X79761904Y-23931009D01*
X79904761Y-24454819D02*
X79428571Y-24454819D01*
X79428571Y-24454819D02*
X79428571Y-23454819D01*
X79428571Y-23454819D02*
X79904761Y-23454819D01*
X80095238Y-24550057D02*
X80857142Y-24550057D01*
X81047619Y-23550057D02*
X81095238Y-23502438D01*
X81095238Y-23502438D02*
X81190476Y-23454819D01*
X81190476Y-23454819D02*
X81428571Y-23454819D01*
X81428571Y-23454819D02*
X81523809Y-23502438D01*
X81523809Y-23502438D02*
X81571428Y-23550057D01*
X81571428Y-23550057D02*
X81619047Y-23645295D01*
X81619047Y-23645295D02*
X81619047Y-23740533D01*
X81619047Y-23740533D02*
X81571428Y-23883390D01*
X81571428Y-23883390D02*
X81000000Y-24454819D01*
X81000000Y-24454819D02*
X81619047Y-24454819D01*
X208204819Y-38178571D02*
X208204819Y-37988095D01*
X208204819Y-37988095D02*
X208252438Y-37892857D01*
X208252438Y-37892857D02*
X208347676Y-37797619D01*
X208347676Y-37797619D02*
X208538152Y-37750000D01*
X208538152Y-37750000D02*
X208871485Y-37750000D01*
X208871485Y-37750000D02*
X209061961Y-37797619D01*
X209061961Y-37797619D02*
X209157200Y-37892857D01*
X209157200Y-37892857D02*
X209204819Y-37988095D01*
X209204819Y-37988095D02*
X209204819Y-38178571D01*
X209204819Y-38178571D02*
X209157200Y-38273809D01*
X209157200Y-38273809D02*
X209061961Y-38369047D01*
X209061961Y-38369047D02*
X208871485Y-38416666D01*
X208871485Y-38416666D02*
X208538152Y-38416666D01*
X208538152Y-38416666D02*
X208347676Y-38369047D01*
X208347676Y-38369047D02*
X208252438Y-38273809D01*
X208252438Y-38273809D02*
X208204819Y-38178571D01*
X208538152Y-36892857D02*
X209204819Y-36892857D01*
X208538152Y-37321428D02*
X209061961Y-37321428D01*
X209061961Y-37321428D02*
X209157200Y-37273809D01*
X209157200Y-37273809D02*
X209204819Y-37178571D01*
X209204819Y-37178571D02*
X209204819Y-37035714D01*
X209204819Y-37035714D02*
X209157200Y-36940476D01*
X209157200Y-36940476D02*
X209109580Y-36892857D01*
X208538152Y-36559523D02*
X208538152Y-36178571D01*
X208204819Y-36416666D02*
X209061961Y-36416666D01*
X209061961Y-36416666D02*
X209157200Y-36369047D01*
X209157200Y-36369047D02*
X209204819Y-36273809D01*
X209204819Y-36273809D02*
X209204819Y-36178571D01*
X208538152Y-35845237D02*
X209538152Y-35845237D01*
X208585771Y-35845237D02*
X208538152Y-35749999D01*
X208538152Y-35749999D02*
X208538152Y-35559523D01*
X208538152Y-35559523D02*
X208585771Y-35464285D01*
X208585771Y-35464285D02*
X208633390Y-35416666D01*
X208633390Y-35416666D02*
X208728628Y-35369047D01*
X208728628Y-35369047D02*
X209014342Y-35369047D01*
X209014342Y-35369047D02*
X209109580Y-35416666D01*
X209109580Y-35416666D02*
X209157200Y-35464285D01*
X209157200Y-35464285D02*
X209204819Y-35559523D01*
X209204819Y-35559523D02*
X209204819Y-35749999D01*
X209204819Y-35749999D02*
X209157200Y-35845237D01*
X208538152Y-34511904D02*
X209204819Y-34511904D01*
X208538152Y-34940475D02*
X209061961Y-34940475D01*
X209061961Y-34940475D02*
X209157200Y-34892856D01*
X209157200Y-34892856D02*
X209204819Y-34797618D01*
X209204819Y-34797618D02*
X209204819Y-34654761D01*
X209204819Y-34654761D02*
X209157200Y-34559523D01*
X209157200Y-34559523D02*
X209109580Y-34511904D01*
X208538152Y-34178570D02*
X208538152Y-33797618D01*
X208204819Y-34035713D02*
X209061961Y-34035713D01*
X209061961Y-34035713D02*
X209157200Y-33988094D01*
X209157200Y-33988094D02*
X209204819Y-33892856D01*
X209204819Y-33892856D02*
X209204819Y-33797618D01*
X209157200Y-33511903D02*
X209204819Y-33416665D01*
X209204819Y-33416665D02*
X209204819Y-33226189D01*
X209204819Y-33226189D02*
X209157200Y-33130951D01*
X209157200Y-33130951D02*
X209061961Y-33083332D01*
X209061961Y-33083332D02*
X209014342Y-33083332D01*
X209014342Y-33083332D02*
X208919104Y-33130951D01*
X208919104Y-33130951D02*
X208871485Y-33226189D01*
X208871485Y-33226189D02*
X208871485Y-33369046D01*
X208871485Y-33369046D02*
X208823866Y-33464284D01*
X208823866Y-33464284D02*
X208728628Y-33511903D01*
X208728628Y-33511903D02*
X208681009Y-33511903D01*
X208681009Y-33511903D02*
X208585771Y-33464284D01*
X208585771Y-33464284D02*
X208538152Y-33369046D01*
X208538152Y-33369046D02*
X208538152Y-33226189D01*
X208538152Y-33226189D02*
X208585771Y-33130951D01*
X131499999Y-24359580D02*
X131452380Y-24407200D01*
X131452380Y-24407200D02*
X131309523Y-24454819D01*
X131309523Y-24454819D02*
X131214285Y-24454819D01*
X131214285Y-24454819D02*
X131071428Y-24407200D01*
X131071428Y-24407200D02*
X130976190Y-24311961D01*
X130976190Y-24311961D02*
X130928571Y-24216723D01*
X130928571Y-24216723D02*
X130880952Y-24026247D01*
X130880952Y-24026247D02*
X130880952Y-23883390D01*
X130880952Y-23883390D02*
X130928571Y-23692914D01*
X130928571Y-23692914D02*
X130976190Y-23597676D01*
X130976190Y-23597676D02*
X131071428Y-23502438D01*
X131071428Y-23502438D02*
X131214285Y-23454819D01*
X131214285Y-23454819D02*
X131309523Y-23454819D01*
X131309523Y-23454819D02*
X131452380Y-23502438D01*
X131452380Y-23502438D02*
X131499999Y-23550057D01*
X131928571Y-23931009D02*
X132261904Y-23931009D01*
X132404761Y-24454819D02*
X131928571Y-24454819D01*
X131928571Y-24454819D02*
X131928571Y-23454819D01*
X131928571Y-23454819D02*
X132404761Y-23454819D01*
X132595238Y-24550057D02*
X133357142Y-24550057D01*
X134071428Y-23454819D02*
X133595238Y-23454819D01*
X133595238Y-23454819D02*
X133547619Y-23931009D01*
X133547619Y-23931009D02*
X133595238Y-23883390D01*
X133595238Y-23883390D02*
X133690476Y-23835771D01*
X133690476Y-23835771D02*
X133928571Y-23835771D01*
X133928571Y-23835771D02*
X134023809Y-23883390D01*
X134023809Y-23883390D02*
X134071428Y-23931009D01*
X134071428Y-23931009D02*
X134119047Y-24026247D01*
X134119047Y-24026247D02*
X134119047Y-24264342D01*
X134119047Y-24264342D02*
X134071428Y-24359580D01*
X134071428Y-24359580D02*
X134023809Y-24407200D01*
X134023809Y-24407200D02*
X133928571Y-24454819D01*
X133928571Y-24454819D02*
X133690476Y-24454819D01*
X133690476Y-24454819D02*
X133595238Y-24407200D01*
X133595238Y-24407200D02*
X133547619Y-24359580D01*
X61499999Y-24359580D02*
X61452380Y-24407200D01*
X61452380Y-24407200D02*
X61309523Y-24454819D01*
X61309523Y-24454819D02*
X61214285Y-24454819D01*
X61214285Y-24454819D02*
X61071428Y-24407200D01*
X61071428Y-24407200D02*
X60976190Y-24311961D01*
X60976190Y-24311961D02*
X60928571Y-24216723D01*
X60928571Y-24216723D02*
X60880952Y-24026247D01*
X60880952Y-24026247D02*
X60880952Y-23883390D01*
X60880952Y-23883390D02*
X60928571Y-23692914D01*
X60928571Y-23692914D02*
X60976190Y-23597676D01*
X60976190Y-23597676D02*
X61071428Y-23502438D01*
X61071428Y-23502438D02*
X61214285Y-23454819D01*
X61214285Y-23454819D02*
X61309523Y-23454819D01*
X61309523Y-23454819D02*
X61452380Y-23502438D01*
X61452380Y-23502438D02*
X61499999Y-23550057D01*
X61928571Y-23931009D02*
X62261904Y-23931009D01*
X62404761Y-24454819D02*
X61928571Y-24454819D01*
X61928571Y-24454819D02*
X61928571Y-23454819D01*
X61928571Y-23454819D02*
X62404761Y-23454819D01*
X62595238Y-24550057D02*
X63357142Y-24550057D01*
X64119047Y-24454819D02*
X63547619Y-24454819D01*
X63833333Y-24454819D02*
X63833333Y-23454819D01*
X63833333Y-23454819D02*
X63738095Y-23597676D01*
X63738095Y-23597676D02*
X63642857Y-23692914D01*
X63642857Y-23692914D02*
X63547619Y-23740533D01*
X96499999Y-24359580D02*
X96452380Y-24407200D01*
X96452380Y-24407200D02*
X96309523Y-24454819D01*
X96309523Y-24454819D02*
X96214285Y-24454819D01*
X96214285Y-24454819D02*
X96071428Y-24407200D01*
X96071428Y-24407200D02*
X95976190Y-24311961D01*
X95976190Y-24311961D02*
X95928571Y-24216723D01*
X95928571Y-24216723D02*
X95880952Y-24026247D01*
X95880952Y-24026247D02*
X95880952Y-23883390D01*
X95880952Y-23883390D02*
X95928571Y-23692914D01*
X95928571Y-23692914D02*
X95976190Y-23597676D01*
X95976190Y-23597676D02*
X96071428Y-23502438D01*
X96071428Y-23502438D02*
X96214285Y-23454819D01*
X96214285Y-23454819D02*
X96309523Y-23454819D01*
X96309523Y-23454819D02*
X96452380Y-23502438D01*
X96452380Y-23502438D02*
X96499999Y-23550057D01*
X96928571Y-23931009D02*
X97261904Y-23931009D01*
X97404761Y-24454819D02*
X96928571Y-24454819D01*
X96928571Y-24454819D02*
X96928571Y-23454819D01*
X96928571Y-23454819D02*
X97404761Y-23454819D01*
X97595238Y-24550057D02*
X98357142Y-24550057D01*
X98500000Y-23454819D02*
X99119047Y-23454819D01*
X99119047Y-23454819D02*
X98785714Y-23835771D01*
X98785714Y-23835771D02*
X98928571Y-23835771D01*
X98928571Y-23835771D02*
X99023809Y-23883390D01*
X99023809Y-23883390D02*
X99071428Y-23931009D01*
X99071428Y-23931009D02*
X99119047Y-24026247D01*
X99119047Y-24026247D02*
X99119047Y-24264342D01*
X99119047Y-24264342D02*
X99071428Y-24359580D01*
X99071428Y-24359580D02*
X99023809Y-24407200D01*
X99023809Y-24407200D02*
X98928571Y-24454819D01*
X98928571Y-24454819D02*
X98642857Y-24454819D01*
X98642857Y-24454819D02*
X98547619Y-24407200D01*
X98547619Y-24407200D02*
X98500000Y-24359580D01*
X179404761Y-23454819D02*
X179595237Y-23454819D01*
X179595237Y-23454819D02*
X179690475Y-23502438D01*
X179690475Y-23502438D02*
X179785713Y-23597676D01*
X179785713Y-23597676D02*
X179833332Y-23788152D01*
X179833332Y-23788152D02*
X179833332Y-24121485D01*
X179833332Y-24121485D02*
X179785713Y-24311961D01*
X179785713Y-24311961D02*
X179690475Y-24407200D01*
X179690475Y-24407200D02*
X179595237Y-24454819D01*
X179595237Y-24454819D02*
X179404761Y-24454819D01*
X179404761Y-24454819D02*
X179309523Y-24407200D01*
X179309523Y-24407200D02*
X179214285Y-24311961D01*
X179214285Y-24311961D02*
X179166666Y-24121485D01*
X179166666Y-24121485D02*
X179166666Y-23788152D01*
X179166666Y-23788152D02*
X179214285Y-23597676D01*
X179214285Y-23597676D02*
X179309523Y-23502438D01*
X179309523Y-23502438D02*
X179404761Y-23454819D01*
X180690475Y-23788152D02*
X180690475Y-24454819D01*
X180261904Y-23788152D02*
X180261904Y-24311961D01*
X180261904Y-24311961D02*
X180309523Y-24407200D01*
X180309523Y-24407200D02*
X180404761Y-24454819D01*
X180404761Y-24454819D02*
X180547618Y-24454819D01*
X180547618Y-24454819D02*
X180642856Y-24407200D01*
X180642856Y-24407200D02*
X180690475Y-24359580D01*
X181023809Y-23788152D02*
X181404761Y-23788152D01*
X181166666Y-23454819D02*
X181166666Y-24311961D01*
X181166666Y-24311961D02*
X181214285Y-24407200D01*
X181214285Y-24407200D02*
X181309523Y-24454819D01*
X181309523Y-24454819D02*
X181404761Y-24454819D01*
X181738095Y-23788152D02*
X181738095Y-24788152D01*
X181738095Y-23835771D02*
X181833333Y-23788152D01*
X181833333Y-23788152D02*
X182023809Y-23788152D01*
X182023809Y-23788152D02*
X182119047Y-23835771D01*
X182119047Y-23835771D02*
X182166666Y-23883390D01*
X182166666Y-23883390D02*
X182214285Y-23978628D01*
X182214285Y-23978628D02*
X182214285Y-24264342D01*
X182214285Y-24264342D02*
X182166666Y-24359580D01*
X182166666Y-24359580D02*
X182119047Y-24407200D01*
X182119047Y-24407200D02*
X182023809Y-24454819D01*
X182023809Y-24454819D02*
X181833333Y-24454819D01*
X181833333Y-24454819D02*
X181738095Y-24407200D01*
X183071428Y-23788152D02*
X183071428Y-24454819D01*
X182642857Y-23788152D02*
X182642857Y-24311961D01*
X182642857Y-24311961D02*
X182690476Y-24407200D01*
X182690476Y-24407200D02*
X182785714Y-24454819D01*
X182785714Y-24454819D02*
X182928571Y-24454819D01*
X182928571Y-24454819D02*
X183023809Y-24407200D01*
X183023809Y-24407200D02*
X183071428Y-24359580D01*
X183404762Y-23788152D02*
X183785714Y-23788152D01*
X183547619Y-23454819D02*
X183547619Y-24311961D01*
X183547619Y-24311961D02*
X183595238Y-24407200D01*
X183595238Y-24407200D02*
X183690476Y-24454819D01*
X183690476Y-24454819D02*
X183785714Y-24454819D01*
X184738096Y-23454819D02*
X185309524Y-23454819D01*
X185023810Y-24454819D02*
X185023810Y-23454819D01*
X186023810Y-24407200D02*
X185928572Y-24454819D01*
X185928572Y-24454819D02*
X185738096Y-24454819D01*
X185738096Y-24454819D02*
X185642858Y-24407200D01*
X185642858Y-24407200D02*
X185595239Y-24311961D01*
X185595239Y-24311961D02*
X185595239Y-23931009D01*
X185595239Y-23931009D02*
X185642858Y-23835771D01*
X185642858Y-23835771D02*
X185738096Y-23788152D01*
X185738096Y-23788152D02*
X185928572Y-23788152D01*
X185928572Y-23788152D02*
X186023810Y-23835771D01*
X186023810Y-23835771D02*
X186071429Y-23931009D01*
X186071429Y-23931009D02*
X186071429Y-24026247D01*
X186071429Y-24026247D02*
X185595239Y-24121485D01*
X186500001Y-24454819D02*
X186500001Y-23788152D01*
X186500001Y-23978628D02*
X186547620Y-23883390D01*
X186547620Y-23883390D02*
X186595239Y-23835771D01*
X186595239Y-23835771D02*
X186690477Y-23788152D01*
X186690477Y-23788152D02*
X186785715Y-23788152D01*
X187119049Y-24454819D02*
X187119049Y-23788152D01*
X187119049Y-23883390D02*
X187166668Y-23835771D01*
X187166668Y-23835771D02*
X187261906Y-23788152D01*
X187261906Y-23788152D02*
X187404763Y-23788152D01*
X187404763Y-23788152D02*
X187500001Y-23835771D01*
X187500001Y-23835771D02*
X187547620Y-23931009D01*
X187547620Y-23931009D02*
X187547620Y-24454819D01*
X187547620Y-23931009D02*
X187595239Y-23835771D01*
X187595239Y-23835771D02*
X187690477Y-23788152D01*
X187690477Y-23788152D02*
X187833334Y-23788152D01*
X187833334Y-23788152D02*
X187928573Y-23835771D01*
X187928573Y-23835771D02*
X187976192Y-23931009D01*
X187976192Y-23931009D02*
X187976192Y-24454819D01*
X188452382Y-24454819D02*
X188452382Y-23788152D01*
X188452382Y-23454819D02*
X188404763Y-23502438D01*
X188404763Y-23502438D02*
X188452382Y-23550057D01*
X188452382Y-23550057D02*
X188500001Y-23502438D01*
X188500001Y-23502438D02*
X188452382Y-23454819D01*
X188452382Y-23454819D02*
X188452382Y-23550057D01*
X188928572Y-23788152D02*
X188928572Y-24454819D01*
X188928572Y-23883390D02*
X188976191Y-23835771D01*
X188976191Y-23835771D02*
X189071429Y-23788152D01*
X189071429Y-23788152D02*
X189214286Y-23788152D01*
X189214286Y-23788152D02*
X189309524Y-23835771D01*
X189309524Y-23835771D02*
X189357143Y-23931009D01*
X189357143Y-23931009D02*
X189357143Y-24454819D01*
X190261905Y-24454819D02*
X190261905Y-23931009D01*
X190261905Y-23931009D02*
X190214286Y-23835771D01*
X190214286Y-23835771D02*
X190119048Y-23788152D01*
X190119048Y-23788152D02*
X189928572Y-23788152D01*
X189928572Y-23788152D02*
X189833334Y-23835771D01*
X190261905Y-24407200D02*
X190166667Y-24454819D01*
X190166667Y-24454819D02*
X189928572Y-24454819D01*
X189928572Y-24454819D02*
X189833334Y-24407200D01*
X189833334Y-24407200D02*
X189785715Y-24311961D01*
X189785715Y-24311961D02*
X189785715Y-24216723D01*
X189785715Y-24216723D02*
X189833334Y-24121485D01*
X189833334Y-24121485D02*
X189928572Y-24073866D01*
X189928572Y-24073866D02*
X190166667Y-24073866D01*
X190166667Y-24073866D02*
X190261905Y-24026247D01*
X190880953Y-24454819D02*
X190785715Y-24407200D01*
X190785715Y-24407200D02*
X190738096Y-24311961D01*
X190738096Y-24311961D02*
X190738096Y-23454819D01*
D17*
%TO.C,J6*%
X141380000Y-66270000D02*
X141380000Y-66380000D01*
X138620000Y-66380000D02*
X141380000Y-66380000D01*
X138620000Y-66270000D02*
X141380000Y-66270000D01*
X138620000Y-66270000D02*
X138620000Y-66380000D01*
X138620000Y-65000000D02*
X138620000Y-63620000D01*
X138620000Y-63620000D02*
X140000000Y-63620000D01*
%TO.C,GND*%
X130380000Y-66170000D02*
X130380000Y-66280000D01*
X127620000Y-66280000D02*
X130380000Y-66280000D01*
X127620000Y-66170000D02*
X130380000Y-66170000D01*
X127620000Y-66170000D02*
X127620000Y-66280000D01*
X127620000Y-64900000D02*
X127620000Y-63520000D01*
X127620000Y-63520000D02*
X129000000Y-63520000D01*
D18*
%TO.C,G\u002A\u002A\u002A*%
G36*
X184264407Y-63478612D02*
G01*
X184285165Y-63490549D01*
X184314506Y-63509085D01*
X184350860Y-63533107D01*
X184392660Y-63561504D01*
X184438336Y-63593162D01*
X184486321Y-63626970D01*
X184535045Y-63661816D01*
X184582940Y-63696586D01*
X184628438Y-63730169D01*
X184669970Y-63761453D01*
X184705968Y-63789325D01*
X184734863Y-63812673D01*
X184752750Y-63828206D01*
X184774034Y-63852140D01*
X184793467Y-63881053D01*
X184800425Y-63894464D01*
X184817759Y-63932803D01*
X184821426Y-64776291D01*
X184825094Y-65619780D01*
X184845076Y-65678457D01*
X184880772Y-65762113D01*
X184927354Y-65836913D01*
X184983783Y-65902055D01*
X185049018Y-65956733D01*
X185122018Y-66000145D01*
X185201743Y-66031487D01*
X185287154Y-66049954D01*
X185331187Y-66054082D01*
X185418662Y-66051811D01*
X185502662Y-66035944D01*
X185581961Y-66007377D01*
X185655330Y-65967012D01*
X185721541Y-65915747D01*
X185779366Y-65854480D01*
X185827577Y-65784111D01*
X185864947Y-65705540D01*
X185882947Y-65650102D01*
X185884827Y-65641975D01*
X185886520Y-65631771D01*
X185888040Y-65618669D01*
X185889403Y-65601849D01*
X185890623Y-65580491D01*
X185891715Y-65553772D01*
X185892695Y-65520874D01*
X185893578Y-65480975D01*
X185894378Y-65433254D01*
X185895111Y-65376892D01*
X185895792Y-65311066D01*
X185896435Y-65234958D01*
X185897056Y-65147745D01*
X185897670Y-65048608D01*
X185898292Y-64936725D01*
X185898937Y-64811277D01*
X185899167Y-64764761D01*
X185903292Y-63924412D01*
X185925460Y-63880932D01*
X185933312Y-63866444D01*
X185941930Y-63853424D01*
X185952968Y-63840349D01*
X185968078Y-63825698D01*
X185988914Y-63807949D01*
X186017127Y-63785581D01*
X186054372Y-63757072D01*
X186085794Y-63733332D01*
X186139193Y-63693522D01*
X186193537Y-63653794D01*
X186247042Y-63615391D01*
X186297927Y-63579553D01*
X186344407Y-63547523D01*
X186384700Y-63520543D01*
X186417022Y-63499854D01*
X186439590Y-63486699D01*
X186440924Y-63486007D01*
X186465993Y-63477948D01*
X186485304Y-63481307D01*
X186496720Y-63495606D01*
X186497631Y-63498712D01*
X186498069Y-63507779D01*
X186498465Y-63530694D01*
X186498817Y-63566634D01*
X186499124Y-63614779D01*
X186499385Y-63674306D01*
X186499598Y-63744394D01*
X186499762Y-63824222D01*
X186499876Y-63912967D01*
X186499938Y-64009808D01*
X186499948Y-64113922D01*
X186499903Y-64224490D01*
X186499803Y-64340688D01*
X186499646Y-64461695D01*
X186499430Y-64586690D01*
X186499397Y-64603926D01*
X186497231Y-65693126D01*
X186480514Y-65748137D01*
X186443588Y-65844738D01*
X186393589Y-65935589D01*
X186331148Y-66020168D01*
X186256897Y-66097955D01*
X186171467Y-66168428D01*
X186075491Y-66231065D01*
X185969600Y-66285346D01*
X185854427Y-66330749D01*
X185730661Y-66366739D01*
X185672141Y-66380167D01*
X185617687Y-66390683D01*
X185563997Y-66398652D01*
X185507771Y-66404438D01*
X185445707Y-66408403D01*
X185374506Y-66410912D01*
X185320185Y-66411957D01*
X185269317Y-66412561D01*
X185222516Y-66412857D01*
X185182042Y-66412852D01*
X185150159Y-66412551D01*
X185129128Y-66411962D01*
X185122148Y-66411394D01*
X185105932Y-66408806D01*
X185080475Y-66404985D01*
X185051067Y-66400722D01*
X185048802Y-66400400D01*
X185001133Y-66392013D01*
X184945951Y-66379756D01*
X184889064Y-66365107D01*
X184836282Y-66349540D01*
X184800889Y-66337408D01*
X184710927Y-66299781D01*
X184631688Y-66257660D01*
X184559369Y-66208595D01*
X184490165Y-66150137D01*
X184451025Y-66112049D01*
X184397736Y-66054372D01*
X184354654Y-65999068D01*
X184318942Y-65941805D01*
X184287760Y-65878250D01*
X184270513Y-65836492D01*
X184263283Y-65818359D01*
X184256722Y-65802202D01*
X184250798Y-65787267D01*
X184245480Y-65772802D01*
X184240738Y-65758053D01*
X184236539Y-65742265D01*
X184232853Y-65724686D01*
X184229649Y-65704561D01*
X184226895Y-65681138D01*
X184224561Y-65653663D01*
X184222615Y-65621382D01*
X184221027Y-65583541D01*
X184219764Y-65539387D01*
X184218797Y-65488167D01*
X184218094Y-65429126D01*
X184217623Y-65361512D01*
X184217354Y-65284571D01*
X184217256Y-65197548D01*
X184217297Y-65099692D01*
X184217446Y-64990247D01*
X184217673Y-64868460D01*
X184217946Y-64733579D01*
X184218234Y-64584848D01*
X184218259Y-64570920D01*
X184218533Y-64423565D01*
X184218804Y-64290182D01*
X184219082Y-64170072D01*
X184219375Y-64062539D01*
X184219692Y-63966883D01*
X184220043Y-63882408D01*
X184220437Y-63808416D01*
X184220883Y-63744208D01*
X184221390Y-63689088D01*
X184221967Y-63642356D01*
X184222624Y-63603316D01*
X184223369Y-63571270D01*
X184224211Y-63545520D01*
X184225161Y-63525367D01*
X184226226Y-63510115D01*
X184227416Y-63499065D01*
X184228741Y-63491520D01*
X184230208Y-63486782D01*
X184231828Y-63484153D01*
X184232497Y-63483554D01*
X184246727Y-63475934D01*
X184253799Y-63474385D01*
X184264407Y-63478612D01*
G37*
G36*
X179066866Y-63479064D02*
G01*
X179078371Y-63489055D01*
X179080111Y-63490946D01*
X179081708Y-63493398D01*
X179083167Y-63497023D01*
X179084496Y-63502431D01*
X179085699Y-63510233D01*
X179086783Y-63521039D01*
X179087754Y-63535460D01*
X179088619Y-63554108D01*
X179089383Y-63577592D01*
X179090053Y-63606524D01*
X179090634Y-63641514D01*
X179091133Y-63683173D01*
X179091556Y-63732112D01*
X179091909Y-63788941D01*
X179092198Y-63854272D01*
X179092430Y-63928715D01*
X179092609Y-64012880D01*
X179092743Y-64107379D01*
X179092838Y-64212823D01*
X179092899Y-64329821D01*
X179092933Y-64458985D01*
X179092946Y-64600926D01*
X179092945Y-64756254D01*
X179092934Y-64925580D01*
X179092933Y-64943155D01*
X179092920Y-65115943D01*
X179092902Y-65274661D01*
X179092867Y-65419909D01*
X179092803Y-65552286D01*
X179092697Y-65672393D01*
X179092537Y-65780829D01*
X179092313Y-65878194D01*
X179092012Y-65965087D01*
X179091621Y-66042108D01*
X179091130Y-66109857D01*
X179090525Y-66168934D01*
X179089796Y-66219937D01*
X179088930Y-66263468D01*
X179087915Y-66300125D01*
X179086739Y-66330508D01*
X179085391Y-66355217D01*
X179083858Y-66374852D01*
X179082129Y-66390012D01*
X179080192Y-66401297D01*
X179078034Y-66409306D01*
X179075644Y-66414640D01*
X179073009Y-66417898D01*
X179070118Y-66419680D01*
X179066960Y-66420585D01*
X179063521Y-66421213D01*
X179063513Y-66421214D01*
X179052486Y-66419082D01*
X179031929Y-66411632D01*
X179005379Y-66400217D01*
X178990622Y-66393282D01*
X178922539Y-66358092D01*
X178854371Y-66318646D01*
X178787843Y-66276248D01*
X178724675Y-66232206D01*
X178666591Y-66187823D01*
X178615314Y-66144406D01*
X178572566Y-66103261D01*
X178540070Y-66065694D01*
X178522143Y-66038211D01*
X178502599Y-66001183D01*
X178502599Y-64966993D01*
X178502599Y-63932803D01*
X178519495Y-63896130D01*
X178528288Y-63878306D01*
X178537967Y-63862371D01*
X178550173Y-63846706D01*
X178566543Y-63829692D01*
X178588718Y-63809711D01*
X178618335Y-63785145D01*
X178657033Y-63754375D01*
X178685966Y-63731737D01*
X178749349Y-63682880D01*
X178809936Y-63637279D01*
X178866594Y-63595718D01*
X178918187Y-63558983D01*
X178963580Y-63527858D01*
X179001639Y-63503127D01*
X179031229Y-63485576D01*
X179051216Y-63475989D01*
X179058085Y-63474385D01*
X179066866Y-63479064D01*
G37*
G36*
X180610168Y-63396945D02*
G01*
X180614416Y-63401326D01*
X180618062Y-63407278D01*
X180618775Y-63408599D01*
X180621009Y-63419357D01*
X180622746Y-63442605D01*
X180623993Y-63478730D01*
X180624758Y-63528120D01*
X180625047Y-63591162D01*
X180624869Y-63668244D01*
X180624534Y-63722157D01*
X180622322Y-64020819D01*
X180603243Y-64061495D01*
X180592917Y-64081964D01*
X180581394Y-64100782D01*
X180567229Y-64119367D01*
X180548973Y-64139138D01*
X180525182Y-64161515D01*
X180494409Y-64187914D01*
X180455208Y-64219755D01*
X180406132Y-64258457D01*
X180388043Y-64272571D01*
X180322158Y-64323964D01*
X180252689Y-64378286D01*
X180180940Y-64434511D01*
X180108211Y-64491611D01*
X180035803Y-64548561D01*
X179965017Y-64604333D01*
X179897155Y-64657900D01*
X179833518Y-64708236D01*
X179775407Y-64754314D01*
X179724123Y-64795108D01*
X179680968Y-64829589D01*
X179647242Y-64856733D01*
X179631173Y-64869807D01*
X179591451Y-64902988D01*
X179562368Y-64928977D01*
X179542674Y-64949180D01*
X179531122Y-64964999D01*
X179526463Y-64977840D01*
X179526897Y-64987076D01*
X179532738Y-64993198D01*
X179549088Y-65008163D01*
X179575234Y-65031362D01*
X179610463Y-65062192D01*
X179654062Y-65100045D01*
X179705319Y-65144316D01*
X179763519Y-65194398D01*
X179827950Y-65249687D01*
X179897898Y-65309577D01*
X179972652Y-65373460D01*
X180051497Y-65440732D01*
X180133721Y-65510787D01*
X180218610Y-65583018D01*
X180305451Y-65656820D01*
X180393533Y-65731587D01*
X180482140Y-65806713D01*
X180570561Y-65881592D01*
X180658082Y-65955619D01*
X180743990Y-66028187D01*
X180827572Y-66098690D01*
X180908115Y-66166523D01*
X180984906Y-66231080D01*
X181057232Y-66291755D01*
X181124380Y-66347942D01*
X181185637Y-66399034D01*
X181240289Y-66444428D01*
X181287625Y-66483515D01*
X181300780Y-66494322D01*
X181349404Y-66535107D01*
X181386711Y-66568540D01*
X181413530Y-66595491D01*
X181430690Y-66616831D01*
X181439020Y-66633431D01*
X181440139Y-66640718D01*
X181435301Y-66652725D01*
X181423629Y-66667477D01*
X181423281Y-66667827D01*
X181410482Y-66677486D01*
X181392851Y-66683800D01*
X181366314Y-66687998D01*
X181351768Y-66689405D01*
X181309550Y-66692307D01*
X181258511Y-66694644D01*
X181202014Y-66696374D01*
X181143424Y-66697454D01*
X181086103Y-66697840D01*
X181033417Y-66697491D01*
X180988729Y-66696362D01*
X180956050Y-66694468D01*
X180890563Y-66687708D01*
X180835921Y-66679613D01*
X180788313Y-66669484D01*
X180743929Y-66656622D01*
X180736764Y-66654227D01*
X180724049Y-66649979D01*
X180712389Y-66646087D01*
X180701279Y-66642144D01*
X180690218Y-66637744D01*
X180678700Y-66632480D01*
X180666223Y-66625946D01*
X180652283Y-66617736D01*
X180636376Y-66607442D01*
X180617999Y-66594659D01*
X180596648Y-66578979D01*
X180571819Y-66559997D01*
X180543010Y-66537306D01*
X180509715Y-66510499D01*
X180471433Y-66479170D01*
X180427658Y-66442913D01*
X180377888Y-66401320D01*
X180321619Y-66353986D01*
X180258347Y-66300504D01*
X180187569Y-66240467D01*
X180108781Y-66173469D01*
X180021480Y-66099104D01*
X179925162Y-66016965D01*
X179819322Y-65926645D01*
X179703459Y-65827739D01*
X179577068Y-65719839D01*
X179540753Y-65688839D01*
X179479249Y-65636228D01*
X179427884Y-65591993D01*
X179385546Y-65555097D01*
X179351125Y-65524500D01*
X179323510Y-65499164D01*
X179301589Y-65478052D01*
X179284250Y-65460125D01*
X179270384Y-65444344D01*
X179258878Y-65429673D01*
X179250117Y-65417287D01*
X179227783Y-65382933D01*
X179209573Y-65350794D01*
X179195077Y-65318850D01*
X179183886Y-65285083D01*
X179175589Y-65247475D01*
X179169775Y-65204005D01*
X179166034Y-65152657D01*
X179163957Y-65091410D01*
X179163131Y-65018247D01*
X179163062Y-64988997D01*
X179163224Y-64919490D01*
X179164017Y-64862364D01*
X179165736Y-64815336D01*
X179168673Y-64776122D01*
X179173122Y-64742440D01*
X179179376Y-64712004D01*
X179187728Y-64682531D01*
X179198473Y-64651738D01*
X179210303Y-64621328D01*
X179243903Y-64552225D01*
X179290445Y-64480659D01*
X179350220Y-64406272D01*
X179423518Y-64328707D01*
X179510629Y-64247606D01*
X179520334Y-64239093D01*
X179537426Y-64224602D01*
X179564983Y-64201784D01*
X179601996Y-64171455D01*
X179647459Y-64134430D01*
X179700362Y-64091524D01*
X179759700Y-64043553D01*
X179824462Y-63991332D01*
X179893643Y-63935677D01*
X179966234Y-63877401D01*
X180041227Y-63817322D01*
X180082467Y-63784335D01*
X180171080Y-63713520D01*
X180248967Y-63651369D01*
X180316850Y-63597375D01*
X180375453Y-63551032D01*
X180425500Y-63511833D01*
X180467712Y-63479272D01*
X180502814Y-63452842D01*
X180531528Y-63432037D01*
X180554578Y-63416349D01*
X180572687Y-63405272D01*
X180586577Y-63398300D01*
X180596971Y-63394926D01*
X180604594Y-63394643D01*
X180610168Y-63396945D01*
G37*
G36*
X183654763Y-62629455D02*
G01*
X183662289Y-62637750D01*
X183663097Y-62645644D01*
X183663857Y-62666290D01*
X183664571Y-62699797D01*
X183665237Y-62746273D01*
X183665858Y-62805826D01*
X183666433Y-62878565D01*
X183666962Y-62964596D01*
X183667445Y-63064030D01*
X183667884Y-63176973D01*
X183668279Y-63303534D01*
X183668629Y-63443821D01*
X183668935Y-63597943D01*
X183669198Y-63766007D01*
X183669417Y-63948122D01*
X183669594Y-64144396D01*
X183669728Y-64354936D01*
X183669821Y-64579853D01*
X183669871Y-64819252D01*
X183669882Y-64999999D01*
X183669861Y-65249857D01*
X183669799Y-65485154D01*
X183669695Y-65705998D01*
X183669548Y-65912497D01*
X183669360Y-66104759D01*
X183669128Y-66282893D01*
X183668853Y-66447008D01*
X183668534Y-66597210D01*
X183668172Y-66733608D01*
X183667765Y-66856310D01*
X183667313Y-66965426D01*
X183666817Y-67061062D01*
X183666275Y-67143327D01*
X183665687Y-67212329D01*
X183665054Y-67268176D01*
X183664374Y-67310977D01*
X183663647Y-67340840D01*
X183662873Y-67357873D01*
X183662289Y-67362249D01*
X183653271Y-67372106D01*
X183639118Y-67375351D01*
X183618238Y-67371615D01*
X183589042Y-67360530D01*
X183549940Y-67341728D01*
X183530931Y-67331839D01*
X183456164Y-67290108D01*
X183384413Y-67245786D01*
X183317142Y-67200037D01*
X183255814Y-67154030D01*
X183201892Y-67108931D01*
X183156840Y-67065906D01*
X183122120Y-67026123D01*
X183099196Y-66990748D01*
X183096741Y-66985619D01*
X183079440Y-66947357D01*
X183077429Y-66094700D01*
X183075419Y-65242044D01*
X182452278Y-65242044D01*
X181829137Y-65242044D01*
X181827173Y-65822076D01*
X181826804Y-65927996D01*
X181826445Y-66020215D01*
X181826069Y-66099699D01*
X181825652Y-66167418D01*
X181825167Y-66224339D01*
X181824589Y-66271430D01*
X181823890Y-66309658D01*
X181823046Y-66339992D01*
X181822031Y-66363398D01*
X181820818Y-66380846D01*
X181819382Y-66393303D01*
X181817696Y-66401736D01*
X181815735Y-66407114D01*
X181813473Y-66410404D01*
X181811360Y-66412234D01*
X181804373Y-66416614D01*
X181797059Y-66418183D01*
X181787480Y-66415967D01*
X181773700Y-66408993D01*
X181753779Y-66396288D01*
X181725779Y-66376878D01*
X181689518Y-66351047D01*
X181614500Y-66295848D01*
X181543414Y-66240572D01*
X181477415Y-66186276D01*
X181417656Y-66134020D01*
X181365292Y-66084862D01*
X181321478Y-66039861D01*
X181287367Y-66000076D01*
X181264114Y-65966565D01*
X181258270Y-65955495D01*
X181238435Y-65913167D01*
X181238435Y-64926652D01*
X181238435Y-63940138D01*
X181255349Y-63898274D01*
X181262800Y-63881630D01*
X181271848Y-63866011D01*
X181283856Y-63850120D01*
X181300187Y-63832658D01*
X181322203Y-63812327D01*
X181351266Y-63787830D01*
X181388740Y-63757867D01*
X181435986Y-63721140D01*
X181463365Y-63700092D01*
X181514893Y-63661088D01*
X181566493Y-63622982D01*
X181616434Y-63586978D01*
X181662988Y-63554276D01*
X181704422Y-63526080D01*
X181739008Y-63503592D01*
X181765015Y-63488015D01*
X181777684Y-63481658D01*
X181794736Y-63476367D01*
X181806577Y-63479349D01*
X181814394Y-63485557D01*
X181817010Y-63488234D01*
X181819290Y-63491856D01*
X181821258Y-63497384D01*
X181822936Y-63505783D01*
X181824348Y-63518015D01*
X181825517Y-63535043D01*
X181826465Y-63557828D01*
X181827216Y-63587336D01*
X181827792Y-63624527D01*
X181828217Y-63670365D01*
X181828514Y-63725813D01*
X181828705Y-63791834D01*
X181828814Y-63869390D01*
X181828863Y-63959444D01*
X181828876Y-64062959D01*
X181828877Y-64091635D01*
X181828877Y-64684608D01*
X182452106Y-64684608D01*
X183075336Y-64684608D01*
X183077388Y-63886961D01*
X183079440Y-63089315D01*
X183095873Y-63048736D01*
X183104680Y-63029595D01*
X183115803Y-63011453D01*
X183130773Y-62992785D01*
X183151121Y-62972064D01*
X183178378Y-62947764D01*
X183214075Y-62918360D01*
X183259743Y-62882326D01*
X183273809Y-62871395D01*
X183345857Y-62816190D01*
X183411940Y-62766865D01*
X183471288Y-62723944D01*
X183523133Y-62687951D01*
X183566705Y-62659407D01*
X183601234Y-62638835D01*
X183625952Y-62626760D01*
X183638451Y-62623563D01*
X183654763Y-62629455D01*
G37*
D17*
%TO.C,Inputs*%
X9630000Y-16790000D02*
X9630000Y-52570000D01*
X6980000Y-19440000D02*
X6980000Y-16790000D01*
X6980000Y-16790000D02*
X9630000Y-16790000D01*
X4330000Y-52570000D02*
X9630000Y-52570000D01*
X4330000Y-19440000D02*
X6980000Y-19440000D01*
X4330000Y-19440000D02*
X4330000Y-52570000D01*
X4330000Y-18170000D02*
X4330000Y-16790000D01*
X4330000Y-16790000D02*
X5710000Y-16790000D01*
%TO.C,CE_4*%
X110690000Y-25810000D02*
X119310000Y-25810000D01*
X110690000Y-26185000D02*
X110690000Y-25810000D01*
X110690000Y-44190000D02*
X110690000Y-43815000D01*
X119310000Y-25810000D02*
X119310000Y-26185000D01*
X119310000Y-43815000D02*
X119310000Y-44190000D01*
X119310000Y-44190000D02*
X110690000Y-44190000D01*
X109430000Y-26180000D02*
X109090000Y-25710000D01*
X109770000Y-25710000D01*
X109430000Y-26180000D01*
G36*
X109430000Y-26180000D02*
G01*
X109090000Y-25710000D01*
X109770000Y-25710000D01*
X109430000Y-26180000D01*
G37*
%TO.C,Phase Accumulator*%
X23190000Y-25810000D02*
X31810000Y-25810000D01*
X23190000Y-26185000D02*
X23190000Y-25810000D01*
X23190000Y-44190000D02*
X23190000Y-43815000D01*
X31810000Y-25810000D02*
X31810000Y-26185000D01*
X31810000Y-43815000D02*
X31810000Y-44190000D01*
X31810000Y-44190000D02*
X23190000Y-44190000D01*
X21930000Y-26180000D02*
X21590000Y-25710000D01*
X22270000Y-25710000D01*
X21930000Y-26180000D01*
G36*
X21930000Y-26180000D02*
G01*
X21590000Y-25710000D01*
X22270000Y-25710000D01*
X21930000Y-26180000D01*
G37*
%TO.C,CE_6*%
X145690000Y-25810000D02*
X154310000Y-25810000D01*
X145690000Y-26185000D02*
X145690000Y-25810000D01*
X145690000Y-44190000D02*
X145690000Y-43815000D01*
X154310000Y-25810000D02*
X154310000Y-26185000D01*
X154310000Y-43815000D02*
X154310000Y-44190000D01*
X154310000Y-44190000D02*
X145690000Y-44190000D01*
X144430000Y-26180000D02*
X144090000Y-25710000D01*
X144770000Y-25710000D01*
X144430000Y-26180000D01*
G36*
X144430000Y-26180000D02*
G01*
X144090000Y-25710000D01*
X144770000Y-25710000D01*
X144430000Y-26180000D01*
G37*
%TO.C,CE_7*%
X163190000Y-25810000D02*
X171810000Y-25810000D01*
X163190000Y-26185000D02*
X163190000Y-25810000D01*
X163190000Y-44190000D02*
X163190000Y-43815000D01*
X171810000Y-25810000D02*
X171810000Y-26185000D01*
X171810000Y-43815000D02*
X171810000Y-44190000D01*
X171810000Y-44190000D02*
X163190000Y-44190000D01*
X161930000Y-26180000D02*
X161590000Y-25710000D01*
X162270000Y-25710000D01*
X161930000Y-26180000D01*
G36*
X161930000Y-26180000D02*
G01*
X161590000Y-25710000D01*
X162270000Y-25710000D01*
X161930000Y-26180000D01*
G37*
%TO.C,CORDIC Element(CE_0)*%
X40690000Y-25810000D02*
X49310000Y-25810000D01*
X40690000Y-26185000D02*
X40690000Y-25810000D01*
X40690000Y-44190000D02*
X40690000Y-43815000D01*
X49310000Y-25810000D02*
X49310000Y-26185000D01*
X49310000Y-43815000D02*
X49310000Y-44190000D01*
X49310000Y-44190000D02*
X40690000Y-44190000D01*
X39430000Y-26180000D02*
X39090000Y-25710000D01*
X39770000Y-25710000D01*
X39430000Y-26180000D01*
G36*
X39430000Y-26180000D02*
G01*
X39090000Y-25710000D01*
X39770000Y-25710000D01*
X39430000Y-26180000D01*
G37*
%TO.C,Clock*%
X106120000Y-53120000D02*
X107500000Y-53120000D01*
X106120000Y-54500000D02*
X106120000Y-53120000D01*
X106120000Y-55770000D02*
X106120000Y-55880000D01*
X106120000Y-55770000D02*
X108880000Y-55770000D01*
X106120000Y-55880000D02*
X108880000Y-55880000D01*
X108880000Y-55770000D02*
X108880000Y-55880000D01*
%TO.C,CE_2*%
X75690000Y-25810000D02*
X84310000Y-25810000D01*
X75690000Y-26185000D02*
X75690000Y-25810000D01*
X75690000Y-44190000D02*
X75690000Y-43815000D01*
X84310000Y-25810000D02*
X84310000Y-26185000D01*
X84310000Y-43815000D02*
X84310000Y-44190000D01*
X84310000Y-44190000D02*
X75690000Y-44190000D01*
X74430000Y-26180000D02*
X74090000Y-25710000D01*
X74770000Y-25710000D01*
X74430000Y-26180000D01*
G36*
X74430000Y-26180000D02*
G01*
X74090000Y-25710000D01*
X74770000Y-25710000D01*
X74430000Y-26180000D01*
G37*
%TO.C,Outputs*%
X201620000Y-18680000D02*
X203000000Y-18680000D01*
X201620000Y-20060000D02*
X201620000Y-18680000D01*
X201620000Y-21330000D02*
X201620000Y-51920000D01*
X201620000Y-21330000D02*
X204380000Y-21330000D01*
X201620000Y-51920000D02*
X204380000Y-51920000D01*
X204380000Y-21330000D02*
X204380000Y-51920000D01*
%TO.C,CE_5*%
X128190000Y-25810000D02*
X136810000Y-25810000D01*
X128190000Y-26185000D02*
X128190000Y-25810000D01*
X128190000Y-44190000D02*
X128190000Y-43815000D01*
X136810000Y-25810000D02*
X136810000Y-26185000D01*
X136810000Y-43815000D02*
X136810000Y-44190000D01*
X136810000Y-44190000D02*
X128190000Y-44190000D01*
X126930000Y-26180000D02*
X126590000Y-25710000D01*
X127270000Y-25710000D01*
X126930000Y-26180000D01*
G36*
X126930000Y-26180000D02*
G01*
X126590000Y-25710000D01*
X127270000Y-25710000D01*
X126930000Y-26180000D01*
G37*
%TO.C,CE_1*%
X58190000Y-25810000D02*
X66810000Y-25810000D01*
X58190000Y-26185000D02*
X58190000Y-25810000D01*
X58190000Y-44190000D02*
X58190000Y-43815000D01*
X66810000Y-25810000D02*
X66810000Y-26185000D01*
X66810000Y-43815000D02*
X66810000Y-44190000D01*
X66810000Y-44190000D02*
X58190000Y-44190000D01*
X56930000Y-26180000D02*
X56590000Y-25710000D01*
X57270000Y-25710000D01*
X56930000Y-26180000D01*
G36*
X56930000Y-26180000D02*
G01*
X56590000Y-25710000D01*
X57270000Y-25710000D01*
X56930000Y-26180000D01*
G37*
%TO.C,CE_3*%
X93190000Y-25810000D02*
X101810000Y-25810000D01*
X93190000Y-26185000D02*
X93190000Y-25810000D01*
X93190000Y-44190000D02*
X93190000Y-43815000D01*
X101810000Y-25810000D02*
X101810000Y-26185000D01*
X101810000Y-43815000D02*
X101810000Y-44190000D01*
X101810000Y-44190000D02*
X93190000Y-44190000D01*
X91930000Y-26180000D02*
X91590000Y-25710000D01*
X92270000Y-25710000D01*
X91930000Y-26180000D01*
G36*
X91930000Y-26180000D02*
G01*
X91590000Y-25710000D01*
X92270000Y-25710000D01*
X91930000Y-26180000D01*
G37*
%TO.C,Output Terminal*%
X180690000Y-25810000D02*
X189310000Y-25810000D01*
X180690000Y-26185000D02*
X180690000Y-25810000D01*
X180690000Y-44190000D02*
X180690000Y-43815000D01*
X189310000Y-25810000D02*
X189310000Y-26185000D01*
X189310000Y-43815000D02*
X189310000Y-44190000D01*
X189310000Y-44190000D02*
X180690000Y-44190000D01*
X179430000Y-26180000D02*
X179090000Y-25710000D01*
X179770000Y-25710000D01*
X179430000Y-26180000D01*
G36*
X179430000Y-26180000D02*
G01*
X179090000Y-25710000D01*
X179770000Y-25710000D01*
X179430000Y-26180000D01*
G37*
%TD*%
M02*
