%TF.GenerationSoftware,KiCad,Pcbnew,9.0.6-9.0.6~ubuntu24.04.1*%
%TF.CreationDate,2025-11-14T05:25:19+09:00*%
%TF.ProjectId,NCO_board,4e434f5f-626f-4617-9264-2e6b69636164,rev?*%
%TF.SameCoordinates,Original*%
%TF.FileFunction,Drillmap*%
%TF.FilePolarity,Positive*%
%FSLAX45Y45*%
G04 Gerber Fmt 4.5, Leading zero omitted, Abs format (unit mm)*
G04 Created by KiCad (PCBNEW 9.0.6-9.0.6~ubuntu24.04.1) date 2025-11-14 05:25:19*
%MOMM*%
%LPD*%
G01*
G04 APERTURE LIST*
%ADD10C,0.050000*%
%ADD11C,0.200000*%
G04 APERTURE END LIST*
D10*
X20800000Y-7000000D02*
X21000000Y-6800000D01*
X0Y-6800000D02*
X200000Y-7000000D01*
X20800000Y0D02*
X21000000Y-200000D01*
X200000Y0D02*
X0Y-200000D01*
X21000000Y-200000D02*
X21000000Y-6800000D01*
X200000Y-7000000D02*
X20800000Y-7000000D01*
X0Y-200000D02*
X0Y-6800000D01*
X200000Y0D02*
X20800000Y0D01*
D11*
X258277Y-7313984D02*
X258277Y-7113984D01*
X258277Y-7113984D02*
X305896Y-7113984D01*
X305896Y-7113984D02*
X334467Y-7123508D01*
X334467Y-7123508D02*
X353515Y-7142555D01*
X353515Y-7142555D02*
X363039Y-7161603D01*
X363039Y-7161603D02*
X372562Y-7199698D01*
X372562Y-7199698D02*
X372562Y-7228269D01*
X372562Y-7228269D02*
X363039Y-7266365D01*
X363039Y-7266365D02*
X353515Y-7285412D01*
X353515Y-7285412D02*
X334467Y-7304460D01*
X334467Y-7304460D02*
X305896Y-7313984D01*
X305896Y-7313984D02*
X258277Y-7313984D01*
X458277Y-7313984D02*
X458277Y-7180650D01*
X458277Y-7218746D02*
X467801Y-7199698D01*
X467801Y-7199698D02*
X477324Y-7190174D01*
X477324Y-7190174D02*
X496372Y-7180650D01*
X496372Y-7180650D02*
X515420Y-7180650D01*
X582086Y-7313984D02*
X582086Y-7180650D01*
X582086Y-7113984D02*
X572563Y-7123508D01*
X572563Y-7123508D02*
X582086Y-7133031D01*
X582086Y-7133031D02*
X591610Y-7123508D01*
X591610Y-7123508D02*
X582086Y-7113984D01*
X582086Y-7113984D02*
X582086Y-7133031D01*
X705896Y-7313984D02*
X686848Y-7304460D01*
X686848Y-7304460D02*
X677324Y-7285412D01*
X677324Y-7285412D02*
X677324Y-7113984D01*
X810658Y-7313984D02*
X791610Y-7304460D01*
X791610Y-7304460D02*
X782086Y-7285412D01*
X782086Y-7285412D02*
X782086Y-7113984D01*
X1039229Y-7313984D02*
X1039229Y-7113984D01*
X1039229Y-7113984D02*
X1105896Y-7256841D01*
X1105896Y-7256841D02*
X1172563Y-7113984D01*
X1172563Y-7113984D02*
X1172563Y-7313984D01*
X1353515Y-7313984D02*
X1353515Y-7209222D01*
X1353515Y-7209222D02*
X1343991Y-7190174D01*
X1343991Y-7190174D02*
X1324944Y-7180650D01*
X1324944Y-7180650D02*
X1286848Y-7180650D01*
X1286848Y-7180650D02*
X1267801Y-7190174D01*
X1353515Y-7304460D02*
X1334467Y-7313984D01*
X1334467Y-7313984D02*
X1286848Y-7313984D01*
X1286848Y-7313984D02*
X1267801Y-7304460D01*
X1267801Y-7304460D02*
X1258277Y-7285412D01*
X1258277Y-7285412D02*
X1258277Y-7266365D01*
X1258277Y-7266365D02*
X1267801Y-7247317D01*
X1267801Y-7247317D02*
X1286848Y-7237793D01*
X1286848Y-7237793D02*
X1334467Y-7237793D01*
X1334467Y-7237793D02*
X1353515Y-7228269D01*
X1448753Y-7180650D02*
X1448753Y-7380650D01*
X1448753Y-7190174D02*
X1467801Y-7180650D01*
X1467801Y-7180650D02*
X1505896Y-7180650D01*
X1505896Y-7180650D02*
X1524943Y-7190174D01*
X1524943Y-7190174D02*
X1534467Y-7199698D01*
X1534467Y-7199698D02*
X1543991Y-7218746D01*
X1543991Y-7218746D02*
X1543991Y-7275888D01*
X1543991Y-7275888D02*
X1534467Y-7294936D01*
X1534467Y-7294936D02*
X1524943Y-7304460D01*
X1524943Y-7304460D02*
X1505896Y-7313984D01*
X1505896Y-7313984D02*
X1467801Y-7313984D01*
X1467801Y-7313984D02*
X1448753Y-7304460D01*
X1629705Y-7294936D02*
X1639229Y-7304460D01*
X1639229Y-7304460D02*
X1629705Y-7313984D01*
X1629705Y-7313984D02*
X1620182Y-7304460D01*
X1620182Y-7304460D02*
X1629705Y-7294936D01*
X1629705Y-7294936D02*
X1629705Y-7313984D01*
X1629705Y-7190174D02*
X1639229Y-7199698D01*
X1639229Y-7199698D02*
X1629705Y-7209222D01*
X1629705Y-7209222D02*
X1620182Y-7199698D01*
X1620182Y-7199698D02*
X1629705Y-7190174D01*
X1629705Y-7190174D02*
X1629705Y-7209222D01*
M02*
