%TF.GenerationSoftware,KiCad,Pcbnew,9.0.6-9.0.6~ubuntu24.04.1*%
%TF.CreationDate,2025-11-14T05:25:22+09:00*%
%TF.ProjectId,NCO_board,4e434f5f-626f-4617-9264-2e6b69636164,rev?*%
%TF.SameCoordinates,Original*%
%TF.FileFunction,Soldermask,Top*%
%TF.FilePolarity,Negative*%
%FSLAX46Y46*%
G04 Gerber Fmt 4.6, Leading zero omitted, Abs format (unit mm)*
G04 Created by KiCad (PCBNEW 9.0.6-9.0.6~ubuntu24.04.1) date 2025-11-14 05:25:22*
%MOMM*%
%LPD*%
G01*
G04 APERTURE LIST*
G04 Aperture macros list*
%AMRoundRect*
0 Rectangle with rounded corners*
0 $1 Rounding radius*
0 $2 $3 $4 $5 $6 $7 $8 $9 X,Y pos of 4 corners*
0 Add a 4 corners polygon primitive as box body*
4,1,4,$2,$3,$4,$5,$6,$7,$8,$9,$2,$3,0*
0 Add four circle primitives for the rounded corners*
1,1,$1+$1,$2,$3*
1,1,$1+$1,$4,$5*
1,1,$1+$1,$6,$7*
1,1,$1+$1,$8,$9*
0 Add four rect primitives between the rounded corners*
20,1,$1+$1,$2,$3,$4,$5,0*
20,1,$1+$1,$4,$5,$6,$7,0*
20,1,$1+$1,$6,$7,$8,$9,0*
20,1,$1+$1,$8,$9,$2,$3,0*%
G04 Aperture macros list end*
%ADD10R,1.700000X1.700000*%
%ADD11C,1.700000*%
%ADD12RoundRect,0.150000X-0.987500X-0.150000X0.987500X-0.150000X0.987500X0.150000X-0.987500X0.150000X0*%
%ADD13C,6.400000*%
G04 APERTURE END LIST*
D10*
%TO.C,J6*%
X140000000Y-65000000D03*
%TD*%
%TO.C,GND*%
X129000000Y-64900000D03*
%TD*%
D11*
%TO.C,Inputs*%
X8250000Y-51190000D03*
X5710000Y-51190000D03*
X8250000Y-48650000D03*
X5710000Y-48650000D03*
X8250000Y-46110000D03*
X5710000Y-46110000D03*
X8250000Y-43570000D03*
X5710000Y-43570000D03*
X8250000Y-41030000D03*
X5710000Y-41030000D03*
X8250000Y-38490000D03*
X5710000Y-38490000D03*
X8250000Y-35950000D03*
X5710000Y-35950000D03*
X8250000Y-33410000D03*
X5710000Y-33410000D03*
X8250000Y-30870000D03*
X5710000Y-30870000D03*
X8250000Y-28330000D03*
X5710000Y-28330000D03*
X8250000Y-25790000D03*
X5710000Y-25790000D03*
X8250000Y-23250000D03*
X5710000Y-23250000D03*
X8250000Y-20710000D03*
X5710000Y-20710000D03*
X8250000Y-18170000D03*
D10*
X5710000Y-18170000D03*
%TD*%
D12*
%TO.C,CE_4*%
X109437500Y-26745000D03*
X109437500Y-28015000D03*
X109437500Y-29285000D03*
X109437500Y-30555000D03*
X109437500Y-31825000D03*
X109437500Y-33095000D03*
X109437500Y-34365000D03*
X109437500Y-35635000D03*
X109437500Y-36905000D03*
X109437500Y-38175000D03*
X109437500Y-39445000D03*
X109437500Y-40715000D03*
X109437500Y-41985000D03*
X109437500Y-43255000D03*
X120562500Y-43255000D03*
X120562500Y-41985000D03*
X120562500Y-40715000D03*
X120562500Y-39445000D03*
X120562500Y-38175000D03*
X120562500Y-36905000D03*
X120562500Y-35635000D03*
X120562500Y-34365000D03*
X120562500Y-33095000D03*
X120562500Y-31825000D03*
X120562500Y-30555000D03*
X120562500Y-29285000D03*
X120562500Y-28015000D03*
X120562500Y-26745000D03*
%TD*%
%TO.C,Phase Accumulator*%
X21937500Y-26745000D03*
X21937500Y-28015000D03*
X21937500Y-29285000D03*
X21937500Y-30555000D03*
X21937500Y-31825000D03*
X21937500Y-33095000D03*
X21937500Y-34365000D03*
X21937500Y-35635000D03*
X21937500Y-36905000D03*
X21937500Y-38175000D03*
X21937500Y-39445000D03*
X21937500Y-40715000D03*
X21937500Y-41985000D03*
X21937500Y-43255000D03*
X33062500Y-43255000D03*
X33062500Y-41985000D03*
X33062500Y-40715000D03*
X33062500Y-39445000D03*
X33062500Y-38175000D03*
X33062500Y-36905000D03*
X33062500Y-35635000D03*
X33062500Y-34365000D03*
X33062500Y-33095000D03*
X33062500Y-31825000D03*
X33062500Y-30555000D03*
X33062500Y-29285000D03*
X33062500Y-28015000D03*
X33062500Y-26745000D03*
%TD*%
%TO.C,CE_6*%
X144437500Y-26745000D03*
X144437500Y-28015000D03*
X144437500Y-29285000D03*
X144437500Y-30555000D03*
X144437500Y-31825000D03*
X144437500Y-33095000D03*
X144437500Y-34365000D03*
X144437500Y-35635000D03*
X144437500Y-36905000D03*
X144437500Y-38175000D03*
X144437500Y-39445000D03*
X144437500Y-40715000D03*
X144437500Y-41985000D03*
X144437500Y-43255000D03*
X155562500Y-43255000D03*
X155562500Y-41985000D03*
X155562500Y-40715000D03*
X155562500Y-39445000D03*
X155562500Y-38175000D03*
X155562500Y-36905000D03*
X155562500Y-35635000D03*
X155562500Y-34365000D03*
X155562500Y-33095000D03*
X155562500Y-31825000D03*
X155562500Y-30555000D03*
X155562500Y-29285000D03*
X155562500Y-28015000D03*
X155562500Y-26745000D03*
%TD*%
%TO.C,CE_7*%
X161937500Y-26745000D03*
X161937500Y-28015000D03*
X161937500Y-29285000D03*
X161937500Y-30555000D03*
X161937500Y-31825000D03*
X161937500Y-33095000D03*
X161937500Y-34365000D03*
X161937500Y-35635000D03*
X161937500Y-36905000D03*
X161937500Y-38175000D03*
X161937500Y-39445000D03*
X161937500Y-40715000D03*
X161937500Y-41985000D03*
X161937500Y-43255000D03*
X173062500Y-43255000D03*
X173062500Y-41985000D03*
X173062500Y-40715000D03*
X173062500Y-39445000D03*
X173062500Y-38175000D03*
X173062500Y-36905000D03*
X173062500Y-35635000D03*
X173062500Y-34365000D03*
X173062500Y-33095000D03*
X173062500Y-31825000D03*
X173062500Y-30555000D03*
X173062500Y-29285000D03*
X173062500Y-28015000D03*
X173062500Y-26745000D03*
%TD*%
D13*
%TO.C,H4*%
X203000000Y-63000000D03*
%TD*%
%TO.C,H1*%
X7000000Y-7000000D03*
%TD*%
D12*
%TO.C,CORDIC Element(CE_0)*%
X39437500Y-26745000D03*
X39437500Y-28015000D03*
X39437500Y-29285000D03*
X39437500Y-30555000D03*
X39437500Y-31825000D03*
X39437500Y-33095000D03*
X39437500Y-34365000D03*
X39437500Y-35635000D03*
X39437500Y-36905000D03*
X39437500Y-38175000D03*
X39437500Y-39445000D03*
X39437500Y-40715000D03*
X39437500Y-41985000D03*
X39437500Y-43255000D03*
X50562500Y-43255000D03*
X50562500Y-41985000D03*
X50562500Y-40715000D03*
X50562500Y-39445000D03*
X50562500Y-38175000D03*
X50562500Y-36905000D03*
X50562500Y-35635000D03*
X50562500Y-34365000D03*
X50562500Y-33095000D03*
X50562500Y-31825000D03*
X50562500Y-30555000D03*
X50562500Y-29285000D03*
X50562500Y-28015000D03*
X50562500Y-26745000D03*
%TD*%
D10*
%TO.C,Clock*%
X107500000Y-54500000D03*
%TD*%
D12*
%TO.C,CE_2*%
X74437500Y-26745000D03*
X74437500Y-28015000D03*
X74437500Y-29285000D03*
X74437500Y-30555000D03*
X74437500Y-31825000D03*
X74437500Y-33095000D03*
X74437500Y-34365000D03*
X74437500Y-35635000D03*
X74437500Y-36905000D03*
X74437500Y-38175000D03*
X74437500Y-39445000D03*
X74437500Y-40715000D03*
X74437500Y-41985000D03*
X74437500Y-43255000D03*
X85562500Y-43255000D03*
X85562500Y-41985000D03*
X85562500Y-40715000D03*
X85562500Y-39445000D03*
X85562500Y-38175000D03*
X85562500Y-36905000D03*
X85562500Y-35635000D03*
X85562500Y-34365000D03*
X85562500Y-33095000D03*
X85562500Y-31825000D03*
X85562500Y-30555000D03*
X85562500Y-29285000D03*
X85562500Y-28015000D03*
X85562500Y-26745000D03*
%TD*%
D10*
%TO.C,Outputs*%
X203000000Y-20060000D03*
D11*
X203000000Y-22600000D03*
X203000000Y-25140000D03*
X203000000Y-27680000D03*
X203000000Y-30220000D03*
X203000000Y-32760000D03*
X203000000Y-35300000D03*
X203000000Y-37840000D03*
X203000000Y-40380000D03*
X203000000Y-42920000D03*
X203000000Y-45460000D03*
X203000000Y-48000000D03*
X203000000Y-50540000D03*
%TD*%
D13*
%TO.C,H2*%
X7000000Y-63000000D03*
%TD*%
D12*
%TO.C,CE_5*%
X126937500Y-26745000D03*
X126937500Y-28015000D03*
X126937500Y-29285000D03*
X126937500Y-30555000D03*
X126937500Y-31825000D03*
X126937500Y-33095000D03*
X126937500Y-34365000D03*
X126937500Y-35635000D03*
X126937500Y-36905000D03*
X126937500Y-38175000D03*
X126937500Y-39445000D03*
X126937500Y-40715000D03*
X126937500Y-41985000D03*
X126937500Y-43255000D03*
X138062500Y-43255000D03*
X138062500Y-41985000D03*
X138062500Y-40715000D03*
X138062500Y-39445000D03*
X138062500Y-38175000D03*
X138062500Y-36905000D03*
X138062500Y-35635000D03*
X138062500Y-34365000D03*
X138062500Y-33095000D03*
X138062500Y-31825000D03*
X138062500Y-30555000D03*
X138062500Y-29285000D03*
X138062500Y-28015000D03*
X138062500Y-26745000D03*
%TD*%
D13*
%TO.C,H3*%
X203000000Y-7000000D03*
%TD*%
D12*
%TO.C,CE_1*%
X56937500Y-26745000D03*
X56937500Y-28015000D03*
X56937500Y-29285000D03*
X56937500Y-30555000D03*
X56937500Y-31825000D03*
X56937500Y-33095000D03*
X56937500Y-34365000D03*
X56937500Y-35635000D03*
X56937500Y-36905000D03*
X56937500Y-38175000D03*
X56937500Y-39445000D03*
X56937500Y-40715000D03*
X56937500Y-41985000D03*
X56937500Y-43255000D03*
X68062500Y-43255000D03*
X68062500Y-41985000D03*
X68062500Y-40715000D03*
X68062500Y-39445000D03*
X68062500Y-38175000D03*
X68062500Y-36905000D03*
X68062500Y-35635000D03*
X68062500Y-34365000D03*
X68062500Y-33095000D03*
X68062500Y-31825000D03*
X68062500Y-30555000D03*
X68062500Y-29285000D03*
X68062500Y-28015000D03*
X68062500Y-26745000D03*
%TD*%
%TO.C,CE_3*%
X91937500Y-26745000D03*
X91937500Y-28015000D03*
X91937500Y-29285000D03*
X91937500Y-30555000D03*
X91937500Y-31825000D03*
X91937500Y-33095000D03*
X91937500Y-34365000D03*
X91937500Y-35635000D03*
X91937500Y-36905000D03*
X91937500Y-38175000D03*
X91937500Y-39445000D03*
X91937500Y-40715000D03*
X91937500Y-41985000D03*
X91937500Y-43255000D03*
X103062500Y-43255000D03*
X103062500Y-41985000D03*
X103062500Y-40715000D03*
X103062500Y-39445000D03*
X103062500Y-38175000D03*
X103062500Y-36905000D03*
X103062500Y-35635000D03*
X103062500Y-34365000D03*
X103062500Y-33095000D03*
X103062500Y-31825000D03*
X103062500Y-30555000D03*
X103062500Y-29285000D03*
X103062500Y-28015000D03*
X103062500Y-26745000D03*
%TD*%
%TO.C,Output Terminal*%
X179437500Y-26745000D03*
X179437500Y-28015000D03*
X179437500Y-29285000D03*
X179437500Y-30555000D03*
X179437500Y-31825000D03*
X179437500Y-33095000D03*
X179437500Y-34365000D03*
X179437500Y-35635000D03*
X179437500Y-36905000D03*
X179437500Y-38175000D03*
X179437500Y-39445000D03*
X179437500Y-40715000D03*
X179437500Y-41985000D03*
X179437500Y-43255000D03*
X190562500Y-43255000D03*
X190562500Y-41985000D03*
X190562500Y-40715000D03*
X190562500Y-39445000D03*
X190562500Y-38175000D03*
X190562500Y-36905000D03*
X190562500Y-35635000D03*
X190562500Y-34365000D03*
X190562500Y-33095000D03*
X190562500Y-31825000D03*
X190562500Y-30555000D03*
X190562500Y-29285000D03*
X190562500Y-28015000D03*
X190562500Y-26745000D03*
%TD*%
M02*
