%TF.GenerationSoftware,KiCad,Pcbnew,9.0.6-9.0.6~ubuntu24.04.1*%
%TF.CreationDate,2025-11-14T05:25:19+09:00*%
%TF.ProjectId,NCO_board,4e434f5f-626f-4617-9264-2e6b69636164,rev?*%
%TF.SameCoordinates,Original*%
%TF.FileFunction,Drillmap*%
%TF.FilePolarity,Positive*%
%FSLAX45Y45*%
G04 Gerber Fmt 4.5, Leading zero omitted, Abs format (unit mm)*
G04 Created by KiCad (PCBNEW 9.0.6-9.0.6~ubuntu24.04.1) date 2025-11-14 05:25:19*
%MOMM*%
%LPD*%
G01*
G04 APERTURE LIST*
%ADD10C,0.050000*%
%ADD11C,0.200000*%
%ADD12C,0.100000*%
%ADD13C,0.320000*%
G04 APERTURE END LIST*
D10*
X20800000Y-7000000D02*
X21000000Y-6800000D01*
X0Y-6800000D02*
X200000Y-7000000D01*
X20800000Y0D02*
X21000000Y-200000D01*
X200000Y0D02*
X0Y-200000D01*
X21000000Y-200000D02*
X21000000Y-6800000D01*
X200000Y-7000000D02*
X20800000Y-7000000D01*
X0Y-200000D02*
X0Y-6800000D01*
X200000Y0D02*
X20800000Y0D01*
D11*
D12*
X2435000Y-2835000D02*
X2465000Y-2865000D01*
X2465000Y-2835000D02*
X2435000Y-2865000D01*
X4185000Y-3485000D02*
X4215000Y-3515000D01*
X4215000Y-3485000D02*
X4185000Y-3515000D01*
X5935000Y-3485000D02*
X5965000Y-3515000D01*
X5965000Y-3485000D02*
X5935000Y-3515000D01*
X7685000Y-3485000D02*
X7715000Y-3515000D01*
X7715000Y-3485000D02*
X7685000Y-3515000D01*
X9435000Y-3485000D02*
X9465000Y-3515000D01*
X9465000Y-3485000D02*
X9435000Y-3515000D01*
X9635000Y-5585000D02*
X9665000Y-5615000D01*
X9665000Y-5585000D02*
X9635000Y-5615000D01*
X9735000Y-5585000D02*
X9765000Y-5615000D01*
X9765000Y-5585000D02*
X9735000Y-5615000D01*
X9935000Y-5585000D02*
X9965000Y-5615000D01*
X9965000Y-5585000D02*
X9935000Y-5615000D01*
X10035000Y-5585000D02*
X10065000Y-5615000D01*
X10065000Y-5585000D02*
X10035000Y-5615000D01*
X10235000Y-5585000D02*
X10265000Y-5615000D01*
X10265000Y-5585000D02*
X10235000Y-5615000D01*
X11185000Y-3485000D02*
X11215000Y-3515000D01*
X11215000Y-3485000D02*
X11185000Y-3515000D01*
X11235000Y-5585000D02*
X11265000Y-5615000D01*
X11265000Y-5585000D02*
X11235000Y-5615000D01*
X11435000Y-5585000D02*
X11465000Y-5615000D01*
X11465000Y-5585000D02*
X11435000Y-5615000D01*
X11535000Y-5585000D02*
X11565000Y-5615000D01*
X11565000Y-5585000D02*
X11535000Y-5615000D01*
X11735000Y-5585000D02*
X11765000Y-5615000D01*
X11765000Y-5585000D02*
X11735000Y-5615000D01*
X11835000Y-5585000D02*
X11865000Y-5615000D01*
X11865000Y-5585000D02*
X11835000Y-5615000D01*
X12935000Y-3485000D02*
X12965000Y-3515000D01*
X12965000Y-3485000D02*
X12935000Y-3515000D01*
X14685000Y-3485000D02*
X14715000Y-3515000D01*
X14715000Y-3485000D02*
X14685000Y-3515000D01*
X16435000Y-3485000D02*
X16465000Y-3515000D01*
X16465000Y-3485000D02*
X16435000Y-3515000D01*
X18185000Y-3485000D02*
X18215000Y-3515000D01*
X18215000Y-3485000D02*
X18185000Y-3515000D01*
X280000Y-1250000D02*
G75*
G02*
X220000Y-1250000I-30000J0D01*
G01*
X220000Y-1250000D02*
G75*
G02*
X280000Y-1250000I30000J0D01*
G01*
X280000Y-1500000D02*
G75*
G02*
X220000Y-1500000I-30000J0D01*
G01*
X220000Y-1500000D02*
G75*
G02*
X280000Y-1500000I30000J0D01*
G01*
X280000Y-1750000D02*
G75*
G02*
X220000Y-1750000I-30000J0D01*
G01*
X220000Y-1750000D02*
G75*
G02*
X280000Y-1750000I30000J0D01*
G01*
X280000Y-2000000D02*
G75*
G02*
X220000Y-2000000I-30000J0D01*
G01*
X220000Y-2000000D02*
G75*
G02*
X280000Y-2000000I30000J0D01*
G01*
X280000Y-2250000D02*
G75*
G02*
X220000Y-2250000I-30000J0D01*
G01*
X220000Y-2250000D02*
G75*
G02*
X280000Y-2250000I30000J0D01*
G01*
X280000Y-2500000D02*
G75*
G02*
X220000Y-2500000I-30000J0D01*
G01*
X220000Y-2500000D02*
G75*
G02*
X280000Y-2500000I30000J0D01*
G01*
X280000Y-2750000D02*
G75*
G02*
X220000Y-2750000I-30000J0D01*
G01*
X220000Y-2750000D02*
G75*
G02*
X280000Y-2750000I30000J0D01*
G01*
X280000Y-3000000D02*
G75*
G02*
X220000Y-3000000I-30000J0D01*
G01*
X220000Y-3000000D02*
G75*
G02*
X280000Y-3000000I30000J0D01*
G01*
X280000Y-3250000D02*
G75*
G02*
X220000Y-3250000I-30000J0D01*
G01*
X220000Y-3250000D02*
G75*
G02*
X280000Y-3250000I30000J0D01*
G01*
X280000Y-3500000D02*
G75*
G02*
X220000Y-3500000I-30000J0D01*
G01*
X220000Y-3500000D02*
G75*
G02*
X280000Y-3500000I30000J0D01*
G01*
X280000Y-3750000D02*
G75*
G02*
X220000Y-3750000I-30000J0D01*
G01*
X220000Y-3750000D02*
G75*
G02*
X280000Y-3750000I30000J0D01*
G01*
X280000Y-4000000D02*
G75*
G02*
X220000Y-4000000I-30000J0D01*
G01*
X220000Y-4000000D02*
G75*
G02*
X280000Y-4000000I30000J0D01*
G01*
X280000Y-4250000D02*
G75*
G02*
X220000Y-4250000I-30000J0D01*
G01*
X220000Y-4250000D02*
G75*
G02*
X280000Y-4250000I30000J0D01*
G01*
X280000Y-4500000D02*
G75*
G02*
X220000Y-4500000I-30000J0D01*
G01*
X220000Y-4500000D02*
G75*
G02*
X280000Y-4500000I30000J0D01*
G01*
X280000Y-4750000D02*
G75*
G02*
X220000Y-4750000I-30000J0D01*
G01*
X220000Y-4750000D02*
G75*
G02*
X280000Y-4750000I30000J0D01*
G01*
X280000Y-5000000D02*
G75*
G02*
X220000Y-5000000I-30000J0D01*
G01*
X220000Y-5000000D02*
G75*
G02*
X280000Y-5000000I30000J0D01*
G01*
X280000Y-5250000D02*
G75*
G02*
X220000Y-5250000I-30000J0D01*
G01*
X220000Y-5250000D02*
G75*
G02*
X280000Y-5250000I30000J0D01*
G01*
X280000Y-5500000D02*
G75*
G02*
X220000Y-5500000I-30000J0D01*
G01*
X220000Y-5500000D02*
G75*
G02*
X280000Y-5500000I30000J0D01*
G01*
X280000Y-5750000D02*
G75*
G02*
X220000Y-5750000I-30000J0D01*
G01*
X220000Y-5750000D02*
G75*
G02*
X280000Y-5750000I30000J0D01*
G01*
X530000Y-1250000D02*
G75*
G02*
X470000Y-1250000I-30000J0D01*
G01*
X470000Y-1250000D02*
G75*
G02*
X530000Y-1250000I30000J0D01*
G01*
X530000Y-1500000D02*
G75*
G02*
X470000Y-1500000I-30000J0D01*
G01*
X470000Y-1500000D02*
G75*
G02*
X530000Y-1500000I30000J0D01*
G01*
X530000Y-5500000D02*
G75*
G02*
X470000Y-5500000I-30000J0D01*
G01*
X470000Y-5500000D02*
G75*
G02*
X530000Y-5500000I30000J0D01*
G01*
X530000Y-5750000D02*
G75*
G02*
X470000Y-5750000I-30000J0D01*
G01*
X470000Y-5750000D02*
G75*
G02*
X530000Y-5750000I30000J0D01*
G01*
X780000Y-1250000D02*
G75*
G02*
X720000Y-1250000I-30000J0D01*
G01*
X720000Y-1250000D02*
G75*
G02*
X780000Y-1250000I30000J0D01*
G01*
X780000Y-1500000D02*
G75*
G02*
X720000Y-1500000I-30000J0D01*
G01*
X720000Y-1500000D02*
G75*
G02*
X780000Y-1500000I30000J0D01*
G01*
X780000Y-5500000D02*
G75*
G02*
X720000Y-5500000I-30000J0D01*
G01*
X720000Y-5500000D02*
G75*
G02*
X780000Y-5500000I30000J0D01*
G01*
X780000Y-5750000D02*
G75*
G02*
X720000Y-5750000I-30000J0D01*
G01*
X720000Y-5750000D02*
G75*
G02*
X780000Y-5750000I30000J0D01*
G01*
X1030000Y-1250000D02*
G75*
G02*
X970000Y-1250000I-30000J0D01*
G01*
X970000Y-1250000D02*
G75*
G02*
X1030000Y-1250000I30000J0D01*
G01*
X1030000Y-1500000D02*
G75*
G02*
X970000Y-1500000I-30000J0D01*
G01*
X970000Y-1500000D02*
G75*
G02*
X1030000Y-1500000I30000J0D01*
G01*
X1030000Y-5500000D02*
G75*
G02*
X970000Y-5500000I-30000J0D01*
G01*
X970000Y-5500000D02*
G75*
G02*
X1030000Y-5500000I30000J0D01*
G01*
X1030000Y-5750000D02*
G75*
G02*
X970000Y-5750000I-30000J0D01*
G01*
X970000Y-5750000D02*
G75*
G02*
X1030000Y-5750000I30000J0D01*
G01*
X1280000Y-250000D02*
G75*
G02*
X1220000Y-250000I-30000J0D01*
G01*
X1220000Y-250000D02*
G75*
G02*
X1280000Y-250000I30000J0D01*
G01*
X1280000Y-500000D02*
G75*
G02*
X1220000Y-500000I-30000J0D01*
G01*
X1220000Y-500000D02*
G75*
G02*
X1280000Y-500000I30000J0D01*
G01*
X1280000Y-750000D02*
G75*
G02*
X1220000Y-750000I-30000J0D01*
G01*
X1220000Y-750000D02*
G75*
G02*
X1280000Y-750000I30000J0D01*
G01*
X1280000Y-1000000D02*
G75*
G02*
X1220000Y-1000000I-30000J0D01*
G01*
X1220000Y-1000000D02*
G75*
G02*
X1280000Y-1000000I30000J0D01*
G01*
X1280000Y-1250000D02*
G75*
G02*
X1220000Y-1250000I-30000J0D01*
G01*
X1220000Y-1250000D02*
G75*
G02*
X1280000Y-1250000I30000J0D01*
G01*
X1280000Y-5750000D02*
G75*
G02*
X1220000Y-5750000I-30000J0D01*
G01*
X1220000Y-5750000D02*
G75*
G02*
X1280000Y-5750000I30000J0D01*
G01*
X1280000Y-6000000D02*
G75*
G02*
X1220000Y-6000000I-30000J0D01*
G01*
X1220000Y-6000000D02*
G75*
G02*
X1280000Y-6000000I30000J0D01*
G01*
X1280000Y-6250000D02*
G75*
G02*
X1220000Y-6250000I-30000J0D01*
G01*
X1220000Y-6250000D02*
G75*
G02*
X1280000Y-6250000I30000J0D01*
G01*
X1280000Y-6500000D02*
G75*
G02*
X1220000Y-6500000I-30000J0D01*
G01*
X1220000Y-6500000D02*
G75*
G02*
X1280000Y-6500000I30000J0D01*
G01*
X1280000Y-6750000D02*
G75*
G02*
X1220000Y-6750000I-30000J0D01*
G01*
X1220000Y-6750000D02*
G75*
G02*
X1280000Y-6750000I30000J0D01*
G01*
X1530000Y-250000D02*
G75*
G02*
X1470000Y-250000I-30000J0D01*
G01*
X1470000Y-250000D02*
G75*
G02*
X1530000Y-250000I30000J0D01*
G01*
X1530000Y-500000D02*
G75*
G02*
X1470000Y-500000I-30000J0D01*
G01*
X1470000Y-500000D02*
G75*
G02*
X1530000Y-500000I30000J0D01*
G01*
X1530000Y-750000D02*
G75*
G02*
X1470000Y-750000I-30000J0D01*
G01*
X1470000Y-750000D02*
G75*
G02*
X1530000Y-750000I30000J0D01*
G01*
X1530000Y-1000000D02*
G75*
G02*
X1470000Y-1000000I-30000J0D01*
G01*
X1470000Y-1000000D02*
G75*
G02*
X1530000Y-1000000I30000J0D01*
G01*
X1530000Y-5000000D02*
G75*
G02*
X1470000Y-5000000I-30000J0D01*
G01*
X1470000Y-5000000D02*
G75*
G02*
X1530000Y-5000000I30000J0D01*
G01*
X1530000Y-6000000D02*
G75*
G02*
X1470000Y-6000000I-30000J0D01*
G01*
X1470000Y-6000000D02*
G75*
G02*
X1530000Y-6000000I30000J0D01*
G01*
X1530000Y-6250000D02*
G75*
G02*
X1470000Y-6250000I-30000J0D01*
G01*
X1470000Y-6250000D02*
G75*
G02*
X1530000Y-6250000I30000J0D01*
G01*
X1530000Y-6500000D02*
G75*
G02*
X1470000Y-6500000I-30000J0D01*
G01*
X1470000Y-6500000D02*
G75*
G02*
X1530000Y-6500000I30000J0D01*
G01*
X1530000Y-6750000D02*
G75*
G02*
X1470000Y-6750000I-30000J0D01*
G01*
X1470000Y-6750000D02*
G75*
G02*
X1530000Y-6750000I30000J0D01*
G01*
X1780000Y-250000D02*
G75*
G02*
X1720000Y-250000I-30000J0D01*
G01*
X1720000Y-250000D02*
G75*
G02*
X1780000Y-250000I30000J0D01*
G01*
X1780000Y-500000D02*
G75*
G02*
X1720000Y-500000I-30000J0D01*
G01*
X1720000Y-500000D02*
G75*
G02*
X1780000Y-500000I30000J0D01*
G01*
X1780000Y-750000D02*
G75*
G02*
X1720000Y-750000I-30000J0D01*
G01*
X1720000Y-750000D02*
G75*
G02*
X1780000Y-750000I30000J0D01*
G01*
X1780000Y-5250000D02*
G75*
G02*
X1720000Y-5250000I-30000J0D01*
G01*
X1720000Y-5250000D02*
G75*
G02*
X1780000Y-5250000I30000J0D01*
G01*
X1780000Y-6250000D02*
G75*
G02*
X1720000Y-6250000I-30000J0D01*
G01*
X1720000Y-6250000D02*
G75*
G02*
X1780000Y-6250000I30000J0D01*
G01*
X1780000Y-6500000D02*
G75*
G02*
X1720000Y-6500000I-30000J0D01*
G01*
X1720000Y-6500000D02*
G75*
G02*
X1780000Y-6500000I30000J0D01*
G01*
X1780000Y-6750000D02*
G75*
G02*
X1720000Y-6750000I-30000J0D01*
G01*
X1720000Y-6750000D02*
G75*
G02*
X1780000Y-6750000I30000J0D01*
G01*
X2030000Y-250000D02*
G75*
G02*
X1970000Y-250000I-30000J0D01*
G01*
X1970000Y-250000D02*
G75*
G02*
X2030000Y-250000I30000J0D01*
G01*
X2030000Y-500000D02*
G75*
G02*
X1970000Y-500000I-30000J0D01*
G01*
X1970000Y-500000D02*
G75*
G02*
X2030000Y-500000I30000J0D01*
G01*
X2030000Y-5500000D02*
G75*
G02*
X1970000Y-5500000I-30000J0D01*
G01*
X1970000Y-5500000D02*
G75*
G02*
X2030000Y-5500000I30000J0D01*
G01*
X2030000Y-6500000D02*
G75*
G02*
X1970000Y-6500000I-30000J0D01*
G01*
X1970000Y-6500000D02*
G75*
G02*
X2030000Y-6500000I30000J0D01*
G01*
X2030000Y-6750000D02*
G75*
G02*
X1970000Y-6750000I-30000J0D01*
G01*
X1970000Y-6750000D02*
G75*
G02*
X2030000Y-6750000I30000J0D01*
G01*
X2280000Y-250000D02*
G75*
G02*
X2220000Y-250000I-30000J0D01*
G01*
X2220000Y-250000D02*
G75*
G02*
X2280000Y-250000I30000J0D01*
G01*
X2280000Y-5750000D02*
G75*
G02*
X2220000Y-5750000I-30000J0D01*
G01*
X2220000Y-5750000D02*
G75*
G02*
X2280000Y-5750000I30000J0D01*
G01*
X2280000Y-6750000D02*
G75*
G02*
X2220000Y-6750000I-30000J0D01*
G01*
X2220000Y-6750000D02*
G75*
G02*
X2280000Y-6750000I30000J0D01*
G01*
X2530000Y-250000D02*
G75*
G02*
X2470000Y-250000I-30000J0D01*
G01*
X2470000Y-250000D02*
G75*
G02*
X2530000Y-250000I30000J0D01*
G01*
X2530000Y-6000000D02*
G75*
G02*
X2470000Y-6000000I-30000J0D01*
G01*
X2470000Y-6000000D02*
G75*
G02*
X2530000Y-6000000I30000J0D01*
G01*
X2530000Y-6750000D02*
G75*
G02*
X2470000Y-6750000I-30000J0D01*
G01*
X2470000Y-6750000D02*
G75*
G02*
X2530000Y-6750000I30000J0D01*
G01*
X2780000Y-250000D02*
G75*
G02*
X2720000Y-250000I-30000J0D01*
G01*
X2720000Y-250000D02*
G75*
G02*
X2780000Y-250000I30000J0D01*
G01*
X2780000Y-2750000D02*
G75*
G02*
X2720000Y-2750000I-30000J0D01*
G01*
X2720000Y-2750000D02*
G75*
G02*
X2780000Y-2750000I30000J0D01*
G01*
X2780000Y-3000000D02*
G75*
G02*
X2720000Y-3000000I-30000J0D01*
G01*
X2720000Y-3000000D02*
G75*
G02*
X2780000Y-3000000I30000J0D01*
G01*
X2780000Y-3250000D02*
G75*
G02*
X2720000Y-3250000I-30000J0D01*
G01*
X2720000Y-3250000D02*
G75*
G02*
X2780000Y-3250000I30000J0D01*
G01*
X2780000Y-3500000D02*
G75*
G02*
X2720000Y-3500000I-30000J0D01*
G01*
X2720000Y-3500000D02*
G75*
G02*
X2780000Y-3500000I30000J0D01*
G01*
X2780000Y-3750000D02*
G75*
G02*
X2720000Y-3750000I-30000J0D01*
G01*
X2720000Y-3750000D02*
G75*
G02*
X2780000Y-3750000I30000J0D01*
G01*
X2780000Y-6250000D02*
G75*
G02*
X2720000Y-6250000I-30000J0D01*
G01*
X2720000Y-6250000D02*
G75*
G02*
X2780000Y-6250000I30000J0D01*
G01*
X2780000Y-6750000D02*
G75*
G02*
X2720000Y-6750000I-30000J0D01*
G01*
X2720000Y-6750000D02*
G75*
G02*
X2780000Y-6750000I30000J0D01*
G01*
X3030000Y-250000D02*
G75*
G02*
X2970000Y-250000I-30000J0D01*
G01*
X2970000Y-250000D02*
G75*
G02*
X3030000Y-250000I30000J0D01*
G01*
X3030000Y-2750000D02*
G75*
G02*
X2970000Y-2750000I-30000J0D01*
G01*
X2970000Y-2750000D02*
G75*
G02*
X3030000Y-2750000I30000J0D01*
G01*
X3030000Y-3000000D02*
G75*
G02*
X2970000Y-3000000I-30000J0D01*
G01*
X2970000Y-3000000D02*
G75*
G02*
X3030000Y-3000000I30000J0D01*
G01*
X3030000Y-3250000D02*
G75*
G02*
X2970000Y-3250000I-30000J0D01*
G01*
X2970000Y-3250000D02*
G75*
G02*
X3030000Y-3250000I30000J0D01*
G01*
X3030000Y-3500000D02*
G75*
G02*
X2970000Y-3500000I-30000J0D01*
G01*
X2970000Y-3500000D02*
G75*
G02*
X3030000Y-3500000I30000J0D01*
G01*
X3030000Y-3750000D02*
G75*
G02*
X2970000Y-3750000I-30000J0D01*
G01*
X2970000Y-3750000D02*
G75*
G02*
X3030000Y-3750000I30000J0D01*
G01*
X3030000Y-4000000D02*
G75*
G02*
X2970000Y-4000000I-30000J0D01*
G01*
X2970000Y-4000000D02*
G75*
G02*
X3030000Y-4000000I30000J0D01*
G01*
X3030000Y-6250000D02*
G75*
G02*
X2970000Y-6250000I-30000J0D01*
G01*
X2970000Y-6250000D02*
G75*
G02*
X3030000Y-6250000I30000J0D01*
G01*
X3030000Y-6750000D02*
G75*
G02*
X2970000Y-6750000I-30000J0D01*
G01*
X2970000Y-6750000D02*
G75*
G02*
X3030000Y-6750000I30000J0D01*
G01*
X3280000Y-250000D02*
G75*
G02*
X3220000Y-250000I-30000J0D01*
G01*
X3220000Y-250000D02*
G75*
G02*
X3280000Y-250000I30000J0D01*
G01*
X3280000Y-6250000D02*
G75*
G02*
X3220000Y-6250000I-30000J0D01*
G01*
X3220000Y-6250000D02*
G75*
G02*
X3280000Y-6250000I30000J0D01*
G01*
X3280000Y-6750000D02*
G75*
G02*
X3220000Y-6750000I-30000J0D01*
G01*
X3220000Y-6750000D02*
G75*
G02*
X3280000Y-6750000I30000J0D01*
G01*
X3530000Y-250000D02*
G75*
G02*
X3470000Y-250000I-30000J0D01*
G01*
X3470000Y-250000D02*
G75*
G02*
X3530000Y-250000I30000J0D01*
G01*
X3530000Y-6250000D02*
G75*
G02*
X3470000Y-6250000I-30000J0D01*
G01*
X3470000Y-6250000D02*
G75*
G02*
X3530000Y-6250000I30000J0D01*
G01*
X3530000Y-6750000D02*
G75*
G02*
X3470000Y-6750000I-30000J0D01*
G01*
X3470000Y-6750000D02*
G75*
G02*
X3530000Y-6750000I30000J0D01*
G01*
X3580000Y-3310000D02*
G75*
G02*
X3520000Y-3310000I-30000J0D01*
G01*
X3520000Y-3310000D02*
G75*
G02*
X3580000Y-3310000I30000J0D01*
G01*
X3730000Y-3440000D02*
G75*
G02*
X3670000Y-3440000I-30000J0D01*
G01*
X3670000Y-3440000D02*
G75*
G02*
X3730000Y-3440000I30000J0D01*
G01*
X3780000Y-250000D02*
G75*
G02*
X3720000Y-250000I-30000J0D01*
G01*
X3720000Y-250000D02*
G75*
G02*
X3780000Y-250000I30000J0D01*
G01*
X3780000Y-6250000D02*
G75*
G02*
X3720000Y-6250000I-30000J0D01*
G01*
X3720000Y-6250000D02*
G75*
G02*
X3780000Y-6250000I30000J0D01*
G01*
X3780000Y-6750000D02*
G75*
G02*
X3720000Y-6750000I-30000J0D01*
G01*
X3720000Y-6750000D02*
G75*
G02*
X3780000Y-6750000I30000J0D01*
G01*
X4030000Y-250000D02*
G75*
G02*
X3970000Y-250000I-30000J0D01*
G01*
X3970000Y-250000D02*
G75*
G02*
X4030000Y-250000I30000J0D01*
G01*
X4030000Y-6250000D02*
G75*
G02*
X3970000Y-6250000I-30000J0D01*
G01*
X3970000Y-6250000D02*
G75*
G02*
X4030000Y-6250000I30000J0D01*
G01*
X4030000Y-6750000D02*
G75*
G02*
X3970000Y-6750000I-30000J0D01*
G01*
X3970000Y-6750000D02*
G75*
G02*
X4030000Y-6750000I30000J0D01*
G01*
X4280000Y-250000D02*
G75*
G02*
X4220000Y-250000I-30000J0D01*
G01*
X4220000Y-250000D02*
G75*
G02*
X4280000Y-250000I30000J0D01*
G01*
X4280000Y-3000000D02*
G75*
G02*
X4220000Y-3000000I-30000J0D01*
G01*
X4220000Y-3000000D02*
G75*
G02*
X4280000Y-3000000I30000J0D01*
G01*
X4280000Y-3250000D02*
G75*
G02*
X4220000Y-3250000I-30000J0D01*
G01*
X4220000Y-3250000D02*
G75*
G02*
X4280000Y-3250000I30000J0D01*
G01*
X4280000Y-3750000D02*
G75*
G02*
X4220000Y-3750000I-30000J0D01*
G01*
X4220000Y-3750000D02*
G75*
G02*
X4280000Y-3750000I30000J0D01*
G01*
X4280000Y-4000000D02*
G75*
G02*
X4220000Y-4000000I-30000J0D01*
G01*
X4220000Y-4000000D02*
G75*
G02*
X4280000Y-4000000I30000J0D01*
G01*
X4280000Y-4250000D02*
G75*
G02*
X4220000Y-4250000I-30000J0D01*
G01*
X4220000Y-4250000D02*
G75*
G02*
X4280000Y-4250000I30000J0D01*
G01*
X4280000Y-6250000D02*
G75*
G02*
X4220000Y-6250000I-30000J0D01*
G01*
X4220000Y-6250000D02*
G75*
G02*
X4280000Y-6250000I30000J0D01*
G01*
X4280000Y-6750000D02*
G75*
G02*
X4220000Y-6750000I-30000J0D01*
G01*
X4220000Y-6750000D02*
G75*
G02*
X4280000Y-6750000I30000J0D01*
G01*
X4530000Y-250000D02*
G75*
G02*
X4470000Y-250000I-30000J0D01*
G01*
X4470000Y-250000D02*
G75*
G02*
X4530000Y-250000I30000J0D01*
G01*
X4530000Y-2750000D02*
G75*
G02*
X4470000Y-2750000I-30000J0D01*
G01*
X4470000Y-2750000D02*
G75*
G02*
X4530000Y-2750000I30000J0D01*
G01*
X4530000Y-3000000D02*
G75*
G02*
X4470000Y-3000000I-30000J0D01*
G01*
X4470000Y-3000000D02*
G75*
G02*
X4530000Y-3000000I30000J0D01*
G01*
X4530000Y-3250000D02*
G75*
G02*
X4470000Y-3250000I-30000J0D01*
G01*
X4470000Y-3250000D02*
G75*
G02*
X4530000Y-3250000I30000J0D01*
G01*
X4530000Y-6250000D02*
G75*
G02*
X4470000Y-6250000I-30000J0D01*
G01*
X4470000Y-6250000D02*
G75*
G02*
X4530000Y-6250000I30000J0D01*
G01*
X4530000Y-6750000D02*
G75*
G02*
X4470000Y-6750000I-30000J0D01*
G01*
X4470000Y-6750000D02*
G75*
G02*
X4530000Y-6750000I30000J0D01*
G01*
X4780000Y-250000D02*
G75*
G02*
X4720000Y-250000I-30000J0D01*
G01*
X4720000Y-250000D02*
G75*
G02*
X4780000Y-250000I30000J0D01*
G01*
X4780000Y-2750000D02*
G75*
G02*
X4720000Y-2750000I-30000J0D01*
G01*
X4720000Y-2750000D02*
G75*
G02*
X4780000Y-2750000I30000J0D01*
G01*
X4780000Y-3000000D02*
G75*
G02*
X4720000Y-3000000I-30000J0D01*
G01*
X4720000Y-3000000D02*
G75*
G02*
X4780000Y-3000000I30000J0D01*
G01*
X4780000Y-3250000D02*
G75*
G02*
X4720000Y-3250000I-30000J0D01*
G01*
X4720000Y-3250000D02*
G75*
G02*
X4780000Y-3250000I30000J0D01*
G01*
X4780000Y-3500000D02*
G75*
G02*
X4720000Y-3500000I-30000J0D01*
G01*
X4720000Y-3500000D02*
G75*
G02*
X4780000Y-3500000I30000J0D01*
G01*
X4780000Y-3750000D02*
G75*
G02*
X4720000Y-3750000I-30000J0D01*
G01*
X4720000Y-3750000D02*
G75*
G02*
X4780000Y-3750000I30000J0D01*
G01*
X4780000Y-4000000D02*
G75*
G02*
X4720000Y-4000000I-30000J0D01*
G01*
X4720000Y-4000000D02*
G75*
G02*
X4780000Y-4000000I30000J0D01*
G01*
X4780000Y-4250000D02*
G75*
G02*
X4720000Y-4250000I-30000J0D01*
G01*
X4720000Y-4250000D02*
G75*
G02*
X4780000Y-4250000I30000J0D01*
G01*
X4780000Y-6250000D02*
G75*
G02*
X4720000Y-6250000I-30000J0D01*
G01*
X4720000Y-6250000D02*
G75*
G02*
X4780000Y-6250000I30000J0D01*
G01*
X4780000Y-6750000D02*
G75*
G02*
X4720000Y-6750000I-30000J0D01*
G01*
X4720000Y-6750000D02*
G75*
G02*
X4780000Y-6750000I30000J0D01*
G01*
X5030000Y-250000D02*
G75*
G02*
X4970000Y-250000I-30000J0D01*
G01*
X4970000Y-250000D02*
G75*
G02*
X5030000Y-250000I30000J0D01*
G01*
X5030000Y-6250000D02*
G75*
G02*
X4970000Y-6250000I-30000J0D01*
G01*
X4970000Y-6250000D02*
G75*
G02*
X5030000Y-6250000I30000J0D01*
G01*
X5030000Y-6750000D02*
G75*
G02*
X4970000Y-6750000I-30000J0D01*
G01*
X4970000Y-6750000D02*
G75*
G02*
X5030000Y-6750000I30000J0D01*
G01*
X5280000Y-250000D02*
G75*
G02*
X5220000Y-250000I-30000J0D01*
G01*
X5220000Y-250000D02*
G75*
G02*
X5280000Y-250000I30000J0D01*
G01*
X5280000Y-6250000D02*
G75*
G02*
X5220000Y-6250000I-30000J0D01*
G01*
X5220000Y-6250000D02*
G75*
G02*
X5280000Y-6250000I30000J0D01*
G01*
X5280000Y-6750000D02*
G75*
G02*
X5220000Y-6750000I-30000J0D01*
G01*
X5220000Y-6750000D02*
G75*
G02*
X5280000Y-6750000I30000J0D01*
G01*
X5310000Y-3370000D02*
G75*
G02*
X5250000Y-3370000I-30000J0D01*
G01*
X5250000Y-3370000D02*
G75*
G02*
X5310000Y-3370000I30000J0D01*
G01*
X5430000Y-4200000D02*
G75*
G02*
X5370000Y-4200000I-30000J0D01*
G01*
X5370000Y-4200000D02*
G75*
G02*
X5430000Y-4200000I30000J0D01*
G01*
X5430000Y-4500000D02*
G75*
G02*
X5370000Y-4500000I-30000J0D01*
G01*
X5370000Y-4500000D02*
G75*
G02*
X5430000Y-4500000I30000J0D01*
G01*
X5500000Y-3370000D02*
G75*
G02*
X5440000Y-3370000I-30000J0D01*
G01*
X5440000Y-3370000D02*
G75*
G02*
X5500000Y-3370000I30000J0D01*
G01*
X5530000Y-250000D02*
G75*
G02*
X5470000Y-250000I-30000J0D01*
G01*
X5470000Y-250000D02*
G75*
G02*
X5530000Y-250000I30000J0D01*
G01*
X5530000Y-6250000D02*
G75*
G02*
X5470000Y-6250000I-30000J0D01*
G01*
X5470000Y-6250000D02*
G75*
G02*
X5530000Y-6250000I30000J0D01*
G01*
X5530000Y-6750000D02*
G75*
G02*
X5470000Y-6750000I-30000J0D01*
G01*
X5470000Y-6750000D02*
G75*
G02*
X5530000Y-6750000I30000J0D01*
G01*
X5780000Y-250000D02*
G75*
G02*
X5720000Y-250000I-30000J0D01*
G01*
X5720000Y-250000D02*
G75*
G02*
X5780000Y-250000I30000J0D01*
G01*
X5780000Y-6250000D02*
G75*
G02*
X5720000Y-6250000I-30000J0D01*
G01*
X5720000Y-6250000D02*
G75*
G02*
X5780000Y-6250000I30000J0D01*
G01*
X5780000Y-6750000D02*
G75*
G02*
X5720000Y-6750000I-30000J0D01*
G01*
X5720000Y-6750000D02*
G75*
G02*
X5780000Y-6750000I30000J0D01*
G01*
X5980000Y-3000000D02*
G75*
G02*
X5920000Y-3000000I-30000J0D01*
G01*
X5920000Y-3000000D02*
G75*
G02*
X5980000Y-3000000I30000J0D01*
G01*
X5980000Y-3250000D02*
G75*
G02*
X5920000Y-3250000I-30000J0D01*
G01*
X5920000Y-3250000D02*
G75*
G02*
X5980000Y-3250000I30000J0D01*
G01*
X5980000Y-3750000D02*
G75*
G02*
X5920000Y-3750000I-30000J0D01*
G01*
X5920000Y-3750000D02*
G75*
G02*
X5980000Y-3750000I30000J0D01*
G01*
X5980000Y-4000000D02*
G75*
G02*
X5920000Y-4000000I-30000J0D01*
G01*
X5920000Y-4000000D02*
G75*
G02*
X5980000Y-4000000I30000J0D01*
G01*
X6030000Y-250000D02*
G75*
G02*
X5970000Y-250000I-30000J0D01*
G01*
X5970000Y-250000D02*
G75*
G02*
X6030000Y-250000I30000J0D01*
G01*
X6030000Y-6250000D02*
G75*
G02*
X5970000Y-6250000I-30000J0D01*
G01*
X5970000Y-6250000D02*
G75*
G02*
X6030000Y-6250000I30000J0D01*
G01*
X6030000Y-6750000D02*
G75*
G02*
X5970000Y-6750000I-30000J0D01*
G01*
X5970000Y-6750000D02*
G75*
G02*
X6030000Y-6750000I30000J0D01*
G01*
X6280000Y-250000D02*
G75*
G02*
X6220000Y-250000I-30000J0D01*
G01*
X6220000Y-250000D02*
G75*
G02*
X6280000Y-250000I30000J0D01*
G01*
X6280000Y-2750000D02*
G75*
G02*
X6220000Y-2750000I-30000J0D01*
G01*
X6220000Y-2750000D02*
G75*
G02*
X6280000Y-2750000I30000J0D01*
G01*
X6280000Y-3000000D02*
G75*
G02*
X6220000Y-3000000I-30000J0D01*
G01*
X6220000Y-3000000D02*
G75*
G02*
X6280000Y-3000000I30000J0D01*
G01*
X6280000Y-3250000D02*
G75*
G02*
X6220000Y-3250000I-30000J0D01*
G01*
X6220000Y-3250000D02*
G75*
G02*
X6280000Y-3250000I30000J0D01*
G01*
X6280000Y-6250000D02*
G75*
G02*
X6220000Y-6250000I-30000J0D01*
G01*
X6220000Y-6250000D02*
G75*
G02*
X6280000Y-6250000I30000J0D01*
G01*
X6280000Y-6750000D02*
G75*
G02*
X6220000Y-6750000I-30000J0D01*
G01*
X6220000Y-6750000D02*
G75*
G02*
X6280000Y-6750000I30000J0D01*
G01*
X6530000Y-250000D02*
G75*
G02*
X6470000Y-250000I-30000J0D01*
G01*
X6470000Y-250000D02*
G75*
G02*
X6530000Y-250000I30000J0D01*
G01*
X6530000Y-2750000D02*
G75*
G02*
X6470000Y-2750000I-30000J0D01*
G01*
X6470000Y-2750000D02*
G75*
G02*
X6530000Y-2750000I30000J0D01*
G01*
X6530000Y-3000000D02*
G75*
G02*
X6470000Y-3000000I-30000J0D01*
G01*
X6470000Y-3000000D02*
G75*
G02*
X6530000Y-3000000I30000J0D01*
G01*
X6530000Y-3250000D02*
G75*
G02*
X6470000Y-3250000I-30000J0D01*
G01*
X6470000Y-3250000D02*
G75*
G02*
X6530000Y-3250000I30000J0D01*
G01*
X6530000Y-3500000D02*
G75*
G02*
X6470000Y-3500000I-30000J0D01*
G01*
X6470000Y-3500000D02*
G75*
G02*
X6530000Y-3500000I30000J0D01*
G01*
X6530000Y-3750000D02*
G75*
G02*
X6470000Y-3750000I-30000J0D01*
G01*
X6470000Y-3750000D02*
G75*
G02*
X6530000Y-3750000I30000J0D01*
G01*
X6530000Y-4000000D02*
G75*
G02*
X6470000Y-4000000I-30000J0D01*
G01*
X6470000Y-4000000D02*
G75*
G02*
X6530000Y-4000000I30000J0D01*
G01*
X6530000Y-4250000D02*
G75*
G02*
X6470000Y-4250000I-30000J0D01*
G01*
X6470000Y-4250000D02*
G75*
G02*
X6530000Y-4250000I30000J0D01*
G01*
X6530000Y-6250000D02*
G75*
G02*
X6470000Y-6250000I-30000J0D01*
G01*
X6470000Y-6250000D02*
G75*
G02*
X6530000Y-6250000I30000J0D01*
G01*
X6530000Y-6750000D02*
G75*
G02*
X6470000Y-6750000I-30000J0D01*
G01*
X6470000Y-6750000D02*
G75*
G02*
X6530000Y-6750000I30000J0D01*
G01*
X6780000Y-250000D02*
G75*
G02*
X6720000Y-250000I-30000J0D01*
G01*
X6720000Y-250000D02*
G75*
G02*
X6780000Y-250000I30000J0D01*
G01*
X6780000Y-6250000D02*
G75*
G02*
X6720000Y-6250000I-30000J0D01*
G01*
X6720000Y-6250000D02*
G75*
G02*
X6780000Y-6250000I30000J0D01*
G01*
X6780000Y-6750000D02*
G75*
G02*
X6720000Y-6750000I-30000J0D01*
G01*
X6720000Y-6750000D02*
G75*
G02*
X6780000Y-6750000I30000J0D01*
G01*
X7030000Y-250000D02*
G75*
G02*
X6970000Y-250000I-30000J0D01*
G01*
X6970000Y-250000D02*
G75*
G02*
X7030000Y-250000I30000J0D01*
G01*
X7030000Y-6250000D02*
G75*
G02*
X6970000Y-6250000I-30000J0D01*
G01*
X6970000Y-6250000D02*
G75*
G02*
X7030000Y-6250000I30000J0D01*
G01*
X7030000Y-6750000D02*
G75*
G02*
X6970000Y-6750000I-30000J0D01*
G01*
X6970000Y-6750000D02*
G75*
G02*
X7030000Y-6750000I30000J0D01*
G01*
X7060000Y-3370000D02*
G75*
G02*
X7000000Y-3370000I-30000J0D01*
G01*
X7000000Y-3370000D02*
G75*
G02*
X7060000Y-3370000I30000J0D01*
G01*
X7130000Y-4200000D02*
G75*
G02*
X7070000Y-4200000I-30000J0D01*
G01*
X7070000Y-4200000D02*
G75*
G02*
X7130000Y-4200000I30000J0D01*
G01*
X7130000Y-4500000D02*
G75*
G02*
X7070000Y-4500000I-30000J0D01*
G01*
X7070000Y-4500000D02*
G75*
G02*
X7130000Y-4500000I30000J0D01*
G01*
X7250000Y-3370000D02*
G75*
G02*
X7190000Y-3370000I-30000J0D01*
G01*
X7190000Y-3370000D02*
G75*
G02*
X7250000Y-3370000I30000J0D01*
G01*
X7280000Y-250000D02*
G75*
G02*
X7220000Y-250000I-30000J0D01*
G01*
X7220000Y-250000D02*
G75*
G02*
X7280000Y-250000I30000J0D01*
G01*
X7280000Y-6250000D02*
G75*
G02*
X7220000Y-6250000I-30000J0D01*
G01*
X7220000Y-6250000D02*
G75*
G02*
X7280000Y-6250000I30000J0D01*
G01*
X7280000Y-6750000D02*
G75*
G02*
X7220000Y-6750000I-30000J0D01*
G01*
X7220000Y-6750000D02*
G75*
G02*
X7280000Y-6750000I30000J0D01*
G01*
X7530000Y-250000D02*
G75*
G02*
X7470000Y-250000I-30000J0D01*
G01*
X7470000Y-250000D02*
G75*
G02*
X7530000Y-250000I30000J0D01*
G01*
X7530000Y-6250000D02*
G75*
G02*
X7470000Y-6250000I-30000J0D01*
G01*
X7470000Y-6250000D02*
G75*
G02*
X7530000Y-6250000I30000J0D01*
G01*
X7530000Y-6750000D02*
G75*
G02*
X7470000Y-6750000I-30000J0D01*
G01*
X7470000Y-6750000D02*
G75*
G02*
X7530000Y-6750000I30000J0D01*
G01*
X7705000Y-3000000D02*
G75*
G02*
X7645000Y-3000000I-30000J0D01*
G01*
X7645000Y-3000000D02*
G75*
G02*
X7705000Y-3000000I30000J0D01*
G01*
X7705000Y-3250000D02*
G75*
G02*
X7645000Y-3250000I-30000J0D01*
G01*
X7645000Y-3250000D02*
G75*
G02*
X7705000Y-3250000I30000J0D01*
G01*
X7705000Y-3750000D02*
G75*
G02*
X7645000Y-3750000I-30000J0D01*
G01*
X7645000Y-3750000D02*
G75*
G02*
X7705000Y-3750000I30000J0D01*
G01*
X7780000Y-250000D02*
G75*
G02*
X7720000Y-250000I-30000J0D01*
G01*
X7720000Y-250000D02*
G75*
G02*
X7780000Y-250000I30000J0D01*
G01*
X7780000Y-6250000D02*
G75*
G02*
X7720000Y-6250000I-30000J0D01*
G01*
X7720000Y-6250000D02*
G75*
G02*
X7780000Y-6250000I30000J0D01*
G01*
X7780000Y-6750000D02*
G75*
G02*
X7720000Y-6750000I-30000J0D01*
G01*
X7720000Y-6750000D02*
G75*
G02*
X7780000Y-6750000I30000J0D01*
G01*
X8030000Y-250000D02*
G75*
G02*
X7970000Y-250000I-30000J0D01*
G01*
X7970000Y-250000D02*
G75*
G02*
X8030000Y-250000I30000J0D01*
G01*
X8030000Y-2750000D02*
G75*
G02*
X7970000Y-2750000I-30000J0D01*
G01*
X7970000Y-2750000D02*
G75*
G02*
X8030000Y-2750000I30000J0D01*
G01*
X8030000Y-3000000D02*
G75*
G02*
X7970000Y-3000000I-30000J0D01*
G01*
X7970000Y-3000000D02*
G75*
G02*
X8030000Y-3000000I30000J0D01*
G01*
X8030000Y-3250000D02*
G75*
G02*
X7970000Y-3250000I-30000J0D01*
G01*
X7970000Y-3250000D02*
G75*
G02*
X8030000Y-3250000I30000J0D01*
G01*
X8030000Y-6250000D02*
G75*
G02*
X7970000Y-6250000I-30000J0D01*
G01*
X7970000Y-6250000D02*
G75*
G02*
X8030000Y-6250000I30000J0D01*
G01*
X8030000Y-6750000D02*
G75*
G02*
X7970000Y-6750000I-30000J0D01*
G01*
X7970000Y-6750000D02*
G75*
G02*
X8030000Y-6750000I30000J0D01*
G01*
X8280000Y-250000D02*
G75*
G02*
X8220000Y-250000I-30000J0D01*
G01*
X8220000Y-250000D02*
G75*
G02*
X8280000Y-250000I30000J0D01*
G01*
X8280000Y-2750000D02*
G75*
G02*
X8220000Y-2750000I-30000J0D01*
G01*
X8220000Y-2750000D02*
G75*
G02*
X8280000Y-2750000I30000J0D01*
G01*
X8280000Y-3000000D02*
G75*
G02*
X8220000Y-3000000I-30000J0D01*
G01*
X8220000Y-3000000D02*
G75*
G02*
X8280000Y-3000000I30000J0D01*
G01*
X8280000Y-3250000D02*
G75*
G02*
X8220000Y-3250000I-30000J0D01*
G01*
X8220000Y-3250000D02*
G75*
G02*
X8280000Y-3250000I30000J0D01*
G01*
X8280000Y-3500000D02*
G75*
G02*
X8220000Y-3500000I-30000J0D01*
G01*
X8220000Y-3500000D02*
G75*
G02*
X8280000Y-3500000I30000J0D01*
G01*
X8280000Y-3750000D02*
G75*
G02*
X8220000Y-3750000I-30000J0D01*
G01*
X8220000Y-3750000D02*
G75*
G02*
X8280000Y-3750000I30000J0D01*
G01*
X8280000Y-4000000D02*
G75*
G02*
X8220000Y-4000000I-30000J0D01*
G01*
X8220000Y-4000000D02*
G75*
G02*
X8280000Y-4000000I30000J0D01*
G01*
X8280000Y-4250000D02*
G75*
G02*
X8220000Y-4250000I-30000J0D01*
G01*
X8220000Y-4250000D02*
G75*
G02*
X8280000Y-4250000I30000J0D01*
G01*
X8280000Y-6250000D02*
G75*
G02*
X8220000Y-6250000I-30000J0D01*
G01*
X8220000Y-6250000D02*
G75*
G02*
X8280000Y-6250000I30000J0D01*
G01*
X8280000Y-6750000D02*
G75*
G02*
X8220000Y-6750000I-30000J0D01*
G01*
X8220000Y-6750000D02*
G75*
G02*
X8280000Y-6750000I30000J0D01*
G01*
X8530000Y-250000D02*
G75*
G02*
X8470000Y-250000I-30000J0D01*
G01*
X8470000Y-250000D02*
G75*
G02*
X8530000Y-250000I30000J0D01*
G01*
X8530000Y-6250000D02*
G75*
G02*
X8470000Y-6250000I-30000J0D01*
G01*
X8470000Y-6250000D02*
G75*
G02*
X8530000Y-6250000I30000J0D01*
G01*
X8530000Y-6750000D02*
G75*
G02*
X8470000Y-6750000I-30000J0D01*
G01*
X8470000Y-6750000D02*
G75*
G02*
X8530000Y-6750000I30000J0D01*
G01*
X8780000Y-250000D02*
G75*
G02*
X8720000Y-250000I-30000J0D01*
G01*
X8720000Y-250000D02*
G75*
G02*
X8780000Y-250000I30000J0D01*
G01*
X8780000Y-6250000D02*
G75*
G02*
X8720000Y-6250000I-30000J0D01*
G01*
X8720000Y-6250000D02*
G75*
G02*
X8780000Y-6250000I30000J0D01*
G01*
X8780000Y-6750000D02*
G75*
G02*
X8720000Y-6750000I-30000J0D01*
G01*
X8720000Y-6750000D02*
G75*
G02*
X8780000Y-6750000I30000J0D01*
G01*
X8810000Y-3370000D02*
G75*
G02*
X8750000Y-3370000I-30000J0D01*
G01*
X8750000Y-3370000D02*
G75*
G02*
X8810000Y-3370000I30000J0D01*
G01*
X8930000Y-4200000D02*
G75*
G02*
X8870000Y-4200000I-30000J0D01*
G01*
X8870000Y-4200000D02*
G75*
G02*
X8930000Y-4200000I30000J0D01*
G01*
X9000000Y-3370000D02*
G75*
G02*
X8940000Y-3370000I-30000J0D01*
G01*
X8940000Y-3370000D02*
G75*
G02*
X9000000Y-3370000I30000J0D01*
G01*
X9030000Y-250000D02*
G75*
G02*
X8970000Y-250000I-30000J0D01*
G01*
X8970000Y-250000D02*
G75*
G02*
X9030000Y-250000I30000J0D01*
G01*
X9030000Y-6250000D02*
G75*
G02*
X8970000Y-6250000I-30000J0D01*
G01*
X8970000Y-6250000D02*
G75*
G02*
X9030000Y-6250000I30000J0D01*
G01*
X9030000Y-6750000D02*
G75*
G02*
X8970000Y-6750000I-30000J0D01*
G01*
X8970000Y-6750000D02*
G75*
G02*
X9030000Y-6750000I30000J0D01*
G01*
X9280000Y-250000D02*
G75*
G02*
X9220000Y-250000I-30000J0D01*
G01*
X9220000Y-250000D02*
G75*
G02*
X9280000Y-250000I30000J0D01*
G01*
X9280000Y-6250000D02*
G75*
G02*
X9220000Y-6250000I-30000J0D01*
G01*
X9220000Y-6250000D02*
G75*
G02*
X9280000Y-6250000I30000J0D01*
G01*
X9280000Y-6750000D02*
G75*
G02*
X9220000Y-6750000I-30000J0D01*
G01*
X9220000Y-6750000D02*
G75*
G02*
X9280000Y-6750000I30000J0D01*
G01*
X9455000Y-3000000D02*
G75*
G02*
X9395000Y-3000000I-30000J0D01*
G01*
X9395000Y-3000000D02*
G75*
G02*
X9455000Y-3000000I30000J0D01*
G01*
X9455000Y-3250000D02*
G75*
G02*
X9395000Y-3250000I-30000J0D01*
G01*
X9395000Y-3250000D02*
G75*
G02*
X9455000Y-3250000I30000J0D01*
G01*
X9455000Y-3750000D02*
G75*
G02*
X9395000Y-3750000I-30000J0D01*
G01*
X9395000Y-3750000D02*
G75*
G02*
X9455000Y-3750000I30000J0D01*
G01*
X9455000Y-3975000D02*
G75*
G02*
X9395000Y-3975000I-30000J0D01*
G01*
X9395000Y-3975000D02*
G75*
G02*
X9455000Y-3975000I30000J0D01*
G01*
X9530000Y-250000D02*
G75*
G02*
X9470000Y-250000I-30000J0D01*
G01*
X9470000Y-250000D02*
G75*
G02*
X9530000Y-250000I30000J0D01*
G01*
X9530000Y-6250000D02*
G75*
G02*
X9470000Y-6250000I-30000J0D01*
G01*
X9470000Y-6250000D02*
G75*
G02*
X9530000Y-6250000I30000J0D01*
G01*
X9530000Y-6750000D02*
G75*
G02*
X9470000Y-6750000I-30000J0D01*
G01*
X9470000Y-6750000D02*
G75*
G02*
X9530000Y-6750000I30000J0D01*
G01*
X9780000Y-250000D02*
G75*
G02*
X9720000Y-250000I-30000J0D01*
G01*
X9720000Y-250000D02*
G75*
G02*
X9780000Y-250000I30000J0D01*
G01*
X9780000Y-2750000D02*
G75*
G02*
X9720000Y-2750000I-30000J0D01*
G01*
X9720000Y-2750000D02*
G75*
G02*
X9780000Y-2750000I30000J0D01*
G01*
X9780000Y-3000000D02*
G75*
G02*
X9720000Y-3000000I-30000J0D01*
G01*
X9720000Y-3000000D02*
G75*
G02*
X9780000Y-3000000I30000J0D01*
G01*
X9780000Y-3250000D02*
G75*
G02*
X9720000Y-3250000I-30000J0D01*
G01*
X9720000Y-3250000D02*
G75*
G02*
X9780000Y-3250000I30000J0D01*
G01*
X9780000Y-6250000D02*
G75*
G02*
X9720000Y-6250000I-30000J0D01*
G01*
X9720000Y-6250000D02*
G75*
G02*
X9780000Y-6250000I30000J0D01*
G01*
X9780000Y-6750000D02*
G75*
G02*
X9720000Y-6750000I-30000J0D01*
G01*
X9720000Y-6750000D02*
G75*
G02*
X9780000Y-6750000I30000J0D01*
G01*
X10030000Y-250000D02*
G75*
G02*
X9970000Y-250000I-30000J0D01*
G01*
X9970000Y-250000D02*
G75*
G02*
X10030000Y-250000I30000J0D01*
G01*
X10030000Y-2750000D02*
G75*
G02*
X9970000Y-2750000I-30000J0D01*
G01*
X9970000Y-2750000D02*
G75*
G02*
X10030000Y-2750000I30000J0D01*
G01*
X10030000Y-3000000D02*
G75*
G02*
X9970000Y-3000000I-30000J0D01*
G01*
X9970000Y-3000000D02*
G75*
G02*
X10030000Y-3000000I30000J0D01*
G01*
X10030000Y-3250000D02*
G75*
G02*
X9970000Y-3250000I-30000J0D01*
G01*
X9970000Y-3250000D02*
G75*
G02*
X10030000Y-3250000I30000J0D01*
G01*
X10030000Y-3500000D02*
G75*
G02*
X9970000Y-3500000I-30000J0D01*
G01*
X9970000Y-3500000D02*
G75*
G02*
X10030000Y-3500000I30000J0D01*
G01*
X10030000Y-3750000D02*
G75*
G02*
X9970000Y-3750000I-30000J0D01*
G01*
X9970000Y-3750000D02*
G75*
G02*
X10030000Y-3750000I30000J0D01*
G01*
X10030000Y-4000000D02*
G75*
G02*
X9970000Y-4000000I-30000J0D01*
G01*
X9970000Y-4000000D02*
G75*
G02*
X10030000Y-4000000I30000J0D01*
G01*
X10030000Y-4250000D02*
G75*
G02*
X9970000Y-4250000I-30000J0D01*
G01*
X9970000Y-4250000D02*
G75*
G02*
X10030000Y-4250000I30000J0D01*
G01*
X10030000Y-6750000D02*
G75*
G02*
X9970000Y-6750000I-30000J0D01*
G01*
X9970000Y-6750000D02*
G75*
G02*
X10030000Y-6750000I30000J0D01*
G01*
X10280000Y-250000D02*
G75*
G02*
X10220000Y-250000I-30000J0D01*
G01*
X10220000Y-250000D02*
G75*
G02*
X10280000Y-250000I30000J0D01*
G01*
X10280000Y-6750000D02*
G75*
G02*
X10220000Y-6750000I-30000J0D01*
G01*
X10220000Y-6750000D02*
G75*
G02*
X10280000Y-6750000I30000J0D01*
G01*
X10530000Y-250000D02*
G75*
G02*
X10470000Y-250000I-30000J0D01*
G01*
X10470000Y-250000D02*
G75*
G02*
X10530000Y-250000I30000J0D01*
G01*
X10530000Y-6750000D02*
G75*
G02*
X10470000Y-6750000I-30000J0D01*
G01*
X10470000Y-6750000D02*
G75*
G02*
X10530000Y-6750000I30000J0D01*
G01*
X10560000Y-3380000D02*
G75*
G02*
X10500000Y-3380000I-30000J0D01*
G01*
X10500000Y-3380000D02*
G75*
G02*
X10560000Y-3380000I30000J0D01*
G01*
X10630000Y-4200000D02*
G75*
G02*
X10570000Y-4200000I-30000J0D01*
G01*
X10570000Y-4200000D02*
G75*
G02*
X10630000Y-4200000I30000J0D01*
G01*
X10630000Y-4500000D02*
G75*
G02*
X10570000Y-4500000I-30000J0D01*
G01*
X10570000Y-4500000D02*
G75*
G02*
X10630000Y-4500000I30000J0D01*
G01*
X10750000Y-3380000D02*
G75*
G02*
X10690000Y-3380000I-30000J0D01*
G01*
X10690000Y-3380000D02*
G75*
G02*
X10750000Y-3380000I30000J0D01*
G01*
X10780000Y-250000D02*
G75*
G02*
X10720000Y-250000I-30000J0D01*
G01*
X10720000Y-250000D02*
G75*
G02*
X10780000Y-250000I30000J0D01*
G01*
X10780000Y-6750000D02*
G75*
G02*
X10720000Y-6750000I-30000J0D01*
G01*
X10720000Y-6750000D02*
G75*
G02*
X10780000Y-6750000I30000J0D01*
G01*
X11030000Y-250000D02*
G75*
G02*
X10970000Y-250000I-30000J0D01*
G01*
X10970000Y-250000D02*
G75*
G02*
X11030000Y-250000I30000J0D01*
G01*
X11030000Y-6750000D02*
G75*
G02*
X10970000Y-6750000I-30000J0D01*
G01*
X10970000Y-6750000D02*
G75*
G02*
X11030000Y-6750000I30000J0D01*
G01*
X11205000Y-3000000D02*
G75*
G02*
X11145000Y-3000000I-30000J0D01*
G01*
X11145000Y-3000000D02*
G75*
G02*
X11205000Y-3000000I30000J0D01*
G01*
X11205000Y-3250000D02*
G75*
G02*
X11145000Y-3250000I-30000J0D01*
G01*
X11145000Y-3250000D02*
G75*
G02*
X11205000Y-3250000I30000J0D01*
G01*
X11280000Y-250000D02*
G75*
G02*
X11220000Y-250000I-30000J0D01*
G01*
X11220000Y-250000D02*
G75*
G02*
X11280000Y-250000I30000J0D01*
G01*
X11280000Y-6750000D02*
G75*
G02*
X11220000Y-6750000I-30000J0D01*
G01*
X11220000Y-6750000D02*
G75*
G02*
X11280000Y-6750000I30000J0D01*
G01*
X11530000Y-250000D02*
G75*
G02*
X11470000Y-250000I-30000J0D01*
G01*
X11470000Y-250000D02*
G75*
G02*
X11530000Y-250000I30000J0D01*
G01*
X11530000Y-2750000D02*
G75*
G02*
X11470000Y-2750000I-30000J0D01*
G01*
X11470000Y-2750000D02*
G75*
G02*
X11530000Y-2750000I30000J0D01*
G01*
X11530000Y-3000000D02*
G75*
G02*
X11470000Y-3000000I-30000J0D01*
G01*
X11470000Y-3000000D02*
G75*
G02*
X11530000Y-3000000I30000J0D01*
G01*
X11530000Y-3250000D02*
G75*
G02*
X11470000Y-3250000I-30000J0D01*
G01*
X11470000Y-3250000D02*
G75*
G02*
X11530000Y-3250000I30000J0D01*
G01*
X11530000Y-6750000D02*
G75*
G02*
X11470000Y-6750000I-30000J0D01*
G01*
X11470000Y-6750000D02*
G75*
G02*
X11530000Y-6750000I30000J0D01*
G01*
X11780000Y-250000D02*
G75*
G02*
X11720000Y-250000I-30000J0D01*
G01*
X11720000Y-250000D02*
G75*
G02*
X11780000Y-250000I30000J0D01*
G01*
X11780000Y-2750000D02*
G75*
G02*
X11720000Y-2750000I-30000J0D01*
G01*
X11720000Y-2750000D02*
G75*
G02*
X11780000Y-2750000I30000J0D01*
G01*
X11780000Y-3000000D02*
G75*
G02*
X11720000Y-3000000I-30000J0D01*
G01*
X11720000Y-3000000D02*
G75*
G02*
X11780000Y-3000000I30000J0D01*
G01*
X11780000Y-3250000D02*
G75*
G02*
X11720000Y-3250000I-30000J0D01*
G01*
X11720000Y-3250000D02*
G75*
G02*
X11780000Y-3250000I30000J0D01*
G01*
X11780000Y-3500000D02*
G75*
G02*
X11720000Y-3500000I-30000J0D01*
G01*
X11720000Y-3500000D02*
G75*
G02*
X11780000Y-3500000I30000J0D01*
G01*
X11780000Y-3750000D02*
G75*
G02*
X11720000Y-3750000I-30000J0D01*
G01*
X11720000Y-3750000D02*
G75*
G02*
X11780000Y-3750000I30000J0D01*
G01*
X11780000Y-4000000D02*
G75*
G02*
X11720000Y-4000000I-30000J0D01*
G01*
X11720000Y-4000000D02*
G75*
G02*
X11780000Y-4000000I30000J0D01*
G01*
X11780000Y-4250000D02*
G75*
G02*
X11720000Y-4250000I-30000J0D01*
G01*
X11720000Y-4250000D02*
G75*
G02*
X11780000Y-4250000I30000J0D01*
G01*
X11780000Y-6250000D02*
G75*
G02*
X11720000Y-6250000I-30000J0D01*
G01*
X11720000Y-6250000D02*
G75*
G02*
X11780000Y-6250000I30000J0D01*
G01*
X11780000Y-6750000D02*
G75*
G02*
X11720000Y-6750000I-30000J0D01*
G01*
X11720000Y-6750000D02*
G75*
G02*
X11780000Y-6750000I30000J0D01*
G01*
X12030000Y-250000D02*
G75*
G02*
X11970000Y-250000I-30000J0D01*
G01*
X11970000Y-250000D02*
G75*
G02*
X12030000Y-250000I30000J0D01*
G01*
X12030000Y-6250000D02*
G75*
G02*
X11970000Y-6250000I-30000J0D01*
G01*
X11970000Y-6250000D02*
G75*
G02*
X12030000Y-6250000I30000J0D01*
G01*
X12030000Y-6750000D02*
G75*
G02*
X11970000Y-6750000I-30000J0D01*
G01*
X11970000Y-6750000D02*
G75*
G02*
X12030000Y-6750000I30000J0D01*
G01*
X12280000Y-250000D02*
G75*
G02*
X12220000Y-250000I-30000J0D01*
G01*
X12220000Y-250000D02*
G75*
G02*
X12280000Y-250000I30000J0D01*
G01*
X12280000Y-6250000D02*
G75*
G02*
X12220000Y-6250000I-30000J0D01*
G01*
X12220000Y-6250000D02*
G75*
G02*
X12280000Y-6250000I30000J0D01*
G01*
X12280000Y-6750000D02*
G75*
G02*
X12220000Y-6750000I-30000J0D01*
G01*
X12220000Y-6750000D02*
G75*
G02*
X12280000Y-6750000I30000J0D01*
G01*
X12310000Y-3370000D02*
G75*
G02*
X12250000Y-3370000I-30000J0D01*
G01*
X12250000Y-3370000D02*
G75*
G02*
X12310000Y-3370000I30000J0D01*
G01*
X12430000Y-4200000D02*
G75*
G02*
X12370000Y-4200000I-30000J0D01*
G01*
X12370000Y-4200000D02*
G75*
G02*
X12430000Y-4200000I30000J0D01*
G01*
X12500000Y-3380000D02*
G75*
G02*
X12440000Y-3380000I-30000J0D01*
G01*
X12440000Y-3380000D02*
G75*
G02*
X12500000Y-3380000I30000J0D01*
G01*
X12530000Y-250000D02*
G75*
G02*
X12470000Y-250000I-30000J0D01*
G01*
X12470000Y-250000D02*
G75*
G02*
X12530000Y-250000I30000J0D01*
G01*
X12530000Y-6250000D02*
G75*
G02*
X12470000Y-6250000I-30000J0D01*
G01*
X12470000Y-6250000D02*
G75*
G02*
X12530000Y-6250000I30000J0D01*
G01*
X12530000Y-6750000D02*
G75*
G02*
X12470000Y-6750000I-30000J0D01*
G01*
X12470000Y-6750000D02*
G75*
G02*
X12530000Y-6750000I30000J0D01*
G01*
X12780000Y-250000D02*
G75*
G02*
X12720000Y-250000I-30000J0D01*
G01*
X12720000Y-250000D02*
G75*
G02*
X12780000Y-250000I30000J0D01*
G01*
X12780000Y-6250000D02*
G75*
G02*
X12720000Y-6250000I-30000J0D01*
G01*
X12720000Y-6250000D02*
G75*
G02*
X12780000Y-6250000I30000J0D01*
G01*
X12780000Y-6750000D02*
G75*
G02*
X12720000Y-6750000I-30000J0D01*
G01*
X12720000Y-6750000D02*
G75*
G02*
X12780000Y-6750000I30000J0D01*
G01*
X12955000Y-3000000D02*
G75*
G02*
X12895000Y-3000000I-30000J0D01*
G01*
X12895000Y-3000000D02*
G75*
G02*
X12955000Y-3000000I30000J0D01*
G01*
X12955000Y-3250000D02*
G75*
G02*
X12895000Y-3250000I-30000J0D01*
G01*
X12895000Y-3250000D02*
G75*
G02*
X12955000Y-3250000I30000J0D01*
G01*
X13030000Y-250000D02*
G75*
G02*
X12970000Y-250000I-30000J0D01*
G01*
X12970000Y-250000D02*
G75*
G02*
X13030000Y-250000I30000J0D01*
G01*
X13030000Y-6250000D02*
G75*
G02*
X12970000Y-6250000I-30000J0D01*
G01*
X12970000Y-6250000D02*
G75*
G02*
X13030000Y-6250000I30000J0D01*
G01*
X13030000Y-6750000D02*
G75*
G02*
X12970000Y-6750000I-30000J0D01*
G01*
X12970000Y-6750000D02*
G75*
G02*
X13030000Y-6750000I30000J0D01*
G01*
X13280000Y-250000D02*
G75*
G02*
X13220000Y-250000I-30000J0D01*
G01*
X13220000Y-250000D02*
G75*
G02*
X13280000Y-250000I30000J0D01*
G01*
X13280000Y-2750000D02*
G75*
G02*
X13220000Y-2750000I-30000J0D01*
G01*
X13220000Y-2750000D02*
G75*
G02*
X13280000Y-2750000I30000J0D01*
G01*
X13280000Y-3000000D02*
G75*
G02*
X13220000Y-3000000I-30000J0D01*
G01*
X13220000Y-3000000D02*
G75*
G02*
X13280000Y-3000000I30000J0D01*
G01*
X13280000Y-3250000D02*
G75*
G02*
X13220000Y-3250000I-30000J0D01*
G01*
X13220000Y-3250000D02*
G75*
G02*
X13280000Y-3250000I30000J0D01*
G01*
X13280000Y-6250000D02*
G75*
G02*
X13220000Y-6250000I-30000J0D01*
G01*
X13220000Y-6250000D02*
G75*
G02*
X13280000Y-6250000I30000J0D01*
G01*
X13280000Y-6750000D02*
G75*
G02*
X13220000Y-6750000I-30000J0D01*
G01*
X13220000Y-6750000D02*
G75*
G02*
X13280000Y-6750000I30000J0D01*
G01*
X13530000Y-250000D02*
G75*
G02*
X13470000Y-250000I-30000J0D01*
G01*
X13470000Y-250000D02*
G75*
G02*
X13530000Y-250000I30000J0D01*
G01*
X13530000Y-2750000D02*
G75*
G02*
X13470000Y-2750000I-30000J0D01*
G01*
X13470000Y-2750000D02*
G75*
G02*
X13530000Y-2750000I30000J0D01*
G01*
X13530000Y-3000000D02*
G75*
G02*
X13470000Y-3000000I-30000J0D01*
G01*
X13470000Y-3000000D02*
G75*
G02*
X13530000Y-3000000I30000J0D01*
G01*
X13530000Y-3250000D02*
G75*
G02*
X13470000Y-3250000I-30000J0D01*
G01*
X13470000Y-3250000D02*
G75*
G02*
X13530000Y-3250000I30000J0D01*
G01*
X13530000Y-6250000D02*
G75*
G02*
X13470000Y-6250000I-30000J0D01*
G01*
X13470000Y-6250000D02*
G75*
G02*
X13530000Y-6250000I30000J0D01*
G01*
X13530000Y-6750000D02*
G75*
G02*
X13470000Y-6750000I-30000J0D01*
G01*
X13470000Y-6750000D02*
G75*
G02*
X13530000Y-6750000I30000J0D01*
G01*
X13780000Y-250000D02*
G75*
G02*
X13720000Y-250000I-30000J0D01*
G01*
X13720000Y-250000D02*
G75*
G02*
X13780000Y-250000I30000J0D01*
G01*
X13780000Y-6250000D02*
G75*
G02*
X13720000Y-6250000I-30000J0D01*
G01*
X13720000Y-6250000D02*
G75*
G02*
X13780000Y-6250000I30000J0D01*
G01*
X13780000Y-6750000D02*
G75*
G02*
X13720000Y-6750000I-30000J0D01*
G01*
X13720000Y-6750000D02*
G75*
G02*
X13780000Y-6750000I30000J0D01*
G01*
X14030000Y-250000D02*
G75*
G02*
X13970000Y-250000I-30000J0D01*
G01*
X13970000Y-250000D02*
G75*
G02*
X14030000Y-250000I30000J0D01*
G01*
X14030000Y-6250000D02*
G75*
G02*
X13970000Y-6250000I-30000J0D01*
G01*
X13970000Y-6250000D02*
G75*
G02*
X14030000Y-6250000I30000J0D01*
G01*
X14030000Y-6750000D02*
G75*
G02*
X13970000Y-6750000I-30000J0D01*
G01*
X13970000Y-6750000D02*
G75*
G02*
X14030000Y-6750000I30000J0D01*
G01*
X14060000Y-3380000D02*
G75*
G02*
X14000000Y-3380000I-30000J0D01*
G01*
X14000000Y-3380000D02*
G75*
G02*
X14060000Y-3380000I30000J0D01*
G01*
X14130000Y-4200000D02*
G75*
G02*
X14070000Y-4200000I-30000J0D01*
G01*
X14070000Y-4200000D02*
G75*
G02*
X14130000Y-4200000I30000J0D01*
G01*
X14130000Y-4500000D02*
G75*
G02*
X14070000Y-4500000I-30000J0D01*
G01*
X14070000Y-4500000D02*
G75*
G02*
X14130000Y-4500000I30000J0D01*
G01*
X14240000Y-3380000D02*
G75*
G02*
X14180000Y-3380000I-30000J0D01*
G01*
X14180000Y-3380000D02*
G75*
G02*
X14240000Y-3380000I30000J0D01*
G01*
X14280000Y-250000D02*
G75*
G02*
X14220000Y-250000I-30000J0D01*
G01*
X14220000Y-250000D02*
G75*
G02*
X14280000Y-250000I30000J0D01*
G01*
X14280000Y-6250000D02*
G75*
G02*
X14220000Y-6250000I-30000J0D01*
G01*
X14220000Y-6250000D02*
G75*
G02*
X14280000Y-6250000I30000J0D01*
G01*
X14280000Y-6750000D02*
G75*
G02*
X14220000Y-6750000I-30000J0D01*
G01*
X14220000Y-6750000D02*
G75*
G02*
X14280000Y-6750000I30000J0D01*
G01*
X14530000Y-250000D02*
G75*
G02*
X14470000Y-250000I-30000J0D01*
G01*
X14470000Y-250000D02*
G75*
G02*
X14530000Y-250000I30000J0D01*
G01*
X14530000Y-6250000D02*
G75*
G02*
X14470000Y-6250000I-30000J0D01*
G01*
X14470000Y-6250000D02*
G75*
G02*
X14530000Y-6250000I30000J0D01*
G01*
X14530000Y-6750000D02*
G75*
G02*
X14470000Y-6750000I-30000J0D01*
G01*
X14470000Y-6750000D02*
G75*
G02*
X14530000Y-6750000I30000J0D01*
G01*
X14705000Y-3000000D02*
G75*
G02*
X14645000Y-3000000I-30000J0D01*
G01*
X14645000Y-3000000D02*
G75*
G02*
X14705000Y-3000000I30000J0D01*
G01*
X14705000Y-3250000D02*
G75*
G02*
X14645000Y-3250000I-30000J0D01*
G01*
X14645000Y-3250000D02*
G75*
G02*
X14705000Y-3250000I30000J0D01*
G01*
X14780000Y-250000D02*
G75*
G02*
X14720000Y-250000I-30000J0D01*
G01*
X14720000Y-250000D02*
G75*
G02*
X14780000Y-250000I30000J0D01*
G01*
X14780000Y-6250000D02*
G75*
G02*
X14720000Y-6250000I-30000J0D01*
G01*
X14720000Y-6250000D02*
G75*
G02*
X14780000Y-6250000I30000J0D01*
G01*
X14780000Y-6750000D02*
G75*
G02*
X14720000Y-6750000I-30000J0D01*
G01*
X14720000Y-6750000D02*
G75*
G02*
X14780000Y-6750000I30000J0D01*
G01*
X15030000Y-250000D02*
G75*
G02*
X14970000Y-250000I-30000J0D01*
G01*
X14970000Y-250000D02*
G75*
G02*
X15030000Y-250000I30000J0D01*
G01*
X15030000Y-2750000D02*
G75*
G02*
X14970000Y-2750000I-30000J0D01*
G01*
X14970000Y-2750000D02*
G75*
G02*
X15030000Y-2750000I30000J0D01*
G01*
X15030000Y-3000000D02*
G75*
G02*
X14970000Y-3000000I-30000J0D01*
G01*
X14970000Y-3000000D02*
G75*
G02*
X15030000Y-3000000I30000J0D01*
G01*
X15030000Y-3250000D02*
G75*
G02*
X14970000Y-3250000I-30000J0D01*
G01*
X14970000Y-3250000D02*
G75*
G02*
X15030000Y-3250000I30000J0D01*
G01*
X15030000Y-6250000D02*
G75*
G02*
X14970000Y-6250000I-30000J0D01*
G01*
X14970000Y-6250000D02*
G75*
G02*
X15030000Y-6250000I30000J0D01*
G01*
X15030000Y-6750000D02*
G75*
G02*
X14970000Y-6750000I-30000J0D01*
G01*
X14970000Y-6750000D02*
G75*
G02*
X15030000Y-6750000I30000J0D01*
G01*
X15280000Y-250000D02*
G75*
G02*
X15220000Y-250000I-30000J0D01*
G01*
X15220000Y-250000D02*
G75*
G02*
X15280000Y-250000I30000J0D01*
G01*
X15280000Y-2750000D02*
G75*
G02*
X15220000Y-2750000I-30000J0D01*
G01*
X15220000Y-2750000D02*
G75*
G02*
X15280000Y-2750000I30000J0D01*
G01*
X15280000Y-3000000D02*
G75*
G02*
X15220000Y-3000000I-30000J0D01*
G01*
X15220000Y-3000000D02*
G75*
G02*
X15280000Y-3000000I30000J0D01*
G01*
X15280000Y-3250000D02*
G75*
G02*
X15220000Y-3250000I-30000J0D01*
G01*
X15220000Y-3250000D02*
G75*
G02*
X15280000Y-3250000I30000J0D01*
G01*
X15280000Y-3500000D02*
G75*
G02*
X15220000Y-3500000I-30000J0D01*
G01*
X15220000Y-3500000D02*
G75*
G02*
X15280000Y-3500000I30000J0D01*
G01*
X15280000Y-3750000D02*
G75*
G02*
X15220000Y-3750000I-30000J0D01*
G01*
X15220000Y-3750000D02*
G75*
G02*
X15280000Y-3750000I30000J0D01*
G01*
X15280000Y-4000000D02*
G75*
G02*
X15220000Y-4000000I-30000J0D01*
G01*
X15220000Y-4000000D02*
G75*
G02*
X15280000Y-4000000I30000J0D01*
G01*
X15280000Y-4250000D02*
G75*
G02*
X15220000Y-4250000I-30000J0D01*
G01*
X15220000Y-4250000D02*
G75*
G02*
X15280000Y-4250000I30000J0D01*
G01*
X15280000Y-6250000D02*
G75*
G02*
X15220000Y-6250000I-30000J0D01*
G01*
X15220000Y-6250000D02*
G75*
G02*
X15280000Y-6250000I30000J0D01*
G01*
X15280000Y-6750000D02*
G75*
G02*
X15220000Y-6750000I-30000J0D01*
G01*
X15220000Y-6750000D02*
G75*
G02*
X15280000Y-6750000I30000J0D01*
G01*
X15530000Y-250000D02*
G75*
G02*
X15470000Y-250000I-30000J0D01*
G01*
X15470000Y-250000D02*
G75*
G02*
X15530000Y-250000I30000J0D01*
G01*
X15530000Y-6250000D02*
G75*
G02*
X15470000Y-6250000I-30000J0D01*
G01*
X15470000Y-6250000D02*
G75*
G02*
X15530000Y-6250000I30000J0D01*
G01*
X15530000Y-6750000D02*
G75*
G02*
X15470000Y-6750000I-30000J0D01*
G01*
X15470000Y-6750000D02*
G75*
G02*
X15530000Y-6750000I30000J0D01*
G01*
X15780000Y-250000D02*
G75*
G02*
X15720000Y-250000I-30000J0D01*
G01*
X15720000Y-250000D02*
G75*
G02*
X15780000Y-250000I30000J0D01*
G01*
X15780000Y-6250000D02*
G75*
G02*
X15720000Y-6250000I-30000J0D01*
G01*
X15720000Y-6250000D02*
G75*
G02*
X15780000Y-6250000I30000J0D01*
G01*
X15780000Y-6750000D02*
G75*
G02*
X15720000Y-6750000I-30000J0D01*
G01*
X15720000Y-6750000D02*
G75*
G02*
X15780000Y-6750000I30000J0D01*
G01*
X15810000Y-3370000D02*
G75*
G02*
X15750000Y-3370000I-30000J0D01*
G01*
X15750000Y-3370000D02*
G75*
G02*
X15810000Y-3370000I30000J0D01*
G01*
X15930000Y-4200000D02*
G75*
G02*
X15870000Y-4200000I-30000J0D01*
G01*
X15870000Y-4200000D02*
G75*
G02*
X15930000Y-4200000I30000J0D01*
G01*
X15930000Y-4500000D02*
G75*
G02*
X15870000Y-4500000I-30000J0D01*
G01*
X15870000Y-4500000D02*
G75*
G02*
X15930000Y-4500000I30000J0D01*
G01*
X16000000Y-3370000D02*
G75*
G02*
X15940000Y-3370000I-30000J0D01*
G01*
X15940000Y-3370000D02*
G75*
G02*
X16000000Y-3370000I30000J0D01*
G01*
X16030000Y-250000D02*
G75*
G02*
X15970000Y-250000I-30000J0D01*
G01*
X15970000Y-250000D02*
G75*
G02*
X16030000Y-250000I30000J0D01*
G01*
X16030000Y-6250000D02*
G75*
G02*
X15970000Y-6250000I-30000J0D01*
G01*
X15970000Y-6250000D02*
G75*
G02*
X16030000Y-6250000I30000J0D01*
G01*
X16030000Y-6750000D02*
G75*
G02*
X15970000Y-6750000I-30000J0D01*
G01*
X15970000Y-6750000D02*
G75*
G02*
X16030000Y-6750000I30000J0D01*
G01*
X16280000Y-250000D02*
G75*
G02*
X16220000Y-250000I-30000J0D01*
G01*
X16220000Y-250000D02*
G75*
G02*
X16280000Y-250000I30000J0D01*
G01*
X16280000Y-6250000D02*
G75*
G02*
X16220000Y-6250000I-30000J0D01*
G01*
X16220000Y-6250000D02*
G75*
G02*
X16280000Y-6250000I30000J0D01*
G01*
X16280000Y-6750000D02*
G75*
G02*
X16220000Y-6750000I-30000J0D01*
G01*
X16220000Y-6750000D02*
G75*
G02*
X16280000Y-6750000I30000J0D01*
G01*
X16455000Y-3000000D02*
G75*
G02*
X16395000Y-3000000I-30000J0D01*
G01*
X16395000Y-3000000D02*
G75*
G02*
X16455000Y-3000000I30000J0D01*
G01*
X16455000Y-3250000D02*
G75*
G02*
X16395000Y-3250000I-30000J0D01*
G01*
X16395000Y-3250000D02*
G75*
G02*
X16455000Y-3250000I30000J0D01*
G01*
X16530000Y-250000D02*
G75*
G02*
X16470000Y-250000I-30000J0D01*
G01*
X16470000Y-250000D02*
G75*
G02*
X16530000Y-250000I30000J0D01*
G01*
X16530000Y-6250000D02*
G75*
G02*
X16470000Y-6250000I-30000J0D01*
G01*
X16470000Y-6250000D02*
G75*
G02*
X16530000Y-6250000I30000J0D01*
G01*
X16530000Y-6750000D02*
G75*
G02*
X16470000Y-6750000I-30000J0D01*
G01*
X16470000Y-6750000D02*
G75*
G02*
X16530000Y-6750000I30000J0D01*
G01*
X16780000Y-250000D02*
G75*
G02*
X16720000Y-250000I-30000J0D01*
G01*
X16720000Y-250000D02*
G75*
G02*
X16780000Y-250000I30000J0D01*
G01*
X16780000Y-2750000D02*
G75*
G02*
X16720000Y-2750000I-30000J0D01*
G01*
X16720000Y-2750000D02*
G75*
G02*
X16780000Y-2750000I30000J0D01*
G01*
X16780000Y-3000000D02*
G75*
G02*
X16720000Y-3000000I-30000J0D01*
G01*
X16720000Y-3000000D02*
G75*
G02*
X16780000Y-3000000I30000J0D01*
G01*
X16780000Y-3250000D02*
G75*
G02*
X16720000Y-3250000I-30000J0D01*
G01*
X16720000Y-3250000D02*
G75*
G02*
X16780000Y-3250000I30000J0D01*
G01*
X16780000Y-6250000D02*
G75*
G02*
X16720000Y-6250000I-30000J0D01*
G01*
X16720000Y-6250000D02*
G75*
G02*
X16780000Y-6250000I30000J0D01*
G01*
X16780000Y-6750000D02*
G75*
G02*
X16720000Y-6750000I-30000J0D01*
G01*
X16720000Y-6750000D02*
G75*
G02*
X16780000Y-6750000I30000J0D01*
G01*
X17030000Y-250000D02*
G75*
G02*
X16970000Y-250000I-30000J0D01*
G01*
X16970000Y-250000D02*
G75*
G02*
X17030000Y-250000I30000J0D01*
G01*
X17030000Y-2750000D02*
G75*
G02*
X16970000Y-2750000I-30000J0D01*
G01*
X16970000Y-2750000D02*
G75*
G02*
X17030000Y-2750000I30000J0D01*
G01*
X17030000Y-3000000D02*
G75*
G02*
X16970000Y-3000000I-30000J0D01*
G01*
X16970000Y-3000000D02*
G75*
G02*
X17030000Y-3000000I30000J0D01*
G01*
X17030000Y-3250000D02*
G75*
G02*
X16970000Y-3250000I-30000J0D01*
G01*
X16970000Y-3250000D02*
G75*
G02*
X17030000Y-3250000I30000J0D01*
G01*
X17030000Y-3500000D02*
G75*
G02*
X16970000Y-3500000I-30000J0D01*
G01*
X16970000Y-3500000D02*
G75*
G02*
X17030000Y-3500000I30000J0D01*
G01*
X17030000Y-3750000D02*
G75*
G02*
X16970000Y-3750000I-30000J0D01*
G01*
X16970000Y-3750000D02*
G75*
G02*
X17030000Y-3750000I30000J0D01*
G01*
X17030000Y-4000000D02*
G75*
G02*
X16970000Y-4000000I-30000J0D01*
G01*
X16970000Y-4000000D02*
G75*
G02*
X17030000Y-4000000I30000J0D01*
G01*
X17030000Y-4250000D02*
G75*
G02*
X16970000Y-4250000I-30000J0D01*
G01*
X16970000Y-4250000D02*
G75*
G02*
X17030000Y-4250000I30000J0D01*
G01*
X17030000Y-6250000D02*
G75*
G02*
X16970000Y-6250000I-30000J0D01*
G01*
X16970000Y-6250000D02*
G75*
G02*
X17030000Y-6250000I30000J0D01*
G01*
X17030000Y-6750000D02*
G75*
G02*
X16970000Y-6750000I-30000J0D01*
G01*
X16970000Y-6750000D02*
G75*
G02*
X17030000Y-6750000I30000J0D01*
G01*
X17280000Y-250000D02*
G75*
G02*
X17220000Y-250000I-30000J0D01*
G01*
X17220000Y-250000D02*
G75*
G02*
X17280000Y-250000I30000J0D01*
G01*
X17280000Y-6250000D02*
G75*
G02*
X17220000Y-6250000I-30000J0D01*
G01*
X17220000Y-6250000D02*
G75*
G02*
X17280000Y-6250000I30000J0D01*
G01*
X17280000Y-6750000D02*
G75*
G02*
X17220000Y-6750000I-30000J0D01*
G01*
X17220000Y-6750000D02*
G75*
G02*
X17280000Y-6750000I30000J0D01*
G01*
X17530000Y-250000D02*
G75*
G02*
X17470000Y-250000I-30000J0D01*
G01*
X17470000Y-250000D02*
G75*
G02*
X17530000Y-250000I30000J0D01*
G01*
X17530000Y-6250000D02*
G75*
G02*
X17470000Y-6250000I-30000J0D01*
G01*
X17470000Y-6250000D02*
G75*
G02*
X17530000Y-6250000I30000J0D01*
G01*
X17530000Y-6750000D02*
G75*
G02*
X17470000Y-6750000I-30000J0D01*
G01*
X17470000Y-6750000D02*
G75*
G02*
X17530000Y-6750000I30000J0D01*
G01*
X17560000Y-3110000D02*
G75*
G02*
X17500000Y-3110000I-30000J0D01*
G01*
X17500000Y-3110000D02*
G75*
G02*
X17560000Y-3110000I30000J0D01*
G01*
X17560000Y-3370000D02*
G75*
G02*
X17500000Y-3370000I-30000J0D01*
G01*
X17500000Y-3370000D02*
G75*
G02*
X17560000Y-3370000I30000J0D01*
G01*
X17630000Y-4100000D02*
G75*
G02*
X17570000Y-4100000I-30000J0D01*
G01*
X17570000Y-4100000D02*
G75*
G02*
X17630000Y-4100000I30000J0D01*
G01*
X17750000Y-3120000D02*
G75*
G02*
X17690000Y-3120000I-30000J0D01*
G01*
X17690000Y-3120000D02*
G75*
G02*
X17750000Y-3120000I30000J0D01*
G01*
X17750000Y-3380000D02*
G75*
G02*
X17690000Y-3380000I-30000J0D01*
G01*
X17690000Y-3380000D02*
G75*
G02*
X17750000Y-3380000I30000J0D01*
G01*
X17780000Y-250000D02*
G75*
G02*
X17720000Y-250000I-30000J0D01*
G01*
X17720000Y-250000D02*
G75*
G02*
X17780000Y-250000I30000J0D01*
G01*
X17780000Y-6250000D02*
G75*
G02*
X17720000Y-6250000I-30000J0D01*
G01*
X17720000Y-6250000D02*
G75*
G02*
X17780000Y-6250000I30000J0D01*
G01*
X17780000Y-6750000D02*
G75*
G02*
X17720000Y-6750000I-30000J0D01*
G01*
X17720000Y-6750000D02*
G75*
G02*
X17780000Y-6750000I30000J0D01*
G01*
X18030000Y-250000D02*
G75*
G02*
X17970000Y-250000I-30000J0D01*
G01*
X17970000Y-250000D02*
G75*
G02*
X18030000Y-250000I30000J0D01*
G01*
X18030000Y-6250000D02*
G75*
G02*
X17970000Y-6250000I-30000J0D01*
G01*
X17970000Y-6250000D02*
G75*
G02*
X18030000Y-6250000I30000J0D01*
G01*
X18030000Y-6750000D02*
G75*
G02*
X17970000Y-6750000I-30000J0D01*
G01*
X17970000Y-6750000D02*
G75*
G02*
X18030000Y-6750000I30000J0D01*
G01*
X18280000Y-250000D02*
G75*
G02*
X18220000Y-250000I-30000J0D01*
G01*
X18220000Y-250000D02*
G75*
G02*
X18280000Y-250000I30000J0D01*
G01*
X18280000Y-3000000D02*
G75*
G02*
X18220000Y-3000000I-30000J0D01*
G01*
X18220000Y-3000000D02*
G75*
G02*
X18280000Y-3000000I30000J0D01*
G01*
X18280000Y-3250000D02*
G75*
G02*
X18220000Y-3250000I-30000J0D01*
G01*
X18220000Y-3250000D02*
G75*
G02*
X18280000Y-3250000I30000J0D01*
G01*
X18280000Y-3750000D02*
G75*
G02*
X18220000Y-3750000I-30000J0D01*
G01*
X18220000Y-3750000D02*
G75*
G02*
X18280000Y-3750000I30000J0D01*
G01*
X18280000Y-4000000D02*
G75*
G02*
X18220000Y-4000000I-30000J0D01*
G01*
X18220000Y-4000000D02*
G75*
G02*
X18280000Y-4000000I30000J0D01*
G01*
X18280000Y-4250000D02*
G75*
G02*
X18220000Y-4250000I-30000J0D01*
G01*
X18220000Y-4250000D02*
G75*
G02*
X18280000Y-4250000I30000J0D01*
G01*
X18280000Y-6250000D02*
G75*
G02*
X18220000Y-6250000I-30000J0D01*
G01*
X18220000Y-6250000D02*
G75*
G02*
X18280000Y-6250000I30000J0D01*
G01*
X18280000Y-6750000D02*
G75*
G02*
X18220000Y-6750000I-30000J0D01*
G01*
X18220000Y-6750000D02*
G75*
G02*
X18280000Y-6750000I30000J0D01*
G01*
X18530000Y-250000D02*
G75*
G02*
X18470000Y-250000I-30000J0D01*
G01*
X18470000Y-250000D02*
G75*
G02*
X18530000Y-250000I30000J0D01*
G01*
X18530000Y-2750000D02*
G75*
G02*
X18470000Y-2750000I-30000J0D01*
G01*
X18470000Y-2750000D02*
G75*
G02*
X18530000Y-2750000I30000J0D01*
G01*
X18530000Y-3000000D02*
G75*
G02*
X18470000Y-3000000I-30000J0D01*
G01*
X18470000Y-3000000D02*
G75*
G02*
X18530000Y-3000000I30000J0D01*
G01*
X18530000Y-3250000D02*
G75*
G02*
X18470000Y-3250000I-30000J0D01*
G01*
X18470000Y-3250000D02*
G75*
G02*
X18530000Y-3250000I30000J0D01*
G01*
X18530000Y-6000000D02*
G75*
G02*
X18470000Y-6000000I-30000J0D01*
G01*
X18470000Y-6000000D02*
G75*
G02*
X18530000Y-6000000I30000J0D01*
G01*
X18530000Y-6750000D02*
G75*
G02*
X18470000Y-6750000I-30000J0D01*
G01*
X18470000Y-6750000D02*
G75*
G02*
X18530000Y-6750000I30000J0D01*
G01*
X18780000Y-250000D02*
G75*
G02*
X18720000Y-250000I-30000J0D01*
G01*
X18720000Y-250000D02*
G75*
G02*
X18780000Y-250000I30000J0D01*
G01*
X18780000Y-2750000D02*
G75*
G02*
X18720000Y-2750000I-30000J0D01*
G01*
X18720000Y-2750000D02*
G75*
G02*
X18780000Y-2750000I30000J0D01*
G01*
X18780000Y-3000000D02*
G75*
G02*
X18720000Y-3000000I-30000J0D01*
G01*
X18720000Y-3000000D02*
G75*
G02*
X18780000Y-3000000I30000J0D01*
G01*
X18780000Y-3250000D02*
G75*
G02*
X18720000Y-3250000I-30000J0D01*
G01*
X18720000Y-3250000D02*
G75*
G02*
X18780000Y-3250000I30000J0D01*
G01*
X18780000Y-3500000D02*
G75*
G02*
X18720000Y-3500000I-30000J0D01*
G01*
X18720000Y-3500000D02*
G75*
G02*
X18780000Y-3500000I30000J0D01*
G01*
X18780000Y-3750000D02*
G75*
G02*
X18720000Y-3750000I-30000J0D01*
G01*
X18720000Y-3750000D02*
G75*
G02*
X18780000Y-3750000I30000J0D01*
G01*
X18780000Y-4000000D02*
G75*
G02*
X18720000Y-4000000I-30000J0D01*
G01*
X18720000Y-4000000D02*
G75*
G02*
X18780000Y-4000000I30000J0D01*
G01*
X18780000Y-4250000D02*
G75*
G02*
X18720000Y-4250000I-30000J0D01*
G01*
X18720000Y-4250000D02*
G75*
G02*
X18780000Y-4250000I30000J0D01*
G01*
X18780000Y-5750000D02*
G75*
G02*
X18720000Y-5750000I-30000J0D01*
G01*
X18720000Y-5750000D02*
G75*
G02*
X18780000Y-5750000I30000J0D01*
G01*
X18780000Y-6750000D02*
G75*
G02*
X18720000Y-6750000I-30000J0D01*
G01*
X18720000Y-6750000D02*
G75*
G02*
X18780000Y-6750000I30000J0D01*
G01*
X19030000Y-250000D02*
G75*
G02*
X18970000Y-250000I-30000J0D01*
G01*
X18970000Y-250000D02*
G75*
G02*
X19030000Y-250000I30000J0D01*
G01*
X19030000Y-500000D02*
G75*
G02*
X18970000Y-500000I-30000J0D01*
G01*
X18970000Y-500000D02*
G75*
G02*
X19030000Y-500000I30000J0D01*
G01*
X19030000Y-5500000D02*
G75*
G02*
X18970000Y-5500000I-30000J0D01*
G01*
X18970000Y-5500000D02*
G75*
G02*
X19030000Y-5500000I30000J0D01*
G01*
X19030000Y-6500000D02*
G75*
G02*
X18970000Y-6500000I-30000J0D01*
G01*
X18970000Y-6500000D02*
G75*
G02*
X19030000Y-6500000I30000J0D01*
G01*
X19030000Y-6750000D02*
G75*
G02*
X18970000Y-6750000I-30000J0D01*
G01*
X18970000Y-6750000D02*
G75*
G02*
X19030000Y-6750000I30000J0D01*
G01*
X19280000Y-250000D02*
G75*
G02*
X19220000Y-250000I-30000J0D01*
G01*
X19220000Y-250000D02*
G75*
G02*
X19280000Y-250000I30000J0D01*
G01*
X19280000Y-500000D02*
G75*
G02*
X19220000Y-500000I-30000J0D01*
G01*
X19220000Y-500000D02*
G75*
G02*
X19280000Y-500000I30000J0D01*
G01*
X19280000Y-750000D02*
G75*
G02*
X19220000Y-750000I-30000J0D01*
G01*
X19220000Y-750000D02*
G75*
G02*
X19280000Y-750000I30000J0D01*
G01*
X19280000Y-5250000D02*
G75*
G02*
X19220000Y-5250000I-30000J0D01*
G01*
X19220000Y-5250000D02*
G75*
G02*
X19280000Y-5250000I30000J0D01*
G01*
X19280000Y-6250000D02*
G75*
G02*
X19220000Y-6250000I-30000J0D01*
G01*
X19220000Y-6250000D02*
G75*
G02*
X19280000Y-6250000I30000J0D01*
G01*
X19280000Y-6500000D02*
G75*
G02*
X19220000Y-6500000I-30000J0D01*
G01*
X19220000Y-6500000D02*
G75*
G02*
X19280000Y-6500000I30000J0D01*
G01*
X19280000Y-6750000D02*
G75*
G02*
X19220000Y-6750000I-30000J0D01*
G01*
X19220000Y-6750000D02*
G75*
G02*
X19280000Y-6750000I30000J0D01*
G01*
X19530000Y-250000D02*
G75*
G02*
X19470000Y-250000I-30000J0D01*
G01*
X19470000Y-250000D02*
G75*
G02*
X19530000Y-250000I30000J0D01*
G01*
X19530000Y-500000D02*
G75*
G02*
X19470000Y-500000I-30000J0D01*
G01*
X19470000Y-500000D02*
G75*
G02*
X19530000Y-500000I30000J0D01*
G01*
X19530000Y-750000D02*
G75*
G02*
X19470000Y-750000I-30000J0D01*
G01*
X19470000Y-750000D02*
G75*
G02*
X19530000Y-750000I30000J0D01*
G01*
X19530000Y-1000000D02*
G75*
G02*
X19470000Y-1000000I-30000J0D01*
G01*
X19470000Y-1000000D02*
G75*
G02*
X19530000Y-1000000I30000J0D01*
G01*
X19530000Y-5000000D02*
G75*
G02*
X19470000Y-5000000I-30000J0D01*
G01*
X19470000Y-5000000D02*
G75*
G02*
X19530000Y-5000000I30000J0D01*
G01*
X19530000Y-6000000D02*
G75*
G02*
X19470000Y-6000000I-30000J0D01*
G01*
X19470000Y-6000000D02*
G75*
G02*
X19530000Y-6000000I30000J0D01*
G01*
X19530000Y-6250000D02*
G75*
G02*
X19470000Y-6250000I-30000J0D01*
G01*
X19470000Y-6250000D02*
G75*
G02*
X19530000Y-6250000I30000J0D01*
G01*
X19530000Y-6500000D02*
G75*
G02*
X19470000Y-6500000I-30000J0D01*
G01*
X19470000Y-6500000D02*
G75*
G02*
X19530000Y-6500000I30000J0D01*
G01*
X19530000Y-6750000D02*
G75*
G02*
X19470000Y-6750000I-30000J0D01*
G01*
X19470000Y-6750000D02*
G75*
G02*
X19530000Y-6750000I30000J0D01*
G01*
X19780000Y-250000D02*
G75*
G02*
X19720000Y-250000I-30000J0D01*
G01*
X19720000Y-250000D02*
G75*
G02*
X19780000Y-250000I30000J0D01*
G01*
X19780000Y-500000D02*
G75*
G02*
X19720000Y-500000I-30000J0D01*
G01*
X19720000Y-500000D02*
G75*
G02*
X19780000Y-500000I30000J0D01*
G01*
X19780000Y-750000D02*
G75*
G02*
X19720000Y-750000I-30000J0D01*
G01*
X19720000Y-750000D02*
G75*
G02*
X19780000Y-750000I30000J0D01*
G01*
X19780000Y-1000000D02*
G75*
G02*
X19720000Y-1000000I-30000J0D01*
G01*
X19720000Y-1000000D02*
G75*
G02*
X19780000Y-1000000I30000J0D01*
G01*
X19780000Y-1250000D02*
G75*
G02*
X19720000Y-1250000I-30000J0D01*
G01*
X19720000Y-1250000D02*
G75*
G02*
X19780000Y-1250000I30000J0D01*
G01*
X19780000Y-5750000D02*
G75*
G02*
X19720000Y-5750000I-30000J0D01*
G01*
X19720000Y-5750000D02*
G75*
G02*
X19780000Y-5750000I30000J0D01*
G01*
X19780000Y-6000000D02*
G75*
G02*
X19720000Y-6000000I-30000J0D01*
G01*
X19720000Y-6000000D02*
G75*
G02*
X19780000Y-6000000I30000J0D01*
G01*
X19780000Y-6250000D02*
G75*
G02*
X19720000Y-6250000I-30000J0D01*
G01*
X19720000Y-6250000D02*
G75*
G02*
X19780000Y-6250000I30000J0D01*
G01*
X19780000Y-6500000D02*
G75*
G02*
X19720000Y-6500000I-30000J0D01*
G01*
X19720000Y-6500000D02*
G75*
G02*
X19780000Y-6500000I30000J0D01*
G01*
X19780000Y-6750000D02*
G75*
G02*
X19720000Y-6750000I-30000J0D01*
G01*
X19720000Y-6750000D02*
G75*
G02*
X19780000Y-6750000I30000J0D01*
G01*
X20030000Y-1250000D02*
G75*
G02*
X19970000Y-1250000I-30000J0D01*
G01*
X19970000Y-1250000D02*
G75*
G02*
X20030000Y-1250000I30000J0D01*
G01*
X20030000Y-1500000D02*
G75*
G02*
X19970000Y-1500000I-30000J0D01*
G01*
X19970000Y-1500000D02*
G75*
G02*
X20030000Y-1500000I30000J0D01*
G01*
X20030000Y-5500000D02*
G75*
G02*
X19970000Y-5500000I-30000J0D01*
G01*
X19970000Y-5500000D02*
G75*
G02*
X20030000Y-5500000I30000J0D01*
G01*
X20030000Y-5750000D02*
G75*
G02*
X19970000Y-5750000I-30000J0D01*
G01*
X19970000Y-5750000D02*
G75*
G02*
X20030000Y-5750000I30000J0D01*
G01*
X20280000Y-1250000D02*
G75*
G02*
X20220000Y-1250000I-30000J0D01*
G01*
X20220000Y-1250000D02*
G75*
G02*
X20280000Y-1250000I30000J0D01*
G01*
X20280000Y-1500000D02*
G75*
G02*
X20220000Y-1500000I-30000J0D01*
G01*
X20220000Y-1500000D02*
G75*
G02*
X20280000Y-1500000I30000J0D01*
G01*
X20280000Y-5500000D02*
G75*
G02*
X20220000Y-5500000I-30000J0D01*
G01*
X20220000Y-5500000D02*
G75*
G02*
X20280000Y-5500000I30000J0D01*
G01*
X20280000Y-5750000D02*
G75*
G02*
X20220000Y-5750000I-30000J0D01*
G01*
X20220000Y-5750000D02*
G75*
G02*
X20280000Y-5750000I30000J0D01*
G01*
X20530000Y-1250000D02*
G75*
G02*
X20470000Y-1250000I-30000J0D01*
G01*
X20470000Y-1250000D02*
G75*
G02*
X20530000Y-1250000I30000J0D01*
G01*
X20530000Y-1500000D02*
G75*
G02*
X20470000Y-1500000I-30000J0D01*
G01*
X20470000Y-1500000D02*
G75*
G02*
X20530000Y-1500000I30000J0D01*
G01*
X20530000Y-5500000D02*
G75*
G02*
X20470000Y-5500000I-30000J0D01*
G01*
X20470000Y-5500000D02*
G75*
G02*
X20530000Y-5500000I30000J0D01*
G01*
X20530000Y-5750000D02*
G75*
G02*
X20470000Y-5750000I-30000J0D01*
G01*
X20470000Y-5750000D02*
G75*
G02*
X20530000Y-5750000I30000J0D01*
G01*
X20780000Y-1250000D02*
G75*
G02*
X20720000Y-1250000I-30000J0D01*
G01*
X20720000Y-1250000D02*
G75*
G02*
X20780000Y-1250000I30000J0D01*
G01*
X20780000Y-1500000D02*
G75*
G02*
X20720000Y-1500000I-30000J0D01*
G01*
X20720000Y-1500000D02*
G75*
G02*
X20780000Y-1500000I30000J0D01*
G01*
X20780000Y-1750000D02*
G75*
G02*
X20720000Y-1750000I-30000J0D01*
G01*
X20720000Y-1750000D02*
G75*
G02*
X20780000Y-1750000I30000J0D01*
G01*
X20780000Y-2000000D02*
G75*
G02*
X20720000Y-2000000I-30000J0D01*
G01*
X20720000Y-2000000D02*
G75*
G02*
X20780000Y-2000000I30000J0D01*
G01*
X20780000Y-2250000D02*
G75*
G02*
X20720000Y-2250000I-30000J0D01*
G01*
X20720000Y-2250000D02*
G75*
G02*
X20780000Y-2250000I30000J0D01*
G01*
X20780000Y-2500000D02*
G75*
G02*
X20720000Y-2500000I-30000J0D01*
G01*
X20720000Y-2500000D02*
G75*
G02*
X20780000Y-2500000I30000J0D01*
G01*
X20780000Y-2750000D02*
G75*
G02*
X20720000Y-2750000I-30000J0D01*
G01*
X20720000Y-2750000D02*
G75*
G02*
X20780000Y-2750000I30000J0D01*
G01*
X20780000Y-3000000D02*
G75*
G02*
X20720000Y-3000000I-30000J0D01*
G01*
X20720000Y-3000000D02*
G75*
G02*
X20780000Y-3000000I30000J0D01*
G01*
X20780000Y-3250000D02*
G75*
G02*
X20720000Y-3250000I-30000J0D01*
G01*
X20720000Y-3250000D02*
G75*
G02*
X20780000Y-3250000I30000J0D01*
G01*
X20780000Y-3500000D02*
G75*
G02*
X20720000Y-3500000I-30000J0D01*
G01*
X20720000Y-3500000D02*
G75*
G02*
X20780000Y-3500000I30000J0D01*
G01*
X20780000Y-3750000D02*
G75*
G02*
X20720000Y-3750000I-30000J0D01*
G01*
X20720000Y-3750000D02*
G75*
G02*
X20780000Y-3750000I30000J0D01*
G01*
X20780000Y-4000000D02*
G75*
G02*
X20720000Y-4000000I-30000J0D01*
G01*
X20720000Y-4000000D02*
G75*
G02*
X20780000Y-4000000I30000J0D01*
G01*
X20780000Y-4250000D02*
G75*
G02*
X20720000Y-4250000I-30000J0D01*
G01*
X20720000Y-4250000D02*
G75*
G02*
X20780000Y-4250000I30000J0D01*
G01*
X20780000Y-4500000D02*
G75*
G02*
X20720000Y-4500000I-30000J0D01*
G01*
X20720000Y-4500000D02*
G75*
G02*
X20780000Y-4500000I30000J0D01*
G01*
X20780000Y-4750000D02*
G75*
G02*
X20720000Y-4750000I-30000J0D01*
G01*
X20720000Y-4750000D02*
G75*
G02*
X20780000Y-4750000I30000J0D01*
G01*
X20780000Y-5000000D02*
G75*
G02*
X20720000Y-5000000I-30000J0D01*
G01*
X20720000Y-5000000D02*
G75*
G02*
X20780000Y-5000000I30000J0D01*
G01*
X20780000Y-5250000D02*
G75*
G02*
X20720000Y-5250000I-30000J0D01*
G01*
X20720000Y-5250000D02*
G75*
G02*
X20780000Y-5250000I30000J0D01*
G01*
X20780000Y-5500000D02*
G75*
G02*
X20720000Y-5500000I-30000J0D01*
G01*
X20720000Y-5500000D02*
G75*
G02*
X20780000Y-5500000I30000J0D01*
G01*
X20780000Y-5750000D02*
G75*
G02*
X20720000Y-5750000I-30000J0D01*
G01*
X20720000Y-5750000D02*
G75*
G02*
X20780000Y-5750000I30000J0D01*
G01*
X571000Y-1767000D02*
X571000Y-1867000D01*
X521000Y-1817000D02*
X621000Y-1817000D01*
X571000Y-2021000D02*
X571000Y-2121000D01*
X521000Y-2071000D02*
X621000Y-2071000D01*
X571000Y-2275000D02*
X571000Y-2375000D01*
X521000Y-2325000D02*
X621000Y-2325000D01*
X571000Y-2529000D02*
X571000Y-2629000D01*
X521000Y-2579000D02*
X621000Y-2579000D01*
X571000Y-2783000D02*
X571000Y-2883000D01*
X521000Y-2833000D02*
X621000Y-2833000D01*
X571000Y-3037000D02*
X571000Y-3137000D01*
X521000Y-3087000D02*
X621000Y-3087000D01*
X571000Y-3291000D02*
X571000Y-3391000D01*
X521000Y-3341000D02*
X621000Y-3341000D01*
X571000Y-3545000D02*
X571000Y-3645000D01*
X521000Y-3595000D02*
X621000Y-3595000D01*
X571000Y-3799000D02*
X571000Y-3899000D01*
X521000Y-3849000D02*
X621000Y-3849000D01*
X571000Y-4053000D02*
X571000Y-4153000D01*
X521000Y-4103000D02*
X621000Y-4103000D01*
X571000Y-4307000D02*
X571000Y-4407000D01*
X521000Y-4357000D02*
X621000Y-4357000D01*
X571000Y-4561000D02*
X571000Y-4661000D01*
X521000Y-4611000D02*
X621000Y-4611000D01*
X571000Y-4815000D02*
X571000Y-4915000D01*
X521000Y-4865000D02*
X621000Y-4865000D01*
X571000Y-5069000D02*
X571000Y-5169000D01*
X521000Y-5119000D02*
X621000Y-5119000D01*
X825000Y-1767000D02*
X825000Y-1867000D01*
X775000Y-1817000D02*
X875000Y-1817000D01*
X825000Y-2021000D02*
X825000Y-2121000D01*
X775000Y-2071000D02*
X875000Y-2071000D01*
X825000Y-2275000D02*
X825000Y-2375000D01*
X775000Y-2325000D02*
X875000Y-2325000D01*
X825000Y-2529000D02*
X825000Y-2629000D01*
X775000Y-2579000D02*
X875000Y-2579000D01*
X825000Y-2783000D02*
X825000Y-2883000D01*
X775000Y-2833000D02*
X875000Y-2833000D01*
X825000Y-3037000D02*
X825000Y-3137000D01*
X775000Y-3087000D02*
X875000Y-3087000D01*
X825000Y-3291000D02*
X825000Y-3391000D01*
X775000Y-3341000D02*
X875000Y-3341000D01*
X825000Y-3545000D02*
X825000Y-3645000D01*
X775000Y-3595000D02*
X875000Y-3595000D01*
X825000Y-3799000D02*
X825000Y-3899000D01*
X775000Y-3849000D02*
X875000Y-3849000D01*
X825000Y-4053000D02*
X825000Y-4153000D01*
X775000Y-4103000D02*
X875000Y-4103000D01*
X825000Y-4307000D02*
X825000Y-4407000D01*
X775000Y-4357000D02*
X875000Y-4357000D01*
X825000Y-4561000D02*
X825000Y-4661000D01*
X775000Y-4611000D02*
X875000Y-4611000D01*
X825000Y-4815000D02*
X825000Y-4915000D01*
X775000Y-4865000D02*
X875000Y-4865000D01*
X825000Y-5069000D02*
X825000Y-5169000D01*
X775000Y-5119000D02*
X875000Y-5119000D01*
X10750000Y-5400000D02*
X10750000Y-5500000D01*
X10700000Y-5450000D02*
X10800000Y-5450000D01*
X12900000Y-6440000D02*
X12900000Y-6540000D01*
X12850000Y-6490000D02*
X12950000Y-6490000D01*
X14000000Y-6450000D02*
X14000000Y-6550000D01*
X13950000Y-6500000D02*
X14050000Y-6500000D01*
X20300000Y-1956000D02*
X20300000Y-2056000D01*
X20250000Y-2006000D02*
X20350000Y-2006000D01*
X20300000Y-2210000D02*
X20300000Y-2310000D01*
X20250000Y-2260000D02*
X20350000Y-2260000D01*
X20300000Y-2464000D02*
X20300000Y-2564000D01*
X20250000Y-2514000D02*
X20350000Y-2514000D01*
X20300000Y-2718000D02*
X20300000Y-2818000D01*
X20250000Y-2768000D02*
X20350000Y-2768000D01*
X20300000Y-2972000D02*
X20300000Y-3072000D01*
X20250000Y-3022000D02*
X20350000Y-3022000D01*
X20300000Y-3226000D02*
X20300000Y-3326000D01*
X20250000Y-3276000D02*
X20350000Y-3276000D01*
X20300000Y-3480000D02*
X20300000Y-3580000D01*
X20250000Y-3530000D02*
X20350000Y-3530000D01*
X20300000Y-3734000D02*
X20300000Y-3834000D01*
X20250000Y-3784000D02*
X20350000Y-3784000D01*
X20300000Y-3988000D02*
X20300000Y-4088000D01*
X20250000Y-4038000D02*
X20350000Y-4038000D01*
X20300000Y-4242000D02*
X20300000Y-4342000D01*
X20250000Y-4292000D02*
X20350000Y-4292000D01*
X20300000Y-4496000D02*
X20300000Y-4596000D01*
X20250000Y-4546000D02*
X20350000Y-4546000D01*
X20300000Y-4750000D02*
X20300000Y-4850000D01*
X20250000Y-4800000D02*
X20350000Y-4800000D01*
X20300000Y-5004000D02*
X20300000Y-5104000D01*
X20250000Y-5054000D02*
X20350000Y-5054000D01*
D13*
X813138Y-813138D02*
X813138Y-586862D01*
X586862Y-586862D01*
X586862Y-813138D01*
X813138Y-813138D01*
X813138Y-6413138D02*
X813138Y-6186862D01*
X586862Y-6186862D01*
X586862Y-6413138D01*
X813138Y-6413138D01*
X20413138Y-813138D02*
X20413138Y-586862D01*
X20186862Y-586862D01*
X20186862Y-813138D01*
X20413138Y-813138D01*
X20413138Y-6413138D02*
X20413138Y-6186862D01*
X20186862Y-6186862D01*
X20186862Y-6413138D01*
X20413138Y-6413138D01*
D11*
X258277Y-7313984D02*
X258277Y-7113984D01*
X258277Y-7113984D02*
X305896Y-7113984D01*
X305896Y-7113984D02*
X334467Y-7123508D01*
X334467Y-7123508D02*
X353515Y-7142555D01*
X353515Y-7142555D02*
X363039Y-7161603D01*
X363039Y-7161603D02*
X372562Y-7199698D01*
X372562Y-7199698D02*
X372562Y-7228269D01*
X372562Y-7228269D02*
X363039Y-7266365D01*
X363039Y-7266365D02*
X353515Y-7285412D01*
X353515Y-7285412D02*
X334467Y-7304460D01*
X334467Y-7304460D02*
X305896Y-7313984D01*
X305896Y-7313984D02*
X258277Y-7313984D01*
X458277Y-7313984D02*
X458277Y-7180650D01*
X458277Y-7218746D02*
X467801Y-7199698D01*
X467801Y-7199698D02*
X477324Y-7190174D01*
X477324Y-7190174D02*
X496372Y-7180650D01*
X496372Y-7180650D02*
X515420Y-7180650D01*
X582086Y-7313984D02*
X582086Y-7180650D01*
X582086Y-7113984D02*
X572563Y-7123508D01*
X572563Y-7123508D02*
X582086Y-7133031D01*
X582086Y-7133031D02*
X591610Y-7123508D01*
X591610Y-7123508D02*
X582086Y-7113984D01*
X582086Y-7113984D02*
X582086Y-7133031D01*
X705896Y-7313984D02*
X686848Y-7304460D01*
X686848Y-7304460D02*
X677324Y-7285412D01*
X677324Y-7285412D02*
X677324Y-7113984D01*
X810658Y-7313984D02*
X791610Y-7304460D01*
X791610Y-7304460D02*
X782086Y-7285412D01*
X782086Y-7285412D02*
X782086Y-7113984D01*
X1039229Y-7313984D02*
X1039229Y-7113984D01*
X1039229Y-7113984D02*
X1105896Y-7256841D01*
X1105896Y-7256841D02*
X1172563Y-7113984D01*
X1172563Y-7113984D02*
X1172563Y-7313984D01*
X1353515Y-7313984D02*
X1353515Y-7209222D01*
X1353515Y-7209222D02*
X1343991Y-7190174D01*
X1343991Y-7190174D02*
X1324944Y-7180650D01*
X1324944Y-7180650D02*
X1286848Y-7180650D01*
X1286848Y-7180650D02*
X1267801Y-7190174D01*
X1353515Y-7304460D02*
X1334467Y-7313984D01*
X1334467Y-7313984D02*
X1286848Y-7313984D01*
X1286848Y-7313984D02*
X1267801Y-7304460D01*
X1267801Y-7304460D02*
X1258277Y-7285412D01*
X1258277Y-7285412D02*
X1258277Y-7266365D01*
X1258277Y-7266365D02*
X1267801Y-7247317D01*
X1267801Y-7247317D02*
X1286848Y-7237793D01*
X1286848Y-7237793D02*
X1334467Y-7237793D01*
X1334467Y-7237793D02*
X1353515Y-7228269D01*
X1448753Y-7180650D02*
X1448753Y-7380650D01*
X1448753Y-7190174D02*
X1467801Y-7180650D01*
X1467801Y-7180650D02*
X1505896Y-7180650D01*
X1505896Y-7180650D02*
X1524943Y-7190174D01*
X1524943Y-7190174D02*
X1534467Y-7199698D01*
X1534467Y-7199698D02*
X1543991Y-7218746D01*
X1543991Y-7218746D02*
X1543991Y-7275888D01*
X1543991Y-7275888D02*
X1534467Y-7294936D01*
X1534467Y-7294936D02*
X1524943Y-7304460D01*
X1524943Y-7304460D02*
X1505896Y-7313984D01*
X1505896Y-7313984D02*
X1467801Y-7313984D01*
X1467801Y-7313984D02*
X1448753Y-7304460D01*
X1629705Y-7294936D02*
X1639229Y-7304460D01*
X1639229Y-7304460D02*
X1629705Y-7313984D01*
X1629705Y-7313984D02*
X1620182Y-7304460D01*
X1620182Y-7304460D02*
X1629705Y-7294936D01*
X1629705Y-7294936D02*
X1629705Y-7313984D01*
X1629705Y-7190174D02*
X1639229Y-7199698D01*
X1639229Y-7199698D02*
X1629705Y-7209222D01*
X1629705Y-7209222D02*
X1620182Y-7199698D01*
X1620182Y-7199698D02*
X1629705Y-7190174D01*
X1629705Y-7190174D02*
X1629705Y-7209222D01*
D12*
X-32500Y-7627500D02*
X-2500Y-7657500D01*
X-2500Y-7627500D02*
X-32500Y-7657500D01*
D11*
X296372Y-7533984D02*
X315420Y-7533984D01*
X315420Y-7533984D02*
X334467Y-7543508D01*
X334467Y-7543508D02*
X343991Y-7553031D01*
X343991Y-7553031D02*
X353515Y-7572079D01*
X353515Y-7572079D02*
X363039Y-7610174D01*
X363039Y-7610174D02*
X363039Y-7657793D01*
X363039Y-7657793D02*
X353515Y-7695888D01*
X353515Y-7695888D02*
X343991Y-7714936D01*
X343991Y-7714936D02*
X334467Y-7724460D01*
X334467Y-7724460D02*
X315420Y-7733984D01*
X315420Y-7733984D02*
X296372Y-7733984D01*
X296372Y-7733984D02*
X277324Y-7724460D01*
X277324Y-7724460D02*
X267801Y-7714936D01*
X267801Y-7714936D02*
X258277Y-7695888D01*
X258277Y-7695888D02*
X248753Y-7657793D01*
X248753Y-7657793D02*
X248753Y-7610174D01*
X248753Y-7610174D02*
X258277Y-7572079D01*
X258277Y-7572079D02*
X267801Y-7553031D01*
X267801Y-7553031D02*
X277324Y-7543508D01*
X277324Y-7543508D02*
X296372Y-7533984D01*
X448753Y-7714936D02*
X458277Y-7724460D01*
X458277Y-7724460D02*
X448753Y-7733984D01*
X448753Y-7733984D02*
X439229Y-7724460D01*
X439229Y-7724460D02*
X448753Y-7714936D01*
X448753Y-7714936D02*
X448753Y-7733984D01*
X524944Y-7533984D02*
X648753Y-7533984D01*
X648753Y-7533984D02*
X582086Y-7610174D01*
X582086Y-7610174D02*
X610658Y-7610174D01*
X610658Y-7610174D02*
X629705Y-7619698D01*
X629705Y-7619698D02*
X639229Y-7629222D01*
X639229Y-7629222D02*
X648753Y-7648269D01*
X648753Y-7648269D02*
X648753Y-7695888D01*
X648753Y-7695888D02*
X639229Y-7714936D01*
X639229Y-7714936D02*
X629705Y-7724460D01*
X629705Y-7724460D02*
X610658Y-7733984D01*
X610658Y-7733984D02*
X553515Y-7733984D01*
X553515Y-7733984D02*
X534467Y-7724460D01*
X534467Y-7724460D02*
X524944Y-7714936D01*
X772562Y-7533984D02*
X791610Y-7533984D01*
X791610Y-7533984D02*
X810658Y-7543508D01*
X810658Y-7543508D02*
X820182Y-7553031D01*
X820182Y-7553031D02*
X829705Y-7572079D01*
X829705Y-7572079D02*
X839229Y-7610174D01*
X839229Y-7610174D02*
X839229Y-7657793D01*
X839229Y-7657793D02*
X829705Y-7695888D01*
X829705Y-7695888D02*
X820182Y-7714936D01*
X820182Y-7714936D02*
X810658Y-7724460D01*
X810658Y-7724460D02*
X791610Y-7733984D01*
X791610Y-7733984D02*
X772562Y-7733984D01*
X772562Y-7733984D02*
X753515Y-7724460D01*
X753515Y-7724460D02*
X743991Y-7714936D01*
X743991Y-7714936D02*
X734467Y-7695888D01*
X734467Y-7695888D02*
X724943Y-7657793D01*
X724943Y-7657793D02*
X724943Y-7610174D01*
X724943Y-7610174D02*
X734467Y-7572079D01*
X734467Y-7572079D02*
X743991Y-7553031D01*
X743991Y-7553031D02*
X753515Y-7543508D01*
X753515Y-7543508D02*
X772562Y-7533984D01*
X963039Y-7533984D02*
X982086Y-7533984D01*
X982086Y-7533984D02*
X1001134Y-7543508D01*
X1001134Y-7543508D02*
X1010658Y-7553031D01*
X1010658Y-7553031D02*
X1020182Y-7572079D01*
X1020182Y-7572079D02*
X1029705Y-7610174D01*
X1029705Y-7610174D02*
X1029705Y-7657793D01*
X1029705Y-7657793D02*
X1020182Y-7695888D01*
X1020182Y-7695888D02*
X1010658Y-7714936D01*
X1010658Y-7714936D02*
X1001134Y-7724460D01*
X1001134Y-7724460D02*
X982086Y-7733984D01*
X982086Y-7733984D02*
X963039Y-7733984D01*
X963039Y-7733984D02*
X943991Y-7724460D01*
X943991Y-7724460D02*
X934467Y-7714936D01*
X934467Y-7714936D02*
X924943Y-7695888D01*
X924943Y-7695888D02*
X915420Y-7657793D01*
X915420Y-7657793D02*
X915420Y-7610174D01*
X915420Y-7610174D02*
X924943Y-7572079D01*
X924943Y-7572079D02*
X934467Y-7553031D01*
X934467Y-7553031D02*
X943991Y-7543508D01*
X943991Y-7543508D02*
X963039Y-7533984D01*
X1115420Y-7733984D02*
X1115420Y-7600650D01*
X1115420Y-7619698D02*
X1124944Y-7610174D01*
X1124944Y-7610174D02*
X1143991Y-7600650D01*
X1143991Y-7600650D02*
X1172563Y-7600650D01*
X1172563Y-7600650D02*
X1191610Y-7610174D01*
X1191610Y-7610174D02*
X1201134Y-7629222D01*
X1201134Y-7629222D02*
X1201134Y-7733984D01*
X1201134Y-7629222D02*
X1210658Y-7610174D01*
X1210658Y-7610174D02*
X1229705Y-7600650D01*
X1229705Y-7600650D02*
X1258277Y-7600650D01*
X1258277Y-7600650D02*
X1277325Y-7610174D01*
X1277325Y-7610174D02*
X1286848Y-7629222D01*
X1286848Y-7629222D02*
X1286848Y-7733984D01*
X1382086Y-7733984D02*
X1382086Y-7600650D01*
X1382086Y-7619698D02*
X1391610Y-7610174D01*
X1391610Y-7610174D02*
X1410658Y-7600650D01*
X1410658Y-7600650D02*
X1439229Y-7600650D01*
X1439229Y-7600650D02*
X1458277Y-7610174D01*
X1458277Y-7610174D02*
X1467801Y-7629222D01*
X1467801Y-7629222D02*
X1467801Y-7733984D01*
X1467801Y-7629222D02*
X1477324Y-7610174D01*
X1477324Y-7610174D02*
X1496372Y-7600650D01*
X1496372Y-7600650D02*
X1524943Y-7600650D01*
X1524943Y-7600650D02*
X1543991Y-7610174D01*
X1543991Y-7610174D02*
X1553515Y-7629222D01*
X1553515Y-7629222D02*
X1553515Y-7733984D01*
X1943991Y-7524460D02*
X1772563Y-7781603D01*
X2201134Y-7533984D02*
X2220182Y-7533984D01*
X2220182Y-7533984D02*
X2239229Y-7543508D01*
X2239229Y-7543508D02*
X2248753Y-7553031D01*
X2248753Y-7553031D02*
X2258277Y-7572079D01*
X2258277Y-7572079D02*
X2267801Y-7610174D01*
X2267801Y-7610174D02*
X2267801Y-7657793D01*
X2267801Y-7657793D02*
X2258277Y-7695888D01*
X2258277Y-7695888D02*
X2248753Y-7714936D01*
X2248753Y-7714936D02*
X2239229Y-7724460D01*
X2239229Y-7724460D02*
X2220182Y-7733984D01*
X2220182Y-7733984D02*
X2201134Y-7733984D01*
X2201134Y-7733984D02*
X2182087Y-7724460D01*
X2182087Y-7724460D02*
X2172563Y-7714936D01*
X2172563Y-7714936D02*
X2163039Y-7695888D01*
X2163039Y-7695888D02*
X2153515Y-7657793D01*
X2153515Y-7657793D02*
X2153515Y-7610174D01*
X2153515Y-7610174D02*
X2163039Y-7572079D01*
X2163039Y-7572079D02*
X2172563Y-7553031D01*
X2172563Y-7553031D02*
X2182087Y-7543508D01*
X2182087Y-7543508D02*
X2201134Y-7533984D01*
X2353515Y-7714936D02*
X2363039Y-7724460D01*
X2363039Y-7724460D02*
X2353515Y-7733984D01*
X2353515Y-7733984D02*
X2343991Y-7724460D01*
X2343991Y-7724460D02*
X2353515Y-7714936D01*
X2353515Y-7714936D02*
X2353515Y-7733984D01*
X2486848Y-7533984D02*
X2505896Y-7533984D01*
X2505896Y-7533984D02*
X2524944Y-7543508D01*
X2524944Y-7543508D02*
X2534468Y-7553031D01*
X2534468Y-7553031D02*
X2543991Y-7572079D01*
X2543991Y-7572079D02*
X2553515Y-7610174D01*
X2553515Y-7610174D02*
X2553515Y-7657793D01*
X2553515Y-7657793D02*
X2543991Y-7695888D01*
X2543991Y-7695888D02*
X2534468Y-7714936D01*
X2534468Y-7714936D02*
X2524944Y-7724460D01*
X2524944Y-7724460D02*
X2505896Y-7733984D01*
X2505896Y-7733984D02*
X2486848Y-7733984D01*
X2486848Y-7733984D02*
X2467801Y-7724460D01*
X2467801Y-7724460D02*
X2458277Y-7714936D01*
X2458277Y-7714936D02*
X2448753Y-7695888D01*
X2448753Y-7695888D02*
X2439229Y-7657793D01*
X2439229Y-7657793D02*
X2439229Y-7610174D01*
X2439229Y-7610174D02*
X2448753Y-7572079D01*
X2448753Y-7572079D02*
X2458277Y-7553031D01*
X2458277Y-7553031D02*
X2467801Y-7543508D01*
X2467801Y-7543508D02*
X2486848Y-7533984D01*
X2743991Y-7733984D02*
X2629706Y-7733984D01*
X2686848Y-7733984D02*
X2686848Y-7533984D01*
X2686848Y-7533984D02*
X2667801Y-7562555D01*
X2667801Y-7562555D02*
X2648753Y-7581603D01*
X2648753Y-7581603D02*
X2629706Y-7591127D01*
X2934467Y-7733984D02*
X2820182Y-7733984D01*
X2877325Y-7733984D02*
X2877325Y-7533984D01*
X2877325Y-7533984D02*
X2858277Y-7562555D01*
X2858277Y-7562555D02*
X2839229Y-7581603D01*
X2839229Y-7581603D02*
X2820182Y-7591127D01*
X3048753Y-7619698D02*
X3029706Y-7610174D01*
X3029706Y-7610174D02*
X3020182Y-7600650D01*
X3020182Y-7600650D02*
X3010658Y-7581603D01*
X3010658Y-7581603D02*
X3010658Y-7572079D01*
X3010658Y-7572079D02*
X3020182Y-7553031D01*
X3020182Y-7553031D02*
X3029706Y-7543508D01*
X3029706Y-7543508D02*
X3048753Y-7533984D01*
X3048753Y-7533984D02*
X3086848Y-7533984D01*
X3086848Y-7533984D02*
X3105896Y-7543508D01*
X3105896Y-7543508D02*
X3115420Y-7553031D01*
X3115420Y-7553031D02*
X3124944Y-7572079D01*
X3124944Y-7572079D02*
X3124944Y-7581603D01*
X3124944Y-7581603D02*
X3115420Y-7600650D01*
X3115420Y-7600650D02*
X3105896Y-7610174D01*
X3105896Y-7610174D02*
X3086848Y-7619698D01*
X3086848Y-7619698D02*
X3048753Y-7619698D01*
X3048753Y-7619698D02*
X3029706Y-7629222D01*
X3029706Y-7629222D02*
X3020182Y-7638746D01*
X3020182Y-7638746D02*
X3010658Y-7657793D01*
X3010658Y-7657793D02*
X3010658Y-7695888D01*
X3010658Y-7695888D02*
X3020182Y-7714936D01*
X3020182Y-7714936D02*
X3029706Y-7724460D01*
X3029706Y-7724460D02*
X3048753Y-7733984D01*
X3048753Y-7733984D02*
X3086848Y-7733984D01*
X3086848Y-7733984D02*
X3105896Y-7724460D01*
X3105896Y-7724460D02*
X3115420Y-7714936D01*
X3115420Y-7714936D02*
X3124944Y-7695888D01*
X3124944Y-7695888D02*
X3124944Y-7657793D01*
X3124944Y-7657793D02*
X3115420Y-7638746D01*
X3115420Y-7638746D02*
X3105896Y-7629222D01*
X3105896Y-7629222D02*
X3086848Y-7619698D01*
X3201134Y-7533984D02*
X3201134Y-7572079D01*
X3277325Y-7533984D02*
X3277325Y-7572079D01*
X3572563Y-7810174D02*
X3563039Y-7800650D01*
X3563039Y-7800650D02*
X3543991Y-7772079D01*
X3543991Y-7772079D02*
X3534468Y-7753031D01*
X3534468Y-7753031D02*
X3524944Y-7724460D01*
X3524944Y-7724460D02*
X3515420Y-7676841D01*
X3515420Y-7676841D02*
X3515420Y-7638746D01*
X3515420Y-7638746D02*
X3524944Y-7591127D01*
X3524944Y-7591127D02*
X3534468Y-7562555D01*
X3534468Y-7562555D02*
X3543991Y-7543508D01*
X3543991Y-7543508D02*
X3563039Y-7514936D01*
X3563039Y-7514936D02*
X3572563Y-7505412D01*
X3639229Y-7553031D02*
X3648753Y-7543508D01*
X3648753Y-7543508D02*
X3667801Y-7533984D01*
X3667801Y-7533984D02*
X3715420Y-7533984D01*
X3715420Y-7533984D02*
X3734468Y-7543508D01*
X3734468Y-7543508D02*
X3743991Y-7553031D01*
X3743991Y-7553031D02*
X3753515Y-7572079D01*
X3753515Y-7572079D02*
X3753515Y-7591127D01*
X3753515Y-7591127D02*
X3743991Y-7619698D01*
X3743991Y-7619698D02*
X3629706Y-7733984D01*
X3629706Y-7733984D02*
X3753515Y-7733984D01*
X3877325Y-7533984D02*
X3896372Y-7533984D01*
X3896372Y-7533984D02*
X3915420Y-7543508D01*
X3915420Y-7543508D02*
X3924944Y-7553031D01*
X3924944Y-7553031D02*
X3934468Y-7572079D01*
X3934468Y-7572079D02*
X3943991Y-7610174D01*
X3943991Y-7610174D02*
X3943991Y-7657793D01*
X3943991Y-7657793D02*
X3934468Y-7695888D01*
X3934468Y-7695888D02*
X3924944Y-7714936D01*
X3924944Y-7714936D02*
X3915420Y-7724460D01*
X3915420Y-7724460D02*
X3896372Y-7733984D01*
X3896372Y-7733984D02*
X3877325Y-7733984D01*
X3877325Y-7733984D02*
X3858277Y-7724460D01*
X3858277Y-7724460D02*
X3848753Y-7714936D01*
X3848753Y-7714936D02*
X3839229Y-7695888D01*
X3839229Y-7695888D02*
X3829706Y-7657793D01*
X3829706Y-7657793D02*
X3829706Y-7610174D01*
X3829706Y-7610174D02*
X3839229Y-7572079D01*
X3839229Y-7572079D02*
X3848753Y-7553031D01*
X3848753Y-7553031D02*
X3858277Y-7543508D01*
X3858277Y-7543508D02*
X3877325Y-7533984D01*
X4182087Y-7733984D02*
X4182087Y-7533984D01*
X4267801Y-7733984D02*
X4267801Y-7629222D01*
X4267801Y-7629222D02*
X4258277Y-7610174D01*
X4258277Y-7610174D02*
X4239230Y-7600650D01*
X4239230Y-7600650D02*
X4210658Y-7600650D01*
X4210658Y-7600650D02*
X4191610Y-7610174D01*
X4191610Y-7610174D02*
X4182087Y-7619698D01*
X4391611Y-7733984D02*
X4372563Y-7724460D01*
X4372563Y-7724460D02*
X4363039Y-7714936D01*
X4363039Y-7714936D02*
X4353515Y-7695888D01*
X4353515Y-7695888D02*
X4353515Y-7638746D01*
X4353515Y-7638746D02*
X4363039Y-7619698D01*
X4363039Y-7619698D02*
X4372563Y-7610174D01*
X4372563Y-7610174D02*
X4391611Y-7600650D01*
X4391611Y-7600650D02*
X4420182Y-7600650D01*
X4420182Y-7600650D02*
X4439230Y-7610174D01*
X4439230Y-7610174D02*
X4448753Y-7619698D01*
X4448753Y-7619698D02*
X4458277Y-7638746D01*
X4458277Y-7638746D02*
X4458277Y-7695888D01*
X4458277Y-7695888D02*
X4448753Y-7714936D01*
X4448753Y-7714936D02*
X4439230Y-7724460D01*
X4439230Y-7724460D02*
X4420182Y-7733984D01*
X4420182Y-7733984D02*
X4391611Y-7733984D01*
X4572563Y-7733984D02*
X4553515Y-7724460D01*
X4553515Y-7724460D02*
X4543992Y-7705412D01*
X4543992Y-7705412D02*
X4543992Y-7533984D01*
X4724944Y-7724460D02*
X4705896Y-7733984D01*
X4705896Y-7733984D02*
X4667801Y-7733984D01*
X4667801Y-7733984D02*
X4648753Y-7724460D01*
X4648753Y-7724460D02*
X4639230Y-7705412D01*
X4639230Y-7705412D02*
X4639230Y-7629222D01*
X4639230Y-7629222D02*
X4648753Y-7610174D01*
X4648753Y-7610174D02*
X4667801Y-7600650D01*
X4667801Y-7600650D02*
X4705896Y-7600650D01*
X4705896Y-7600650D02*
X4724944Y-7610174D01*
X4724944Y-7610174D02*
X4734468Y-7629222D01*
X4734468Y-7629222D02*
X4734468Y-7648269D01*
X4734468Y-7648269D02*
X4639230Y-7667317D01*
X4810658Y-7724460D02*
X4829706Y-7733984D01*
X4829706Y-7733984D02*
X4867801Y-7733984D01*
X4867801Y-7733984D02*
X4886849Y-7724460D01*
X4886849Y-7724460D02*
X4896373Y-7705412D01*
X4896373Y-7705412D02*
X4896373Y-7695888D01*
X4896373Y-7695888D02*
X4886849Y-7676841D01*
X4886849Y-7676841D02*
X4867801Y-7667317D01*
X4867801Y-7667317D02*
X4839230Y-7667317D01*
X4839230Y-7667317D02*
X4820182Y-7657793D01*
X4820182Y-7657793D02*
X4810658Y-7638746D01*
X4810658Y-7638746D02*
X4810658Y-7629222D01*
X4810658Y-7629222D02*
X4820182Y-7610174D01*
X4820182Y-7610174D02*
X4839230Y-7600650D01*
X4839230Y-7600650D02*
X4867801Y-7600650D01*
X4867801Y-7600650D02*
X4886849Y-7610174D01*
X4963039Y-7810174D02*
X4972563Y-7800650D01*
X4972563Y-7800650D02*
X4991611Y-7772079D01*
X4991611Y-7772079D02*
X5001134Y-7753031D01*
X5001134Y-7753031D02*
X5010658Y-7724460D01*
X5010658Y-7724460D02*
X5020182Y-7676841D01*
X5020182Y-7676841D02*
X5020182Y-7638746D01*
X5020182Y-7638746D02*
X5010658Y-7591127D01*
X5010658Y-7591127D02*
X5001134Y-7562555D01*
X5001134Y-7562555D02*
X4991611Y-7543508D01*
X4991611Y-7543508D02*
X4972563Y-7514936D01*
X4972563Y-7514936D02*
X4963039Y-7505412D01*
D12*
X-2500Y-7906500D02*
G75*
G02*
X-62500Y-7906500I-30000J0D01*
G01*
X-62500Y-7906500D02*
G75*
G02*
X-2500Y-7906500I30000J0D01*
G01*
D11*
X296372Y-7797984D02*
X315420Y-7797984D01*
X315420Y-7797984D02*
X334467Y-7807508D01*
X334467Y-7807508D02*
X343991Y-7817031D01*
X343991Y-7817031D02*
X353515Y-7836079D01*
X353515Y-7836079D02*
X363039Y-7874174D01*
X363039Y-7874174D02*
X363039Y-7921793D01*
X363039Y-7921793D02*
X353515Y-7959888D01*
X353515Y-7959888D02*
X343991Y-7978936D01*
X343991Y-7978936D02*
X334467Y-7988460D01*
X334467Y-7988460D02*
X315420Y-7997984D01*
X315420Y-7997984D02*
X296372Y-7997984D01*
X296372Y-7997984D02*
X277324Y-7988460D01*
X277324Y-7988460D02*
X267801Y-7978936D01*
X267801Y-7978936D02*
X258277Y-7959888D01*
X258277Y-7959888D02*
X248753Y-7921793D01*
X248753Y-7921793D02*
X248753Y-7874174D01*
X248753Y-7874174D02*
X258277Y-7836079D01*
X258277Y-7836079D02*
X267801Y-7817031D01*
X267801Y-7817031D02*
X277324Y-7807508D01*
X277324Y-7807508D02*
X296372Y-7797984D01*
X448753Y-7978936D02*
X458277Y-7988460D01*
X458277Y-7988460D02*
X448753Y-7997984D01*
X448753Y-7997984D02*
X439229Y-7988460D01*
X439229Y-7988460D02*
X448753Y-7978936D01*
X448753Y-7978936D02*
X448753Y-7997984D01*
X629705Y-7797984D02*
X591610Y-7797984D01*
X591610Y-7797984D02*
X572563Y-7807508D01*
X572563Y-7807508D02*
X563039Y-7817031D01*
X563039Y-7817031D02*
X543991Y-7845603D01*
X543991Y-7845603D02*
X534467Y-7883698D01*
X534467Y-7883698D02*
X534467Y-7959888D01*
X534467Y-7959888D02*
X543991Y-7978936D01*
X543991Y-7978936D02*
X553515Y-7988460D01*
X553515Y-7988460D02*
X572563Y-7997984D01*
X572563Y-7997984D02*
X610658Y-7997984D01*
X610658Y-7997984D02*
X629705Y-7988460D01*
X629705Y-7988460D02*
X639229Y-7978936D01*
X639229Y-7978936D02*
X648753Y-7959888D01*
X648753Y-7959888D02*
X648753Y-7912269D01*
X648753Y-7912269D02*
X639229Y-7893222D01*
X639229Y-7893222D02*
X629705Y-7883698D01*
X629705Y-7883698D02*
X610658Y-7874174D01*
X610658Y-7874174D02*
X572563Y-7874174D01*
X572563Y-7874174D02*
X553515Y-7883698D01*
X553515Y-7883698D02*
X543991Y-7893222D01*
X543991Y-7893222D02*
X534467Y-7912269D01*
X772562Y-7797984D02*
X791610Y-7797984D01*
X791610Y-7797984D02*
X810658Y-7807508D01*
X810658Y-7807508D02*
X820182Y-7817031D01*
X820182Y-7817031D02*
X829705Y-7836079D01*
X829705Y-7836079D02*
X839229Y-7874174D01*
X839229Y-7874174D02*
X839229Y-7921793D01*
X839229Y-7921793D02*
X829705Y-7959888D01*
X829705Y-7959888D02*
X820182Y-7978936D01*
X820182Y-7978936D02*
X810658Y-7988460D01*
X810658Y-7988460D02*
X791610Y-7997984D01*
X791610Y-7997984D02*
X772562Y-7997984D01*
X772562Y-7997984D02*
X753515Y-7988460D01*
X753515Y-7988460D02*
X743991Y-7978936D01*
X743991Y-7978936D02*
X734467Y-7959888D01*
X734467Y-7959888D02*
X724943Y-7921793D01*
X724943Y-7921793D02*
X724943Y-7874174D01*
X724943Y-7874174D02*
X734467Y-7836079D01*
X734467Y-7836079D02*
X743991Y-7817031D01*
X743991Y-7817031D02*
X753515Y-7807508D01*
X753515Y-7807508D02*
X772562Y-7797984D01*
X963039Y-7797984D02*
X982086Y-7797984D01*
X982086Y-7797984D02*
X1001134Y-7807508D01*
X1001134Y-7807508D02*
X1010658Y-7817031D01*
X1010658Y-7817031D02*
X1020182Y-7836079D01*
X1020182Y-7836079D02*
X1029705Y-7874174D01*
X1029705Y-7874174D02*
X1029705Y-7921793D01*
X1029705Y-7921793D02*
X1020182Y-7959888D01*
X1020182Y-7959888D02*
X1010658Y-7978936D01*
X1010658Y-7978936D02*
X1001134Y-7988460D01*
X1001134Y-7988460D02*
X982086Y-7997984D01*
X982086Y-7997984D02*
X963039Y-7997984D01*
X963039Y-7997984D02*
X943991Y-7988460D01*
X943991Y-7988460D02*
X934467Y-7978936D01*
X934467Y-7978936D02*
X924943Y-7959888D01*
X924943Y-7959888D02*
X915420Y-7921793D01*
X915420Y-7921793D02*
X915420Y-7874174D01*
X915420Y-7874174D02*
X924943Y-7836079D01*
X924943Y-7836079D02*
X934467Y-7817031D01*
X934467Y-7817031D02*
X943991Y-7807508D01*
X943991Y-7807508D02*
X963039Y-7797984D01*
X1115420Y-7997984D02*
X1115420Y-7864650D01*
X1115420Y-7883698D02*
X1124944Y-7874174D01*
X1124944Y-7874174D02*
X1143991Y-7864650D01*
X1143991Y-7864650D02*
X1172563Y-7864650D01*
X1172563Y-7864650D02*
X1191610Y-7874174D01*
X1191610Y-7874174D02*
X1201134Y-7893222D01*
X1201134Y-7893222D02*
X1201134Y-7997984D01*
X1201134Y-7893222D02*
X1210658Y-7874174D01*
X1210658Y-7874174D02*
X1229705Y-7864650D01*
X1229705Y-7864650D02*
X1258277Y-7864650D01*
X1258277Y-7864650D02*
X1277325Y-7874174D01*
X1277325Y-7874174D02*
X1286848Y-7893222D01*
X1286848Y-7893222D02*
X1286848Y-7997984D01*
X1382086Y-7997984D02*
X1382086Y-7864650D01*
X1382086Y-7883698D02*
X1391610Y-7874174D01*
X1391610Y-7874174D02*
X1410658Y-7864650D01*
X1410658Y-7864650D02*
X1439229Y-7864650D01*
X1439229Y-7864650D02*
X1458277Y-7874174D01*
X1458277Y-7874174D02*
X1467801Y-7893222D01*
X1467801Y-7893222D02*
X1467801Y-7997984D01*
X1467801Y-7893222D02*
X1477324Y-7874174D01*
X1477324Y-7874174D02*
X1496372Y-7864650D01*
X1496372Y-7864650D02*
X1524943Y-7864650D01*
X1524943Y-7864650D02*
X1543991Y-7874174D01*
X1543991Y-7874174D02*
X1553515Y-7893222D01*
X1553515Y-7893222D02*
X1553515Y-7997984D01*
X1943991Y-7788460D02*
X1772563Y-8045603D01*
X2201134Y-7797984D02*
X2220182Y-7797984D01*
X2220182Y-7797984D02*
X2239229Y-7807508D01*
X2239229Y-7807508D02*
X2248753Y-7817031D01*
X2248753Y-7817031D02*
X2258277Y-7836079D01*
X2258277Y-7836079D02*
X2267801Y-7874174D01*
X2267801Y-7874174D02*
X2267801Y-7921793D01*
X2267801Y-7921793D02*
X2258277Y-7959888D01*
X2258277Y-7959888D02*
X2248753Y-7978936D01*
X2248753Y-7978936D02*
X2239229Y-7988460D01*
X2239229Y-7988460D02*
X2220182Y-7997984D01*
X2220182Y-7997984D02*
X2201134Y-7997984D01*
X2201134Y-7997984D02*
X2182087Y-7988460D01*
X2182087Y-7988460D02*
X2172563Y-7978936D01*
X2172563Y-7978936D02*
X2163039Y-7959888D01*
X2163039Y-7959888D02*
X2153515Y-7921793D01*
X2153515Y-7921793D02*
X2153515Y-7874174D01*
X2153515Y-7874174D02*
X2163039Y-7836079D01*
X2163039Y-7836079D02*
X2172563Y-7817031D01*
X2172563Y-7817031D02*
X2182087Y-7807508D01*
X2182087Y-7807508D02*
X2201134Y-7797984D01*
X2353515Y-7978936D02*
X2363039Y-7988460D01*
X2363039Y-7988460D02*
X2353515Y-7997984D01*
X2353515Y-7997984D02*
X2343991Y-7988460D01*
X2343991Y-7988460D02*
X2353515Y-7978936D01*
X2353515Y-7978936D02*
X2353515Y-7997984D01*
X2486848Y-7797984D02*
X2505896Y-7797984D01*
X2505896Y-7797984D02*
X2524944Y-7807508D01*
X2524944Y-7807508D02*
X2534468Y-7817031D01*
X2534468Y-7817031D02*
X2543991Y-7836079D01*
X2543991Y-7836079D02*
X2553515Y-7874174D01*
X2553515Y-7874174D02*
X2553515Y-7921793D01*
X2553515Y-7921793D02*
X2543991Y-7959888D01*
X2543991Y-7959888D02*
X2534468Y-7978936D01*
X2534468Y-7978936D02*
X2524944Y-7988460D01*
X2524944Y-7988460D02*
X2505896Y-7997984D01*
X2505896Y-7997984D02*
X2486848Y-7997984D01*
X2486848Y-7997984D02*
X2467801Y-7988460D01*
X2467801Y-7988460D02*
X2458277Y-7978936D01*
X2458277Y-7978936D02*
X2448753Y-7959888D01*
X2448753Y-7959888D02*
X2439229Y-7921793D01*
X2439229Y-7921793D02*
X2439229Y-7874174D01*
X2439229Y-7874174D02*
X2448753Y-7836079D01*
X2448753Y-7836079D02*
X2458277Y-7817031D01*
X2458277Y-7817031D02*
X2467801Y-7807508D01*
X2467801Y-7807508D02*
X2486848Y-7797984D01*
X2629706Y-7817031D02*
X2639229Y-7807508D01*
X2639229Y-7807508D02*
X2658277Y-7797984D01*
X2658277Y-7797984D02*
X2705896Y-7797984D01*
X2705896Y-7797984D02*
X2724944Y-7807508D01*
X2724944Y-7807508D02*
X2734468Y-7817031D01*
X2734468Y-7817031D02*
X2743991Y-7836079D01*
X2743991Y-7836079D02*
X2743991Y-7855127D01*
X2743991Y-7855127D02*
X2734468Y-7883698D01*
X2734468Y-7883698D02*
X2620182Y-7997984D01*
X2620182Y-7997984D02*
X2743991Y-7997984D01*
X2810658Y-7797984D02*
X2934467Y-7797984D01*
X2934467Y-7797984D02*
X2867801Y-7874174D01*
X2867801Y-7874174D02*
X2896372Y-7874174D01*
X2896372Y-7874174D02*
X2915420Y-7883698D01*
X2915420Y-7883698D02*
X2924944Y-7893222D01*
X2924944Y-7893222D02*
X2934467Y-7912269D01*
X2934467Y-7912269D02*
X2934467Y-7959888D01*
X2934467Y-7959888D02*
X2924944Y-7978936D01*
X2924944Y-7978936D02*
X2915420Y-7988460D01*
X2915420Y-7988460D02*
X2896372Y-7997984D01*
X2896372Y-7997984D02*
X2839229Y-7997984D01*
X2839229Y-7997984D02*
X2820182Y-7988460D01*
X2820182Y-7988460D02*
X2810658Y-7978936D01*
X3105896Y-7797984D02*
X3067801Y-7797984D01*
X3067801Y-7797984D02*
X3048753Y-7807508D01*
X3048753Y-7807508D02*
X3039229Y-7817031D01*
X3039229Y-7817031D02*
X3020182Y-7845603D01*
X3020182Y-7845603D02*
X3010658Y-7883698D01*
X3010658Y-7883698D02*
X3010658Y-7959888D01*
X3010658Y-7959888D02*
X3020182Y-7978936D01*
X3020182Y-7978936D02*
X3029706Y-7988460D01*
X3029706Y-7988460D02*
X3048753Y-7997984D01*
X3048753Y-7997984D02*
X3086848Y-7997984D01*
X3086848Y-7997984D02*
X3105896Y-7988460D01*
X3105896Y-7988460D02*
X3115420Y-7978936D01*
X3115420Y-7978936D02*
X3124944Y-7959888D01*
X3124944Y-7959888D02*
X3124944Y-7912269D01*
X3124944Y-7912269D02*
X3115420Y-7893222D01*
X3115420Y-7893222D02*
X3105896Y-7883698D01*
X3105896Y-7883698D02*
X3086848Y-7874174D01*
X3086848Y-7874174D02*
X3048753Y-7874174D01*
X3048753Y-7874174D02*
X3029706Y-7883698D01*
X3029706Y-7883698D02*
X3020182Y-7893222D01*
X3020182Y-7893222D02*
X3010658Y-7912269D01*
X3201134Y-7797984D02*
X3201134Y-7836079D01*
X3277325Y-7797984D02*
X3277325Y-7836079D01*
X3572563Y-8074174D02*
X3563039Y-8064650D01*
X3563039Y-8064650D02*
X3543991Y-8036079D01*
X3543991Y-8036079D02*
X3534468Y-8017031D01*
X3534468Y-8017031D02*
X3524944Y-7988460D01*
X3524944Y-7988460D02*
X3515420Y-7940841D01*
X3515420Y-7940841D02*
X3515420Y-7902746D01*
X3515420Y-7902746D02*
X3524944Y-7855127D01*
X3524944Y-7855127D02*
X3534468Y-7826555D01*
X3534468Y-7826555D02*
X3543991Y-7807508D01*
X3543991Y-7807508D02*
X3563039Y-7778936D01*
X3563039Y-7778936D02*
X3572563Y-7769412D01*
X3734468Y-7864650D02*
X3734468Y-7997984D01*
X3686848Y-7788460D02*
X3639229Y-7931317D01*
X3639229Y-7931317D02*
X3763039Y-7931317D01*
X3820182Y-7797984D02*
X3953515Y-7797984D01*
X3953515Y-7797984D02*
X3867801Y-7997984D01*
X4010658Y-7797984D02*
X4143991Y-7797984D01*
X4143991Y-7797984D02*
X4058277Y-7997984D01*
X4372563Y-7997984D02*
X4372563Y-7797984D01*
X4458277Y-7997984D02*
X4458277Y-7893222D01*
X4458277Y-7893222D02*
X4448753Y-7874174D01*
X4448753Y-7874174D02*
X4429706Y-7864650D01*
X4429706Y-7864650D02*
X4401134Y-7864650D01*
X4401134Y-7864650D02*
X4382087Y-7874174D01*
X4382087Y-7874174D02*
X4372563Y-7883698D01*
X4582087Y-7997984D02*
X4563039Y-7988460D01*
X4563039Y-7988460D02*
X4553515Y-7978936D01*
X4553515Y-7978936D02*
X4543992Y-7959888D01*
X4543992Y-7959888D02*
X4543992Y-7902746D01*
X4543992Y-7902746D02*
X4553515Y-7883698D01*
X4553515Y-7883698D02*
X4563039Y-7874174D01*
X4563039Y-7874174D02*
X4582087Y-7864650D01*
X4582087Y-7864650D02*
X4610658Y-7864650D01*
X4610658Y-7864650D02*
X4629706Y-7874174D01*
X4629706Y-7874174D02*
X4639230Y-7883698D01*
X4639230Y-7883698D02*
X4648753Y-7902746D01*
X4648753Y-7902746D02*
X4648753Y-7959888D01*
X4648753Y-7959888D02*
X4639230Y-7978936D01*
X4639230Y-7978936D02*
X4629706Y-7988460D01*
X4629706Y-7988460D02*
X4610658Y-7997984D01*
X4610658Y-7997984D02*
X4582087Y-7997984D01*
X4763039Y-7997984D02*
X4743992Y-7988460D01*
X4743992Y-7988460D02*
X4734468Y-7969412D01*
X4734468Y-7969412D02*
X4734468Y-7797984D01*
X4915420Y-7988460D02*
X4896373Y-7997984D01*
X4896373Y-7997984D02*
X4858277Y-7997984D01*
X4858277Y-7997984D02*
X4839230Y-7988460D01*
X4839230Y-7988460D02*
X4829706Y-7969412D01*
X4829706Y-7969412D02*
X4829706Y-7893222D01*
X4829706Y-7893222D02*
X4839230Y-7874174D01*
X4839230Y-7874174D02*
X4858277Y-7864650D01*
X4858277Y-7864650D02*
X4896373Y-7864650D01*
X4896373Y-7864650D02*
X4915420Y-7874174D01*
X4915420Y-7874174D02*
X4924944Y-7893222D01*
X4924944Y-7893222D02*
X4924944Y-7912269D01*
X4924944Y-7912269D02*
X4829706Y-7931317D01*
X5001134Y-7988460D02*
X5020182Y-7997984D01*
X5020182Y-7997984D02*
X5058277Y-7997984D01*
X5058277Y-7997984D02*
X5077325Y-7988460D01*
X5077325Y-7988460D02*
X5086849Y-7969412D01*
X5086849Y-7969412D02*
X5086849Y-7959888D01*
X5086849Y-7959888D02*
X5077325Y-7940841D01*
X5077325Y-7940841D02*
X5058277Y-7931317D01*
X5058277Y-7931317D02*
X5029706Y-7931317D01*
X5029706Y-7931317D02*
X5010658Y-7921793D01*
X5010658Y-7921793D02*
X5001134Y-7902746D01*
X5001134Y-7902746D02*
X5001134Y-7893222D01*
X5001134Y-7893222D02*
X5010658Y-7874174D01*
X5010658Y-7874174D02*
X5029706Y-7864650D01*
X5029706Y-7864650D02*
X5058277Y-7864650D01*
X5058277Y-7864650D02*
X5077325Y-7874174D01*
X5153515Y-8074174D02*
X5163039Y-8064650D01*
X5163039Y-8064650D02*
X5182087Y-8036079D01*
X5182087Y-8036079D02*
X5191611Y-8017031D01*
X5191611Y-8017031D02*
X5201134Y-7988460D01*
X5201134Y-7988460D02*
X5210658Y-7940841D01*
X5210658Y-7940841D02*
X5210658Y-7902746D01*
X5210658Y-7902746D02*
X5201134Y-7855127D01*
X5201134Y-7855127D02*
X5191611Y-7826555D01*
X5191611Y-7826555D02*
X5182087Y-7807508D01*
X5182087Y-7807508D02*
X5163039Y-7778936D01*
X5163039Y-7778936D02*
X5153515Y-7769412D01*
D12*
X-52500Y-8120500D02*
X-52500Y-8220500D01*
X-102500Y-8170500D02*
X-2500Y-8170500D01*
D11*
X363039Y-8261984D02*
X248753Y-8261984D01*
X305896Y-8261984D02*
X305896Y-8061984D01*
X305896Y-8061984D02*
X286848Y-8090555D01*
X286848Y-8090555D02*
X267801Y-8109603D01*
X267801Y-8109603D02*
X248753Y-8119127D01*
X448753Y-8242936D02*
X458277Y-8252460D01*
X458277Y-8252460D02*
X448753Y-8261984D01*
X448753Y-8261984D02*
X439229Y-8252460D01*
X439229Y-8252460D02*
X448753Y-8242936D01*
X448753Y-8242936D02*
X448753Y-8261984D01*
X582086Y-8061984D02*
X601134Y-8061984D01*
X601134Y-8061984D02*
X620182Y-8071508D01*
X620182Y-8071508D02*
X629705Y-8081031D01*
X629705Y-8081031D02*
X639229Y-8100079D01*
X639229Y-8100079D02*
X648753Y-8138174D01*
X648753Y-8138174D02*
X648753Y-8185793D01*
X648753Y-8185793D02*
X639229Y-8223888D01*
X639229Y-8223888D02*
X629705Y-8242936D01*
X629705Y-8242936D02*
X620182Y-8252460D01*
X620182Y-8252460D02*
X601134Y-8261984D01*
X601134Y-8261984D02*
X582086Y-8261984D01*
X582086Y-8261984D02*
X563039Y-8252460D01*
X563039Y-8252460D02*
X553515Y-8242936D01*
X553515Y-8242936D02*
X543991Y-8223888D01*
X543991Y-8223888D02*
X534467Y-8185793D01*
X534467Y-8185793D02*
X534467Y-8138174D01*
X534467Y-8138174D02*
X543991Y-8100079D01*
X543991Y-8100079D02*
X553515Y-8081031D01*
X553515Y-8081031D02*
X563039Y-8071508D01*
X563039Y-8071508D02*
X582086Y-8061984D01*
X772562Y-8061984D02*
X791610Y-8061984D01*
X791610Y-8061984D02*
X810658Y-8071508D01*
X810658Y-8071508D02*
X820182Y-8081031D01*
X820182Y-8081031D02*
X829705Y-8100079D01*
X829705Y-8100079D02*
X839229Y-8138174D01*
X839229Y-8138174D02*
X839229Y-8185793D01*
X839229Y-8185793D02*
X829705Y-8223888D01*
X829705Y-8223888D02*
X820182Y-8242936D01*
X820182Y-8242936D02*
X810658Y-8252460D01*
X810658Y-8252460D02*
X791610Y-8261984D01*
X791610Y-8261984D02*
X772562Y-8261984D01*
X772562Y-8261984D02*
X753515Y-8252460D01*
X753515Y-8252460D02*
X743991Y-8242936D01*
X743991Y-8242936D02*
X734467Y-8223888D01*
X734467Y-8223888D02*
X724943Y-8185793D01*
X724943Y-8185793D02*
X724943Y-8138174D01*
X724943Y-8138174D02*
X734467Y-8100079D01*
X734467Y-8100079D02*
X743991Y-8081031D01*
X743991Y-8081031D02*
X753515Y-8071508D01*
X753515Y-8071508D02*
X772562Y-8061984D01*
X963039Y-8061984D02*
X982086Y-8061984D01*
X982086Y-8061984D02*
X1001134Y-8071508D01*
X1001134Y-8071508D02*
X1010658Y-8081031D01*
X1010658Y-8081031D02*
X1020182Y-8100079D01*
X1020182Y-8100079D02*
X1029705Y-8138174D01*
X1029705Y-8138174D02*
X1029705Y-8185793D01*
X1029705Y-8185793D02*
X1020182Y-8223888D01*
X1020182Y-8223888D02*
X1010658Y-8242936D01*
X1010658Y-8242936D02*
X1001134Y-8252460D01*
X1001134Y-8252460D02*
X982086Y-8261984D01*
X982086Y-8261984D02*
X963039Y-8261984D01*
X963039Y-8261984D02*
X943991Y-8252460D01*
X943991Y-8252460D02*
X934467Y-8242936D01*
X934467Y-8242936D02*
X924943Y-8223888D01*
X924943Y-8223888D02*
X915420Y-8185793D01*
X915420Y-8185793D02*
X915420Y-8138174D01*
X915420Y-8138174D02*
X924943Y-8100079D01*
X924943Y-8100079D02*
X934467Y-8081031D01*
X934467Y-8081031D02*
X943991Y-8071508D01*
X943991Y-8071508D02*
X963039Y-8061984D01*
X1115420Y-8261984D02*
X1115420Y-8128650D01*
X1115420Y-8147698D02*
X1124944Y-8138174D01*
X1124944Y-8138174D02*
X1143991Y-8128650D01*
X1143991Y-8128650D02*
X1172563Y-8128650D01*
X1172563Y-8128650D02*
X1191610Y-8138174D01*
X1191610Y-8138174D02*
X1201134Y-8157222D01*
X1201134Y-8157222D02*
X1201134Y-8261984D01*
X1201134Y-8157222D02*
X1210658Y-8138174D01*
X1210658Y-8138174D02*
X1229705Y-8128650D01*
X1229705Y-8128650D02*
X1258277Y-8128650D01*
X1258277Y-8128650D02*
X1277325Y-8138174D01*
X1277325Y-8138174D02*
X1286848Y-8157222D01*
X1286848Y-8157222D02*
X1286848Y-8261984D01*
X1382086Y-8261984D02*
X1382086Y-8128650D01*
X1382086Y-8147698D02*
X1391610Y-8138174D01*
X1391610Y-8138174D02*
X1410658Y-8128650D01*
X1410658Y-8128650D02*
X1439229Y-8128650D01*
X1439229Y-8128650D02*
X1458277Y-8138174D01*
X1458277Y-8138174D02*
X1467801Y-8157222D01*
X1467801Y-8157222D02*
X1467801Y-8261984D01*
X1467801Y-8157222D02*
X1477324Y-8138174D01*
X1477324Y-8138174D02*
X1496372Y-8128650D01*
X1496372Y-8128650D02*
X1524943Y-8128650D01*
X1524943Y-8128650D02*
X1543991Y-8138174D01*
X1543991Y-8138174D02*
X1553515Y-8157222D01*
X1553515Y-8157222D02*
X1553515Y-8261984D01*
X1943991Y-8052460D02*
X1772563Y-8309603D01*
X2201134Y-8061984D02*
X2220182Y-8061984D01*
X2220182Y-8061984D02*
X2239229Y-8071508D01*
X2239229Y-8071508D02*
X2248753Y-8081031D01*
X2248753Y-8081031D02*
X2258277Y-8100079D01*
X2258277Y-8100079D02*
X2267801Y-8138174D01*
X2267801Y-8138174D02*
X2267801Y-8185793D01*
X2267801Y-8185793D02*
X2258277Y-8223888D01*
X2258277Y-8223888D02*
X2248753Y-8242936D01*
X2248753Y-8242936D02*
X2239229Y-8252460D01*
X2239229Y-8252460D02*
X2220182Y-8261984D01*
X2220182Y-8261984D02*
X2201134Y-8261984D01*
X2201134Y-8261984D02*
X2182087Y-8252460D01*
X2182087Y-8252460D02*
X2172563Y-8242936D01*
X2172563Y-8242936D02*
X2163039Y-8223888D01*
X2163039Y-8223888D02*
X2153515Y-8185793D01*
X2153515Y-8185793D02*
X2153515Y-8138174D01*
X2153515Y-8138174D02*
X2163039Y-8100079D01*
X2163039Y-8100079D02*
X2172563Y-8081031D01*
X2172563Y-8081031D02*
X2182087Y-8071508D01*
X2182087Y-8071508D02*
X2201134Y-8061984D01*
X2353515Y-8242936D02*
X2363039Y-8252460D01*
X2363039Y-8252460D02*
X2353515Y-8261984D01*
X2353515Y-8261984D02*
X2343991Y-8252460D01*
X2343991Y-8252460D02*
X2353515Y-8242936D01*
X2353515Y-8242936D02*
X2353515Y-8261984D01*
X2486848Y-8061984D02*
X2505896Y-8061984D01*
X2505896Y-8061984D02*
X2524944Y-8071508D01*
X2524944Y-8071508D02*
X2534468Y-8081031D01*
X2534468Y-8081031D02*
X2543991Y-8100079D01*
X2543991Y-8100079D02*
X2553515Y-8138174D01*
X2553515Y-8138174D02*
X2553515Y-8185793D01*
X2553515Y-8185793D02*
X2543991Y-8223888D01*
X2543991Y-8223888D02*
X2534468Y-8242936D01*
X2534468Y-8242936D02*
X2524944Y-8252460D01*
X2524944Y-8252460D02*
X2505896Y-8261984D01*
X2505896Y-8261984D02*
X2486848Y-8261984D01*
X2486848Y-8261984D02*
X2467801Y-8252460D01*
X2467801Y-8252460D02*
X2458277Y-8242936D01*
X2458277Y-8242936D02*
X2448753Y-8223888D01*
X2448753Y-8223888D02*
X2439229Y-8185793D01*
X2439229Y-8185793D02*
X2439229Y-8138174D01*
X2439229Y-8138174D02*
X2448753Y-8100079D01*
X2448753Y-8100079D02*
X2458277Y-8081031D01*
X2458277Y-8081031D02*
X2467801Y-8071508D01*
X2467801Y-8071508D02*
X2486848Y-8061984D01*
X2620182Y-8061984D02*
X2743991Y-8061984D01*
X2743991Y-8061984D02*
X2677325Y-8138174D01*
X2677325Y-8138174D02*
X2705896Y-8138174D01*
X2705896Y-8138174D02*
X2724944Y-8147698D01*
X2724944Y-8147698D02*
X2734468Y-8157222D01*
X2734468Y-8157222D02*
X2743991Y-8176269D01*
X2743991Y-8176269D02*
X2743991Y-8223888D01*
X2743991Y-8223888D02*
X2734468Y-8242936D01*
X2734468Y-8242936D02*
X2724944Y-8252460D01*
X2724944Y-8252460D02*
X2705896Y-8261984D01*
X2705896Y-8261984D02*
X2648753Y-8261984D01*
X2648753Y-8261984D02*
X2629706Y-8252460D01*
X2629706Y-8252460D02*
X2620182Y-8242936D01*
X2839229Y-8261984D02*
X2877325Y-8261984D01*
X2877325Y-8261984D02*
X2896372Y-8252460D01*
X2896372Y-8252460D02*
X2905896Y-8242936D01*
X2905896Y-8242936D02*
X2924944Y-8214365D01*
X2924944Y-8214365D02*
X2934467Y-8176269D01*
X2934467Y-8176269D02*
X2934467Y-8100079D01*
X2934467Y-8100079D02*
X2924944Y-8081031D01*
X2924944Y-8081031D02*
X2915420Y-8071508D01*
X2915420Y-8071508D02*
X2896372Y-8061984D01*
X2896372Y-8061984D02*
X2858277Y-8061984D01*
X2858277Y-8061984D02*
X2839229Y-8071508D01*
X2839229Y-8071508D02*
X2829706Y-8081031D01*
X2829706Y-8081031D02*
X2820182Y-8100079D01*
X2820182Y-8100079D02*
X2820182Y-8147698D01*
X2820182Y-8147698D02*
X2829706Y-8166746D01*
X2829706Y-8166746D02*
X2839229Y-8176269D01*
X2839229Y-8176269D02*
X2858277Y-8185793D01*
X2858277Y-8185793D02*
X2896372Y-8185793D01*
X2896372Y-8185793D02*
X2915420Y-8176269D01*
X2915420Y-8176269D02*
X2924944Y-8166746D01*
X2924944Y-8166746D02*
X2934467Y-8147698D01*
X3105896Y-8128650D02*
X3105896Y-8261984D01*
X3058277Y-8052460D02*
X3010658Y-8195317D01*
X3010658Y-8195317D02*
X3134467Y-8195317D01*
X3201134Y-8061984D02*
X3201134Y-8100079D01*
X3277325Y-8061984D02*
X3277325Y-8100079D01*
X3572563Y-8338174D02*
X3563039Y-8328650D01*
X3563039Y-8328650D02*
X3543991Y-8300079D01*
X3543991Y-8300079D02*
X3534468Y-8281031D01*
X3534468Y-8281031D02*
X3524944Y-8252460D01*
X3524944Y-8252460D02*
X3515420Y-8204841D01*
X3515420Y-8204841D02*
X3515420Y-8166746D01*
X3515420Y-8166746D02*
X3524944Y-8119127D01*
X3524944Y-8119127D02*
X3534468Y-8090555D01*
X3534468Y-8090555D02*
X3543991Y-8071508D01*
X3543991Y-8071508D02*
X3563039Y-8042936D01*
X3563039Y-8042936D02*
X3572563Y-8033412D01*
X3734468Y-8128650D02*
X3734468Y-8261984D01*
X3686848Y-8052460D02*
X3639229Y-8195317D01*
X3639229Y-8195317D02*
X3763039Y-8195317D01*
X3924944Y-8128650D02*
X3924944Y-8261984D01*
X3877325Y-8052460D02*
X3829706Y-8195317D01*
X3829706Y-8195317D02*
X3953515Y-8195317D01*
X4182087Y-8261984D02*
X4182087Y-8061984D01*
X4267801Y-8261984D02*
X4267801Y-8157222D01*
X4267801Y-8157222D02*
X4258277Y-8138174D01*
X4258277Y-8138174D02*
X4239230Y-8128650D01*
X4239230Y-8128650D02*
X4210658Y-8128650D01*
X4210658Y-8128650D02*
X4191610Y-8138174D01*
X4191610Y-8138174D02*
X4182087Y-8147698D01*
X4391611Y-8261984D02*
X4372563Y-8252460D01*
X4372563Y-8252460D02*
X4363039Y-8242936D01*
X4363039Y-8242936D02*
X4353515Y-8223888D01*
X4353515Y-8223888D02*
X4353515Y-8166746D01*
X4353515Y-8166746D02*
X4363039Y-8147698D01*
X4363039Y-8147698D02*
X4372563Y-8138174D01*
X4372563Y-8138174D02*
X4391611Y-8128650D01*
X4391611Y-8128650D02*
X4420182Y-8128650D01*
X4420182Y-8128650D02*
X4439230Y-8138174D01*
X4439230Y-8138174D02*
X4448753Y-8147698D01*
X4448753Y-8147698D02*
X4458277Y-8166746D01*
X4458277Y-8166746D02*
X4458277Y-8223888D01*
X4458277Y-8223888D02*
X4448753Y-8242936D01*
X4448753Y-8242936D02*
X4439230Y-8252460D01*
X4439230Y-8252460D02*
X4420182Y-8261984D01*
X4420182Y-8261984D02*
X4391611Y-8261984D01*
X4572563Y-8261984D02*
X4553515Y-8252460D01*
X4553515Y-8252460D02*
X4543992Y-8233412D01*
X4543992Y-8233412D02*
X4543992Y-8061984D01*
X4724944Y-8252460D02*
X4705896Y-8261984D01*
X4705896Y-8261984D02*
X4667801Y-8261984D01*
X4667801Y-8261984D02*
X4648753Y-8252460D01*
X4648753Y-8252460D02*
X4639230Y-8233412D01*
X4639230Y-8233412D02*
X4639230Y-8157222D01*
X4639230Y-8157222D02*
X4648753Y-8138174D01*
X4648753Y-8138174D02*
X4667801Y-8128650D01*
X4667801Y-8128650D02*
X4705896Y-8128650D01*
X4705896Y-8128650D02*
X4724944Y-8138174D01*
X4724944Y-8138174D02*
X4734468Y-8157222D01*
X4734468Y-8157222D02*
X4734468Y-8176269D01*
X4734468Y-8176269D02*
X4639230Y-8195317D01*
X4810658Y-8252460D02*
X4829706Y-8261984D01*
X4829706Y-8261984D02*
X4867801Y-8261984D01*
X4867801Y-8261984D02*
X4886849Y-8252460D01*
X4886849Y-8252460D02*
X4896373Y-8233412D01*
X4896373Y-8233412D02*
X4896373Y-8223888D01*
X4896373Y-8223888D02*
X4886849Y-8204841D01*
X4886849Y-8204841D02*
X4867801Y-8195317D01*
X4867801Y-8195317D02*
X4839230Y-8195317D01*
X4839230Y-8195317D02*
X4820182Y-8185793D01*
X4820182Y-8185793D02*
X4810658Y-8166746D01*
X4810658Y-8166746D02*
X4810658Y-8157222D01*
X4810658Y-8157222D02*
X4820182Y-8138174D01*
X4820182Y-8138174D02*
X4839230Y-8128650D01*
X4839230Y-8128650D02*
X4867801Y-8128650D01*
X4867801Y-8128650D02*
X4886849Y-8138174D01*
X4963039Y-8338174D02*
X4972563Y-8328650D01*
X4972563Y-8328650D02*
X4991611Y-8300079D01*
X4991611Y-8300079D02*
X5001134Y-8281031D01*
X5001134Y-8281031D02*
X5010658Y-8252460D01*
X5010658Y-8252460D02*
X5020182Y-8204841D01*
X5020182Y-8204841D02*
X5020182Y-8166746D01*
X5020182Y-8166746D02*
X5010658Y-8119127D01*
X5010658Y-8119127D02*
X5001134Y-8090555D01*
X5001134Y-8090555D02*
X4991611Y-8071508D01*
X4991611Y-8071508D02*
X4972563Y-8042936D01*
X4972563Y-8042936D02*
X4963039Y-8033412D01*
X-31789Y-8505211D02*
X-31789Y-8363789D01*
X-173211Y-8363789D01*
X-173211Y-8505211D01*
X-31789Y-8505211D01*
X239229Y-8325984D02*
X363039Y-8325984D01*
X363039Y-8325984D02*
X296372Y-8402174D01*
X296372Y-8402174D02*
X324944Y-8402174D01*
X324944Y-8402174D02*
X343991Y-8411698D01*
X343991Y-8411698D02*
X353515Y-8421222D01*
X353515Y-8421222D02*
X363039Y-8440270D01*
X363039Y-8440270D02*
X363039Y-8487889D01*
X363039Y-8487889D02*
X353515Y-8506936D01*
X353515Y-8506936D02*
X343991Y-8516460D01*
X343991Y-8516460D02*
X324944Y-8525984D01*
X324944Y-8525984D02*
X267801Y-8525984D01*
X267801Y-8525984D02*
X248753Y-8516460D01*
X248753Y-8516460D02*
X239229Y-8506936D01*
X448753Y-8506936D02*
X458277Y-8516460D01*
X458277Y-8516460D02*
X448753Y-8525984D01*
X448753Y-8525984D02*
X439229Y-8516460D01*
X439229Y-8516460D02*
X448753Y-8506936D01*
X448753Y-8506936D02*
X448753Y-8525984D01*
X534467Y-8345031D02*
X543991Y-8335508D01*
X543991Y-8335508D02*
X563039Y-8325984D01*
X563039Y-8325984D02*
X610658Y-8325984D01*
X610658Y-8325984D02*
X629705Y-8335508D01*
X629705Y-8335508D02*
X639229Y-8345031D01*
X639229Y-8345031D02*
X648753Y-8364079D01*
X648753Y-8364079D02*
X648753Y-8383127D01*
X648753Y-8383127D02*
X639229Y-8411698D01*
X639229Y-8411698D02*
X524944Y-8525984D01*
X524944Y-8525984D02*
X648753Y-8525984D01*
X772562Y-8325984D02*
X791610Y-8325984D01*
X791610Y-8325984D02*
X810658Y-8335508D01*
X810658Y-8335508D02*
X820182Y-8345031D01*
X820182Y-8345031D02*
X829705Y-8364079D01*
X829705Y-8364079D02*
X839229Y-8402174D01*
X839229Y-8402174D02*
X839229Y-8449793D01*
X839229Y-8449793D02*
X829705Y-8487889D01*
X829705Y-8487889D02*
X820182Y-8506936D01*
X820182Y-8506936D02*
X810658Y-8516460D01*
X810658Y-8516460D02*
X791610Y-8525984D01*
X791610Y-8525984D02*
X772562Y-8525984D01*
X772562Y-8525984D02*
X753515Y-8516460D01*
X753515Y-8516460D02*
X743991Y-8506936D01*
X743991Y-8506936D02*
X734467Y-8487889D01*
X734467Y-8487889D02*
X724943Y-8449793D01*
X724943Y-8449793D02*
X724943Y-8402174D01*
X724943Y-8402174D02*
X734467Y-8364079D01*
X734467Y-8364079D02*
X743991Y-8345031D01*
X743991Y-8345031D02*
X753515Y-8335508D01*
X753515Y-8335508D02*
X772562Y-8325984D01*
X963039Y-8325984D02*
X982086Y-8325984D01*
X982086Y-8325984D02*
X1001134Y-8335508D01*
X1001134Y-8335508D02*
X1010658Y-8345031D01*
X1010658Y-8345031D02*
X1020182Y-8364079D01*
X1020182Y-8364079D02*
X1029705Y-8402174D01*
X1029705Y-8402174D02*
X1029705Y-8449793D01*
X1029705Y-8449793D02*
X1020182Y-8487889D01*
X1020182Y-8487889D02*
X1010658Y-8506936D01*
X1010658Y-8506936D02*
X1001134Y-8516460D01*
X1001134Y-8516460D02*
X982086Y-8525984D01*
X982086Y-8525984D02*
X963039Y-8525984D01*
X963039Y-8525984D02*
X943991Y-8516460D01*
X943991Y-8516460D02*
X934467Y-8506936D01*
X934467Y-8506936D02*
X924943Y-8487889D01*
X924943Y-8487889D02*
X915420Y-8449793D01*
X915420Y-8449793D02*
X915420Y-8402174D01*
X915420Y-8402174D02*
X924943Y-8364079D01*
X924943Y-8364079D02*
X934467Y-8345031D01*
X934467Y-8345031D02*
X943991Y-8335508D01*
X943991Y-8335508D02*
X963039Y-8325984D01*
X1115420Y-8525984D02*
X1115420Y-8392650D01*
X1115420Y-8411698D02*
X1124944Y-8402174D01*
X1124944Y-8402174D02*
X1143991Y-8392650D01*
X1143991Y-8392650D02*
X1172563Y-8392650D01*
X1172563Y-8392650D02*
X1191610Y-8402174D01*
X1191610Y-8402174D02*
X1201134Y-8421222D01*
X1201134Y-8421222D02*
X1201134Y-8525984D01*
X1201134Y-8421222D02*
X1210658Y-8402174D01*
X1210658Y-8402174D02*
X1229705Y-8392650D01*
X1229705Y-8392650D02*
X1258277Y-8392650D01*
X1258277Y-8392650D02*
X1277325Y-8402174D01*
X1277325Y-8402174D02*
X1286848Y-8421222D01*
X1286848Y-8421222D02*
X1286848Y-8525984D01*
X1382086Y-8525984D02*
X1382086Y-8392650D01*
X1382086Y-8411698D02*
X1391610Y-8402174D01*
X1391610Y-8402174D02*
X1410658Y-8392650D01*
X1410658Y-8392650D02*
X1439229Y-8392650D01*
X1439229Y-8392650D02*
X1458277Y-8402174D01*
X1458277Y-8402174D02*
X1467801Y-8421222D01*
X1467801Y-8421222D02*
X1467801Y-8525984D01*
X1467801Y-8421222D02*
X1477324Y-8402174D01*
X1477324Y-8402174D02*
X1496372Y-8392650D01*
X1496372Y-8392650D02*
X1524943Y-8392650D01*
X1524943Y-8392650D02*
X1543991Y-8402174D01*
X1543991Y-8402174D02*
X1553515Y-8421222D01*
X1553515Y-8421222D02*
X1553515Y-8525984D01*
X1943991Y-8316460D02*
X1772563Y-8573603D01*
X2201134Y-8325984D02*
X2220182Y-8325984D01*
X2220182Y-8325984D02*
X2239229Y-8335508D01*
X2239229Y-8335508D02*
X2248753Y-8345031D01*
X2248753Y-8345031D02*
X2258277Y-8364079D01*
X2258277Y-8364079D02*
X2267801Y-8402174D01*
X2267801Y-8402174D02*
X2267801Y-8449793D01*
X2267801Y-8449793D02*
X2258277Y-8487889D01*
X2258277Y-8487889D02*
X2248753Y-8506936D01*
X2248753Y-8506936D02*
X2239229Y-8516460D01*
X2239229Y-8516460D02*
X2220182Y-8525984D01*
X2220182Y-8525984D02*
X2201134Y-8525984D01*
X2201134Y-8525984D02*
X2182087Y-8516460D01*
X2182087Y-8516460D02*
X2172563Y-8506936D01*
X2172563Y-8506936D02*
X2163039Y-8487889D01*
X2163039Y-8487889D02*
X2153515Y-8449793D01*
X2153515Y-8449793D02*
X2153515Y-8402174D01*
X2153515Y-8402174D02*
X2163039Y-8364079D01*
X2163039Y-8364079D02*
X2172563Y-8345031D01*
X2172563Y-8345031D02*
X2182087Y-8335508D01*
X2182087Y-8335508D02*
X2201134Y-8325984D01*
X2353515Y-8506936D02*
X2363039Y-8516460D01*
X2363039Y-8516460D02*
X2353515Y-8525984D01*
X2353515Y-8525984D02*
X2343991Y-8516460D01*
X2343991Y-8516460D02*
X2353515Y-8506936D01*
X2353515Y-8506936D02*
X2353515Y-8525984D01*
X2553515Y-8525984D02*
X2439229Y-8525984D01*
X2496372Y-8525984D02*
X2496372Y-8325984D01*
X2496372Y-8325984D02*
X2477325Y-8354555D01*
X2477325Y-8354555D02*
X2458277Y-8373603D01*
X2458277Y-8373603D02*
X2439229Y-8383127D01*
X2629706Y-8345031D02*
X2639229Y-8335508D01*
X2639229Y-8335508D02*
X2658277Y-8325984D01*
X2658277Y-8325984D02*
X2705896Y-8325984D01*
X2705896Y-8325984D02*
X2724944Y-8335508D01*
X2724944Y-8335508D02*
X2734468Y-8345031D01*
X2734468Y-8345031D02*
X2743991Y-8364079D01*
X2743991Y-8364079D02*
X2743991Y-8383127D01*
X2743991Y-8383127D02*
X2734468Y-8411698D01*
X2734468Y-8411698D02*
X2620182Y-8525984D01*
X2620182Y-8525984D02*
X2743991Y-8525984D01*
X2915420Y-8325984D02*
X2877325Y-8325984D01*
X2877325Y-8325984D02*
X2858277Y-8335508D01*
X2858277Y-8335508D02*
X2848753Y-8345031D01*
X2848753Y-8345031D02*
X2829706Y-8373603D01*
X2829706Y-8373603D02*
X2820182Y-8411698D01*
X2820182Y-8411698D02*
X2820182Y-8487889D01*
X2820182Y-8487889D02*
X2829706Y-8506936D01*
X2829706Y-8506936D02*
X2839229Y-8516460D01*
X2839229Y-8516460D02*
X2858277Y-8525984D01*
X2858277Y-8525984D02*
X2896372Y-8525984D01*
X2896372Y-8525984D02*
X2915420Y-8516460D01*
X2915420Y-8516460D02*
X2924944Y-8506936D01*
X2924944Y-8506936D02*
X2934467Y-8487889D01*
X2934467Y-8487889D02*
X2934467Y-8440270D01*
X2934467Y-8440270D02*
X2924944Y-8421222D01*
X2924944Y-8421222D02*
X2915420Y-8411698D01*
X2915420Y-8411698D02*
X2896372Y-8402174D01*
X2896372Y-8402174D02*
X2858277Y-8402174D01*
X2858277Y-8402174D02*
X2839229Y-8411698D01*
X2839229Y-8411698D02*
X2829706Y-8421222D01*
X2829706Y-8421222D02*
X2820182Y-8440270D01*
X3058277Y-8325984D02*
X3077325Y-8325984D01*
X3077325Y-8325984D02*
X3096372Y-8335508D01*
X3096372Y-8335508D02*
X3105896Y-8345031D01*
X3105896Y-8345031D02*
X3115420Y-8364079D01*
X3115420Y-8364079D02*
X3124944Y-8402174D01*
X3124944Y-8402174D02*
X3124944Y-8449793D01*
X3124944Y-8449793D02*
X3115420Y-8487889D01*
X3115420Y-8487889D02*
X3105896Y-8506936D01*
X3105896Y-8506936D02*
X3096372Y-8516460D01*
X3096372Y-8516460D02*
X3077325Y-8525984D01*
X3077325Y-8525984D02*
X3058277Y-8525984D01*
X3058277Y-8525984D02*
X3039229Y-8516460D01*
X3039229Y-8516460D02*
X3029706Y-8506936D01*
X3029706Y-8506936D02*
X3020182Y-8487889D01*
X3020182Y-8487889D02*
X3010658Y-8449793D01*
X3010658Y-8449793D02*
X3010658Y-8402174D01*
X3010658Y-8402174D02*
X3020182Y-8364079D01*
X3020182Y-8364079D02*
X3029706Y-8345031D01*
X3029706Y-8345031D02*
X3039229Y-8335508D01*
X3039229Y-8335508D02*
X3058277Y-8325984D01*
X3201134Y-8325984D02*
X3201134Y-8364079D01*
X3277325Y-8325984D02*
X3277325Y-8364079D01*
X3572563Y-8602174D02*
X3563039Y-8592650D01*
X3563039Y-8592650D02*
X3543991Y-8564079D01*
X3543991Y-8564079D02*
X3534468Y-8545031D01*
X3534468Y-8545031D02*
X3524944Y-8516460D01*
X3524944Y-8516460D02*
X3515420Y-8468841D01*
X3515420Y-8468841D02*
X3515420Y-8430746D01*
X3515420Y-8430746D02*
X3524944Y-8383127D01*
X3524944Y-8383127D02*
X3534468Y-8354555D01*
X3534468Y-8354555D02*
X3543991Y-8335508D01*
X3543991Y-8335508D02*
X3563039Y-8306936D01*
X3563039Y-8306936D02*
X3572563Y-8297412D01*
X3734468Y-8392650D02*
X3734468Y-8525984D01*
X3686848Y-8316460D02*
X3639229Y-8459317D01*
X3639229Y-8459317D02*
X3763039Y-8459317D01*
X3991610Y-8525984D02*
X3991610Y-8325984D01*
X4077325Y-8525984D02*
X4077325Y-8421222D01*
X4077325Y-8421222D02*
X4067801Y-8402174D01*
X4067801Y-8402174D02*
X4048753Y-8392650D01*
X4048753Y-8392650D02*
X4020182Y-8392650D01*
X4020182Y-8392650D02*
X4001134Y-8402174D01*
X4001134Y-8402174D02*
X3991610Y-8411698D01*
X4201134Y-8525984D02*
X4182087Y-8516460D01*
X4182087Y-8516460D02*
X4172563Y-8506936D01*
X4172563Y-8506936D02*
X4163039Y-8487889D01*
X4163039Y-8487889D02*
X4163039Y-8430746D01*
X4163039Y-8430746D02*
X4172563Y-8411698D01*
X4172563Y-8411698D02*
X4182087Y-8402174D01*
X4182087Y-8402174D02*
X4201134Y-8392650D01*
X4201134Y-8392650D02*
X4229706Y-8392650D01*
X4229706Y-8392650D02*
X4248753Y-8402174D01*
X4248753Y-8402174D02*
X4258277Y-8411698D01*
X4258277Y-8411698D02*
X4267801Y-8430746D01*
X4267801Y-8430746D02*
X4267801Y-8487889D01*
X4267801Y-8487889D02*
X4258277Y-8506936D01*
X4258277Y-8506936D02*
X4248753Y-8516460D01*
X4248753Y-8516460D02*
X4229706Y-8525984D01*
X4229706Y-8525984D02*
X4201134Y-8525984D01*
X4382087Y-8525984D02*
X4363039Y-8516460D01*
X4363039Y-8516460D02*
X4353515Y-8497412D01*
X4353515Y-8497412D02*
X4353515Y-8325984D01*
X4534468Y-8516460D02*
X4515420Y-8525984D01*
X4515420Y-8525984D02*
X4477325Y-8525984D01*
X4477325Y-8525984D02*
X4458277Y-8516460D01*
X4458277Y-8516460D02*
X4448753Y-8497412D01*
X4448753Y-8497412D02*
X4448753Y-8421222D01*
X4448753Y-8421222D02*
X4458277Y-8402174D01*
X4458277Y-8402174D02*
X4477325Y-8392650D01*
X4477325Y-8392650D02*
X4515420Y-8392650D01*
X4515420Y-8392650D02*
X4534468Y-8402174D01*
X4534468Y-8402174D02*
X4543992Y-8421222D01*
X4543992Y-8421222D02*
X4543992Y-8440270D01*
X4543992Y-8440270D02*
X4448753Y-8459317D01*
X4620182Y-8516460D02*
X4639230Y-8525984D01*
X4639230Y-8525984D02*
X4677325Y-8525984D01*
X4677325Y-8525984D02*
X4696373Y-8516460D01*
X4696373Y-8516460D02*
X4705896Y-8497412D01*
X4705896Y-8497412D02*
X4705896Y-8487889D01*
X4705896Y-8487889D02*
X4696373Y-8468841D01*
X4696373Y-8468841D02*
X4677325Y-8459317D01*
X4677325Y-8459317D02*
X4648753Y-8459317D01*
X4648753Y-8459317D02*
X4629706Y-8449793D01*
X4629706Y-8449793D02*
X4620182Y-8430746D01*
X4620182Y-8430746D02*
X4620182Y-8421222D01*
X4620182Y-8421222D02*
X4629706Y-8402174D01*
X4629706Y-8402174D02*
X4648753Y-8392650D01*
X4648753Y-8392650D02*
X4677325Y-8392650D01*
X4677325Y-8392650D02*
X4696373Y-8402174D01*
X4772563Y-8602174D02*
X4782087Y-8592650D01*
X4782087Y-8592650D02*
X4801134Y-8564079D01*
X4801134Y-8564079D02*
X4810658Y-8545031D01*
X4810658Y-8545031D02*
X4820182Y-8516460D01*
X4820182Y-8516460D02*
X4829706Y-8468841D01*
X4829706Y-8468841D02*
X4829706Y-8430746D01*
X4829706Y-8430746D02*
X4820182Y-8383127D01*
X4820182Y-8383127D02*
X4810658Y-8354555D01*
X4810658Y-8354555D02*
X4801134Y-8335508D01*
X4801134Y-8335508D02*
X4782087Y-8306936D01*
X4782087Y-8306936D02*
X4772563Y-8297412D01*
M02*
